M48
; DRILL file {KiCad 9.0.0} date 2026-02-28T00:59:34-0500
; FORMAT={-:-/ absolute / inch / decimal}
; #@! TF.CreationDate,2026-02-28T00:59:34-05:00
; #@! TF.GenerationSoftware,Kicad,Pcbnew,9.0.0
; #@! TF.FileFunction,Plated,1,4,PTH
FMAT,2
INCH
; #@! TA.AperFunction,Plated,PTH,ViaDrill
T1C0.0118
; #@! TA.AperFunction,Plated,PTH,ComponentDrill
T2C0.0236
; #@! TA.AperFunction,Plated,PTH,ComponentDrill
T3C0.0276
; #@! TA.AperFunction,Plated,PTH,ComponentDrill
T4C0.0287
; #@! TA.AperFunction,Plated,PTH,ComponentDrill
T5C0.0295
; #@! TA.AperFunction,Plated,PTH,ComponentDrill
T6C0.0394
; #@! TA.AperFunction,Plated,PTH,ComponentDrill
T7C0.0709
; #@! TA.AperFunction,Plated,PTH,ComponentDrill
T8C0.0787
%
G90
G05
T1
X0.4297Y2.8976
X0.4297Y1.4429
X0.4504Y3.8819
X0.4524Y2.9327
X0.4524Y2.1169
X0.4638Y1.6882
X0.4898Y3.7181
X0.4917Y1.3484
X0.4988Y2.8039
X0.4988Y2.3445
X0.5327Y3.6091
X0.5358Y1.6087
X0.6343Y3.2421
X0.6343Y2.8976
X0.6504Y3.7713
X0.6614Y3.0951
X0.6614Y3.0616
X0.665Y3.1378
X0.6744Y3.2098
X0.6744Y3.1764
X0.7016Y3.2681
X0.7016Y3.0433
X0.7031Y2.7713
X0.7063Y2.6346
X0.728Y3.0098
X0.7339Y2.8598
X0.7378Y2.8224
X0.7614Y3.0433
X0.7614Y1.8858
X0.7965Y2.9941
X0.7965Y2.9327
X0.7969Y3.8181
X0.8067Y2.3701
X0.824Y3.3181
X0.824Y2.4067
X0.8472Y3.7181
X0.8492Y3.3681
X0.8492Y2.3744
X0.8492Y1.6409
X0.8709Y1.137
X0.8756Y3.3272
X0.8756Y2.8114
X0.8953Y3.3642
X0.9094Y3.2866
X0.9094Y2.8492
X0.922Y2.7374
X0.9366Y3.252
X0.9445Y1.061
X0.9445Y0.9921
X0.9496Y2.2854
X0.965Y1.4783
X0.9768Y3.4591
X0.9772Y3.5142
X0.9776Y3.5689
X0.9858Y3.389
X0.9858Y2.1972
X0.9858Y0.5988
X0.9862Y0.839
X1.0154Y3.252
X1.0161Y3.2051
X1.0232Y1.061
X1.0232Y0.9921
X1.0232Y0.9291
X1.0291Y1.6461
X1.0319Y3.5146
X1.0323Y3.4591
X1.0327Y3.5689
X1.035Y3.3898
X1.0535Y2.9953
X1.0567Y0.7949
X1.0567Y0.6575
X1.0657Y1.6461
X1.0665Y3.2343
X1.0669Y2.8492
X1.0823Y2.6102
X1.0827Y2.6661
X1.0878Y3.5146
X1.0878Y3.4591
X1.0882Y3.5689
X1.0909Y3.0205
X1.0953Y2.9839
X1.098Y2.5591
X1.1059Y2.8114
X1.1094Y1.8858
X1.1094Y1.522
X1.1126Y3.4024
X1.1126Y3.2866
X1.1161Y3.1768
X1.1201Y2.5207
X1.1201Y2.4872
X1.1307Y2.9256
X1.1307Y2.8823
X1.1374Y3.6181
X1.1374Y3.3661
X1.1425Y2.6665
X1.1453Y2.6102
X1.1587Y2.1169
X1.1587Y1.5984
X1.1657Y3.6681
X1.1657Y3.3272
X1.1661Y3.2602
X1.1665Y2.4618
X1.174Y2.9252
X1.174Y2.8823
X1.1764Y1.5602
X1.186Y2.5897
X1.1874Y1.3831
X1.1874Y1.3457
X1.1902Y2.4382
X1.1917Y1.289
X1.2004Y3.2953
X1.2055Y3.6181
X1.2055Y3.4024
X1.2114Y2.826
X1.2122Y1.0106
X1.2122Y0.7949
X1.2161Y3.0571
X1.2195Y2.5897
X1.2417Y3.7181
X1.2417Y2.9914
X1.2421Y2.9339
X1.2433Y2.8547
X1.2554Y2.7021
X1.2554Y2.6686
X1.2665Y3.3264
X1.2799Y2.7402
X1.2835Y0.9795
X1.2835Y0.874
X1.2841Y2.3094
X1.2841Y1.1988
X1.2996Y0.7846
X1.3004Y2.5469
X1.3004Y2.4606
X1.3165Y3.2898
X1.3169Y0.9795
X1.3169Y0.874
X1.3175Y2.3094
X1.3175Y1.1988
X1.3441Y2.5039
X1.352Y1.6606
X1.387Y2.5472
X1.387Y2.4606
X1.3879Y2.9914
X1.4142Y2.9339
X1.4154Y1.9803
X1.4228Y2.2539
X1.4358Y2.8547
X1.4575Y2.0563
X1.4575Y1.2165
X1.4665Y0.8043
X1.4693Y3.0205
X1.4693Y2.8248
X1.4713Y2.5232
X1.4732Y2.6732
X1.4827Y1.8146
X1.487Y3.8181
X1.5035Y2.0866
X1.5043Y3.3681
X1.5079Y3.4181
X1.5106Y2.5236
X1.5201Y2.0169
X1.5409Y0.661
X1.5449Y1.8236
X1.548Y3.5181
X1.548Y2.0563
X1.5752Y0.8185
X1.5819Y3.4681
X1.5819Y1.2874
X1.5843Y3.7677
X1.5843Y3.7008
X1.5862Y3.8425
X1.6114Y2.9051
X1.6126Y1.0106
X1.6161Y1.9882
X1.6161Y1.9488
X1.6217Y2.8248
X1.6374Y3.4646
X1.6531Y1.4744
X1.6531Y1.4055
X1.6555Y1.9882
X1.6555Y1.9488
X1.663Y3.8425
X1.663Y3.7677
X1.663Y3.7008
X1.6691Y2.8069
X1.6692Y2.3138
X1.672Y3.0571
X1.6728Y2.872
X1.6728Y2.5276
X1.6728Y2.4587
X1.7016Y3.4933
X1.7016Y3.1469
X1.7079Y2.0307
X1.7106Y0.9634
X1.7122Y3.0984
X1.7236Y1.9
X1.7319Y1.4744
X1.7319Y1.4055
X1.7417Y3.8425
X1.7417Y3.7717
X1.7417Y3.7008
X1.7508Y3.3264
X1.7516Y2.872
X1.7516Y2.5276
X1.7516Y2.4587
X1.7713Y2.3744
X1.7713Y1.4083
X1.7823Y0.6719
X1.8051Y2.1102
X1.8055Y1.9248
X1.8114Y1.5602
X1.8114Y1.1394
X1.8205Y3.8386
X1.8205Y3.7717
X1.8205Y3.7008
X1.8256Y2.3083
X1.8295Y3.2343
X1.8295Y2.835
X1.8295Y2.5358
X1.8303Y1.8681
X1.8303Y1.8287
X1.8303Y1.7894
X1.8303Y1.75
X1.8303Y1.7106
X1.8303Y1.6713
X1.8303Y1.6319
X1.8455Y2.1417
X1.8455Y1.9
X1.8461Y2.2244
X1.8535Y2.2713
X1.8606Y1.4791
X1.8656Y2.8061
X1.8858Y2.1972
X1.8858Y1.5602
X1.8972Y0.5866
X1.898Y1.4429
X1.898Y0.6654
X1.9083Y3.4736
X1.9083Y3.2898
X1.9083Y3.1768
X1.9083Y2.839
X1.9091Y3.2362
X1.926Y3.6945
X1.9264Y3.8406
X1.9331Y2.0516
X1.9543Y1.9346
X1.9642Y0.7126
X1.965Y2.4925
X1.9654Y1.0614
X1.9772Y1.1736
X1.9827Y2.4067
X1.9827Y1.4791
X1.987Y3.2051
X1.9878Y3.2913
X1.9878Y1.248
X1.989Y1.2874
X1.9988Y0.6654
X2.002Y1.1394
X2.0114Y1.7677
X2.015Y1.2165
X2.0173Y3.8858
X2.028Y3.2602
X2.028Y2.839
X2.028Y2.4492
X2.0358Y2.2008
X2.037Y3.689
X2.0382Y1.5984
X2.0382Y1.522
X2.039Y2.3976
X2.0469Y3.8366
X2.0469Y3.7874
X2.0469Y3.7382
X2.0657Y3.5398
X2.0693Y3.3681
X2.0693Y1.9591
X2.078Y1.8618
X2.0783Y1.7677
X2.0941Y3.3307
X2.1232Y3.4181
X2.1232Y2.3681
X2.161Y2.9055
X2.161Y2.7953
X2.161Y2.685
X2.161Y2.5709
X2.161Y2.4567
X2.1886Y3.1469
X2.1886Y1.0335
X2.1945Y3.7776
X2.1945Y3.7283
X2.1945Y3.6791
T3
X1.1854Y0.6496
X1.413Y0.6496
T4
X1.1531Y1.0945
X1.2122Y1.0945
X1.2713Y1.0945
X1.3303Y1.0945
X1.3894Y1.0945
X1.4484Y1.0945
X2.1315Y1.3287
X2.1315Y1.2697
X2.1315Y1.2106
X2.1315Y1.1516
X2.1315Y1.0925
X2.1315Y1.0335
T5
X1.6941Y0.489
X1.7531Y0.489
X1.8122Y0.489
X1.8713Y0.489
X2.1276Y1.6713
X2.1276Y1.6122
X2.1276Y1.5531
X2.1276Y1.4941
T6
X0.4665Y3.4283
X0.4665Y3.3283
X0.4665Y3.2283
X0.4665Y3.1283
X0.4665Y3.0283
X0.5665Y3.4283
X0.5665Y3.3283
X0.5665Y3.2283
X0.5665Y3.1283
X0.5665Y3.0283
X2.0689Y0.8654
X2.0689Y0.7654
X2.0689Y0.6654
X2.0689Y0.5654
X2.0689Y0.4654
X2.1689Y0.8654
X2.1689Y0.7654
X2.1689Y0.6654
X2.1689Y0.5654
X2.1689Y0.4654
T7
X0.6917Y0.5988
T8
X0.6917Y0.776
T2
G00X1.1291Y0.6882
M15
G01X1.1291Y0.6528
M16
G05
G00X1.1291Y0.5165
M15
G01X1.1291Y0.4929
M16
G05
G00X1.4693Y0.6882
M15
G01X1.4693Y0.6528
M16
G05
G00X1.4693Y0.5165
M15
G01X1.4693Y0.4929
M16
G05
M30
