%TF.GenerationSoftware,KiCad,Pcbnew,9.0.0*%
%TF.CreationDate,Date%
%TF.ProjectId,IndustrialSense,496e6475-7374-4726-9961-6c53656e7365,+ (Unreleased)*%
%TF.SameCoordinates,Original*%
%TF.FileFunction,Legend,Top*%
%TF.FilePolarity,Positive*%
%FSLAX46Y46*%
G04 Gerber Fmt 4.6, Leading zero omitted, Abs format (unit mm)*
G04 Created by KiCad*
%MOMM*%
%LPD*%
G01*
G04 APERTURE LIST*
G04 Aperture macros list*
%AMRoundRect*
0 Rectangle with rounded corners*
0 $1 Rounding radius*
0 $2 $3 $4 $5 $6 $7 $8 $9 X,Y pos of 4 corners*
0 Add a 4 corners polygon primitive as box body*
4,1,4,$2,$3,$4,$5,$6,$7,$8,$9,$2,$3,0*
0 Add four circle primitives for the rounded corners*
1,1,$1+$1,$2,$3*
1,1,$1+$1,$4,$5*
1,1,$1+$1,$6,$7*
1,1,$1+$1,$8,$9*
0 Add four rect primitives between the rounded corners*
20,1,$1+$1,$2,$3,$4,$5,0*
20,1,$1+$1,$4,$5,$6,$7,0*
20,1,$1+$1,$6,$7,$8,$9,0*
20,1,$1+$1,$8,$9,$2,$3,0*%
%AMFreePoly0*
4,1,32,0.218269,0.252388,0.253624,0.237743,0.300620,0.197604,0.307743,0.183624,0.322388,0.148269,0.330000,0.110000,0.330000,0.030000,0.322388,-0.008269,0.307743,-0.043624,0.281544,-0.080315,0.276886,-0.084428,0.272091,-0.088403,0.092091,-0.228403,0.063150,-0.244056,0.032453,-0.254588,0.000000,-0.260000,-0.180000,-0.260000,-0.218269,-0.252388,-0.253624,-0.237743,-0.300620,-0.197604,
-0.307743,-0.183624,-0.322388,-0.148269,-0.330000,-0.110000,-0.330000,0.110000,-0.322388,0.148269,-0.307743,0.183624,-0.267604,0.230620,-0.253624,0.237743,-0.218269,0.252388,-0.180000,0.260000,0.180000,0.260000,0.218269,0.252388,0.218269,0.252388,$1*%
%AMFreePoly1*
4,1,32,0.032453,0.244588,0.063150,0.234056,0.092091,0.218403,0.272091,0.078403,0.297625,0.048900,0.316542,0.015634,0.329421,-0.027586,0.329807,-0.033788,0.330000,-0.040000,0.330000,-0.120000,0.322388,-0.158269,0.307743,-0.193624,0.267604,-0.240620,0.253624,-0.247743,0.218269,-0.262388,0.180000,-0.270000,-0.180000,-0.270000,-0.218269,-0.262388,-0.253624,-0.247743,-0.300620,-0.207604,
-0.307743,-0.193624,-0.322388,-0.158269,-0.330000,-0.120000,-0.330000,0.100000,-0.322388,0.138269,-0.307743,0.173624,-0.267604,0.220620,-0.253624,0.227743,-0.218269,0.242388,-0.180000,0.250000,0.000000,0.250000,0.032453,0.244588,0.032453,0.244588,$1*%
%AMFreePoly2*
4,1,32,0.218269,0.242388,0.253624,0.227743,0.300620,0.187604,0.307743,0.173624,0.322388,0.138269,0.330000,0.100000,0.330000,-0.120000,0.322388,-0.158269,0.307743,-0.193624,0.267604,-0.240620,0.253624,-0.247743,0.218269,-0.262388,0.180000,-0.270000,-0.180000,-0.270000,-0.218269,-0.262388,-0.253624,-0.247743,-0.300620,-0.207604,-0.307743,-0.193624,-0.322388,-0.158269,-0.330000,-0.120000,
-0.330000,-0.040000,-0.322388,-0.001731,-0.307743,0.033624,-0.281544,0.070315,-0.276886,0.074428,-0.272091,0.078403,-0.092091,0.218403,-0.063150,0.234056,-0.032453,0.244588,0.000000,0.250000,0.180000,0.250000,0.218269,0.242388,0.218269,0.242388,$1*%
%AMFreePoly3*
4,1,32,0.218269,0.252388,0.253624,0.237743,0.300620,0.197604,0.307743,0.183624,0.322388,0.148269,0.330000,0.110000,0.330000,-0.110000,0.322388,-0.148269,0.307743,-0.183624,0.267604,-0.230620,0.253624,-0.237743,0.218269,-0.252388,0.180000,-0.260000,0.000000,-0.260000,-0.032453,-0.254588,-0.063150,-0.244056,-0.092091,-0.228403,-0.272091,-0.088403,-0.297625,-0.058900,-0.316542,-0.025634,
-0.329421,0.017586,-0.329807,0.023788,-0.330000,0.030000,-0.330000,0.110000,-0.322388,0.148269,-0.307743,0.183624,-0.267604,0.230620,-0.253624,0.237743,-0.218269,0.252388,-0.180000,0.260000,0.180000,0.260000,0.218269,0.252388,0.218269,0.252388,$1*%
G04 Aperture macros list end*
%ADD10C,0.200000*%
%ADD11C,0.100000*%
%ADD12C,0.150000*%
%ADD13C,0.300000*%
%ADD14C,0.120000*%
%ADD15C,0.250000*%
%ADD16C,0.130000*%
%ADD17C,0.400000*%
%ADD18C,0.050000*%
%ADD19C,0.700000*%
%ADD20RoundRect,0.100000X-0.265000X-0.535000X0.265000X-0.535000X0.265000X0.535000X-0.265000X0.535000X0*%
%ADD21RoundRect,0.100000X1.750000X0.600000X-1.750000X0.600000X-1.750000X-0.600000X1.750000X-0.600000X0*%
%ADD22RoundRect,0.185000X0.235000X-0.185000X0.235000X0.185000X-0.235000X0.185000X-0.235000X-0.185000X0*%
%ADD23C,2.000000*%
%ADD24C,2.200000*%
%ADD25RoundRect,0.100000X1.400000X-1.400000X1.400000X1.400000X-1.400000X1.400000X-1.400000X-1.400000X0*%
%ADD26RoundRect,0.298543X0.316457X0.666457X-0.316457X0.666457X-0.316457X-0.666457X0.316457X-0.666457X0*%
%ADD27O,1.230000X1.930000*%
%ADD28RoundRect,0.185000X-0.235000X0.185000X-0.235000X-0.185000X0.235000X-0.185000X0.235000X0.185000X0*%
%ADD29RoundRect,0.293478X-0.381522X-1.156522X0.381522X-1.156522X0.381522X1.156522X-0.381522X1.156522X0*%
%ADD30RoundRect,0.100000X-1.750000X0.350000X-1.750000X-0.350000X1.750000X-0.350000X1.750000X0.350000X0*%
%ADD31RoundRect,0.100000X-1.150000X0.750000X-1.150000X-0.750000X1.150000X-0.750000X1.150000X0.750000X0*%
%ADD32RoundRect,0.250000X-0.250000X-0.325000X0.250000X-0.325000X0.250000X0.325000X-0.250000X0.325000X0*%
%ADD33RoundRect,0.293478X0.381522X1.156522X-0.381522X1.156522X-0.381522X-1.156522X0.381522X-1.156522X0*%
%ADD34RoundRect,0.100000X-0.265000X-0.520000X0.265000X-0.520000X0.265000X0.520000X-0.265000X0.520000X0*%
%ADD35RoundRect,0.100000X-0.400000X-1.000000X0.400000X-1.000000X0.400000X1.000000X-0.400000X1.000000X0*%
%ADD36RoundRect,0.100000X0.400000X-1.000000X0.400000X1.000000X-0.400000X1.000000X-0.400000X-1.000000X0*%
%ADD37RoundRect,0.250000X0.250000X0.325000X-0.250000X0.325000X-0.250000X-0.325000X0.250000X-0.325000X0*%
%ADD38O,0.480000X1.000000*%
%ADD39O,1.000000X0.480000*%
%ADD40RoundRect,0.100000X-0.800000X0.800000X-0.800000X-0.800000X0.800000X-0.800000X0.800000X0.800000X0*%
%ADD41C,0.900000*%
%ADD42RoundRect,0.100000X-0.275000X-0.550000X0.275000X-0.550000X0.275000X0.550000X-0.275000X0.550000X0*%
%ADD43RoundRect,0.100000X-0.150000X-0.550000X0.150000X-0.550000X0.150000X0.550000X-0.150000X0.550000X0*%
%ADD44O,1.300000X2.200000*%
%ADD45O,1.400000X2.000000*%
%ADD46RoundRect,0.190000X0.190000X0.220000X-0.190000X0.220000X-0.190000X-0.220000X0.190000X-0.220000X0*%
%ADD47RoundRect,0.200000X-0.200000X0.637500X-0.200000X-0.637500X0.200000X-0.637500X0.200000X0.637500X0*%
%ADD48RoundRect,0.185000X0.185000X0.235000X-0.185000X0.235000X-0.185000X-0.235000X0.185000X-0.235000X0*%
%ADD49RoundRect,0.100000X-0.550000X0.310000X-0.550000X-0.310000X0.550000X-0.310000X0.550000X0.310000X0*%
%ADD50RoundRect,0.190000X0.220000X-0.190000X0.220000X0.190000X-0.220000X0.190000X-0.220000X-0.190000X0*%
%ADD51RoundRect,0.100000X0.205000X-0.495000X0.205000X0.495000X-0.205000X0.495000X-0.205000X-0.495000X0*%
%ADD52RoundRect,0.100000X1.115000X-0.860000X1.115000X0.860000X-1.115000X0.860000X-1.115000X-0.860000X0*%
%ADD53RoundRect,0.190000X-0.190000X-0.220000X0.190000X-0.220000X0.190000X0.220000X-0.190000X0.220000X0*%
%ADD54RoundRect,0.100000X0.415000X-0.315000X0.415000X0.315000X-0.415000X0.315000X-0.415000X-0.315000X0*%
%ADD55RoundRect,0.185000X-0.185000X-0.235000X0.185000X-0.235000X0.185000X0.235000X-0.185000X0.235000X0*%
%ADD56RoundRect,0.100000X0.500000X-1.750000X0.500000X1.750000X-0.500000X1.750000X-0.500000X-1.750000X0*%
%ADD57RoundRect,0.100000X-1.650000X1.000000X-1.650000X-1.000000X1.650000X-1.000000X1.650000X1.000000X0*%
%ADD58RoundRect,0.275000X-0.275000X-0.300000X0.275000X-0.300000X0.275000X0.300000X-0.275000X0.300000X0*%
%ADD59RoundRect,0.100000X-0.600000X1.500000X-0.600000X-1.500000X0.600000X-1.500000X0.600000X1.500000X0*%
%ADD60RoundRect,0.100000X-0.600000X1.200000X-0.600000X-1.200000X0.600000X-1.200000X0.600000X1.200000X0*%
%ADD61O,0.790000X2.250000*%
%ADD62RoundRect,0.250000X0.325000X-0.250000X0.325000X0.250000X-0.325000X0.250000X-0.325000X-0.250000X0*%
%ADD63RoundRect,0.275000X-0.300000X0.275000X-0.300000X-0.275000X0.300000X-0.275000X0.300000X0.275000X0*%
%ADD64RoundRect,0.300000X-0.525000X0.300000X-0.525000X-0.300000X0.525000X-0.300000X0.525000X0.300000X0*%
%ADD65RoundRect,0.100000X-0.930000X0.615000X-0.930000X-0.615000X0.930000X-0.615000X0.930000X0.615000X0*%
%ADD66RoundRect,0.100000X-0.400000X0.500000X-0.400000X-0.500000X0.400000X-0.500000X0.400000X0.500000X0*%
%ADD67RoundRect,0.100000X-0.850000X-0.850000X0.850000X-0.850000X0.850000X0.850000X-0.850000X0.850000X0*%
%ADD68O,1.900000X1.900000*%
%ADD69RoundRect,0.100000X-0.700000X-0.600000X0.700000X-0.600000X0.700000X0.600000X-0.700000X0.600000X0*%
%ADD70RoundRect,0.162500X-0.237500X-0.162500X0.237500X-0.162500X0.237500X0.162500X-0.237500X0.162500X0*%
%ADD71RoundRect,0.100000X-2.800000X0.775000X-2.800000X-0.775000X2.800000X-0.775000X2.800000X0.775000X0*%
%ADD72RoundRect,0.277778X-0.722222X1.072222X-0.722222X-1.072222X0.722222X-1.072222X0.722222X1.072222X0*%
%ADD73RoundRect,0.100000X0.535000X-0.265000X0.535000X0.265000X-0.535000X0.265000X-0.535000X-0.265000X0*%
%ADD74RoundRect,0.100000X-0.495000X-0.205000X0.495000X-0.205000X0.495000X0.205000X-0.495000X0.205000X0*%
%ADD75RoundRect,0.100000X-0.860000X-1.115000X0.860000X-1.115000X0.860000X1.115000X-0.860000X1.115000X0*%
%ADD76RoundRect,0.100000X0.750000X-0.250000X0.750000X0.250000X-0.750000X0.250000X-0.750000X-0.250000X0*%
%ADD77RoundRect,0.100000X0.700000X-0.650000X0.700000X0.650000X-0.700000X0.650000X-0.700000X-0.650000X0*%
%ADD78RoundRect,0.100000X-0.535000X0.265000X-0.535000X-0.265000X0.535000X-0.265000X0.535000X0.265000X0*%
%ADD79O,0.770000X2.090000*%
%ADD80RoundRect,0.275000X0.300000X-0.275000X0.300000X0.275000X-0.300000X0.275000X-0.300000X-0.275000X0*%
%ADD81RoundRect,0.100000X-0.600000X0.600000X-0.600000X-0.600000X0.600000X-0.600000X0.600000X0.600000X0*%
%ADD82C,1.400000*%
%ADD83RoundRect,0.268750X0.268750X0.306250X-0.268750X0.306250X-0.268750X-0.306250X0.268750X-0.306250X0*%
%ADD84FreePoly0,180.000000*%
%ADD85FreePoly1,180.000000*%
%ADD86FreePoly2,180.000000*%
%ADD87FreePoly3,180.000000*%
%ADD88RoundRect,0.100000X0.000000X0.339411X-0.339411X0.000000X0.000000X-0.339411X0.339411X0.000000X0*%
%ADD89RoundRect,0.100000X-0.300000X-0.300000X0.300000X-0.300000X0.300000X0.300000X-0.300000X0.300000X0*%
%ADD90RoundRect,0.277778X-1.072222X-0.722222X1.072222X-0.722222X1.072222X0.722222X-1.072222X0.722222X0*%
%ADD91RoundRect,0.100000X0.450000X-0.200000X0.450000X0.200000X-0.450000X0.200000X-0.450000X-0.200000X0*%
%ADD92RoundRect,0.275000X0.275000X0.300000X-0.275000X0.300000X-0.275000X-0.300000X0.275000X-0.300000X0*%
%ADD93RoundRect,0.162500X0.237500X0.162500X-0.237500X0.162500X-0.237500X-0.162500X0.237500X-0.162500X0*%
%ADD94RoundRect,0.100000X-1.750000X-0.600000X1.750000X-0.600000X1.750000X0.600000X-1.750000X0.600000X0*%
%ADD95RoundRect,0.250000X-0.325000X0.250000X-0.325000X-0.250000X0.325000X-0.250000X0.325000X0.250000X0*%
%ADD96O,0.480000X0.900000*%
%ADD97O,0.900000X0.480000*%
%ADD98RoundRect,0.100000X-1.400000X1.400000X-1.400000X-1.400000X1.400000X-1.400000X1.400000X1.400000X0*%
%ADD99RoundRect,0.100000X-0.750000X-0.450000X0.750000X-0.450000X0.750000X0.450000X-0.750000X0.450000X0*%
%ADD100RoundRect,0.100000X0.450000X-0.750000X0.450000X0.750000X-0.450000X0.750000X-0.450000X-0.750000X0*%
%ADD101RoundRect,0.100000X0.750000X0.450000X-0.750000X0.450000X-0.750000X-0.450000X0.750000X-0.450000X0*%
%ADD102RoundRect,0.100000X0.450000X-0.450000X0.450000X0.450000X-0.450000X0.450000X-0.450000X-0.450000X0*%
%ADD103RoundRect,0.100000X-0.615000X-0.930000X0.615000X-0.930000X0.615000X0.930000X-0.615000X0.930000X0*%
%ADD104RoundRect,0.100000X-0.375000X0.125000X-0.375000X-0.125000X0.375000X-0.125000X0.375000X0.125000X0*%
%ADD105RoundRect,0.100000X-0.125000X0.375000X-0.125000X-0.375000X0.125000X-0.375000X0.125000X0.375000X0*%
%ADD106RoundRect,0.100000X-0.850000X0.850000X-0.850000X-0.850000X0.850000X-0.850000X0.850000X0.850000X0*%
%ADD107O,0.720000X2.210000*%
%ADD108RoundRect,0.190000X-0.220000X0.190000X-0.220000X-0.190000X0.220000X-0.190000X0.220000X0.190000X0*%
%ADD109RoundRect,0.100000X0.125000X-0.260000X0.125000X0.260000X-0.125000X0.260000X-0.125000X-0.260000X0*%
%ADD110RoundRect,0.100000X0.800000X-0.450000X0.800000X0.450000X-0.800000X0.450000X-0.800000X-0.450000X0*%
%ADD111RoundRect,0.298543X0.666457X-0.316457X0.666457X0.316457X-0.666457X0.316457X-0.666457X-0.316457X0*%
%ADD112O,1.930000X1.230000*%
%ADD113RoundRect,0.100000X0.600000X0.600000X-0.600000X0.600000X-0.600000X-0.600000X0.600000X-0.600000X0*%
G04 APERTURE END LIST*
D10*
G36*
X50765457Y60214628D02*
G01*
X50836380Y60198250D01*
X50891423Y60173410D01*
X50933686Y60140972D01*
X50971553Y60094135D01*
X50999323Y60038255D01*
X51016885Y59971519D01*
X51023140Y59891539D01*
X51018567Y59822692D01*
X51005722Y59764619D01*
X50985526Y59715562D01*
X50957002Y59671113D01*
X50924854Y59637765D01*
X50888867Y59613896D01*
X50847939Y59598743D01*
X50786738Y59587905D01*
X50698663Y59583671D01*
X50609881Y59583671D01*
X50609881Y60220656D01*
X50674788Y60220656D01*
X50765457Y60214628D01*
G37*
G36*
X51327630Y59015338D02*
G01*
X48719033Y59015338D01*
X48719033Y59126449D01*
X48830144Y59126449D01*
X49019310Y59126449D01*
X49019310Y59482494D01*
X49052775Y59434035D01*
X49087271Y59404214D01*
X49127129Y59386455D01*
X49171657Y59380461D01*
X49216700Y59386720D01*
X49256714Y59405252D01*
X49290916Y59436443D01*
X49324003Y59487989D01*
X49324003Y59400000D01*
X49515307Y59400000D01*
X49515307Y59595578D01*
X49604028Y59595578D01*
X49646573Y59523632D01*
X49692006Y59469186D01*
X49740315Y59429432D01*
X49795480Y59400436D01*
X49857250Y59382696D01*
X49927161Y59376553D01*
X49995002Y59381968D01*
X50053727Y59397427D01*
X50104922Y59422301D01*
X50149788Y59456726D01*
X50187198Y59499539D01*
X50213586Y59546960D01*
X50229659Y59599945D01*
X50235212Y59659875D01*
X50229040Y59721090D01*
X50210971Y59776318D01*
X50180098Y59828453D01*
X50128661Y59888120D01*
X49996099Y60002914D01*
X49891733Y60094460D01*
X49856086Y60131325D01*
X49843142Y60154763D01*
X49838989Y60178891D01*
X49844624Y60202123D01*
X49862864Y60224076D01*
X49889476Y60238856D01*
X49924352Y60244104D01*
X49959356Y60238641D01*
X49995514Y60221332D01*
X50034112Y60189419D01*
X50076027Y60138591D01*
X50168112Y60220656D01*
X50419310Y60220656D01*
X50419310Y59583671D01*
X50419310Y59400000D01*
X50649509Y59400000D01*
X50781769Y59403578D01*
X50869440Y59412537D01*
X50924099Y59424547D01*
X50974792Y59444904D01*
X51023726Y59474214D01*
X51071317Y59513329D01*
X51112745Y59558952D01*
X51148278Y59612444D01*
X51177929Y59674774D01*
X51199100Y59740670D01*
X51212074Y59811550D01*
X51216519Y59888181D01*
X51211923Y59969665D01*
X51198613Y60043776D01*
X51177083Y60111456D01*
X51147520Y60173518D01*
X51109278Y60232258D01*
X51067357Y60280547D01*
X51021693Y60319536D01*
X50971971Y60350044D01*
X50919437Y60371364D01*
X50850204Y60388475D01*
X50760500Y60400037D01*
X50646090Y60404327D01*
X50419310Y60404327D01*
X50419310Y60220656D01*
X50168112Y60220656D01*
X50217444Y60264620D01*
X50161627Y60324246D01*
X50112913Y60365736D01*
X50070226Y60392664D01*
X50023890Y60412248D01*
X49976391Y60423881D01*
X49927161Y60427774D01*
X49869888Y60422921D01*
X49818767Y60408862D01*
X49772662Y60385847D01*
X49730729Y60353464D01*
X49695330Y60313684D01*
X49670810Y60271287D01*
X49656153Y60225564D01*
X49651167Y60175472D01*
X49656185Y60128834D01*
X49671689Y60081089D01*
X49698977Y60031307D01*
X49735439Y59985451D01*
X49802062Y59919179D01*
X49910736Y59826143D01*
X49987988Y59759188D01*
X50022049Y59722340D01*
X50041359Y59687484D01*
X50047329Y59654502D01*
X50043770Y59631104D01*
X50032986Y59609419D01*
X50013867Y59588678D01*
X49990188Y59573056D01*
X49962950Y59563538D01*
X49931191Y59560224D01*
X49888980Y59567261D01*
X49848008Y59589156D01*
X49806737Y59629203D01*
X49764556Y59693092D01*
X49604028Y59595578D01*
X49515307Y59595578D01*
X49515307Y60142499D01*
X49324003Y60142499D01*
X49324003Y59759648D01*
X49318724Y59679468D01*
X49305868Y59630444D01*
X49283270Y59591479D01*
X49253295Y59563765D01*
X49216653Y59546552D01*
X49174405Y59540684D01*
X49131645Y59546914D01*
X49091362Y59565841D01*
X49057909Y59594688D01*
X49036041Y59629406D01*
X49024325Y59674023D01*
X49019310Y59754214D01*
X49019310Y60142499D01*
X48830144Y60142499D01*
X48830144Y59126449D01*
X48719033Y59126449D01*
X48719033Y60538885D01*
X51327630Y60538885D01*
X51327630Y59015338D01*
G37*
G36*
X50302150Y35097325D02*
G01*
X50336823Y35089971D01*
X50362683Y35075837D01*
X50382557Y35054922D01*
X50395269Y35028715D01*
X50399654Y34997464D01*
X50395350Y34962028D01*
X50383675Y34936233D01*
X50365155Y34917596D01*
X50340517Y34905722D01*
X50300550Y34897025D01*
X50239125Y34893539D01*
X50179042Y34893539D01*
X50179042Y35100656D01*
X50231615Y35100656D01*
X50302150Y35097325D01*
G37*
G36*
X52267667Y34712575D02*
G01*
X52319393Y34699430D01*
X52354024Y34680620D01*
X52380951Y34652930D01*
X52396941Y34619834D01*
X52402506Y34579564D01*
X52397656Y34543947D01*
X52383943Y34515795D01*
X52361168Y34493286D01*
X52331406Y34478842D01*
X52280986Y34468057D01*
X52201006Y34463671D01*
X52153196Y34463671D01*
X52153196Y34717684D01*
X52192824Y34717684D01*
X52267667Y34712575D01*
G37*
G36*
X52245308Y35097065D02*
G01*
X52276981Y35087488D01*
X52300047Y35073057D01*
X52317730Y35052794D01*
X52328413Y35028389D01*
X52332165Y34998563D01*
X52328196Y34966525D01*
X52316923Y34940428D01*
X52298337Y34918879D01*
X52274019Y34903601D01*
X52240484Y34893445D01*
X52194839Y34889631D01*
X52153196Y34889631D01*
X52153196Y35100656D01*
X52202349Y35100656D01*
X52245308Y35097065D01*
G37*
G36*
X52701501Y34145442D02*
G01*
X49876628Y34145442D01*
X49876628Y35100656D01*
X49987739Y35100656D01*
X49987739Y34893539D01*
X49987739Y34280000D01*
X50179042Y34280000D01*
X50179042Y34709868D01*
X50196749Y34709868D01*
X50422918Y34280000D01*
X50631929Y34280000D01*
X50394220Y34730751D01*
X50454779Y34758144D01*
X50495819Y34787293D01*
X50741533Y34787293D01*
X50746040Y34715689D01*
X50759403Y34647172D01*
X50781603Y34581148D01*
X50812913Y34517099D01*
X50852218Y34457560D01*
X50897441Y34405951D01*
X50948836Y34361630D01*
X51006903Y34324208D01*
X51069265Y34295030D01*
X51136108Y34273933D01*
X51208100Y34260990D01*
X51286011Y34256553D01*
X51381839Y34263812D01*
X51466114Y34284645D01*
X51540757Y34318286D01*
X51607983Y34365061D01*
X51666793Y34424328D01*
X51717711Y34497499D01*
X51755926Y34577977D01*
X51778497Y34660398D01*
X51786038Y34745955D01*
X51784694Y34788026D01*
X51279173Y34788026D01*
X51279173Y34608263D01*
X51570188Y34608263D01*
X51538285Y34553875D01*
X51501774Y34512022D01*
X51460523Y34480890D01*
X51413587Y34458936D01*
X51358488Y34445116D01*
X51293522Y34440224D01*
X51219043Y34446771D01*
X51152457Y34465773D01*
X51092247Y34496982D01*
X51037311Y34541096D01*
X50991532Y34594860D01*
X50959481Y34653059D01*
X50940135Y34716716D01*
X50933508Y34787293D01*
X50939892Y34855537D01*
X50958539Y34917195D01*
X50989443Y34973663D01*
X51033586Y35025918D01*
X51086565Y35068830D01*
X51144808Y35099205D01*
X51209403Y35117718D01*
X51281859Y35124104D01*
X51347835Y35118713D01*
X51409794Y35102775D01*
X51468653Y35076191D01*
X51525132Y35038267D01*
X51579713Y34987755D01*
X51694647Y35100656D01*
X51961953Y35100656D01*
X51961953Y34889631D01*
X51961953Y34717684D01*
X51961953Y34463671D01*
X51961953Y34280000D01*
X52243382Y34280000D01*
X52324274Y34284477D01*
X52386586Y34296497D01*
X52433953Y34314378D01*
X52476836Y34340997D01*
X52514262Y34375371D01*
X52546671Y34418303D01*
X52570922Y34466201D01*
X52585458Y34517224D01*
X52590390Y34572298D01*
X52585443Y34629598D01*
X52571201Y34679908D01*
X52548014Y34724522D01*
X52516024Y34763419D01*
X52472175Y34799211D01*
X52414169Y34831867D01*
X52462520Y34875860D01*
X52493060Y34919795D01*
X52511112Y34968794D01*
X52517301Y35024208D01*
X52511228Y35081160D01*
X52493517Y35131782D01*
X52463995Y35177532D01*
X52425001Y35215848D01*
X52377677Y35245469D01*
X52320563Y35266558D01*
X52247839Y35279015D01*
X52119734Y35284327D01*
X51961953Y35284327D01*
X51961953Y35100656D01*
X51694647Y35100656D01*
X51714291Y35119952D01*
X51649514Y35181872D01*
X51586842Y35227713D01*
X51525736Y35259659D01*
X51448429Y35286220D01*
X51366958Y35302312D01*
X51280516Y35307774D01*
X51181407Y35300382D01*
X51092649Y35279006D01*
X51012545Y35244248D01*
X50939751Y35195886D01*
X50873363Y35132897D01*
X50825508Y35071449D01*
X50788881Y35006819D01*
X50762778Y34938444D01*
X50746932Y34865571D01*
X50741533Y34787293D01*
X50495819Y34787293D01*
X50501736Y34791496D01*
X50537285Y34830707D01*
X50563077Y34876886D01*
X50579130Y34931032D01*
X50584790Y34995021D01*
X50579744Y35056100D01*
X50565248Y35109629D01*
X50541742Y35156954D01*
X50509535Y35198713D01*
X50471823Y35231036D01*
X50427986Y35254835D01*
X50379190Y35269405D01*
X50303178Y35280093D01*
X50190643Y35284327D01*
X49987739Y35284327D01*
X49987739Y35100656D01*
X49876628Y35100656D01*
X49876628Y35418885D01*
X52701501Y35418885D01*
X52701501Y34145442D01*
G37*
D11*
X24893408Y28016391D02*
X25179122Y28016391D01*
X25036265Y27516391D02*
X25036265Y28016391D01*
X25345788Y27516391D02*
X25345788Y28016391D01*
X25345788Y28016391D02*
X25536264Y28016391D01*
X25536264Y28016391D02*
X25583883Y27992581D01*
X25583883Y27992581D02*
X25607693Y27968772D01*
X25607693Y27968772D02*
X25631502Y27921153D01*
X25631502Y27921153D02*
X25631502Y27849724D01*
X25631502Y27849724D02*
X25607693Y27802105D01*
X25607693Y27802105D02*
X25583883Y27778296D01*
X25583883Y27778296D02*
X25536264Y27754486D01*
X25536264Y27754486D02*
X25345788Y27754486D01*
X25798169Y28016391D02*
X26131502Y28016391D01*
X26131502Y28016391D02*
X25917217Y27516391D01*
X39813408Y17506391D02*
X40099122Y17506391D01*
X39956265Y17006391D02*
X39956265Y17506391D01*
X40265788Y17006391D02*
X40265788Y17506391D01*
X40265788Y17506391D02*
X40456264Y17506391D01*
X40456264Y17506391D02*
X40503883Y17482581D01*
X40503883Y17482581D02*
X40527693Y17458772D01*
X40527693Y17458772D02*
X40551502Y17411153D01*
X40551502Y17411153D02*
X40551502Y17339724D01*
X40551502Y17339724D02*
X40527693Y17292105D01*
X40527693Y17292105D02*
X40503883Y17268296D01*
X40503883Y17268296D02*
X40456264Y17244486D01*
X40456264Y17244486D02*
X40265788Y17244486D01*
X41027693Y17006391D02*
X40741979Y17006391D01*
X40884836Y17006391D02*
X40884836Y17506391D01*
X40884836Y17506391D02*
X40837217Y17434962D01*
X40837217Y17434962D02*
X40789598Y17387343D01*
X40789598Y17387343D02*
X40741979Y17363534D01*
D10*
G36*
X40444233Y27812575D02*
G01*
X40495960Y27799430D01*
X40530591Y27780620D01*
X40557518Y27752930D01*
X40573508Y27719834D01*
X40579073Y27679564D01*
X40574223Y27643947D01*
X40560510Y27615795D01*
X40537735Y27593286D01*
X40507973Y27578842D01*
X40457553Y27568057D01*
X40377573Y27563671D01*
X40329762Y27563671D01*
X40329762Y27817684D01*
X40369391Y27817684D01*
X40444233Y27812575D01*
G37*
G36*
X40421875Y28197065D02*
G01*
X40453548Y28187488D01*
X40476613Y28173057D01*
X40494296Y28152794D01*
X40504980Y28128389D01*
X40508731Y28098563D01*
X40504762Y28066525D01*
X40493490Y28040428D01*
X40474904Y28018879D01*
X40450586Y28003601D01*
X40417051Y27993445D01*
X40371406Y27989631D01*
X40329762Y27989631D01*
X40329762Y28200656D01*
X40378916Y28200656D01*
X40421875Y28197065D01*
G37*
G36*
X40878068Y27245442D02*
G01*
X38396844Y27245442D01*
X38396844Y27786604D01*
X38507955Y27786604D01*
X38512950Y27665728D01*
X38525550Y27584267D01*
X38542759Y27532042D01*
X38570458Y27485529D01*
X38608573Y27443858D01*
X38658531Y27406623D01*
X38714442Y27379258D01*
X38777360Y27362408D01*
X38848796Y27356553D01*
X38928881Y27363441D01*
X38994975Y27382748D01*
X39034888Y27403180D01*
X39071790Y27429942D01*
X39105983Y27463532D01*
X39147088Y27520326D01*
X39170726Y27575578D01*
X39323909Y27575578D01*
X39366454Y27503632D01*
X39411888Y27449186D01*
X39460197Y27409432D01*
X39515362Y27380436D01*
X39577131Y27362696D01*
X39647042Y27356553D01*
X39714884Y27361968D01*
X39773608Y27377427D01*
X39824803Y27402301D01*
X39869670Y27436726D01*
X39907079Y27479539D01*
X39933468Y27526960D01*
X39949540Y27579945D01*
X39955094Y27639875D01*
X39948921Y27701090D01*
X39930853Y27756318D01*
X39899979Y27808453D01*
X39848543Y27868120D01*
X39715980Y27982914D01*
X39611614Y28074460D01*
X39575968Y28111325D01*
X39563023Y28134763D01*
X39558871Y28158891D01*
X39564505Y28182123D01*
X39582745Y28204076D01*
X39609358Y28218856D01*
X39644234Y28224104D01*
X39679238Y28218641D01*
X39715395Y28201332D01*
X39753993Y28169419D01*
X39795908Y28118591D01*
X39887993Y28200656D01*
X40138520Y28200656D01*
X40138520Y27989631D01*
X40138520Y27817684D01*
X40138520Y27563671D01*
X40138520Y27380000D01*
X40419949Y27380000D01*
X40500841Y27384477D01*
X40563153Y27396497D01*
X40610519Y27414378D01*
X40653402Y27440997D01*
X40690829Y27475371D01*
X40723237Y27518303D01*
X40747489Y27566201D01*
X40762025Y27617224D01*
X40766957Y27672298D01*
X40762010Y27729598D01*
X40747768Y27779908D01*
X40724581Y27824522D01*
X40692591Y27863419D01*
X40648742Y27899211D01*
X40590736Y27931867D01*
X40639086Y27975860D01*
X40669626Y28019795D01*
X40687678Y28068794D01*
X40693867Y28124208D01*
X40687795Y28181160D01*
X40670084Y28231782D01*
X40640561Y28277532D01*
X40601568Y28315848D01*
X40554244Y28345469D01*
X40497130Y28366558D01*
X40424405Y28379015D01*
X40296301Y28384327D01*
X40138520Y28384327D01*
X40138520Y28200656D01*
X39887993Y28200656D01*
X39937325Y28244620D01*
X39881509Y28304246D01*
X39832794Y28345736D01*
X39790108Y28372664D01*
X39743771Y28392248D01*
X39696273Y28403881D01*
X39647042Y28407774D01*
X39589770Y28402921D01*
X39538649Y28388862D01*
X39492543Y28365847D01*
X39450610Y28333464D01*
X39415211Y28293684D01*
X39390692Y28251287D01*
X39376034Y28205564D01*
X39371048Y28155472D01*
X39376066Y28108834D01*
X39391570Y28061089D01*
X39418859Y28011307D01*
X39455320Y27965451D01*
X39521944Y27899179D01*
X39630617Y27806143D01*
X39707869Y27739188D01*
X39741931Y27702340D01*
X39761240Y27667484D01*
X39767210Y27634502D01*
X39763651Y27611104D01*
X39752867Y27589419D01*
X39733749Y27568678D01*
X39710069Y27553056D01*
X39682831Y27543538D01*
X39651072Y27540224D01*
X39608862Y27547261D01*
X39567889Y27569156D01*
X39526619Y27609203D01*
X39484438Y27673092D01*
X39323909Y27575578D01*
X39170726Y27575578D01*
X39171196Y27576677D01*
X39182992Y27646830D01*
X39188293Y27786604D01*
X39188293Y28384327D01*
X38996379Y28384327D01*
X38996379Y27759065D01*
X38991954Y27666311D01*
X38982336Y27622350D01*
X38963086Y27590160D01*
X38931777Y27563366D01*
X38892607Y27546239D01*
X38844705Y27540224D01*
X38799433Y27545661D01*
X38763066Y27560984D01*
X38733861Y27585465D01*
X38714523Y27616550D01*
X38704334Y27657585D01*
X38699869Y27735252D01*
X38699869Y28384327D01*
X38507955Y28384327D01*
X38507955Y27786604D01*
X38396844Y27786604D01*
X38396844Y29060000D01*
X38515465Y29060000D01*
X39063974Y29060000D01*
X39155870Y29060000D01*
X39372391Y29060000D01*
X39603628Y29413054D01*
X39834865Y29060000D01*
X40050043Y29060000D01*
X39711217Y29577307D01*
X39909938Y29880656D01*
X40095106Y29880656D01*
X40273403Y29880656D01*
X40273403Y29060000D01*
X40467454Y29060000D01*
X40467454Y29880656D01*
X40650514Y29880656D01*
X40650514Y30064327D01*
X40095106Y30064327D01*
X40095106Y29880656D01*
X39909938Y29880656D01*
X40030259Y30064327D01*
X39815081Y30064327D01*
X39603445Y29741865D01*
X39392236Y30064327D01*
X39177058Y30064327D01*
X39495734Y29577795D01*
X39155870Y29060000D01*
X39063974Y29060000D01*
X39063974Y29243671D01*
X38705364Y29243671D01*
X38705364Y29513315D01*
X39063974Y29513315D01*
X39063974Y29696986D01*
X38705364Y29696986D01*
X38705364Y29880656D01*
X39063974Y29880656D01*
X39063974Y30064327D01*
X38515465Y30064327D01*
X38515465Y29060000D01*
X38396844Y29060000D01*
X38396844Y30175438D01*
X40878068Y30175438D01*
X40878068Y27245442D01*
G37*
D11*
X32623408Y47656391D02*
X32909122Y47656391D01*
X32766265Y47156391D02*
X32766265Y47656391D01*
X33075788Y47156391D02*
X33075788Y47656391D01*
X33075788Y47656391D02*
X33266264Y47656391D01*
X33266264Y47656391D02*
X33313883Y47632581D01*
X33313883Y47632581D02*
X33337693Y47608772D01*
X33337693Y47608772D02*
X33361502Y47561153D01*
X33361502Y47561153D02*
X33361502Y47489724D01*
X33361502Y47489724D02*
X33337693Y47442105D01*
X33337693Y47442105D02*
X33313883Y47418296D01*
X33313883Y47418296D02*
X33266264Y47394486D01*
X33266264Y47394486D02*
X33075788Y47394486D01*
X33528169Y47656391D02*
X33837693Y47656391D01*
X33837693Y47656391D02*
X33671026Y47465915D01*
X33671026Y47465915D02*
X33742455Y47465915D01*
X33742455Y47465915D02*
X33790074Y47442105D01*
X33790074Y47442105D02*
X33813883Y47418296D01*
X33813883Y47418296D02*
X33837693Y47370677D01*
X33837693Y47370677D02*
X33837693Y47251629D01*
X33837693Y47251629D02*
X33813883Y47204010D01*
X33813883Y47204010D02*
X33790074Y47180200D01*
X33790074Y47180200D02*
X33742455Y47156391D01*
X33742455Y47156391D02*
X33599598Y47156391D01*
X33599598Y47156391D02*
X33551979Y47180200D01*
X33551979Y47180200D02*
X33528169Y47204010D01*
D10*
G36*
X24222301Y11037765D02*
G01*
X24282826Y11019244D01*
X24338270Y10988521D01*
X24389598Y10944575D01*
X24431836Y10891955D01*
X24461638Y10834639D01*
X24479733Y10771616D01*
X24485952Y10701492D01*
X24479748Y10630960D01*
X24461739Y10567877D01*
X24432156Y10510808D01*
X24390331Y10458715D01*
X24339370Y10415187D01*
X24284478Y10384786D01*
X24224715Y10366481D01*
X24158728Y10360224D01*
X24099886Y10365041D01*
X24045306Y10379210D01*
X23994112Y10402723D01*
X23945626Y10436122D01*
X23902606Y10477744D01*
X23869602Y10524132D01*
X23845841Y10575932D01*
X23831169Y10634150D01*
X23826069Y10700088D01*
X23832344Y10773614D01*
X23850410Y10838255D01*
X23879814Y10895638D01*
X23921018Y10946956D01*
X23971537Y10989643D01*
X24026680Y11019657D01*
X24087460Y11037850D01*
X24155308Y11044104D01*
X24222301Y11037765D01*
G37*
G36*
X26011004Y10590789D02*
G01*
X25743925Y10590789D01*
X25877831Y10937003D01*
X26011004Y10590789D01*
G37*
G36*
X26836372Y11017325D02*
G01*
X26871045Y11009971D01*
X26896905Y10995837D01*
X26916779Y10974922D01*
X26929491Y10948715D01*
X26933876Y10917464D01*
X26929572Y10882028D01*
X26917897Y10856233D01*
X26899377Y10837596D01*
X26874738Y10825722D01*
X26834772Y10817025D01*
X26773347Y10813539D01*
X26713264Y10813539D01*
X26713264Y11020656D01*
X26765837Y11020656D01*
X26836372Y11017325D01*
G37*
G36*
X27277262Y10065442D02*
G01*
X22756915Y10065442D01*
X22756915Y10395578D01*
X22868026Y10395578D01*
X22910571Y10323632D01*
X22956005Y10269186D01*
X23004314Y10229432D01*
X23059479Y10200436D01*
X23121248Y10182696D01*
X23191160Y10176553D01*
X23259001Y10181968D01*
X23317726Y10197427D01*
X23368921Y10222301D01*
X23413787Y10256726D01*
X23451196Y10299539D01*
X23477585Y10346960D01*
X23493657Y10399945D01*
X23499211Y10459875D01*
X23493039Y10521090D01*
X23474970Y10576318D01*
X23444096Y10628453D01*
X23392660Y10688120D01*
X23376019Y10702530D01*
X23633422Y10702530D01*
X23633599Y10700088D01*
X23639528Y10618323D01*
X23657441Y10540167D01*
X23686981Y10466996D01*
X23728531Y10397942D01*
X23783021Y10332380D01*
X23846164Y10276099D01*
X23914392Y10232937D01*
X23988461Y10202006D01*
X24069455Y10183069D01*
X24158728Y10176553D01*
X24243640Y10182793D01*
X24317322Y10200000D01*
X24857934Y10200000D01*
X25327918Y10200000D01*
X25392093Y10200000D01*
X25590907Y10200000D01*
X25672850Y10407118D01*
X26082751Y10407118D01*
X26161275Y10200000D01*
X26360088Y10200000D01*
X26044160Y11020656D01*
X26521960Y11020656D01*
X26521960Y10813539D01*
X26521960Y10200000D01*
X26713264Y10200000D01*
X26713264Y10629868D01*
X26730971Y10629868D01*
X26957140Y10200000D01*
X27166151Y10200000D01*
X26928442Y10650751D01*
X26989001Y10678144D01*
X27035958Y10711496D01*
X27071507Y10750707D01*
X27097299Y10796886D01*
X27113352Y10851032D01*
X27119012Y10915021D01*
X27113966Y10976100D01*
X27099470Y11029629D01*
X27075964Y11076954D01*
X27043757Y11118713D01*
X27006045Y11151036D01*
X26962208Y11174835D01*
X26913412Y11189405D01*
X26837399Y11200093D01*
X26724865Y11204327D01*
X26521960Y11204327D01*
X26521960Y11020656D01*
X26044160Y11020656D01*
X25973452Y11204327D01*
X25779462Y11204327D01*
X25542820Y10590789D01*
X25392093Y10200000D01*
X25327918Y10200000D01*
X25327918Y10383671D01*
X25049176Y10383671D01*
X25049176Y11204327D01*
X24857934Y11204327D01*
X24857934Y10200000D01*
X24317322Y10200000D01*
X24321771Y10201039D01*
X24394288Y10231036D01*
X24462126Y10273138D01*
X24525947Y10328289D01*
X24580794Y10392192D01*
X24622760Y10460406D01*
X24652729Y10533617D01*
X24670997Y10612786D01*
X24677255Y10699111D01*
X24670922Y10786183D01*
X24652425Y10866126D01*
X24622061Y10940138D01*
X24579514Y11009189D01*
X24523871Y11073962D01*
X24459075Y11130132D01*
X24390786Y11172845D01*
X24318376Y11203153D01*
X24240947Y11221516D01*
X24157384Y11227774D01*
X24087911Y11223335D01*
X24021351Y11210161D01*
X23957117Y11188252D01*
X23894701Y11157310D01*
X23836652Y11118719D01*
X23785688Y11074263D01*
X23741274Y11023680D01*
X23703093Y10966496D01*
X23672654Y10904944D01*
X23650975Y10840809D01*
X23637864Y10773548D01*
X23633422Y10702530D01*
X23376019Y10702530D01*
X23260097Y10802914D01*
X23155732Y10894460D01*
X23120085Y10931325D01*
X23107140Y10954763D01*
X23102988Y10978891D01*
X23108622Y11002123D01*
X23126863Y11024076D01*
X23153475Y11038856D01*
X23188351Y11044104D01*
X23223355Y11038641D01*
X23259512Y11021332D01*
X23298110Y10989419D01*
X23340026Y10938591D01*
X23481442Y11064620D01*
X23425626Y11124246D01*
X23376911Y11165736D01*
X23334225Y11192664D01*
X23287888Y11212248D01*
X23240390Y11223881D01*
X23191160Y11227774D01*
X23133887Y11222921D01*
X23082766Y11208862D01*
X23036660Y11185847D01*
X22994727Y11153464D01*
X22959328Y11113684D01*
X22934809Y11071287D01*
X22920151Y11025564D01*
X22915165Y10975472D01*
X22920183Y10928834D01*
X22935688Y10881089D01*
X22962976Y10831307D01*
X22999437Y10785451D01*
X23066061Y10719179D01*
X23174734Y10626143D01*
X23251986Y10559188D01*
X23286048Y10522340D01*
X23305357Y10487484D01*
X23311327Y10454502D01*
X23307769Y10431104D01*
X23296985Y10409419D01*
X23277866Y10388678D01*
X23254186Y10373056D01*
X23226949Y10363538D01*
X23195190Y10360224D01*
X23152979Y10367261D01*
X23112006Y10389156D01*
X23070736Y10429203D01*
X23028555Y10493092D01*
X22868026Y10395578D01*
X22756915Y10395578D01*
X22756915Y11338885D01*
X27277262Y11338885D01*
X27277262Y10065442D01*
G37*
G36*
X44150131Y14306749D02*
G01*
X44187213Y14292823D01*
X44219370Y14269826D01*
X44244549Y14239579D01*
X44259407Y14205503D01*
X44264494Y14166267D01*
X44259509Y14126964D01*
X44245134Y14093813D01*
X44221079Y14065334D01*
X44190069Y14044248D01*
X44151905Y14031041D01*
X44104637Y14026316D01*
X44058004Y14031287D01*
X44019668Y14045332D01*
X43987827Y14068081D01*
X43963015Y14098246D01*
X43948416Y14131899D01*
X43943436Y14170297D01*
X43948587Y14206738D01*
X43963933Y14239520D01*
X43990575Y14269826D01*
X44024044Y14292831D01*
X44062305Y14306760D01*
X44106713Y14311592D01*
X44150131Y14306749D01*
G37*
G36*
X44132145Y14710524D02*
G01*
X44159258Y14700394D01*
X44181817Y14683940D01*
X44199134Y14662140D01*
X44209606Y14636473D01*
X44213264Y14605782D01*
X44209611Y14573181D01*
X44199211Y14546047D01*
X44182184Y14523167D01*
X44159749Y14505620D01*
X44133601Y14495038D01*
X44102622Y14491354D01*
X44072550Y14495045D01*
X44046457Y14505785D01*
X44023365Y14523839D01*
X44005568Y14547150D01*
X43994920Y14573682D01*
X43991247Y14604439D01*
X43994788Y14635223D01*
X44004929Y14661132D01*
X44021655Y14683268D01*
X44043577Y14700279D01*
X44069069Y14710536D01*
X44099202Y14714104D01*
X44132145Y14710524D01*
G37*
G36*
X41832150Y14687325D02*
G01*
X41866823Y14679971D01*
X41892683Y14665837D01*
X41912557Y14644922D01*
X41925269Y14618715D01*
X41929654Y14587464D01*
X41925350Y14552028D01*
X41913675Y14526233D01*
X41895155Y14507596D01*
X41870517Y14495722D01*
X41830550Y14487025D01*
X41769125Y14483539D01*
X41709042Y14483539D01*
X41709042Y14690656D01*
X41761615Y14690656D01*
X41832150Y14687325D01*
G37*
G36*
X43396943Y14252973D02*
G01*
X43167416Y14252973D01*
X43396943Y14588624D01*
X43396943Y14252973D01*
G37*
G36*
X45325831Y13735442D02*
G01*
X41406628Y13735442D01*
X41406628Y14690656D01*
X41517739Y14690656D01*
X41517739Y14483539D01*
X41517739Y13870000D01*
X41709042Y13870000D01*
X41709042Y14299868D01*
X41726749Y14299868D01*
X41952918Y13870000D01*
X42161929Y13870000D01*
X42058789Y14065578D01*
X42229890Y14065578D01*
X42272435Y13993632D01*
X42317868Y13939186D01*
X42366177Y13899432D01*
X42421342Y13870436D01*
X42483111Y13852696D01*
X42553023Y13846553D01*
X42620864Y13851968D01*
X42679589Y13867427D01*
X42730784Y13892301D01*
X42775650Y13926726D01*
X42813060Y13969539D01*
X42839448Y14016960D01*
X42855520Y14069945D01*
X42861074Y14129875D01*
X42854902Y14191090D01*
X42836833Y14246318D01*
X42832638Y14253401D01*
X42958405Y14253401D01*
X42958405Y14252973D01*
X42958405Y14077118D01*
X43396943Y14077118D01*
X43396943Y13870000D01*
X43584155Y13870000D01*
X43584155Y14077118D01*
X43673609Y14077118D01*
X43673609Y14154238D01*
X43756285Y14154238D01*
X43761218Y14094618D01*
X43775615Y14040368D01*
X43799333Y13990473D01*
X43831615Y13945779D01*
X43869685Y13909996D01*
X43914066Y13882274D01*
X43963278Y13863576D01*
X44026631Y13851143D01*
X44107384Y13846553D01*
X44182373Y13851166D01*
X44243758Y13863927D01*
X44293864Y13883617D01*
X44339129Y13912288D01*
X44377760Y13948900D01*
X44410307Y13994259D01*
X44434435Y14044735D01*
X44448852Y14097781D01*
X44450777Y14120105D01*
X44529558Y14120105D01*
X44548469Y14058382D01*
X44574917Y14005116D01*
X44608791Y13959157D01*
X44650458Y13919704D01*
X44698342Y13887963D01*
X44750506Y13865248D01*
X44807760Y13851343D01*
X44871132Y13846553D01*
X44940915Y13852995D01*
X45003887Y13871792D01*
X45061462Y13902898D01*
X45114642Y13947242D01*
X45158545Y14000646D01*
X45189485Y14058924D01*
X45208264Y14123125D01*
X45214720Y14194721D01*
X45208704Y14266230D01*
X45191418Y14328835D01*
X45163365Y14384145D01*
X45124167Y14433347D01*
X45076022Y14474125D01*
X45022889Y14502926D01*
X44963733Y14520469D01*
X44897083Y14526525D01*
X44865636Y14524144D01*
X44832175Y14517000D01*
X44873147Y14698472D01*
X45201043Y14698472D01*
X45201043Y14874327D01*
X44730387Y14874327D01*
X44608815Y14318614D01*
X44764581Y14283931D01*
X44795088Y14312128D01*
X44824359Y14331070D01*
X44855341Y14342922D01*
X44886153Y14346763D01*
X44923398Y14341811D01*
X44956357Y14327218D01*
X44986231Y14302249D01*
X45008878Y14270466D01*
X45022718Y14233088D01*
X45027569Y14188554D01*
X45022379Y14142865D01*
X45007537Y14104495D01*
X44983117Y14071806D01*
X44951193Y14046411D01*
X44915655Y14031429D01*
X44875223Y14026316D01*
X44831276Y14032288D01*
X44791509Y14050069D01*
X44757821Y14078855D01*
X44730387Y14120105D01*
X44529558Y14120105D01*
X44450777Y14120105D01*
X44453721Y14154238D01*
X44449533Y14206369D01*
X44437143Y14255476D01*
X44416474Y14302249D01*
X44388354Y14344949D01*
X44353389Y14382140D01*
X44310961Y14414235D01*
X44358117Y14471594D01*
X44384417Y14517244D01*
X44399444Y14564695D01*
X44404567Y14616895D01*
X44400266Y14666665D01*
X44387476Y14713914D01*
X44365976Y14759350D01*
X44336961Y14800349D01*
X44301953Y14834265D01*
X44260403Y14861688D01*
X44214528Y14881378D01*
X44163199Y14893547D01*
X44105369Y14897774D01*
X44046568Y14893589D01*
X43994297Y14881537D01*
X43947527Y14862054D01*
X43905080Y14834859D01*
X43869919Y14801694D01*
X43841343Y14762097D01*
X43820361Y14717922D01*
X43807723Y14670704D01*
X43803424Y14619643D01*
X43804990Y14604439D01*
X43809171Y14563832D01*
X43826322Y14511138D01*
X43854213Y14462020D01*
X43894282Y14414235D01*
X43851072Y14377634D01*
X43816895Y14339007D01*
X43790785Y14298158D01*
X43771763Y14253730D01*
X43760225Y14205999D01*
X43757507Y14170297D01*
X43756285Y14154238D01*
X43673609Y14154238D01*
X43673609Y14252973D01*
X43584155Y14252973D01*
X43584155Y14897774D01*
X43392852Y14897774D01*
X42958405Y14253401D01*
X42832638Y14253401D01*
X42805959Y14298453D01*
X42754523Y14358120D01*
X42621960Y14472914D01*
X42517595Y14564460D01*
X42481948Y14601325D01*
X42469004Y14624763D01*
X42464851Y14648891D01*
X42470486Y14672123D01*
X42488726Y14694076D01*
X42515338Y14708856D01*
X42550214Y14714104D01*
X42585218Y14708641D01*
X42621375Y14691332D01*
X42659973Y14659419D01*
X42701889Y14608591D01*
X42843306Y14734620D01*
X42787489Y14794246D01*
X42738775Y14835736D01*
X42696088Y14862664D01*
X42649751Y14882248D01*
X42602253Y14893881D01*
X42553023Y14897774D01*
X42495750Y14892921D01*
X42444629Y14878862D01*
X42398523Y14855847D01*
X42356591Y14823464D01*
X42321192Y14783684D01*
X42296672Y14741287D01*
X42282014Y14695564D01*
X42277028Y14645472D01*
X42282046Y14598834D01*
X42297551Y14551089D01*
X42324839Y14501307D01*
X42361300Y14455451D01*
X42427924Y14389179D01*
X42536598Y14296143D01*
X42613849Y14229188D01*
X42647911Y14192340D01*
X42667220Y14157484D01*
X42673190Y14124502D01*
X42669632Y14101104D01*
X42658848Y14079419D01*
X42639729Y14058678D01*
X42616050Y14043056D01*
X42588812Y14033538D01*
X42557053Y14030224D01*
X42514842Y14037261D01*
X42473870Y14059156D01*
X42432599Y14099203D01*
X42390418Y14163092D01*
X42229890Y14065578D01*
X42058789Y14065578D01*
X41924220Y14320751D01*
X41984779Y14348144D01*
X42031736Y14381496D01*
X42067285Y14420707D01*
X42093077Y14466886D01*
X42109130Y14521032D01*
X42114790Y14585021D01*
X42109744Y14646100D01*
X42095248Y14699629D01*
X42071742Y14746954D01*
X42039535Y14788713D01*
X42001823Y14821036D01*
X41957986Y14844835D01*
X41909190Y14859405D01*
X41833178Y14870093D01*
X41720643Y14874327D01*
X41517739Y14874327D01*
X41517739Y14690656D01*
X41406628Y14690656D01*
X41406628Y15008885D01*
X45325831Y15008885D01*
X45325831Y13735442D01*
G37*
G36*
X53910507Y51922575D02*
G01*
X53962234Y51909430D01*
X53996864Y51890620D01*
X54023791Y51862930D01*
X54039782Y51829834D01*
X54045347Y51789564D01*
X54040497Y51753947D01*
X54026784Y51725795D01*
X54004009Y51703286D01*
X53974246Y51688842D01*
X53923827Y51678057D01*
X53843846Y51673671D01*
X53796036Y51673671D01*
X53796036Y51927684D01*
X53835664Y51927684D01*
X53910507Y51922575D01*
G37*
G36*
X53888148Y52307065D02*
G01*
X53919822Y52297488D01*
X53942887Y52283057D01*
X53960570Y52262794D01*
X53971254Y52238389D01*
X53975005Y52208563D01*
X53971036Y52176525D01*
X53959764Y52150428D01*
X53941177Y52128879D01*
X53916859Y52113601D01*
X53883324Y52103445D01*
X53837679Y52099631D01*
X53796036Y52099631D01*
X53796036Y52310656D01*
X53845190Y52310656D01*
X53888148Y52307065D01*
G37*
G36*
X55920990Y51378889D02*
G01*
X53493683Y51378889D01*
X53493683Y52310656D01*
X53604794Y52310656D01*
X53604794Y52099631D01*
X53604794Y51927684D01*
X53604794Y51673671D01*
X53604794Y51490000D01*
X53886222Y51490000D01*
X53967114Y51494477D01*
X54029426Y51506497D01*
X54076793Y51524378D01*
X54119676Y51550997D01*
X54157103Y51585371D01*
X54189511Y51628303D01*
X54213762Y51676201D01*
X54228298Y51727224D01*
X54233230Y51782298D01*
X54228283Y51839598D01*
X54214041Y51889908D01*
X54190854Y51934522D01*
X54158865Y51973419D01*
X54115015Y52009211D01*
X54057009Y52041867D01*
X54105360Y52085860D01*
X54135900Y52129795D01*
X54153952Y52178794D01*
X54160141Y52234208D01*
X54154068Y52291160D01*
X54147247Y52310656D01*
X54317555Y52310656D01*
X54495853Y52310656D01*
X54495853Y51490000D01*
X54689904Y51490000D01*
X55004488Y51490000D01*
X55195730Y51490000D01*
X55195730Y52148846D01*
X55626086Y51490000D01*
X55809879Y51490000D01*
X55809879Y52494327D01*
X55618576Y52494327D01*
X55618576Y51833406D01*
X55187548Y52494327D01*
X55004488Y52494327D01*
X55004488Y51490000D01*
X54689904Y51490000D01*
X54689904Y52310656D01*
X54872964Y52310656D01*
X54872964Y52494327D01*
X54317555Y52494327D01*
X54317555Y52310656D01*
X54147247Y52310656D01*
X54136357Y52341782D01*
X54106835Y52387532D01*
X54067842Y52425848D01*
X54020517Y52455469D01*
X53963403Y52476558D01*
X53890679Y52489015D01*
X53762575Y52494327D01*
X53604794Y52494327D01*
X53604794Y52310656D01*
X53493683Y52310656D01*
X53493683Y52605438D01*
X55920990Y52605438D01*
X55920990Y51378889D01*
G37*
G36*
X52683768Y42795442D02*
G01*
X50350005Y42795442D01*
X50350005Y42930000D01*
X50461116Y42930000D01*
X50651015Y42930000D01*
X50651015Y43021225D01*
X50780830Y43021225D01*
X50780830Y42930000D01*
X51476922Y42930000D01*
X51476922Y43105855D01*
X51118984Y43105855D01*
X51231702Y43224557D01*
X51319121Y43322033D01*
X51379303Y43402259D01*
X51397821Y43433873D01*
X51599227Y43433873D01*
X51605587Y43341900D01*
X51623973Y43259268D01*
X51653794Y43184547D01*
X51695076Y43116572D01*
X51748459Y43054503D01*
X51810914Y43001714D01*
X51879481Y42960796D01*
X51955025Y42931177D01*
X52038730Y42912887D01*
X52132042Y42906553D01*
X52215934Y42911491D01*
X52290903Y42925689D01*
X52358150Y42948502D01*
X52421204Y42981182D01*
X52490966Y43030218D01*
X52568565Y43098894D01*
X52438750Y43233961D01*
X52381177Y43181788D01*
X52331001Y43145147D01*
X52287137Y43121182D01*
X52240245Y43104180D01*
X52189679Y43093785D01*
X52134790Y43090224D01*
X52070819Y43095274D01*
X52011928Y43110070D01*
X51957165Y43134493D01*
X51907593Y43167970D01*
X51866637Y43208422D01*
X51833517Y43256431D01*
X51809555Y43309751D01*
X51794867Y43368619D01*
X51789797Y43434179D01*
X51796164Y43504253D01*
X51814674Y43567007D01*
X51845173Y43623903D01*
X51888471Y43675979D01*
X51940836Y43719014D01*
X51998015Y43749351D01*
X52061045Y43767769D01*
X52131371Y43774104D01*
X52197171Y43768554D01*
X52260015Y43752016D01*
X52320792Y43724184D01*
X52380209Y43684132D01*
X52438750Y43630367D01*
X52572657Y43757129D01*
X52513385Y43816546D01*
X52447448Y43865850D01*
X52374209Y43905567D01*
X52296114Y43934671D01*
X52216561Y43951986D01*
X52134790Y43957774D01*
X52062547Y43953305D01*
X51993350Y43940052D01*
X51926619Y43918038D01*
X51861849Y43887005D01*
X51801160Y43848027D01*
X51748943Y43803975D01*
X51704453Y43754703D01*
X51667187Y43699854D01*
X51637843Y43640558D01*
X51616663Y43576934D01*
X51603679Y43508303D01*
X51599227Y43433873D01*
X51397821Y43433873D01*
X51417815Y43468006D01*
X51447109Y43538102D01*
X51463532Y43601844D01*
X51468740Y43660409D01*
X51464222Y43709341D01*
X51450462Y43758318D01*
X51426730Y43808054D01*
X51395242Y43853140D01*
X51358044Y43889944D01*
X51314684Y43919245D01*
X51266678Y43940302D01*
X51213202Y43953277D01*
X51153178Y43957774D01*
X51080381Y43951543D01*
X51016667Y43933634D01*
X50960371Y43904535D01*
X50910279Y43863802D01*
X50869571Y43814212D01*
X50838850Y43755860D01*
X50818110Y43687170D01*
X50808185Y43606065D01*
X50994665Y43606065D01*
X51001248Y43657509D01*
X51016054Y43698699D01*
X51038384Y43731728D01*
X51068222Y43757598D01*
X51101920Y43772809D01*
X51140844Y43778012D01*
X51179842Y43773591D01*
X51212506Y43760965D01*
X51240251Y43740215D01*
X51261585Y43713000D01*
X51274398Y43681558D01*
X51278841Y43644594D01*
X51275158Y43608183D01*
X51263289Y43566936D01*
X51241594Y43519725D01*
X51213335Y43475446D01*
X51165483Y43415822D01*
X51091690Y43336970D01*
X50780830Y43021225D01*
X50651015Y43021225D01*
X50651015Y43934327D01*
X50461116Y43934327D01*
X50461116Y42930000D01*
X50350005Y42930000D01*
X50350005Y44068885D01*
X52683768Y44068885D01*
X52683768Y42795442D01*
G37*
D11*
X38553408Y57926391D02*
X38839122Y57926391D01*
X38696265Y57426391D02*
X38696265Y57926391D01*
X39005788Y57426391D02*
X39005788Y57926391D01*
X39005788Y57926391D02*
X39196264Y57926391D01*
X39196264Y57926391D02*
X39243883Y57902581D01*
X39243883Y57902581D02*
X39267693Y57878772D01*
X39267693Y57878772D02*
X39291502Y57831153D01*
X39291502Y57831153D02*
X39291502Y57759724D01*
X39291502Y57759724D02*
X39267693Y57712105D01*
X39267693Y57712105D02*
X39243883Y57688296D01*
X39243883Y57688296D02*
X39196264Y57664486D01*
X39196264Y57664486D02*
X39005788Y57664486D01*
X39720074Y57759724D02*
X39720074Y57426391D01*
X39601026Y57950200D02*
X39481979Y57593058D01*
X39481979Y57593058D02*
X39791502Y57593058D01*
X53143408Y56386391D02*
X53429122Y56386391D01*
X53286265Y55886391D02*
X53286265Y56386391D01*
X53595788Y55886391D02*
X53595788Y56386391D01*
X53595788Y56386391D02*
X53786264Y56386391D01*
X53786264Y56386391D02*
X53833883Y56362581D01*
X53833883Y56362581D02*
X53857693Y56338772D01*
X53857693Y56338772D02*
X53881502Y56291153D01*
X53881502Y56291153D02*
X53881502Y56219724D01*
X53881502Y56219724D02*
X53857693Y56172105D01*
X53857693Y56172105D02*
X53833883Y56148296D01*
X53833883Y56148296D02*
X53786264Y56124486D01*
X53786264Y56124486D02*
X53595788Y56124486D01*
X54119598Y55886391D02*
X54214836Y55886391D01*
X54214836Y55886391D02*
X54262455Y55910200D01*
X54262455Y55910200D02*
X54286264Y55934010D01*
X54286264Y55934010D02*
X54333883Y56005439D01*
X54333883Y56005439D02*
X54357693Y56100677D01*
X54357693Y56100677D02*
X54357693Y56291153D01*
X54357693Y56291153D02*
X54333883Y56338772D01*
X54333883Y56338772D02*
X54310074Y56362581D01*
X54310074Y56362581D02*
X54262455Y56386391D01*
X54262455Y56386391D02*
X54167217Y56386391D01*
X54167217Y56386391D02*
X54119598Y56362581D01*
X54119598Y56362581D02*
X54095788Y56338772D01*
X54095788Y56338772D02*
X54071979Y56291153D01*
X54071979Y56291153D02*
X54071979Y56172105D01*
X54071979Y56172105D02*
X54095788Y56124486D01*
X54095788Y56124486D02*
X54119598Y56100677D01*
X54119598Y56100677D02*
X54167217Y56076867D01*
X54167217Y56076867D02*
X54262455Y56076867D01*
X54262455Y56076867D02*
X54310074Y56100677D01*
X54310074Y56100677D02*
X54333883Y56124486D01*
X54333883Y56124486D02*
X54357693Y56172105D01*
X24253408Y68256391D02*
X24539122Y68256391D01*
X24396265Y67756391D02*
X24396265Y68256391D01*
X24705788Y67756391D02*
X24705788Y68256391D01*
X24705788Y68256391D02*
X24896264Y68256391D01*
X24896264Y68256391D02*
X24943883Y68232581D01*
X24943883Y68232581D02*
X24967693Y68208772D01*
X24967693Y68208772D02*
X24991502Y68161153D01*
X24991502Y68161153D02*
X24991502Y68089724D01*
X24991502Y68089724D02*
X24967693Y68042105D01*
X24967693Y68042105D02*
X24943883Y68018296D01*
X24943883Y68018296D02*
X24896264Y67994486D01*
X24896264Y67994486D02*
X24705788Y67994486D01*
X25181979Y68208772D02*
X25205788Y68232581D01*
X25205788Y68232581D02*
X25253407Y68256391D01*
X25253407Y68256391D02*
X25372455Y68256391D01*
X25372455Y68256391D02*
X25420074Y68232581D01*
X25420074Y68232581D02*
X25443883Y68208772D01*
X25443883Y68208772D02*
X25467693Y68161153D01*
X25467693Y68161153D02*
X25467693Y68113534D01*
X25467693Y68113534D02*
X25443883Y68042105D01*
X25443883Y68042105D02*
X25158169Y67756391D01*
X25158169Y67756391D02*
X25467693Y67756391D01*
X46883408Y53086391D02*
X47169122Y53086391D01*
X47026265Y52586391D02*
X47026265Y53086391D01*
X47335788Y52586391D02*
X47335788Y53086391D01*
X47335788Y53086391D02*
X47526264Y53086391D01*
X47526264Y53086391D02*
X47573883Y53062581D01*
X47573883Y53062581D02*
X47597693Y53038772D01*
X47597693Y53038772D02*
X47621502Y52991153D01*
X47621502Y52991153D02*
X47621502Y52919724D01*
X47621502Y52919724D02*
X47597693Y52872105D01*
X47597693Y52872105D02*
X47573883Y52848296D01*
X47573883Y52848296D02*
X47526264Y52824486D01*
X47526264Y52824486D02*
X47335788Y52824486D01*
X48097693Y52586391D02*
X47811979Y52586391D01*
X47954836Y52586391D02*
X47954836Y53086391D01*
X47954836Y53086391D02*
X47907217Y53014962D01*
X47907217Y53014962D02*
X47859598Y52967343D01*
X47859598Y52967343D02*
X47811979Y52943534D01*
X48407216Y53086391D02*
X48454835Y53086391D01*
X48454835Y53086391D02*
X48502454Y53062581D01*
X48502454Y53062581D02*
X48526264Y53038772D01*
X48526264Y53038772D02*
X48550073Y52991153D01*
X48550073Y52991153D02*
X48573883Y52895915D01*
X48573883Y52895915D02*
X48573883Y52776867D01*
X48573883Y52776867D02*
X48550073Y52681629D01*
X48550073Y52681629D02*
X48526264Y52634010D01*
X48526264Y52634010D02*
X48502454Y52610200D01*
X48502454Y52610200D02*
X48454835Y52586391D01*
X48454835Y52586391D02*
X48407216Y52586391D01*
X48407216Y52586391D02*
X48359597Y52610200D01*
X48359597Y52610200D02*
X48335788Y52634010D01*
X48335788Y52634010D02*
X48311978Y52681629D01*
X48311978Y52681629D02*
X48288169Y52776867D01*
X48288169Y52776867D02*
X48288169Y52895915D01*
X48288169Y52895915D02*
X48311978Y52991153D01*
X48311978Y52991153D02*
X48335788Y53038772D01*
X48335788Y53038772D02*
X48359597Y53062581D01*
X48359597Y53062581D02*
X48407216Y53086391D01*
D10*
G36*
X15600507Y61092575D02*
G01*
X15652234Y61079430D01*
X15686864Y61060620D01*
X15713791Y61032930D01*
X15729782Y60999834D01*
X15735347Y60959564D01*
X15730497Y60923947D01*
X15716784Y60895795D01*
X15694009Y60873286D01*
X15664246Y60858842D01*
X15613827Y60848057D01*
X15533846Y60843671D01*
X15486036Y60843671D01*
X15486036Y61097684D01*
X15525664Y61097684D01*
X15600507Y61092575D01*
G37*
G36*
X15578148Y61477065D02*
G01*
X15609822Y61467488D01*
X15632887Y61453057D01*
X15650570Y61432794D01*
X15661254Y61408389D01*
X15665005Y61378563D01*
X15661036Y61346525D01*
X15649764Y61320428D01*
X15631177Y61298879D01*
X15606859Y61283601D01*
X15573324Y61273445D01*
X15527679Y61269631D01*
X15486036Y61269631D01*
X15486036Y61480656D01*
X15535190Y61480656D01*
X15578148Y61477065D01*
G37*
G36*
X16644235Y61050789D02*
G01*
X16377156Y61050789D01*
X16511062Y61397003D01*
X16644235Y61050789D01*
G37*
G36*
X18296824Y60548889D02*
G01*
X15183683Y60548889D01*
X15183683Y61480656D01*
X15294794Y61480656D01*
X15294794Y61269631D01*
X15294794Y61097684D01*
X15294794Y60843671D01*
X15294794Y60660000D01*
X15576222Y60660000D01*
X16025324Y60660000D01*
X16224138Y60660000D01*
X16306081Y60867118D01*
X16715982Y60867118D01*
X16794506Y60660000D01*
X16993319Y60660000D01*
X16677391Y61480656D01*
X17043145Y61480656D01*
X17221442Y61480656D01*
X17221442Y60660000D01*
X17415493Y60660000D01*
X17415493Y61480656D01*
X17598553Y61480656D01*
X17630305Y61480656D01*
X17808602Y61480656D01*
X17808602Y60660000D01*
X18002653Y60660000D01*
X18002653Y61480656D01*
X18185713Y61480656D01*
X18185713Y61664327D01*
X17630305Y61664327D01*
X17630305Y61480656D01*
X17598553Y61480656D01*
X17598553Y61664327D01*
X17043145Y61664327D01*
X17043145Y61480656D01*
X16677391Y61480656D01*
X16606683Y61664327D01*
X16412693Y61664327D01*
X16176051Y61050789D01*
X16025324Y60660000D01*
X15576222Y60660000D01*
X15657114Y60664477D01*
X15719426Y60676497D01*
X15766793Y60694378D01*
X15809676Y60720997D01*
X15847103Y60755371D01*
X15879511Y60798303D01*
X15903762Y60846201D01*
X15918298Y60897224D01*
X15923230Y60952298D01*
X15918283Y61009598D01*
X15904041Y61059908D01*
X15880854Y61104522D01*
X15848865Y61143419D01*
X15805015Y61179211D01*
X15747009Y61211867D01*
X15795360Y61255860D01*
X15825900Y61299795D01*
X15843952Y61348794D01*
X15850141Y61404208D01*
X15844068Y61461160D01*
X15826357Y61511782D01*
X15796835Y61557532D01*
X15757842Y61595848D01*
X15710517Y61625469D01*
X15653403Y61646558D01*
X15580679Y61659015D01*
X15452575Y61664327D01*
X15294794Y61664327D01*
X15294794Y61480656D01*
X15183683Y61480656D01*
X15183683Y61775438D01*
X18296824Y61775438D01*
X18296824Y60548889D01*
G37*
D11*
X18293408Y32256391D02*
X18579122Y32256391D01*
X18436265Y31756391D02*
X18436265Y32256391D01*
X18745788Y31756391D02*
X18745788Y32256391D01*
X18745788Y32256391D02*
X18936264Y32256391D01*
X18936264Y32256391D02*
X18983883Y32232581D01*
X18983883Y32232581D02*
X19007693Y32208772D01*
X19007693Y32208772D02*
X19031502Y32161153D01*
X19031502Y32161153D02*
X19031502Y32089724D01*
X19031502Y32089724D02*
X19007693Y32042105D01*
X19007693Y32042105D02*
X18983883Y32018296D01*
X18983883Y32018296D02*
X18936264Y31994486D01*
X18936264Y31994486D02*
X18745788Y31994486D01*
X19460074Y32256391D02*
X19364836Y32256391D01*
X19364836Y32256391D02*
X19317217Y32232581D01*
X19317217Y32232581D02*
X19293407Y32208772D01*
X19293407Y32208772D02*
X19245788Y32137343D01*
X19245788Y32137343D02*
X19221979Y32042105D01*
X19221979Y32042105D02*
X19221979Y31851629D01*
X19221979Y31851629D02*
X19245788Y31804010D01*
X19245788Y31804010D02*
X19269598Y31780200D01*
X19269598Y31780200D02*
X19317217Y31756391D01*
X19317217Y31756391D02*
X19412455Y31756391D01*
X19412455Y31756391D02*
X19460074Y31780200D01*
X19460074Y31780200D02*
X19483883Y31804010D01*
X19483883Y31804010D02*
X19507693Y31851629D01*
X19507693Y31851629D02*
X19507693Y31970677D01*
X19507693Y31970677D02*
X19483883Y32018296D01*
X19483883Y32018296D02*
X19460074Y32042105D01*
X19460074Y32042105D02*
X19412455Y32065915D01*
X19412455Y32065915D02*
X19317217Y32065915D01*
X19317217Y32065915D02*
X19269598Y32042105D01*
X19269598Y32042105D02*
X19245788Y32018296D01*
X19245788Y32018296D02*
X19221979Y31970677D01*
X10763408Y28596391D02*
X11049122Y28596391D01*
X10906265Y28096391D02*
X10906265Y28596391D01*
X11215788Y28096391D02*
X11215788Y28596391D01*
X11215788Y28596391D02*
X11406264Y28596391D01*
X11406264Y28596391D02*
X11453883Y28572581D01*
X11453883Y28572581D02*
X11477693Y28548772D01*
X11477693Y28548772D02*
X11501502Y28501153D01*
X11501502Y28501153D02*
X11501502Y28429724D01*
X11501502Y28429724D02*
X11477693Y28382105D01*
X11477693Y28382105D02*
X11453883Y28358296D01*
X11453883Y28358296D02*
X11406264Y28334486D01*
X11406264Y28334486D02*
X11215788Y28334486D01*
X11953883Y28596391D02*
X11715788Y28596391D01*
X11715788Y28596391D02*
X11691979Y28358296D01*
X11691979Y28358296D02*
X11715788Y28382105D01*
X11715788Y28382105D02*
X11763407Y28405915D01*
X11763407Y28405915D02*
X11882455Y28405915D01*
X11882455Y28405915D02*
X11930074Y28382105D01*
X11930074Y28382105D02*
X11953883Y28358296D01*
X11953883Y28358296D02*
X11977693Y28310677D01*
X11977693Y28310677D02*
X11977693Y28191629D01*
X11977693Y28191629D02*
X11953883Y28144010D01*
X11953883Y28144010D02*
X11930074Y28120200D01*
X11930074Y28120200D02*
X11882455Y28096391D01*
X11882455Y28096391D02*
X11763407Y28096391D01*
X11763407Y28096391D02*
X11715788Y28120200D01*
X11715788Y28120200D02*
X11691979Y28144010D01*
D10*
G36*
X39734233Y10632575D02*
G01*
X39785960Y10619430D01*
X39820591Y10600620D01*
X39847518Y10572930D01*
X39863508Y10539834D01*
X39869073Y10499564D01*
X39864223Y10463947D01*
X39850510Y10435795D01*
X39827735Y10413286D01*
X39797973Y10398842D01*
X39747553Y10388057D01*
X39667573Y10383671D01*
X39619762Y10383671D01*
X39619762Y10637684D01*
X39659391Y10637684D01*
X39734233Y10632575D01*
G37*
G36*
X39711875Y11017065D02*
G01*
X39743548Y11007488D01*
X39766613Y10993057D01*
X39784296Y10972794D01*
X39794980Y10948389D01*
X39798731Y10918563D01*
X39794762Y10886525D01*
X39783490Y10860428D01*
X39764904Y10838879D01*
X39740586Y10823601D01*
X39707051Y10813445D01*
X39661406Y10809631D01*
X39619762Y10809631D01*
X39619762Y11020656D01*
X39668916Y11020656D01*
X39711875Y11017065D01*
G37*
G36*
X40168068Y10065442D02*
G01*
X37686844Y10065442D01*
X37686844Y10606604D01*
X37797955Y10606604D01*
X37802950Y10485728D01*
X37815550Y10404267D01*
X37832759Y10352042D01*
X37860458Y10305529D01*
X37898573Y10263858D01*
X37948531Y10226623D01*
X38004442Y10199258D01*
X38067360Y10182408D01*
X38138796Y10176553D01*
X38218881Y10183441D01*
X38284975Y10202748D01*
X38324888Y10223180D01*
X38361790Y10249942D01*
X38395983Y10283532D01*
X38437088Y10340326D01*
X38460726Y10395578D01*
X38613909Y10395578D01*
X38656454Y10323632D01*
X38701888Y10269186D01*
X38750197Y10229432D01*
X38805362Y10200436D01*
X38867131Y10182696D01*
X38937042Y10176553D01*
X39004884Y10181968D01*
X39063608Y10197427D01*
X39114803Y10222301D01*
X39159670Y10256726D01*
X39197079Y10299539D01*
X39223468Y10346960D01*
X39239540Y10399945D01*
X39245094Y10459875D01*
X39238921Y10521090D01*
X39220853Y10576318D01*
X39189979Y10628453D01*
X39138543Y10688120D01*
X39005980Y10802914D01*
X38901614Y10894460D01*
X38865968Y10931325D01*
X38853023Y10954763D01*
X38848871Y10978891D01*
X38854505Y11002123D01*
X38872745Y11024076D01*
X38899358Y11038856D01*
X38934234Y11044104D01*
X38969238Y11038641D01*
X39005395Y11021332D01*
X39043993Y10989419D01*
X39085908Y10938591D01*
X39177993Y11020656D01*
X39428520Y11020656D01*
X39428520Y10809631D01*
X39428520Y10637684D01*
X39428520Y10383671D01*
X39428520Y10200000D01*
X39709949Y10200000D01*
X39790841Y10204477D01*
X39853153Y10216497D01*
X39900519Y10234378D01*
X39943402Y10260997D01*
X39980829Y10295371D01*
X40013237Y10338303D01*
X40037489Y10386201D01*
X40052025Y10437224D01*
X40056957Y10492298D01*
X40052010Y10549598D01*
X40037768Y10599908D01*
X40014581Y10644522D01*
X39982591Y10683419D01*
X39938742Y10719211D01*
X39880736Y10751867D01*
X39929086Y10795860D01*
X39959626Y10839795D01*
X39977678Y10888794D01*
X39983867Y10944208D01*
X39977795Y11001160D01*
X39960084Y11051782D01*
X39930561Y11097532D01*
X39891568Y11135848D01*
X39844244Y11165469D01*
X39787130Y11186558D01*
X39714405Y11199015D01*
X39586301Y11204327D01*
X39428520Y11204327D01*
X39428520Y11020656D01*
X39177993Y11020656D01*
X39227325Y11064620D01*
X39171509Y11124246D01*
X39122794Y11165736D01*
X39080108Y11192664D01*
X39033771Y11212248D01*
X38986273Y11223881D01*
X38937042Y11227774D01*
X38879770Y11222921D01*
X38828649Y11208862D01*
X38782543Y11185847D01*
X38740610Y11153464D01*
X38705211Y11113684D01*
X38680692Y11071287D01*
X38666034Y11025564D01*
X38661048Y10975472D01*
X38666066Y10928834D01*
X38681570Y10881089D01*
X38708859Y10831307D01*
X38745320Y10785451D01*
X38811944Y10719179D01*
X38920617Y10626143D01*
X38997869Y10559188D01*
X39031931Y10522340D01*
X39051240Y10487484D01*
X39057210Y10454502D01*
X39053651Y10431104D01*
X39042867Y10409419D01*
X39023749Y10388678D01*
X39000069Y10373056D01*
X38972831Y10363538D01*
X38941072Y10360224D01*
X38898862Y10367261D01*
X38857889Y10389156D01*
X38816619Y10429203D01*
X38774438Y10493092D01*
X38613909Y10395578D01*
X38460726Y10395578D01*
X38461196Y10396677D01*
X38472992Y10466830D01*
X38478293Y10606604D01*
X38478293Y11204327D01*
X38286379Y11204327D01*
X38286379Y10579065D01*
X38281954Y10486311D01*
X38272336Y10442350D01*
X38253086Y10410160D01*
X38221777Y10383366D01*
X38182607Y10366239D01*
X38134705Y10360224D01*
X38089433Y10365661D01*
X38053066Y10380984D01*
X38023861Y10405465D01*
X38004523Y10436550D01*
X37994334Y10477585D01*
X37989869Y10555252D01*
X37989869Y11204327D01*
X37797955Y11204327D01*
X37797955Y10606604D01*
X37686844Y10606604D01*
X37686844Y11338885D01*
X40168068Y11338885D01*
X40168068Y10065442D01*
G37*
G36*
X51167396Y22095442D02*
G01*
X47567174Y22095442D01*
X47567174Y22230000D01*
X47678285Y22230000D01*
X47864764Y22230000D01*
X47974734Y22864299D01*
X48185821Y22230000D01*
X48354532Y22230000D01*
X48568367Y22864299D01*
X48676261Y22230000D01*
X48860725Y22230000D01*
X49000432Y22230000D01*
X49190331Y22230000D01*
X49190331Y22425578D01*
X49318131Y22425578D01*
X49360676Y22353632D01*
X49406110Y22299186D01*
X49454419Y22259432D01*
X49509583Y22230436D01*
X49571353Y22212696D01*
X49641264Y22206553D01*
X49709105Y22211968D01*
X49767830Y22227427D01*
X49819025Y22252301D01*
X49863892Y22286726D01*
X49901301Y22329539D01*
X49927690Y22376960D01*
X49943762Y22429945D01*
X49949316Y22489875D01*
X49943143Y22551090D01*
X49925075Y22606318D01*
X49894201Y22658453D01*
X49842765Y22718120D01*
X49824574Y22733873D01*
X50082855Y22733873D01*
X50089216Y22641900D01*
X50107602Y22559268D01*
X50137423Y22484547D01*
X50178705Y22416572D01*
X50232088Y22354503D01*
X50294543Y22301714D01*
X50363110Y22260796D01*
X50438654Y22231177D01*
X50522359Y22212887D01*
X50615671Y22206553D01*
X50699563Y22211491D01*
X50774531Y22225689D01*
X50841779Y22248502D01*
X50904832Y22281182D01*
X50974595Y22330218D01*
X51052194Y22398894D01*
X50922379Y22533961D01*
X50864806Y22481788D01*
X50814630Y22445147D01*
X50770765Y22421182D01*
X50723874Y22404180D01*
X50673307Y22393785D01*
X50618419Y22390224D01*
X50554448Y22395274D01*
X50495557Y22410070D01*
X50440793Y22434493D01*
X50391221Y22467970D01*
X50350265Y22508422D01*
X50317145Y22556431D01*
X50293183Y22609751D01*
X50278495Y22668619D01*
X50273426Y22734179D01*
X50279792Y22804253D01*
X50298303Y22867007D01*
X50328802Y22923903D01*
X50372100Y22975979D01*
X50424465Y23019014D01*
X50481644Y23049351D01*
X50544674Y23067769D01*
X50615000Y23074104D01*
X50680800Y23068554D01*
X50743644Y23052016D01*
X50804421Y23024184D01*
X50863838Y22984132D01*
X50922379Y22930367D01*
X51056285Y23057129D01*
X50997014Y23116546D01*
X50931077Y23165850D01*
X50857838Y23205567D01*
X50779742Y23234671D01*
X50700189Y23251986D01*
X50618419Y23257774D01*
X50546176Y23253305D01*
X50476979Y23240052D01*
X50410248Y23218038D01*
X50345478Y23187005D01*
X50284789Y23148027D01*
X50232571Y23103975D01*
X50188082Y23054703D01*
X50150816Y22999854D01*
X50121472Y22940558D01*
X50100292Y22876934D01*
X50087308Y22808303D01*
X50082855Y22733873D01*
X49824574Y22733873D01*
X49710202Y22832914D01*
X49605836Y22924460D01*
X49570190Y22961325D01*
X49557245Y22984763D01*
X49553093Y23008891D01*
X49558727Y23032123D01*
X49576967Y23054076D01*
X49603580Y23068856D01*
X49638456Y23074104D01*
X49673460Y23068641D01*
X49709617Y23051332D01*
X49748215Y23019419D01*
X49790130Y22968591D01*
X49931547Y23094620D01*
X49875730Y23154246D01*
X49827016Y23195736D01*
X49784330Y23222664D01*
X49737993Y23242248D01*
X49690494Y23253881D01*
X49641264Y23257774D01*
X49583992Y23252921D01*
X49532871Y23238862D01*
X49486765Y23215847D01*
X49444832Y23183464D01*
X49409433Y23143684D01*
X49384914Y23101287D01*
X49370256Y23055564D01*
X49365270Y23005472D01*
X49370288Y22958834D01*
X49385792Y22911089D01*
X49413080Y22861307D01*
X49449542Y22815451D01*
X49516165Y22749179D01*
X49624839Y22656143D01*
X49702091Y22589188D01*
X49736153Y22552340D01*
X49755462Y22517484D01*
X49761432Y22484502D01*
X49757873Y22461104D01*
X49747089Y22439419D01*
X49727971Y22418678D01*
X49704291Y22403056D01*
X49677053Y22393538D01*
X49645294Y22390224D01*
X49603084Y22397261D01*
X49562111Y22419156D01*
X49520841Y22459203D01*
X49478660Y22523092D01*
X49318131Y22425578D01*
X49190331Y22425578D01*
X49190331Y23234327D01*
X49000432Y23234327D01*
X49000432Y22230000D01*
X48860725Y22230000D01*
X48691343Y23234327D01*
X48506878Y23234327D01*
X48271184Y22533839D01*
X48038970Y23234327D01*
X47851758Y23234327D01*
X47678285Y22230000D01*
X47567174Y22230000D01*
X47567174Y23368885D01*
X51167396Y23368885D01*
X51167396Y22095442D01*
G37*
G36*
X17727736Y75538889D02*
G01*
X15753683Y75538889D01*
X15753683Y75650000D01*
X15864794Y75650000D01*
X16334778Y75650000D01*
X16334778Y75833671D01*
X16056036Y75833671D01*
X16056036Y76470656D01*
X16381184Y76470656D01*
X16559481Y76470656D01*
X16559481Y75650000D01*
X16753532Y75650000D01*
X17068117Y75650000D01*
X17616625Y75650000D01*
X17616625Y75833671D01*
X17258016Y75833671D01*
X17258016Y76103315D01*
X17616625Y76103315D01*
X17616625Y76286986D01*
X17258016Y76286986D01*
X17258016Y76470656D01*
X17616625Y76470656D01*
X17616625Y76654327D01*
X17068117Y76654327D01*
X17068117Y75650000D01*
X16753532Y75650000D01*
X16753532Y76470656D01*
X16936592Y76470656D01*
X16936592Y76654327D01*
X16381184Y76654327D01*
X16381184Y76470656D01*
X16056036Y76470656D01*
X16056036Y76654327D01*
X15864794Y76654327D01*
X15864794Y75650000D01*
X15753683Y75650000D01*
X15753683Y76765438D01*
X17727736Y76765438D01*
X17727736Y75538889D01*
G37*
D11*
X51643408Y48186391D02*
X51929122Y48186391D01*
X51786265Y47686391D02*
X51786265Y48186391D01*
X52095788Y47686391D02*
X52095788Y48186391D01*
X52095788Y48186391D02*
X52286264Y48186391D01*
X52286264Y48186391D02*
X52333883Y48162581D01*
X52333883Y48162581D02*
X52357693Y48138772D01*
X52357693Y48138772D02*
X52381502Y48091153D01*
X52381502Y48091153D02*
X52381502Y48019724D01*
X52381502Y48019724D02*
X52357693Y47972105D01*
X52357693Y47972105D02*
X52333883Y47948296D01*
X52333883Y47948296D02*
X52286264Y47924486D01*
X52286264Y47924486D02*
X52095788Y47924486D01*
X52667217Y47972105D02*
X52619598Y47995915D01*
X52619598Y47995915D02*
X52595788Y48019724D01*
X52595788Y48019724D02*
X52571979Y48067343D01*
X52571979Y48067343D02*
X52571979Y48091153D01*
X52571979Y48091153D02*
X52595788Y48138772D01*
X52595788Y48138772D02*
X52619598Y48162581D01*
X52619598Y48162581D02*
X52667217Y48186391D01*
X52667217Y48186391D02*
X52762455Y48186391D01*
X52762455Y48186391D02*
X52810074Y48162581D01*
X52810074Y48162581D02*
X52833883Y48138772D01*
X52833883Y48138772D02*
X52857693Y48091153D01*
X52857693Y48091153D02*
X52857693Y48067343D01*
X52857693Y48067343D02*
X52833883Y48019724D01*
X52833883Y48019724D02*
X52810074Y47995915D01*
X52810074Y47995915D02*
X52762455Y47972105D01*
X52762455Y47972105D02*
X52667217Y47972105D01*
X52667217Y47972105D02*
X52619598Y47948296D01*
X52619598Y47948296D02*
X52595788Y47924486D01*
X52595788Y47924486D02*
X52571979Y47876867D01*
X52571979Y47876867D02*
X52571979Y47781629D01*
X52571979Y47781629D02*
X52595788Y47734010D01*
X52595788Y47734010D02*
X52619598Y47710200D01*
X52619598Y47710200D02*
X52667217Y47686391D01*
X52667217Y47686391D02*
X52762455Y47686391D01*
X52762455Y47686391D02*
X52810074Y47710200D01*
X52810074Y47710200D02*
X52833883Y47734010D01*
X52833883Y47734010D02*
X52857693Y47781629D01*
X52857693Y47781629D02*
X52857693Y47876867D01*
X52857693Y47876867D02*
X52833883Y47924486D01*
X52833883Y47924486D02*
X52810074Y47948296D01*
X52810074Y47948296D02*
X52762455Y47972105D01*
D12*
%TO.C,Q6*%
X38470000Y22127500D02*
X38470000Y23907500D01*
X41550000Y22127500D02*
X41550000Y23907500D01*
D13*
X38490000Y21717500D02*
G75*
G02*
X38190000Y21717500I-150000J0D01*
G01*
X38190000Y21717500D02*
G75*
G02*
X38490000Y21717500I150000J0D01*
G01*
D12*
%TO.C,C1*%
X11790000Y38830000D02*
X17150000Y38830000D01*
X11790000Y32080000D02*
X17150000Y32080000D01*
X11800000Y34750000D02*
X11790000Y32080000D01*
X11810000Y36200000D02*
X11790000Y38830000D01*
X17150000Y38830000D02*
X18550000Y37440000D01*
X17150000Y32080000D02*
X18550000Y33480000D01*
X18550000Y37440000D02*
X18530000Y36140000D01*
X18550000Y33480000D02*
X18550000Y34770000D01*
D14*
%TO.C,R18*%
X48580000Y30476359D02*
X48580000Y30783641D01*
X49340000Y30476359D02*
X49340000Y30783641D01*
D15*
%TO.C,DC1*%
X12490000Y25380000D02*
X12490000Y23090000D01*
X12490000Y16990000D02*
X12490000Y19530000D01*
X12490000Y13440000D02*
X12490000Y10140000D01*
X12490000Y10900000D02*
X22650000Y10900000D01*
X12490000Y10140000D02*
X22650000Y10140000D01*
X22650000Y25380000D02*
X12490000Y25380000D01*
X22650000Y23090000D02*
X22650000Y25380000D01*
X22650000Y16990000D02*
X22650000Y19530000D01*
X22650000Y10140000D02*
X22650000Y13440000D01*
D14*
%TO.C,U13*%
X27680000Y30110000D02*
X27680000Y26390000D01*
X27680000Y28300000D02*
X28080000Y28300000D01*
X27680000Y27300000D02*
X28080000Y27300000D01*
X27680000Y26390000D02*
X38400000Y26390000D01*
X28080000Y29710000D02*
X28080000Y26790000D01*
X28080000Y26790000D02*
X38000000Y26790000D01*
X29940000Y29310000D02*
X29940000Y29710000D01*
X30040000Y29710000D02*
X30040000Y29310000D01*
X30140000Y29710000D02*
X30140000Y29310000D01*
X30140000Y29310000D02*
X29940000Y29310000D01*
X31440000Y29310000D02*
X31440000Y29710000D01*
X31540000Y29710000D02*
X31540000Y29310000D01*
X31640000Y29710000D02*
X31640000Y29310000D01*
X31640000Y29310000D02*
X31440000Y29310000D01*
X32940000Y29310000D02*
X32940000Y29710000D01*
X33040000Y29710000D02*
X33040000Y29310000D01*
X33140000Y29710000D02*
X33140000Y29310000D01*
X33140000Y29310000D02*
X32940000Y29310000D01*
X34440000Y29310000D02*
X34440000Y29710000D01*
X34540000Y29710000D02*
X34540000Y29310000D01*
X34640000Y29710000D02*
X34640000Y29310000D01*
X34640000Y29310000D02*
X34440000Y29310000D01*
X35940000Y29310000D02*
X35940000Y29710000D01*
X36040000Y29710000D02*
X36040000Y29310000D01*
X36140000Y29710000D02*
X36140000Y29310000D01*
X36140000Y29310000D02*
X35940000Y29310000D01*
X37090000Y26390000D02*
X37090000Y26190000D01*
X37090000Y26290000D02*
X37390000Y26290000D01*
X37090000Y26190000D02*
X37390000Y26190000D01*
X37390000Y26190000D02*
X37390000Y26390000D01*
X37800000Y26190000D02*
X38600000Y26190000D01*
X38000000Y29710000D02*
X28080000Y29710000D01*
X38000000Y26790000D02*
X38000000Y29710000D01*
X38400000Y30110000D02*
X27680000Y30110000D01*
X38400000Y28300000D02*
X38000000Y28300000D01*
X38400000Y27300000D02*
X38000000Y27300000D01*
X38400000Y26390000D02*
X38400000Y30110000D01*
X38600000Y26190000D02*
X38600000Y26990000D01*
%TO.C,R5*%
X38760000Y18243641D02*
X38760000Y17936359D01*
X39520000Y18243641D02*
X39520000Y17936359D01*
%TO.C,C14*%
X43108748Y47400000D02*
X44531252Y47400000D01*
X43108748Y44680000D02*
X44531252Y44680000D01*
D15*
%TO.C,CN3*%
X10840000Y60660000D02*
X10840000Y72660000D01*
X11290000Y72660000D02*
X10840000Y72660000D01*
X11290000Y60660000D02*
X10840000Y60660000D01*
X14590000Y72660000D02*
X14050000Y72660000D01*
X14590000Y72660000D02*
X14590000Y70990000D01*
X14590000Y69830000D02*
X14590000Y69490000D01*
X14590000Y68330000D02*
X14590000Y67990000D01*
X14590000Y66830000D02*
X14590000Y66490000D01*
X14590000Y65330000D02*
X14590000Y64990000D01*
X14590000Y63830000D02*
X14590000Y63490000D01*
X14590000Y62330000D02*
X14590000Y60660000D01*
X14590000Y60660000D02*
X14050000Y60660000D01*
D14*
%TO.C,R49*%
X48702742Y45460000D02*
X49177258Y45460000D01*
X48702742Y44415000D02*
X49177258Y44415000D01*
%TO.C,C6*%
X39851252Y45550000D02*
X38428748Y45550000D01*
X39851252Y42830000D02*
X38428748Y42830000D01*
D12*
%TO.C,D5*%
X31450000Y21300000D02*
X31450000Y23100000D01*
X34570000Y21300000D02*
X34570000Y23100000D01*
D13*
X31490000Y20900000D02*
G75*
G02*
X31190000Y20900000I-150000J0D01*
G01*
X31190000Y20900000D02*
G75*
G02*
X31490000Y20900000I150000J0D01*
G01*
D16*
%TO.C,RF1*%
X53170000Y99277500D02*
X53170000Y99137500D01*
X53170000Y96807500D02*
X53170000Y96677500D01*
X53170000Y96677500D02*
X53900000Y96677500D01*
X55040000Y96677500D02*
X55770000Y96677500D01*
X55770000Y99277500D02*
X53170000Y99277500D01*
X55770000Y99137500D02*
X55770000Y99277500D01*
X55770000Y96677500D02*
X55770000Y96807500D01*
D14*
%TO.C,R54*%
X33587258Y77142500D02*
X33112742Y77142500D01*
X33587258Y76097500D02*
X33112742Y76097500D01*
D11*
%TO.C,U7*%
X40050000Y51500000D02*
X40050000Y51050000D01*
X40050000Y48960000D02*
X40050000Y48500000D01*
X40510000Y51500000D02*
X40050000Y51500000D01*
X40510000Y48500000D02*
X40050000Y48500000D01*
X43050000Y51500000D02*
X42590000Y51500000D01*
X43050000Y51050000D02*
X43050000Y51500000D01*
X43050000Y48500000D02*
X42590000Y48500000D01*
X43050000Y48500000D02*
X43050000Y48960000D01*
D15*
X42800001Y51740000D02*
X42800001Y51740000D01*
X42800001Y51740000D01*
X42800001Y51740000D01*
X42800001Y51740000D01*
X42800001Y51740000D01*
X42800001Y51739999D01*
X42800001Y51739999D01*
X42800001Y51739999D01*
X42800001Y51739999D01*
X42800001Y51739999D01*
X42800001Y51739999D01*
X42800001Y51739999D01*
X42800000Y51739999D01*
X42800000Y51739999D01*
X42800000Y51739999D01*
X42800000Y51739999D01*
X42800000Y51739999D01*
X42800000Y51739999D01*
X42800000Y51739999D01*
X42800000Y51739999D01*
X42800000Y51739999D01*
X42800000Y51739999D01*
X42800000Y51739999D01*
X42800000Y51739999D01*
X42799999Y51739999D01*
X42799999Y51739999D01*
X42799999Y51739999D01*
X42799999Y51739999D01*
X42799999Y51739999D01*
X42799999Y51739999D01*
X42799999Y51740000D01*
X42799999Y51740000D01*
X42799999Y51740000D01*
X42799999Y51740000D01*
X42799999Y51740000D01*
X42799999Y51740000D01*
X42799999Y51740000D02*
X42799999Y51740000D01*
X42799999Y51740000D01*
X42799999Y51740000D01*
X42799999Y51740000D01*
X42799999Y51740000D01*
X42799999Y51740000D01*
X42799999Y51740001D01*
X42799999Y51740001D01*
X42799999Y51740001D01*
X42799999Y51740001D01*
X42799999Y51740001D01*
X42800000Y51740001D01*
X42800000Y51740001D01*
X42800000Y51740001D01*
X42800000Y51740001D01*
X42800000Y51740001D01*
X42800000Y51740001D01*
X42800000Y51740001D01*
X42800000Y51740001D01*
X42800000Y51740001D01*
X42800000Y51740001D01*
X42800000Y51740001D01*
X42800000Y51740001D01*
X42800001Y51740001D01*
X42800001Y51740001D01*
X42800001Y51740001D01*
X42800001Y51740001D01*
X42800001Y51740001D01*
X42800001Y51740001D01*
X42800001Y51740000D01*
X42800001Y51740000D01*
X42800001Y51740000D01*
X42800001Y51740000D01*
X42800001Y51740000D01*
X42800001Y51740000D01*
X42800001Y51740000D01*
%TO.C,USB1*%
X28500000Y13810000D02*
X28500000Y15800000D01*
X28500000Y10230000D02*
X28500000Y11850000D01*
X37500000Y10230000D02*
X28500000Y10230000D01*
X37570000Y13810000D02*
X37570000Y15800000D01*
X37570000Y10380000D02*
X37570000Y11850000D01*
D14*
%TO.C,C39*%
X19287836Y70750000D02*
X19072164Y70750000D01*
X19287836Y70030000D02*
X19072164Y70030000D01*
%TO.C,C4*%
X43108748Y44130000D02*
X44531252Y44130000D01*
X43108748Y41410000D02*
X44531252Y41410000D01*
%TO.C,Q13*%
X48230000Y48200000D02*
X48230000Y48850000D01*
X48230000Y48200000D02*
X48230000Y47550000D01*
X51350000Y48200000D02*
X51350000Y48850000D01*
X51350000Y48200000D02*
X51350000Y47550000D01*
X51630000Y49122500D02*
X51300000Y49362500D01*
X51630000Y49602500D01*
X51630000Y49122500D01*
G36*
X51630000Y49122500D02*
G01*
X51300000Y49362500D01*
X51630000Y49602500D01*
X51630000Y49122500D01*
G37*
%TO.C,C23*%
X32578748Y51660000D02*
X34001252Y51660000D01*
X32578748Y48940000D02*
X34001252Y48940000D01*
%TO.C,R12*%
X26723641Y44040000D02*
X26416359Y44040000D01*
X26723641Y43280000D02*
X26416359Y43280000D01*
D15*
%TO.C,U9*%
X20560000Y69230000D02*
X21560000Y69230000D01*
X20560000Y66430000D02*
X20560000Y69230000D01*
X21560000Y69230000D02*
X21560000Y66430000D01*
X21560000Y66430000D02*
X20560000Y66430000D01*
X19790001Y69490000D02*
X19790001Y69490000D01*
X19790001Y69490000D01*
X19790001Y69490000D01*
X19790001Y69490000D01*
X19790001Y69490000D01*
X19790001Y69489999D01*
X19790001Y69489999D01*
X19790001Y69489999D01*
X19790001Y69489999D01*
X19790001Y69489999D01*
X19790001Y69489999D01*
X19790001Y69489999D01*
X19790000Y69489999D01*
X19790000Y69489999D01*
X19790000Y69489999D01*
X19790000Y69489999D01*
X19790000Y69489999D01*
X19790000Y69489999D01*
X19790000Y69489999D01*
X19790000Y69489999D01*
X19790000Y69489999D01*
X19790000Y69489999D01*
X19790000Y69489999D01*
X19790000Y69489999D01*
X19789999Y69489999D01*
X19789999Y69489999D01*
X19789999Y69489999D01*
X19789999Y69489999D01*
X19789999Y69489999D01*
X19789999Y69489999D01*
X19789999Y69490000D01*
X19789999Y69490000D01*
X19789999Y69490000D01*
X19789999Y69490000D01*
X19789999Y69490000D01*
X19789999Y69490000D01*
X19789999Y69490000D02*
X19789999Y69490000D01*
X19789999Y69490000D01*
X19789999Y69490000D01*
X19789999Y69490000D01*
X19789999Y69490000D01*
X19789999Y69490000D01*
X19789999Y69490001D01*
X19789999Y69490001D01*
X19789999Y69490001D01*
X19789999Y69490001D01*
X19789999Y69490001D01*
X19790000Y69490001D01*
X19790000Y69490001D01*
X19790000Y69490001D01*
X19790000Y69490001D01*
X19790000Y69490001D01*
X19790000Y69490001D01*
X19790000Y69490001D01*
X19790000Y69490001D01*
X19790000Y69490001D01*
X19790000Y69490001D01*
X19790000Y69490001D01*
X19790000Y69490001D01*
X19790001Y69490001D01*
X19790001Y69490001D01*
X19790001Y69490001D01*
X19790001Y69490001D01*
X19790001Y69490001D01*
X19790001Y69490001D01*
X19790001Y69490000D01*
X19790001Y69490000D01*
X19790001Y69490000D01*
X19790001Y69490000D01*
X19790001Y69490000D01*
X19790001Y69490000D01*
X19790001Y69490000D01*
D14*
%TO.C,R19*%
X41680000Y28416359D02*
X41680000Y28723641D01*
X42440000Y28416359D02*
X42440000Y28723641D01*
%TO.C,C44*%
X37010000Y62712164D02*
X37010000Y62927836D01*
X37730000Y62712164D02*
X37730000Y62927836D01*
D15*
%TO.C,Q2*%
X21420000Y35380000D02*
X21420000Y31980000D01*
X21420000Y35380000D02*
X21660000Y35380000D01*
X21420000Y31980000D02*
X21660000Y31980000D01*
X24470000Y35380000D02*
X24720000Y35380000D01*
X24470000Y31980000D02*
X24720000Y31980000D01*
X24720000Y31980000D02*
X24720000Y35380000D01*
X21710000Y31560000D02*
G75*
G02*
X21610000Y31560000I-50000J0D01*
G01*
X21610000Y31560000D02*
G75*
G02*
X21710000Y31560000I50000J0D01*
G01*
D14*
%TO.C,C26*%
X49332164Y28270000D02*
X49547836Y28270000D01*
X49332164Y27550000D02*
X49547836Y27550000D01*
D12*
%TO.C,D4*%
X27200000Y24230000D02*
X28980000Y24230000D01*
X27200000Y24090000D02*
X27200000Y24230000D01*
X27200000Y22960000D02*
X27200000Y23100000D01*
X27200000Y22960000D02*
X28980000Y22960000D01*
X27580000Y23600000D02*
X27830000Y23600000D01*
X27830000Y23850000D02*
X28090000Y23600000D01*
X27830000Y23340000D02*
X27830000Y23850000D01*
X28090000Y23600000D02*
X27830000Y23340000D01*
X28090000Y23600000D02*
X28340000Y23850000D01*
X28340000Y23850000D02*
X28340000Y23340000D01*
X28340000Y23340000D02*
X28090000Y23600000D01*
X28590000Y23600000D02*
X28210000Y23600000D01*
X28980000Y24230000D02*
X28980000Y24090000D01*
X28980000Y23100000D02*
X28980000Y22960000D01*
D14*
%TO.C,R11*%
X18406359Y41220000D02*
X18713641Y41220000D01*
X18406359Y40460000D02*
X18713641Y40460000D01*
%TO.C,C22*%
X11897836Y44160000D02*
X11682164Y44160000D01*
X11897836Y43440000D02*
X11682164Y43440000D01*
%TO.C,R1*%
X16990000Y28213859D02*
X16990000Y28521141D01*
X17750000Y28213859D02*
X17750000Y28521141D01*
D15*
%TO.C,U12*%
X40980000Y57010000D02*
X40980000Y53010000D01*
X40980000Y57010000D02*
X44980000Y57010000D01*
X40980000Y53010000D02*
X44980000Y53010000D01*
X44980000Y57010000D02*
X44980000Y53010000D01*
D12*
%TO.C,R8*%
X25570000Y53060000D02*
X29480000Y53060000D01*
X25570000Y51620000D02*
X25570000Y53060000D01*
X25570000Y46040000D02*
X25570000Y44600000D01*
X25570000Y44600000D02*
X29480000Y44600000D01*
X29480000Y53060000D02*
X29480000Y51620000D01*
X29480000Y44600000D02*
X29480000Y46040000D01*
D14*
%TO.C,C43*%
X49559420Y95460000D02*
X49840580Y95460000D01*
X49559420Y94440000D02*
X49840580Y94440000D01*
D15*
%TO.C,L2*%
X38960000Y75660000D02*
X38960000Y91660000D01*
X38960000Y75660000D02*
X39640000Y75660000D01*
X39640000Y91660000D02*
X38960000Y91660000D01*
X41300000Y75660000D02*
X41640000Y75660000D01*
X41640000Y91660000D02*
X41300000Y91660000D01*
X43300000Y75660000D02*
X43640000Y75660000D01*
X43640000Y91660000D02*
X43300000Y91660000D01*
X45300000Y75660000D02*
X45640000Y75660000D01*
X45640000Y91660000D02*
X45300000Y91660000D01*
X47300000Y75660000D02*
X47640000Y75660000D01*
X47640000Y91660000D02*
X47300000Y91660000D01*
X49300000Y75660000D02*
X49640000Y75660000D01*
X49640000Y91660000D02*
X49300000Y91660000D01*
X51300000Y75660000D02*
X51640000Y75660000D01*
X51640000Y91660000D02*
X51300000Y91660000D01*
X53300000Y75660000D02*
X53640000Y75660000D01*
X53640000Y91660000D02*
X53300000Y91660000D01*
X55300000Y75660000D02*
X55980000Y75660000D01*
X55980000Y91660000D02*
X55300000Y91660000D01*
X55980000Y91660000D02*
X55980000Y75660000D01*
X56100000Y92420000D02*
G75*
G02*
X55340000Y92420000I-380000J0D01*
G01*
X55340000Y92420000D02*
G75*
G02*
X56100000Y92420000I380000J0D01*
G01*
D14*
%TO.C,R60*%
X36856359Y22247500D02*
X37163641Y22247500D01*
X36856359Y21487500D02*
X37163641Y21487500D01*
D12*
%TO.C,U17*%
X42820000Y30090000D02*
X47880000Y30090000D01*
X42820000Y27050000D02*
X42820000Y30090000D01*
X47880000Y30090000D02*
X47880000Y27050000D01*
X47880000Y27050000D02*
X42820000Y27050000D01*
D13*
X47410000Y29340000D02*
G75*
G02*
X47110000Y29340000I-150000J0D01*
G01*
X47110000Y29340000D02*
G75*
G02*
X47410000Y29340000I150000J0D01*
G01*
X48150000Y31340000D02*
G75*
G02*
X47850000Y31340000I-150000J0D01*
G01*
X47850000Y31340000D02*
G75*
G02*
X48150000Y31340000I150000J0D01*
G01*
D14*
%TO.C,R50*%
X40057500Y66452742D02*
X40057500Y66927258D01*
X41102500Y66452742D02*
X41102500Y66927258D01*
%TO.C,C48*%
X26990000Y69700580D02*
X26990000Y69419420D01*
X28010000Y69700580D02*
X28010000Y69419420D01*
%TO.C,C13*%
X44465000Y51351252D02*
X44465000Y50828748D01*
X45935000Y51351252D02*
X45935000Y50828748D01*
%TO.C,R55*%
X50127258Y54922500D02*
X49652742Y54922500D01*
X50127258Y53877500D02*
X49652742Y53877500D01*
%TO.C,R56*%
X49652742Y56422500D02*
X50127258Y56422500D01*
X49652742Y55377500D02*
X50127258Y55377500D01*
D12*
%TO.C,SW2*%
X53160000Y50080000D02*
X53590000Y50080000D01*
X53160000Y46020000D02*
X53160000Y50080000D01*
X53590000Y46020000D02*
X53160000Y46020000D01*
X56240000Y50080000D02*
X55810000Y50080000D01*
X56240000Y46020000D02*
X55810000Y46020000D01*
X56240000Y46020000D02*
X56240000Y50080000D01*
D15*
X55600000Y48050000D02*
G75*
G02*
X53800000Y48050000I-900000J0D01*
G01*
X53800000Y48050000D02*
G75*
G02*
X55600000Y48050000I900000J0D01*
G01*
%TO.C,D10*%
X43770000Y16475000D02*
X43770000Y17475000D01*
X44630000Y16475000D02*
X43770000Y16475000D01*
X45580000Y17875000D02*
X44950000Y17875000D01*
X46770000Y16475000D02*
X45900000Y16475000D01*
X46770000Y16475000D02*
X46770000Y17475000D01*
D14*
%TO.C,R6*%
X34210000Y40253641D02*
X34210000Y39946359D01*
X34970000Y40253641D02*
X34970000Y39946359D01*
%TO.C,J6*%
X10520000Y88410000D02*
X11850000Y88410000D01*
X10520000Y87080000D02*
X10520000Y88410000D01*
X10520000Y85810000D02*
X10520000Y75590000D01*
X10520000Y85810000D02*
X13120000Y85810000D01*
X10520000Y75590000D02*
X15720000Y75590000D01*
X13120000Y88410000D02*
X15720000Y88410000D01*
X13120000Y85810000D02*
X13120000Y88410000D01*
X15720000Y88410000D02*
X15720000Y75590000D01*
%TO.C,R47*%
X50157258Y51562500D02*
X49682742Y51562500D01*
X50157258Y50517500D02*
X49682742Y50517500D01*
%TO.C,C21*%
X14681252Y42220000D02*
X13258748Y42220000D01*
X14681252Y39500000D02*
X13258748Y39500000D01*
%TO.C,C25*%
X26727836Y41340000D02*
X26512164Y41340000D01*
X26727836Y40620000D02*
X26512164Y40620000D01*
D12*
%TO.C,X1*%
X32730000Y68500000D02*
X32730000Y66840000D01*
X32730000Y66840000D02*
X34590000Y66840000D01*
X32960000Y70430000D02*
X37020000Y70430000D01*
X32960000Y67070000D02*
X32960000Y70430000D01*
X37020000Y70430000D02*
X37020000Y67070000D01*
X37020000Y67070000D02*
X32960000Y67070000D01*
D14*
%TO.C,D8*%
X52032500Y58540000D02*
X52032500Y56840000D01*
X52032500Y58540000D02*
X54692500Y58540000D01*
X52032500Y56840000D02*
X54692500Y56840000D01*
%TO.C,R13*%
X26416359Y43040000D02*
X26723641Y43040000D01*
X26416359Y42280000D02*
X26723641Y42280000D01*
%TO.C,C12*%
X49329664Y29320000D02*
X49545336Y29320000D01*
X49329664Y28600000D02*
X49545336Y28600000D01*
D15*
%TO.C,L3*%
X17270000Y55160000D02*
X23670000Y55160000D01*
X17270000Y48560000D02*
X17270000Y55160000D01*
X23670000Y55160000D02*
X23670000Y48560000D01*
X23670000Y48560000D02*
X17270000Y48560000D01*
D14*
%TO.C,R4*%
X26460000Y18243641D02*
X26460000Y17936359D01*
X27220000Y18243641D02*
X27220000Y17936359D01*
%TO.C,D2*%
X13150000Y59560000D02*
X13150000Y54050000D01*
X16450000Y59560000D02*
X13150000Y59560000D01*
X16450000Y59560000D02*
X16450000Y54050000D01*
%TO.C,C46*%
X28510000Y69700580D02*
X28510000Y69419420D01*
X29530000Y69700580D02*
X29530000Y69419420D01*
D12*
%TO.C,U5*%
X20800000Y30417500D02*
X19020000Y30417500D01*
X20800000Y27337500D02*
X19020000Y27337500D01*
D13*
X21360000Y27207500D02*
G75*
G02*
X21060000Y27207500I-150000J0D01*
G01*
X21060000Y27207500D02*
G75*
G02*
X21360000Y27207500I150000J0D01*
G01*
D14*
%TO.C,R53*%
X33747258Y72732500D02*
X33272742Y72732500D01*
X33747258Y71687500D02*
X33272742Y71687500D01*
D15*
%TO.C,Q3*%
X35610000Y37750000D02*
X35610000Y37510000D01*
X35610000Y34700000D02*
X35610000Y34450000D01*
X35610000Y34450000D02*
X39010000Y34450000D01*
X39010000Y37750000D02*
X35610000Y37750000D01*
X39010000Y37750000D02*
X39010000Y37510000D01*
X39010000Y34700000D02*
X39010000Y34450000D01*
X35240000Y37510000D02*
G75*
G02*
X35140000Y37510000I-50000J0D01*
G01*
X35140000Y37510000D02*
G75*
G02*
X35240000Y37510000I50000J0D01*
G01*
%TO.C,Card1*%
X41895000Y60760000D02*
X41845000Y69160000D01*
X43325000Y70560000D02*
X45945000Y70560000D01*
X45915000Y59310000D02*
X43325000Y59310000D01*
X47725000Y70800000D02*
X48595000Y70800000D01*
X48595000Y70800000D02*
X48595000Y69400000D01*
X48595000Y60510000D02*
X48595000Y59120000D01*
X48595000Y59120000D02*
X47725000Y59120000D01*
D17*
X49445000Y69610000D02*
G75*
G02*
X49045000Y69610000I-200000J0D01*
G01*
X49045000Y69610000D02*
G75*
G02*
X49445000Y69610000I200000J0D01*
G01*
D12*
%TO.C,U8*%
X31590000Y34280000D02*
X33370000Y34280000D01*
X31590000Y31200000D02*
X33370000Y31200000D01*
D13*
X31330000Y34410000D02*
G75*
G02*
X31030000Y34410000I-150000J0D01*
G01*
X31030000Y34410000D02*
G75*
G02*
X31330000Y34410000I150000J0D01*
G01*
D15*
%TO.C,Q5*%
X11670000Y50200000D02*
X11670000Y48830000D01*
X11670000Y50200000D02*
X11750000Y50200000D01*
X11670000Y46200000D02*
X11670000Y47570000D01*
X11670000Y46200000D02*
X11750000Y46200000D01*
X12780000Y50200000D02*
X13020000Y50200000D01*
X12780000Y46200000D02*
X13020000Y46200000D01*
X14050000Y50200000D02*
X14290000Y50200000D01*
X14050000Y46200000D02*
X14290000Y46200000D01*
X15320000Y50200000D02*
X15560000Y50200000D01*
X15320000Y46200000D02*
X15560000Y46200000D01*
X16590000Y50200000D02*
X16670000Y50200000D01*
X16590000Y46200000D02*
X16670000Y46200000D01*
X16670000Y50200000D02*
X16670000Y46200000D01*
X11670000Y48830000D02*
G75*
G02*
X11675182Y47570927I-109999J-630000D01*
G01*
D13*
X11530000Y45660000D02*
G75*
G02*
X11230000Y45660000I-150000J0D01*
G01*
X11230000Y45660000D02*
G75*
G02*
X11530000Y45660000I150000J0D01*
G01*
X12410000Y46930000D02*
G75*
G02*
X12110000Y46930000I-150000J0D01*
G01*
X12110000Y46930000D02*
G75*
G02*
X12410000Y46930000I150000J0D01*
G01*
D14*
%TO.C,C16*%
X38100000Y49229420D02*
X38100000Y49510580D01*
X39120000Y49229420D02*
X39120000Y49510580D01*
%TO.C,R58*%
X23657258Y75062500D02*
X23182742Y75062500D01*
X23657258Y74017500D02*
X23182742Y74017500D01*
%TO.C,R48*%
X51807258Y53122500D02*
X51332742Y53122500D01*
X51807258Y52077500D02*
X51332742Y52077500D01*
D15*
%TO.C,CN4*%
X52740000Y43950000D02*
X56240000Y43950000D01*
X52740000Y36450000D02*
X52740000Y43950000D01*
X53090000Y43550000D02*
X55840000Y43550000D01*
X53090000Y36850000D02*
X53090000Y43550000D01*
X53390000Y36450000D02*
X53390000Y36850000D01*
X53440000Y43550000D02*
X53440000Y43950000D01*
X54040000Y36450000D02*
X54040000Y36850000D01*
X54090000Y43550000D02*
X54090000Y43950000D01*
X55840000Y43550000D02*
X55840000Y36850000D01*
X55840000Y36850000D02*
X53090000Y36850000D01*
X56240000Y43950000D02*
X56240000Y36450000D01*
X56240000Y36450000D02*
X52740000Y36450000D01*
%TO.C,Q1*%
X13240000Y31007500D02*
X13240000Y27607500D01*
X13240000Y31007500D02*
X13480000Y31007500D01*
X13240000Y27607500D02*
X13480000Y27607500D01*
X16290000Y31007500D02*
X16540000Y31007500D01*
X16290000Y27607500D02*
X16540000Y27607500D01*
X16540000Y27607500D02*
X16540000Y31007500D01*
X13530000Y27187500D02*
G75*
G02*
X13430000Y27187500I-50000J0D01*
G01*
X13430000Y27187500D02*
G75*
G02*
X13530000Y27187500I50000J0D01*
G01*
D14*
%TO.C,D16*%
X20670000Y36925000D02*
X22955000Y36925000D01*
X22955000Y38395000D02*
X20670000Y38395000D01*
X22955000Y36925000D02*
X22955000Y38395000D01*
%TO.C,C18*%
X19597836Y26860000D02*
X19382164Y26860000D01*
X19597836Y26140000D02*
X19382164Y26140000D01*
D12*
%TO.C,U10*%
X31200000Y41162500D02*
X32980000Y41162500D01*
X31200000Y38082500D02*
X32980000Y38082500D01*
D13*
X30940000Y41292500D02*
G75*
G02*
X30640000Y41292500I-150000J0D01*
G01*
X30640000Y41292500D02*
G75*
G02*
X30940000Y41292500I150000J0D01*
G01*
D14*
%TO.C,R57*%
X23657258Y76572500D02*
X23182742Y76572500D01*
X23657258Y75527500D02*
X23182742Y75527500D01*
%TO.C,C19*%
X31702164Y35690000D02*
X31917836Y35690000D01*
X31702164Y34970000D02*
X31917836Y34970000D01*
D11*
%TO.C,U15*%
X16400000Y94680000D02*
X16400000Y94840000D01*
X17320000Y95310000D02*
X16400000Y95310000D01*
X17320000Y95310000D02*
X17490000Y95310000D01*
X17500000Y94740000D02*
X17500000Y94830000D01*
X17500000Y94740000D02*
X17500000Y94700000D01*
X17500000Y94200000D02*
X16410000Y94200000D01*
X17770000Y94430000D02*
G75*
G02*
X17670000Y94430000I-50000J0D01*
G01*
X17670000Y94430000D02*
G75*
G02*
X17770000Y94430000I50000J0D01*
G01*
D12*
%TO.C,D3*%
X52790000Y95070000D02*
X52980000Y95060000D01*
X52790000Y94060000D02*
X52790000Y95070000D01*
X52980000Y95060000D02*
X52980000Y94060000D01*
X52980000Y95060000D02*
X52980000Y94060000D01*
X52980000Y94060000D02*
X52800000Y94060000D01*
X52980000Y94060000D02*
X53640000Y94060000D01*
X52980000Y94060000D02*
X53640000Y94060000D01*
X52990000Y94060000D02*
X52790000Y94060000D01*
X53640000Y95060000D02*
X52980000Y95060000D01*
D18*
X53960000Y94810000D02*
X53960000Y94310000D01*
D12*
X54290000Y94050000D02*
X54950000Y94050000D01*
X54950000Y95060000D02*
X54290000Y95060000D01*
X54950000Y95060000D02*
X55140000Y95060000D01*
X54950000Y94050000D02*
X54950000Y95060000D01*
X55140000Y95060000D02*
X55140000Y94060000D01*
X55140000Y94060000D02*
X54810000Y94060000D01*
D14*
%TO.C,D1*%
X16730000Y59700000D02*
X16730000Y56400000D01*
X16730000Y59700000D02*
X22240000Y59700000D01*
X16730000Y56400000D02*
X22240000Y56400000D01*
D16*
%TO.C,Q15*%
X32735000Y75560000D02*
X32735000Y75650000D01*
X32735000Y73450000D02*
X32735000Y73530000D01*
X34135000Y75650000D02*
X32735000Y75650000D01*
X34135000Y75560000D02*
X34135000Y75650000D01*
X34135000Y73450000D02*
X32735000Y73450000D01*
X34135000Y73450000D02*
X34135000Y73530000D01*
D15*
X34585000Y73280000D02*
G75*
G02*
X34325000Y73280000I-130000J0D01*
G01*
X34325000Y73280000D02*
G75*
G02*
X34585000Y73280000I130000J0D01*
G01*
D14*
%TO.C,C41*%
X14440580Y94950000D02*
X14159420Y94950000D01*
X14440580Y93930000D02*
X14159420Y93930000D01*
%TO.C,R9*%
X18690000Y43503641D02*
X18690000Y43196359D01*
X19450000Y43503641D02*
X19450000Y43196359D01*
%TO.C,C40*%
X14159420Y93300000D02*
X14440580Y93300000D01*
X14159420Y92280000D02*
X14440580Y92280000D01*
%TO.C,D6*%
X51400000Y58550000D02*
X48740000Y58550000D01*
X51400000Y56850000D02*
X48740000Y56850000D01*
X51400000Y56850000D02*
X51400000Y58550000D01*
%TO.C,R69*%
X45547258Y20697500D02*
X45072742Y20697500D01*
X45547258Y19652500D02*
X45072742Y19652500D01*
%TO.C,D7*%
X52020000Y55250000D02*
X52020000Y53550000D01*
X52020000Y55250000D02*
X54680000Y55250000D01*
X52020000Y53550000D02*
X54680000Y53550000D01*
%TO.C,R2*%
X25180000Y32596359D02*
X25180000Y32903641D01*
X25940000Y32596359D02*
X25940000Y32903641D01*
%TO.C,C47*%
X25180000Y75159420D02*
X25180000Y75440580D01*
X26200000Y75159420D02*
X26200000Y75440580D01*
D12*
%TO.C,C7*%
X30090000Y58080000D02*
X30090000Y56790000D01*
X30090000Y54120000D02*
X30110000Y55420000D01*
X31490000Y59480000D02*
X30090000Y58080000D01*
X31490000Y52730000D02*
X30090000Y54120000D01*
X36830000Y55360000D02*
X36850000Y52730000D01*
X36840000Y56810000D02*
X36850000Y59480000D01*
X36850000Y59480000D02*
X31490000Y59480000D01*
X36850000Y52730000D02*
X31490000Y52730000D01*
D14*
%TO.C,R67*%
X45547500Y22912258D02*
X45547500Y22437742D01*
X46592500Y22912258D02*
X46592500Y22437742D01*
%TO.C,C15*%
X40637836Y46670000D02*
X40422164Y46670000D01*
X40637836Y45950000D02*
X40422164Y45950000D01*
D10*
%TO.C,U14*%
X31980000Y65750000D02*
X32380000Y65750000D01*
X31980000Y65350000D02*
X31980000Y65750000D01*
X31980000Y61850000D02*
X31980000Y61450000D01*
X31980000Y61450000D02*
X32380000Y61450000D01*
X35880000Y65750000D02*
X36280000Y65750000D01*
X36280000Y65750000D02*
X36280000Y65350000D01*
X36280000Y61850000D02*
X36280000Y61450000D01*
X36280000Y61450000D02*
X35880000Y61450000D01*
D15*
%TO.C,U1*%
X18720000Y98440000D02*
X18720000Y97660000D01*
X18720000Y98440000D02*
X36740000Y98440000D01*
X18720000Y79790000D02*
X18720000Y78940000D01*
X18720000Y78940000D02*
X20050000Y78940000D01*
X35390000Y78940000D02*
X36740000Y78940000D01*
X36740000Y97660000D02*
X36740000Y98440000D01*
X36740000Y78940000D02*
X36740000Y79790000D01*
X18040000Y98040000D02*
G75*
G02*
X17680000Y98040000I-180000J0D01*
G01*
X17680000Y98040000D02*
G75*
G02*
X18040000Y98040000I180000J0D01*
G01*
D14*
%TO.C,R68*%
X44047500Y22912258D02*
X44047500Y22437742D01*
X45092500Y22912258D02*
X45092500Y22437742D01*
%TO.C,C42*%
X49840580Y96990000D02*
X49559420Y96990000D01*
X49840580Y95970000D02*
X49559420Y95970000D01*
D12*
%TO.C,U6*%
X28855000Y35720000D02*
X27075000Y35720000D01*
X28855000Y32640000D02*
X27075000Y32640000D01*
D13*
X29415000Y32510000D02*
G75*
G02*
X29115000Y32510000I-150000J0D01*
G01*
X29115000Y32510000D02*
G75*
G02*
X29415000Y32510000I150000J0D01*
G01*
D14*
%TO.C,C17*%
X27697836Y32140000D02*
X27482164Y32140000D01*
X27697836Y31420000D02*
X27482164Y31420000D01*
%TO.C,R7*%
X26436359Y40360000D02*
X26743641Y40360000D01*
X26436359Y39600000D02*
X26743641Y39600000D01*
D12*
%TO.C,SW3*%
X11890000Y98800000D02*
X11890000Y98370000D01*
X11890000Y95720000D02*
X11890000Y96150000D01*
X15950000Y98800000D02*
X11890000Y98800000D01*
X15950000Y98800000D02*
X15950000Y98370000D01*
X15950000Y96150000D02*
X15950000Y95720000D01*
X15950000Y95720000D02*
X11890000Y95720000D01*
D15*
X14820000Y97260000D02*
G75*
G02*
X13020000Y97260000I-900000J0D01*
G01*
X13020000Y97260000D02*
G75*
G02*
X14820000Y97260000I900000J0D01*
G01*
D14*
%TO.C,R3*%
X35216359Y34070000D02*
X35523641Y34070000D01*
X35216359Y33310000D02*
X35523641Y33310000D01*
D15*
%TO.C,U3*%
X27770000Y75260000D02*
X27770000Y74860000D01*
X27770000Y72650000D02*
X27770000Y72260000D01*
X27770000Y72260000D02*
X28160000Y72260000D01*
X28160000Y75260000D02*
X27770000Y75260000D01*
X30370000Y72260000D02*
X30770000Y72260000D01*
X30770000Y75260000D02*
X30370000Y75260000D01*
X30770000Y75260000D02*
X30770000Y74860000D01*
X30770000Y72650000D02*
X30770000Y72260000D01*
X27340000Y74860000D02*
G75*
G02*
X27100000Y74860000I-120000J0D01*
G01*
X27100000Y74860000D02*
G75*
G02*
X27340000Y74860000I120000J0D01*
G01*
D14*
%TO.C,R10*%
X23190000Y37813641D02*
X23190000Y37506359D01*
X23950000Y37813641D02*
X23950000Y37506359D01*
D15*
%TO.C,Q4*%
X35690000Y42050000D02*
X35690000Y41810000D01*
X35690000Y39000000D02*
X35690000Y38750000D01*
X35690000Y38750000D02*
X39090000Y38750000D01*
X39090000Y42050000D02*
X35690000Y42050000D01*
X39090000Y42050000D02*
X39090000Y41810000D01*
X39090000Y39000000D02*
X39090000Y38750000D01*
X35320000Y41810000D02*
G75*
G02*
X35220000Y41810000I-50000J0D01*
G01*
X35220000Y41810000D02*
G75*
G02*
X35320000Y41810000I50000J0D01*
G01*
D14*
%TO.C,C45*%
X38010000Y62712164D02*
X38010000Y62927836D01*
X38730000Y62712164D02*
X38730000Y62927836D01*
%TO.C,J5*%
X51220000Y23310000D02*
X52550000Y23310000D01*
X51220000Y21980000D02*
X51220000Y23310000D01*
X51220000Y20710000D02*
X51220000Y10490000D01*
X51220000Y20710000D02*
X53820000Y20710000D01*
X51220000Y10490000D02*
X56420000Y10490000D01*
X53820000Y23310000D02*
X56420000Y23310000D01*
X53820000Y20710000D02*
X53820000Y23310000D01*
X56420000Y23310000D02*
X56420000Y10490000D01*
%TO.C,C24*%
X18677836Y42220000D02*
X18462164Y42220000D01*
X18677836Y41500000D02*
X18462164Y41500000D01*
%TO.C,C38*%
X22832164Y70750000D02*
X23047836Y70750000D01*
X22832164Y70030000D02*
X23047836Y70030000D01*
D12*
%TO.C,U11*%
X20047500Y44260000D02*
X25107500Y44260000D01*
X20047500Y41220000D02*
X20047500Y44260000D01*
X25107500Y44260000D02*
X25107500Y41220000D01*
X25107500Y41220000D02*
X20047500Y41220000D01*
D13*
X20007500Y39980000D02*
G75*
G02*
X19707500Y39980000I-150000J0D01*
G01*
X19707500Y39980000D02*
G75*
G02*
X20007500Y39980000I150000J0D01*
G01*
X20727500Y41970000D02*
G75*
G02*
X20427500Y41970000I-150000J0D01*
G01*
X20427500Y41970000D02*
G75*
G02*
X20727500Y41970000I150000J0D01*
G01*
D14*
%TO.C,C5*%
X17590000Y68417836D02*
X17590000Y68202164D01*
X18310000Y68417836D02*
X18310000Y68202164D01*
%TO.C,R59*%
X37140000Y23506359D02*
X37140000Y23813641D01*
X37900000Y23506359D02*
X37900000Y23813641D01*
%TO.C,U4*%
X19030000Y73690000D02*
X19030000Y71590000D01*
X21150000Y71600000D02*
X21150000Y73700000D01*
D15*
X19030000Y71240000D02*
G75*
G02*
X18870000Y71240000I-80000J0D01*
G01*
X18870000Y71240000D02*
G75*
G02*
X19030000Y71240000I80000J0D01*
G01*
D14*
%TO.C,C20*%
X32482164Y42532500D02*
X32697836Y42532500D01*
X32482164Y41812500D02*
X32697836Y41812500D01*
%TO.C,U2*%
X52530000Y25950000D02*
X52530000Y25650000D01*
X52530000Y25650000D02*
X52730000Y25650000D01*
X52530000Y25240000D02*
X52530000Y24440000D01*
X52530000Y24440000D02*
X53330000Y24440000D01*
X52630000Y25950000D02*
X52630000Y25650000D01*
X52730000Y35360000D02*
X52730000Y24640000D01*
X52730000Y25950000D02*
X52530000Y25950000D01*
X52730000Y24640000D02*
X56450000Y24640000D01*
X53130000Y34960000D02*
X53130000Y25040000D01*
X53130000Y25040000D02*
X56050000Y25040000D01*
X53640000Y35360000D02*
X53640000Y34960000D01*
X53640000Y24640000D02*
X53640000Y25040000D01*
X54640000Y35360000D02*
X54640000Y34960000D01*
X54640000Y24640000D02*
X54640000Y25040000D01*
X55650000Y33100000D02*
X56050000Y33100000D01*
X55650000Y32900000D02*
X55650000Y33100000D01*
X55650000Y31600000D02*
X56050000Y31600000D01*
X55650000Y31400000D02*
X55650000Y31600000D01*
X55650000Y30100000D02*
X56050000Y30100000D01*
X55650000Y29900000D02*
X55650000Y30100000D01*
X55650000Y28600000D02*
X56050000Y28600000D01*
X55650000Y28400000D02*
X55650000Y28600000D01*
X55650000Y27100000D02*
X56050000Y27100000D01*
X55650000Y26900000D02*
X55650000Y27100000D01*
X56050000Y34960000D02*
X53130000Y34960000D01*
X56050000Y33000000D02*
X55650000Y33000000D01*
X56050000Y32900000D02*
X55650000Y32900000D01*
X56050000Y31500000D02*
X55650000Y31500000D01*
X56050000Y31400000D02*
X55650000Y31400000D01*
X56050000Y30000000D02*
X55650000Y30000000D01*
X56050000Y29900000D02*
X55650000Y29900000D01*
X56050000Y28500000D02*
X55650000Y28500000D01*
X56050000Y28400000D02*
X55650000Y28400000D01*
X56050000Y27000000D02*
X55650000Y27000000D01*
X56050000Y26900000D02*
X55650000Y26900000D01*
X56050000Y25040000D02*
X56050000Y34960000D01*
X56450000Y35360000D02*
X52730000Y35360000D01*
X56450000Y24640000D02*
X56450000Y35360000D01*
%TO.C,C37*%
X38687836Y20800000D02*
X38472164Y20800000D01*
X38687836Y20080000D02*
X38472164Y20080000D01*
D15*
%TO.C,CN2*%
X41530000Y13720000D02*
X49030000Y13720000D01*
X41530000Y13070000D02*
X41930000Y13070000D01*
X41530000Y12420000D02*
X41930000Y12420000D01*
X41530000Y10220000D02*
X41530000Y13720000D01*
X41930000Y13370000D02*
X48630000Y13370000D01*
X41930000Y10620000D02*
X41930000Y13370000D01*
X48630000Y13370000D02*
X48630000Y10620000D01*
X48630000Y13020000D02*
X49030000Y13020000D01*
X48630000Y12370000D02*
X49030000Y12370000D01*
X48630000Y10620000D02*
X41930000Y10620000D01*
X49030000Y13720000D02*
X49030000Y10220000D01*
X49030000Y10220000D02*
X41530000Y10220000D01*
%TD*%
%LPC*%
D19*
%TO.C,TP7*%
X26670000Y27800000D03*
%TD*%
D20*
%TO.C,Q6*%
X39060000Y21867500D03*
X40010000Y21867500D03*
X40960000Y21867500D03*
X40960000Y24167500D03*
X40010000Y24167500D03*
X39060000Y24167500D03*
%TD*%
D21*
%TO.C,C1*%
X17840000Y35460000D03*
X12500000Y35460000D03*
%TD*%
D22*
%TO.C,R18*%
X48960000Y30120000D03*
X48960000Y31140000D03*
%TD*%
D23*
%TO.C,DC1*%
X17570000Y15210000D03*
D24*
X17570000Y19710000D03*
D25*
X12070000Y15210000D03*
X12070000Y21310000D03*
X23070000Y15210000D03*
X23070000Y21310000D03*
%TD*%
D19*
%TO.C,TP1*%
X41170000Y18000000D03*
%TD*%
D26*
%TO.C,U13*%
X36790000Y27800000D03*
D27*
X35290000Y27800000D03*
X33790000Y27800000D03*
X32290000Y27800000D03*
X30790000Y27800000D03*
X29290000Y27800000D03*
%TD*%
D28*
%TO.C,R5*%
X39140000Y18600000D03*
X39140000Y17580000D03*
%TD*%
D29*
%TO.C,C14*%
X42345000Y46040000D03*
X45295000Y46040000D03*
%TD*%
D30*
%TO.C,CN3*%
X14670000Y70410000D03*
X14670000Y68910000D03*
X14670000Y67410000D03*
X14670000Y65910000D03*
X14670000Y64410000D03*
X14670000Y62910000D03*
D31*
X12670000Y60860000D03*
X12670000Y72460000D03*
%TD*%
D32*
%TO.C,R49*%
X48115000Y44937500D03*
X49765000Y44937500D03*
%TD*%
D33*
%TO.C,C6*%
X40615000Y44190000D03*
X37665000Y44190000D03*
%TD*%
D34*
%TO.C,D5*%
X32060000Y21050000D03*
X33010000Y21050000D03*
X33960000Y21050000D03*
X33960000Y23350000D03*
X33010000Y23350000D03*
X32060000Y23350000D03*
%TD*%
D35*
%TO.C,RF1*%
X54470000Y97177500D03*
D36*
X55770000Y97977500D03*
X53170000Y97977500D03*
%TD*%
D37*
%TO.C,R54*%
X34175000Y76620000D03*
X32525000Y76620000D03*
%TD*%
D38*
%TO.C,U7*%
X42300000Y51400000D03*
X41800000Y51400000D03*
X41300000Y51400000D03*
X40800000Y51400000D03*
D39*
X40150000Y50750000D03*
X40150000Y50250000D03*
X40150000Y49750000D03*
X40150000Y49250000D03*
D38*
X40800000Y48600000D03*
X41300000Y48600000D03*
X41800000Y48600000D03*
X42300000Y48600000D03*
D39*
X42950000Y49250000D03*
X42950000Y49750000D03*
X42950000Y50250000D03*
X42950000Y50750000D03*
D40*
X41550000Y50000000D03*
%TD*%
D41*
%TO.C,USB1*%
X30110000Y16500000D03*
X35890000Y16500000D03*
D42*
X29800000Y17580000D03*
X30600000Y17580000D03*
D43*
X31250000Y17580000D03*
X31750000Y17580000D03*
X32250000Y17580000D03*
X32750000Y17580000D03*
X33250000Y17580000D03*
X33750000Y17580000D03*
X34250000Y17580000D03*
X34750000Y17580000D03*
D42*
X35400000Y17580000D03*
X36200000Y17580000D03*
D44*
X28680000Y17030000D03*
D45*
X28680000Y12820000D03*
D44*
X37320000Y17030000D03*
D45*
X37320000Y12820000D03*
%TD*%
D19*
%TO.C,TP4*%
X40330000Y58150000D03*
%TD*%
D46*
%TO.C,C39*%
X19660000Y70390000D03*
X18700000Y70390000D03*
%TD*%
D29*
%TO.C,C4*%
X42345000Y42770000D03*
X45295000Y42770000D03*
%TD*%
D47*
%TO.C,Q13*%
X50740000Y49137500D03*
X48840000Y49137500D03*
X49790000Y47262500D03*
%TD*%
D29*
%TO.C,C23*%
X31815000Y50300000D03*
X34765000Y50300000D03*
%TD*%
D48*
%TO.C,R12*%
X27080000Y43660000D03*
X26060000Y43660000D03*
%TD*%
D49*
%TO.C,U9*%
X19660000Y68790000D03*
X19660000Y67830000D03*
X19660000Y66890000D03*
X22460000Y66890000D03*
X22460000Y68770000D03*
%TD*%
D19*
%TO.C,TP6*%
X20060000Y31530000D03*
%TD*%
%TO.C,TP8*%
X52560000Y48710000D03*
%TD*%
D22*
%TO.C,R19*%
X42060000Y28060000D03*
X42060000Y29080000D03*
%TD*%
D50*
%TO.C,C44*%
X37370000Y62340000D03*
X37370000Y63300000D03*
%TD*%
D51*
%TO.C,Q2*%
X22100000Y32250000D03*
X22750000Y32250000D03*
X23390000Y32250000D03*
X24040000Y32250000D03*
X24040000Y35110000D03*
X23390000Y35110000D03*
X22750000Y35110000D03*
X22100000Y35110000D03*
D52*
X23070000Y34240000D03*
%TD*%
D53*
%TO.C,C26*%
X48960000Y27910000D03*
X49920000Y27910000D03*
%TD*%
D54*
%TO.C,D4*%
X26950000Y23600000D03*
X29230000Y23600000D03*
%TD*%
D55*
%TO.C,R11*%
X18050000Y40840000D03*
X19070000Y40840000D03*
%TD*%
D46*
%TO.C,C22*%
X12270000Y43800000D03*
X11310000Y43800000D03*
%TD*%
D22*
%TO.C,R1*%
X17370000Y27857500D03*
X17370000Y28877500D03*
%TD*%
D56*
%TO.C,U12*%
X41800000Y55010000D03*
X44160000Y55010000D03*
%TD*%
D57*
%TO.C,R8*%
X27470000Y51900000D03*
X27470000Y45760000D03*
%TD*%
D58*
%TO.C,C43*%
X48925000Y94950000D03*
X50475000Y94950000D03*
%TD*%
D59*
%TO.C,L2*%
X54470000Y91360000D03*
D60*
X52470000Y91660000D03*
X50470000Y91660000D03*
X48470000Y91660000D03*
X46470000Y91660000D03*
X44470000Y91660000D03*
X42470000Y91660000D03*
X40470000Y91660000D03*
X40470000Y75660000D03*
X42470000Y75660000D03*
X44470000Y75660000D03*
X46470000Y75660000D03*
X48470000Y75660000D03*
X50470000Y75660000D03*
X52470000Y75660000D03*
X54470000Y75660000D03*
%TD*%
D55*
%TO.C,R60*%
X36500000Y21867500D03*
X37520000Y21867500D03*
%TD*%
D61*
%TO.C,U17*%
X47260000Y31140000D03*
X45980000Y31140000D03*
X44720000Y31140000D03*
X43450000Y31140000D03*
X43450000Y26000000D03*
X44720000Y26000000D03*
X45980000Y26000000D03*
X47260000Y26000000D03*
%TD*%
D62*
%TO.C,R50*%
X40580000Y65865000D03*
X40580000Y67515000D03*
%TD*%
D63*
%TO.C,C48*%
X27500000Y70335000D03*
X27500000Y68785000D03*
%TD*%
D64*
%TO.C,C13*%
X45200000Y52040000D03*
X45200000Y50140000D03*
%TD*%
D37*
%TO.C,R55*%
X50715000Y54400000D03*
X49065000Y54400000D03*
%TD*%
D32*
%TO.C,R56*%
X49065000Y55900000D03*
X50715000Y55900000D03*
%TD*%
D65*
%TO.C,SW2*%
X54700000Y50230000D03*
X54700000Y45870000D03*
%TD*%
D66*
%TO.C,D10*%
X46220000Y18325000D03*
X44320000Y18325000D03*
X45270000Y16025000D03*
%TD*%
D28*
%TO.C,R6*%
X34590000Y40610000D03*
X34590000Y39590000D03*
%TD*%
D67*
%TO.C,J6*%
X11850000Y87080000D03*
D68*
X14390000Y87080000D03*
X11850000Y84540000D03*
X14390000Y84540000D03*
X11850000Y82000000D03*
X14390000Y82000000D03*
X11850000Y79460000D03*
X14390000Y79460000D03*
X11850000Y76920000D03*
X14390000Y76920000D03*
%TD*%
D37*
%TO.C,R47*%
X50745000Y51040000D03*
X49095000Y51040000D03*
%TD*%
D33*
%TO.C,C21*%
X15445000Y40860000D03*
X12495000Y40860000D03*
%TD*%
D46*
%TO.C,C25*%
X27100000Y40980000D03*
X26140000Y40980000D03*
%TD*%
D69*
%TO.C,X1*%
X33890000Y67900000D03*
X36090000Y67900000D03*
X36090000Y69600000D03*
X33890000Y69600000D03*
%TD*%
D70*
%TO.C,D8*%
X52592500Y57690000D03*
X54692500Y57690000D03*
%TD*%
D55*
%TO.C,R13*%
X26060000Y42660000D03*
X27080000Y42660000D03*
%TD*%
D53*
%TO.C,C12*%
X48957500Y28960000D03*
X49917500Y28960000D03*
%TD*%
D71*
%TO.C,L3*%
X20470000Y53880000D03*
X20470000Y49840000D03*
%TD*%
D28*
%TO.C,R4*%
X26840000Y18600000D03*
X26840000Y17580000D03*
%TD*%
D72*
%TO.C,D2*%
X14800000Y58050000D03*
X14800000Y54050000D03*
%TD*%
D63*
%TO.C,C46*%
X29020000Y70335000D03*
X29020000Y68785000D03*
%TD*%
D73*
%TO.C,U5*%
X21060000Y27927500D03*
X21060000Y28877500D03*
X21060000Y29827500D03*
X18760000Y29827500D03*
X18760000Y28877500D03*
X18760000Y27927500D03*
%TD*%
D37*
%TO.C,R53*%
X34335000Y72210000D03*
X32685000Y72210000D03*
%TD*%
D74*
%TO.C,Q3*%
X35880000Y37070000D03*
X35880000Y36420000D03*
X35880000Y35780000D03*
X35880000Y35130000D03*
X38740000Y35130000D03*
X38740000Y35780000D03*
X38740000Y36420000D03*
X38740000Y37070000D03*
D75*
X37870000Y36100000D03*
%TD*%
D76*
%TO.C,Card1*%
X48595000Y68810000D03*
X48595000Y67710000D03*
X48595000Y66610000D03*
X48595000Y65860000D03*
X48595000Y64410000D03*
X48595000Y63310000D03*
X48595000Y62210000D03*
X48595000Y61110000D03*
X48595000Y65160000D03*
D77*
X46845000Y59860000D03*
X42395000Y59860000D03*
X42395000Y70060000D03*
X46845000Y70060000D03*
%TD*%
D78*
%TO.C,U8*%
X31330000Y33690000D03*
X31330000Y32740000D03*
X31330000Y31790000D03*
X33630000Y31790000D03*
X33630000Y32740000D03*
X33630000Y33690000D03*
%TD*%
D79*
%TO.C,Q5*%
X12260000Y45500000D03*
X13540000Y45500000D03*
X14800000Y45500000D03*
X16070000Y45500000D03*
X16070000Y50900000D03*
X14800000Y50900000D03*
X13540000Y50900000D03*
X12260000Y50900000D03*
%TD*%
D80*
%TO.C,C16*%
X38610000Y48595000D03*
X38610000Y50145000D03*
%TD*%
D37*
%TO.C,R58*%
X24245000Y74540000D03*
X22595000Y74540000D03*
%TD*%
D19*
%TO.C,TP10*%
X49060000Y53130000D03*
%TD*%
D37*
%TO.C,R48*%
X52395000Y52600000D03*
X50745000Y52600000D03*
%TD*%
D81*
%TO.C,CN4*%
X54040000Y37950000D03*
D82*
X54040000Y39450000D03*
X54040000Y40950000D03*
X54040000Y42450000D03*
%TD*%
D51*
%TO.C,Q1*%
X13920000Y27877500D03*
X14570000Y27877500D03*
X15210000Y27877500D03*
X15860000Y27877500D03*
X15860000Y30737500D03*
X15210000Y30737500D03*
X14570000Y30737500D03*
X13920000Y30737500D03*
D52*
X14890000Y29867500D03*
%TD*%
D83*
%TO.C,D16*%
X22257500Y37660000D03*
X20682500Y37660000D03*
%TD*%
D46*
%TO.C,C18*%
X19970000Y26500000D03*
X19010000Y26500000D03*
%TD*%
D78*
%TO.C,U10*%
X30940000Y40572500D03*
X30940000Y39622500D03*
X30940000Y38672500D03*
X33240000Y38672500D03*
X33240000Y39622500D03*
X33240000Y40572500D03*
%TD*%
D37*
%TO.C,R57*%
X24245000Y76050000D03*
X22595000Y76050000D03*
%TD*%
D53*
%TO.C,C19*%
X31330000Y35330000D03*
X32290000Y35330000D03*
%TD*%
D84*
%TO.C,U15*%
X17380000Y94440000D03*
D85*
X17380000Y95080000D03*
D86*
X16520000Y95080000D03*
D87*
X16520000Y94440000D03*
D88*
X16950000Y94760000D03*
%TD*%
D19*
%TO.C,TP3*%
X34390000Y46930000D03*
%TD*%
D89*
%TO.C,D3*%
X53470000Y94560000D03*
X54470000Y94560000D03*
%TD*%
D90*
%TO.C,D1*%
X18240000Y58050000D03*
X22240000Y58050000D03*
%TD*%
D91*
%TO.C,Q15*%
X34335000Y73900000D03*
X34335000Y74550000D03*
X34335000Y75200000D03*
X32535000Y75200000D03*
X32535000Y74550000D03*
X32535000Y73900000D03*
%TD*%
D92*
%TO.C,C41*%
X15075000Y94440000D03*
X13525000Y94440000D03*
%TD*%
D28*
%TO.C,R9*%
X19070000Y43860000D03*
X19070000Y42840000D03*
%TD*%
D58*
%TO.C,C40*%
X13525000Y92790000D03*
X15075000Y92790000D03*
%TD*%
D93*
%TO.C,D6*%
X50840000Y57700000D03*
X48740000Y57700000D03*
%TD*%
D37*
%TO.C,R69*%
X46135000Y20175000D03*
X44485000Y20175000D03*
%TD*%
D70*
%TO.C,D7*%
X52580000Y54400000D03*
X54680000Y54400000D03*
%TD*%
D22*
%TO.C,R2*%
X25560000Y32240000D03*
X25560000Y33260000D03*
%TD*%
D80*
%TO.C,C47*%
X25690000Y74525000D03*
X25690000Y76075000D03*
%TD*%
D94*
%TO.C,C7*%
X30800000Y56100000D03*
X36140000Y56100000D03*
%TD*%
D95*
%TO.C,R67*%
X46070000Y23500000D03*
X46070000Y21850000D03*
%TD*%
D19*
%TO.C,TP5*%
X12530000Y27870000D03*
%TD*%
D46*
%TO.C,C15*%
X41010000Y46310000D03*
X40050000Y46310000D03*
%TD*%
D96*
%TO.C,U14*%
X35390000Y65600000D03*
X34890000Y65600000D03*
X34390000Y65600000D03*
X33890000Y65600000D03*
X33390000Y65600000D03*
X32890000Y65600000D03*
D97*
X32140000Y64850000D03*
X32140000Y64350000D03*
X32140000Y63850000D03*
X32140000Y63350000D03*
X32140000Y62850000D03*
X32140000Y62350000D03*
D96*
X32890000Y61600000D03*
X33390000Y61600000D03*
X33890000Y61600000D03*
X34390000Y61600000D03*
X34890000Y61600000D03*
X35390000Y61600000D03*
D97*
X36140000Y62350000D03*
X36140000Y62850000D03*
X36140000Y63350000D03*
X36140000Y63850000D03*
X36140000Y64350000D03*
X36140000Y64850000D03*
D98*
X34130000Y63600000D03*
%TD*%
D99*
%TO.C,U1*%
X18970000Y96980000D03*
X18970000Y95710000D03*
X18970000Y94440000D03*
X18970000Y93170000D03*
X18970000Y91900000D03*
X18970000Y90630000D03*
X18970000Y89360000D03*
X18970000Y88090000D03*
X18970000Y86820000D03*
X18970000Y85550000D03*
X18970000Y84280000D03*
X18970000Y83010000D03*
X18970000Y81740000D03*
X18970000Y80470000D03*
D100*
X20730000Y79200000D03*
X22000000Y79200000D03*
X23270000Y79200000D03*
X24540000Y79200000D03*
X25810000Y79200000D03*
X27090000Y79200000D03*
X28350000Y79200000D03*
X29620000Y79200000D03*
X30890000Y79200000D03*
X32170000Y79200000D03*
X33440000Y79200000D03*
X34710000Y79230000D03*
D101*
X36470000Y80470000D03*
X36470000Y81740000D03*
X36470000Y83010000D03*
X36470000Y84280000D03*
X36470000Y85550000D03*
X36470000Y86820000D03*
X36470000Y88090000D03*
X36470000Y89360000D03*
X36470000Y90630000D03*
X36470000Y91900000D03*
X36470000Y93170000D03*
X36470000Y94440000D03*
X36470000Y95710000D03*
X36470000Y96980000D03*
D102*
X24820000Y90660000D03*
X24820000Y89260000D03*
X24820000Y87860000D03*
X26220000Y90660000D03*
X26220000Y89260000D03*
X26220000Y87860000D03*
X27620000Y90660000D03*
X27620000Y89260000D03*
X27620000Y87860000D03*
%TD*%
D95*
%TO.C,R68*%
X44570000Y23500000D03*
X44570000Y21850000D03*
%TD*%
D92*
%TO.C,C42*%
X50475000Y96480000D03*
X48925000Y96480000D03*
%TD*%
D73*
%TO.C,U6*%
X29115000Y33230000D03*
X29115000Y34180000D03*
X29115000Y35130000D03*
X26815000Y35130000D03*
X26815000Y34180000D03*
X26815000Y33230000D03*
%TD*%
D46*
%TO.C,C17*%
X28070000Y31780000D03*
X27110000Y31780000D03*
%TD*%
D55*
%TO.C,R7*%
X26080000Y39980000D03*
X27100000Y39980000D03*
%TD*%
D103*
%TO.C,SW3*%
X11740000Y97260000D03*
X16100000Y97260000D03*
%TD*%
D19*
%TO.C,TP2*%
X23940000Y68770000D03*
%TD*%
D55*
%TO.C,R3*%
X34860000Y33690000D03*
X35880000Y33690000D03*
%TD*%
D104*
%TO.C,U3*%
X27820000Y74510000D03*
X27820000Y74010000D03*
X27820000Y73510000D03*
X27820000Y73010000D03*
D105*
X28520000Y72310000D03*
X29020000Y72310000D03*
X29520000Y72310000D03*
X30020000Y72310000D03*
D104*
X30720000Y73010000D03*
X30720000Y73510000D03*
X30720000Y74010000D03*
X30720000Y74510000D03*
D105*
X30020000Y75210000D03*
X29520000Y75210000D03*
X29020000Y75210000D03*
X28520000Y75210000D03*
D106*
X29270000Y73760000D03*
%TD*%
D28*
%TO.C,R10*%
X23570000Y38170000D03*
X23570000Y37150000D03*
%TD*%
D74*
%TO.C,Q4*%
X35960000Y41370000D03*
X35960000Y40720000D03*
X35960000Y40080000D03*
X35960000Y39430000D03*
X38820000Y39430000D03*
X38820000Y40080000D03*
X38820000Y40720000D03*
X38820000Y41370000D03*
D75*
X37950000Y40400000D03*
%TD*%
D50*
%TO.C,C45*%
X38370000Y62340000D03*
X38370000Y63300000D03*
%TD*%
D67*
%TO.C,J5*%
X52550000Y21980000D03*
D68*
X55090000Y21980000D03*
X52550000Y19440000D03*
X55090000Y19440000D03*
X52550000Y16900000D03*
X55090000Y16900000D03*
X52550000Y14360000D03*
X55090000Y14360000D03*
X52550000Y11820000D03*
X55090000Y11820000D03*
%TD*%
D46*
%TO.C,C24*%
X19050000Y41860000D03*
X18090000Y41860000D03*
%TD*%
D19*
%TO.C,TP9*%
X52590000Y56100000D03*
%TD*%
D53*
%TO.C,C38*%
X22460000Y70390000D03*
X23420000Y70390000D03*
%TD*%
D107*
%TO.C,U11*%
X20577500Y39980000D03*
X21577500Y39980000D03*
X22577500Y39980000D03*
X23577500Y39980000D03*
X24577500Y39980000D03*
X24577500Y45500000D03*
X23577500Y45500000D03*
X22577500Y45500000D03*
X21577500Y45500000D03*
X20577500Y45500000D03*
%TD*%
D108*
%TO.C,C5*%
X17950000Y68790000D03*
X17950000Y67830000D03*
%TD*%
D22*
%TO.C,R59*%
X37520000Y23150000D03*
X37520000Y24170000D03*
%TD*%
D109*
%TO.C,U4*%
X19340000Y71690000D03*
X19840000Y71690000D03*
X20340000Y71690000D03*
X20840000Y71690000D03*
X20840000Y73590000D03*
X20340000Y73590000D03*
X19840000Y73590000D03*
X19340000Y73590000D03*
D110*
X20080000Y72640000D03*
%TD*%
D53*
%TO.C,C20*%
X32110000Y42172500D03*
X33070000Y42172500D03*
%TD*%
D111*
%TO.C,U2*%
X54140000Y26250000D03*
D112*
X54140000Y27750000D03*
X54140000Y29250000D03*
X54140000Y30750000D03*
X54140000Y32250000D03*
X54140000Y33750000D03*
%TD*%
D46*
%TO.C,C37*%
X39060000Y20440000D03*
X38100000Y20440000D03*
%TD*%
D113*
%TO.C,CN2*%
X43030000Y12420000D03*
D82*
X44530000Y12420000D03*
X46030000Y12420000D03*
X47530000Y12420000D03*
%TD*%
%LPD*%
M02*
