%TF.GenerationSoftware,KiCad,Pcbnew,9.0.0*%
%TF.CreationDate,2026-02-28T00:59:34-05:00*%
%TF.ProjectId,IndustrialSense,496e6475-7374-4726-9961-6c53656e7365,+ (Unreleased)*%
%TF.SameCoordinates,Original*%
%TF.FileFunction,Legend,Bot*%
%TF.FilePolarity,Positive*%
%FSLAX46Y46*%
G04 Gerber Fmt 4.6, Leading zero omitted, Abs format (unit mm)*
G04 Created by KiCad (PCBNEW 9.0.0) date 2026-02-28 00:59:34*
%MOMM*%
%LPD*%
G01*
G04 APERTURE LIST*
G04 Aperture macros list*
%AMRoundRect*
0 Rectangle with rounded corners*
0 $1 Rounding radius*
0 $2 $3 $4 $5 $6 $7 $8 $9 X,Y pos of 4 corners*
0 Add a 4 corners polygon primitive as box body*
4,1,4,$2,$3,$4,$5,$6,$7,$8,$9,$2,$3,0*
0 Add four circle primitives for the rounded corners*
1,1,$1+$1,$2,$3*
1,1,$1+$1,$4,$5*
1,1,$1+$1,$6,$7*
1,1,$1+$1,$8,$9*
0 Add four rect primitives between the rounded corners*
20,1,$1+$1,$2,$3,$4,$5,0*
20,1,$1+$1,$4,$5,$6,$7,0*
20,1,$1+$1,$6,$7,$8,$9,0*
20,1,$1+$1,$8,$9,$2,$3,0*%
G04 Aperture macros list end*
%ADD10C,2.000000*%
%ADD11C,2.200000*%
%ADD12RoundRect,0.298543X0.316457X0.666457X-0.316457X0.666457X-0.316457X-0.666457X0.316457X-0.666457X0*%
%ADD13O,1.230000X1.930000*%
%ADD14C,0.900000*%
%ADD15O,1.300000X2.200000*%
%ADD16O,1.400000X2.000000*%
%ADD17RoundRect,0.100000X-0.850000X-0.850000X0.850000X-0.850000X0.850000X0.850000X-0.850000X0.850000X0*%
%ADD18O,1.900000X1.900000*%
%ADD19RoundRect,0.100000X-0.600000X0.600000X-0.600000X-0.600000X0.600000X-0.600000X0.600000X0.600000X0*%
%ADD20C,1.400000*%
%ADD21RoundRect,0.298543X0.666457X-0.316457X0.666457X0.316457X-0.666457X0.316457X-0.666457X-0.316457X0*%
%ADD22O,1.930000X1.230000*%
%ADD23RoundRect,0.100000X0.600000X0.600000X-0.600000X0.600000X-0.600000X-0.600000X0.600000X-0.600000X0*%
G04 APERTURE END LIST*
%LPC*%
D10*
%TO.C,DC1*%
X17570000Y15210000D03*
D11*
X17570000Y19710000D03*
%TD*%
D12*
%TO.C,U13*%
X36790000Y27800000D03*
D13*
X35290000Y27800000D03*
X33790000Y27800000D03*
X32290000Y27800000D03*
X30790000Y27800000D03*
X29290000Y27800000D03*
%TD*%
D14*
%TO.C,USB1*%
X30110000Y16500000D03*
X35890000Y16500000D03*
D15*
X28680000Y17030000D03*
D16*
X28680000Y12820000D03*
D15*
X37320000Y17030000D03*
D16*
X37320000Y12820000D03*
%TD*%
D17*
%TO.C,J6*%
X11850000Y87080000D03*
D18*
X14390000Y87080000D03*
X11850000Y84540000D03*
X14390000Y84540000D03*
X11850000Y82000000D03*
X14390000Y82000000D03*
X11850000Y79460000D03*
X14390000Y79460000D03*
X11850000Y76920000D03*
X14390000Y76920000D03*
%TD*%
D19*
%TO.C,CN4*%
X54040000Y37950000D03*
D20*
X54040000Y39450000D03*
X54040000Y40950000D03*
X54040000Y42450000D03*
%TD*%
D17*
%TO.C,J5*%
X52550000Y21980000D03*
D18*
X55090000Y21980000D03*
X52550000Y19440000D03*
X55090000Y19440000D03*
X52550000Y16900000D03*
X55090000Y16900000D03*
X52550000Y14360000D03*
X55090000Y14360000D03*
X52550000Y11820000D03*
X55090000Y11820000D03*
%TD*%
D21*
%TO.C,U2*%
X54140000Y26250000D03*
D22*
X54140000Y27750000D03*
X54140000Y29250000D03*
X54140000Y30750000D03*
X54140000Y32250000D03*
X54140000Y33750000D03*
%TD*%
D23*
%TO.C,CN2*%
X43030000Y12420000D03*
D20*
X44530000Y12420000D03*
X46030000Y12420000D03*
X47530000Y12420000D03*
%TD*%
%LPD*%
M02*
