%TF.GenerationSoftware,KiCad,Pcbnew,9.0.7+1*%
%TF.CreationDate,Date%
%TF.ProjectId,IndustrialSense,496e6475-7374-4726-9961-6c53656e7365,+ (Unreleased)*%
%TF.SameCoordinates,Original*%
%TF.FileFunction,Paste,Top*%
%TF.FilePolarity,Positive*%
%FSLAX46Y46*%
G04 Gerber Fmt 4.6, Leading zero omitted, Abs format (unit mm)*
G04 Created by KiCad*
%MOMM*%
%LPD*%
G01*
G04 APERTURE LIST*
G04 Aperture macros list*
%AMRoundRect*
0 Rectangle with rounded corners*
0 $1 Rounding radius*
0 $2 $3 $4 $5 $6 $7 $8 $9 X,Y pos of 4 corners*
0 Add a 4 corners polygon primitive as box body*
4,1,4,$2,$3,$4,$5,$6,$7,$8,$9,$2,$3,0*
0 Add four circle primitives for the rounded corners*
1,1,$1+$1,$2,$3*
1,1,$1+$1,$4,$5*
1,1,$1+$1,$6,$7*
1,1,$1+$1,$8,$9*
0 Add four rect primitives between the rounded corners*
20,1,$1+$1,$2,$3,$4,$5,0*
20,1,$1+$1,$4,$5,$6,$7,0*
20,1,$1+$1,$6,$7,$8,$9,0*
20,1,$1+$1,$8,$9,$2,$3,0*%
%AMRotRect*
0 Rectangle, with rotation*
0 The origin of the aperture is its center*
0 $1 length*
0 $2 width*
0 $3 Rotation angle, in degrees counterclockwise*
0 Add horizontal line*
21,1,$1,$2,0,0,$3*%
%AMFreePoly0*
4,1,15,0.215355,0.145355,0.230000,0.110000,0.230000,0.030000,0.215355,-0.005355,0.210697,-0.009468,0.030697,-0.149468,0.000000,-0.160000,-0.180000,-0.160000,-0.215355,-0.145355,-0.230000,-0.110000,-0.230000,0.110000,-0.215355,0.145355,-0.180000,0.160000,0.180000,0.160000,0.215355,0.145355,0.215355,0.145355,$1*%
%AMFreePoly1*
4,1,15,0.030697,0.139468,0.210697,-0.000532,0.229614,-0.033798,0.230000,-0.040000,0.230000,-0.120000,0.215355,-0.155355,0.180000,-0.170000,-0.180000,-0.170000,-0.215355,-0.155355,-0.230000,-0.120000,-0.230000,0.100000,-0.215355,0.135355,-0.180000,0.150000,0.000000,0.150000,0.030697,0.139468,0.030697,0.139468,$1*%
%AMFreePoly2*
4,1,15,0.215355,0.135355,0.230000,0.100000,0.230000,-0.120000,0.215355,-0.155355,0.180000,-0.170000,-0.180000,-0.170000,-0.215355,-0.155355,-0.230000,-0.120000,-0.230000,-0.040000,-0.215355,-0.004645,-0.210697,-0.000532,-0.030697,0.139468,0.000000,0.150000,0.180000,0.150000,0.215355,0.135355,0.215355,0.135355,$1*%
%AMFreePoly3*
4,1,15,0.215355,0.145355,0.230000,0.110000,0.230000,-0.110000,0.215355,-0.145355,0.180000,-0.160000,0.000000,-0.160000,-0.030697,-0.149468,-0.210697,-0.009468,-0.229614,0.023798,-0.230000,0.030000,-0.230000,0.110000,-0.215355,0.145355,-0.180000,0.160000,0.180000,0.160000,0.215355,0.145355,0.215355,0.145355,$1*%
G04 Aperture macros list end*
%ADD10R,0.530000X1.070000*%
%ADD11R,3.500000X1.200000*%
%ADD12RoundRect,0.135000X0.135000X0.185000X-0.135000X0.185000X-0.135000X-0.185000X0.135000X-0.185000X0*%
%ADD13R,2.800000X2.800000*%
%ADD14RoundRect,0.135000X0.185000X-0.135000X0.185000X0.135000X-0.185000X0.135000X-0.185000X-0.135000X0*%
%ADD15RoundRect,0.250000X-0.325000X-1.100000X0.325000X-1.100000X0.325000X1.100000X-0.325000X1.100000X0*%
%ADD16R,3.500000X0.700000*%
%ADD17R,2.300000X1.500000*%
%ADD18RoundRect,0.200000X-0.200000X-0.275000X0.200000X-0.275000X0.200000X0.275000X-0.200000X0.275000X0*%
%ADD19RoundRect,0.250000X0.325000X1.100000X-0.325000X1.100000X-0.325000X-1.100000X0.325000X-1.100000X0*%
%ADD20R,0.530000X1.040000*%
%ADD21R,0.800000X2.000000*%
%ADD22RoundRect,0.200000X0.200000X0.275000X-0.200000X0.275000X-0.200000X-0.275000X0.200000X-0.275000X0*%
%ADD23O,0.280000X0.800000*%
%ADD24O,0.800000X0.280000*%
%ADD25R,1.600000X1.600000*%
%ADD26R,0.550000X1.100000*%
%ADD27R,0.300000X1.100000*%
%ADD28RoundRect,0.140000X0.140000X0.170000X-0.140000X0.170000X-0.140000X-0.170000X0.140000X-0.170000X0*%
%ADD29RoundRect,0.150000X-0.150000X0.587500X-0.150000X-0.587500X0.150000X-0.587500X0.150000X0.587500X0*%
%ADD30R,1.100000X0.620000*%
%ADD31R,0.990000X0.410000*%
%ADD32R,1.720000X2.230000*%
%ADD33RoundRect,0.140000X-0.140000X-0.170000X0.140000X-0.170000X0.140000X0.170000X-0.140000X0.170000X0*%
%ADD34R,0.830000X0.630000*%
%ADD35RoundRect,0.135000X-0.135000X-0.185000X0.135000X-0.185000X0.135000X0.185000X-0.135000X0.185000X0*%
%ADD36R,1.000000X3.500000*%
%ADD37R,3.300000X2.000000*%
%ADD38RoundRect,0.225000X-0.225000X-0.250000X0.225000X-0.250000X0.225000X0.250000X-0.225000X0.250000X0*%
%ADD39R,1.200000X3.000000*%
%ADD40R,1.200000X2.400000*%
%ADD41O,0.590000X2.050000*%
%ADD42RoundRect,0.200000X0.275000X-0.200000X0.275000X0.200000X-0.275000X0.200000X-0.275000X-0.200000X0*%
%ADD43RoundRect,0.225000X-0.250000X0.225000X-0.250000X-0.225000X0.250000X-0.225000X0.250000X0.225000X0*%
%ADD44RoundRect,0.250000X-0.475000X0.250000X-0.475000X-0.250000X0.475000X-0.250000X0.475000X0.250000X0*%
%ADD45R,1.860000X1.230000*%
%ADD46R,0.800000X1.000000*%
%ADD47RoundRect,0.135000X-0.185000X0.135000X-0.185000X-0.135000X0.185000X-0.135000X0.185000X0.135000X0*%
%ADD48R,1.200000X1.400000*%
%ADD49RoundRect,0.112500X-0.187500X-0.112500X0.187500X-0.112500X0.187500X0.112500X-0.187500X0.112500X0*%
%ADD50R,5.600000X1.550000*%
%ADD51RoundRect,0.250000X-0.650000X1.000000X-0.650000X-1.000000X0.650000X-1.000000X0.650000X1.000000X0*%
%ADD52R,1.500000X0.500000*%
%ADD53R,1.400000X1.300000*%
%ADD54O,0.570000X1.890000*%
%ADD55RoundRect,0.225000X0.250000X-0.225000X0.250000X0.225000X-0.250000X0.225000X-0.250000X-0.225000X0*%
%ADD56R,0.410000X0.990000*%
%ADD57R,2.230000X1.720000*%
%ADD58RoundRect,0.218750X0.218750X0.256250X-0.218750X0.256250X-0.218750X-0.256250X0.218750X-0.256250X0*%
%ADD59RoundRect,0.140000X0.170000X-0.140000X0.170000X0.140000X-0.170000X0.140000X-0.170000X-0.140000X0*%
%ADD60FreePoly0,180.000000*%
%ADD61FreePoly1,180.000000*%
%ADD62FreePoly2,180.000000*%
%ADD63FreePoly3,180.000000*%
%ADD64RotRect,0.480000X0.480000X225.000000*%
%ADD65R,0.600000X0.600000*%
%ADD66RoundRect,0.250000X-1.000000X-0.650000X1.000000X-0.650000X1.000000X0.650000X-1.000000X0.650000X0*%
%ADD67R,0.900000X0.400000*%
%ADD68RoundRect,0.200000X-0.275000X0.200000X-0.275000X-0.200000X0.275000X-0.200000X0.275000X0.200000X0*%
%ADD69O,0.700000X0.280000*%
%ADD70O,0.280000X0.700000*%
%ADD71R,1.500000X0.900000*%
%ADD72R,0.900000X1.500000*%
%ADD73R,0.900000X0.900000*%
%ADD74RoundRect,0.225000X0.225000X0.250000X-0.225000X0.250000X-0.225000X-0.250000X0.225000X-0.250000X0*%
%ADD75R,1.070000X0.530000*%
%ADD76R,1.230000X1.860000*%
%ADD77R,0.750000X0.250000*%
%ADD78R,0.250000X0.750000*%
%ADD79R,1.700000X1.700000*%
%ADD80O,0.520000X2.010000*%
%ADD81RoundRect,0.140000X-0.170000X0.140000X-0.170000X-0.140000X0.170000X-0.140000X0.170000X0.140000X0*%
%ADD82R,0.250000X0.520000*%
%ADD83R,1.600000X0.900000*%
G04 APERTURE END LIST*
D10*
%TO.C,Q6*%
X151850000Y-123867500D03*
X152800000Y-123867500D03*
X153750000Y-123867500D03*
X153750000Y-121567500D03*
X152800000Y-121567500D03*
X151850000Y-121567500D03*
%TD*%
D11*
%TO.C,C1*%
X132350000Y-111740000D03*
X127010000Y-111740000D03*
%TD*%
D12*
%TO.C,R18*%
X162317500Y-116040000D03*
X161297500Y-116040000D03*
%TD*%
D13*
%TO.C,DC1*%
X126580000Y-131990000D03*
X126580000Y-125890000D03*
X137580000Y-131990000D03*
X137580000Y-125890000D03*
%TD*%
D14*
%TO.C,R5*%
X152100000Y-130127500D03*
X152100000Y-129107500D03*
%TD*%
D15*
%TO.C,C14*%
X156835000Y-101500000D03*
X159785000Y-101500000D03*
%TD*%
D16*
%TO.C,CN3*%
X129180000Y-76790000D03*
X129180000Y-78290000D03*
X129180000Y-79790000D03*
X129180000Y-81290000D03*
X129180000Y-82790000D03*
X129180000Y-84290000D03*
D17*
X127180000Y-86340000D03*
X127180000Y-74740000D03*
%TD*%
D18*
%TO.C,R49*%
X163855000Y-106340000D03*
X165505000Y-106340000D03*
%TD*%
D19*
%TO.C,C6*%
X154880000Y-102440000D03*
X151930000Y-102440000D03*
%TD*%
D20*
%TO.C,D5*%
X145050000Y-126267500D03*
X146000000Y-126267500D03*
X146950000Y-126267500D03*
X146950000Y-123967500D03*
X146000000Y-123967500D03*
X145050000Y-123967500D03*
%TD*%
D21*
%TO.C,RF1*%
X168980000Y-50022500D03*
X170280000Y-49222500D03*
X167680000Y-49222500D03*
%TD*%
D22*
%TO.C,R54*%
X148970000Y-70240000D03*
X147320000Y-70240000D03*
%TD*%
D23*
%TO.C,U7*%
X156810000Y-95800000D03*
X156310000Y-95800000D03*
X155810000Y-95800000D03*
X155310000Y-95800000D03*
D24*
X154660000Y-96450000D03*
X154660000Y-96950000D03*
X154660000Y-97450000D03*
X154660000Y-97950000D03*
D23*
X155310000Y-98600000D03*
X155810000Y-98600000D03*
X156310000Y-98600000D03*
X156810000Y-98600000D03*
D24*
X157460000Y-97950000D03*
X157460000Y-97450000D03*
X157460000Y-96950000D03*
X157460000Y-96450000D03*
D25*
X156060000Y-97200000D03*
%TD*%
D26*
%TO.C,USB1*%
X142790000Y-129737500D03*
X143590000Y-129737500D03*
D27*
X144240000Y-129737500D03*
X144740000Y-129737500D03*
X145240000Y-129737500D03*
X145740000Y-129737500D03*
X146240000Y-129737500D03*
X146740000Y-129737500D03*
X147240000Y-129737500D03*
X147740000Y-129737500D03*
D26*
X148390000Y-129737500D03*
X149190000Y-129737500D03*
%TD*%
D28*
%TO.C,C39*%
X134580000Y-76940000D03*
X133620000Y-76940000D03*
%TD*%
D15*
%TO.C,C4*%
X156805000Y-104840000D03*
X159755000Y-104840000D03*
%TD*%
D29*
%TO.C,Q13*%
X166480000Y-102140000D03*
X164580000Y-102140000D03*
X165530000Y-104015000D03*
%TD*%
D15*
%TO.C,C23*%
X146905000Y-97040000D03*
X149855000Y-97040000D03*
%TD*%
D12*
%TO.C,R12*%
X141590000Y-103540000D03*
X140570000Y-103540000D03*
%TD*%
D30*
%TO.C,U9*%
X134580000Y-78540000D03*
X134580000Y-79500000D03*
X134580000Y-80440000D03*
X137380000Y-80440000D03*
X137380000Y-78560000D03*
%TD*%
D12*
%TO.C,R19*%
X158317500Y-113840000D03*
X157297500Y-113840000D03*
%TD*%
D28*
%TO.C,C44*%
X149845000Y-79125000D03*
X148885000Y-79125000D03*
%TD*%
D31*
%TO.C,Q2*%
X140170000Y-115510000D03*
X140170000Y-114860000D03*
X140170000Y-114220000D03*
X140170000Y-113570000D03*
X137310000Y-113570000D03*
X137310000Y-114220000D03*
X137310000Y-114860000D03*
X137310000Y-115510000D03*
D32*
X138180000Y-114540000D03*
%TD*%
D33*
%TO.C,C26*%
X161300000Y-119640000D03*
X162260000Y-119640000D03*
%TD*%
D34*
%TO.C,D4*%
X151562500Y-127017500D03*
X149282500Y-127017500D03*
%TD*%
D35*
%TO.C,R11*%
X132560000Y-106360000D03*
X133580000Y-106360000D03*
%TD*%
D28*
%TO.C,C22*%
X128860000Y-103840000D03*
X127900000Y-103840000D03*
%TD*%
D35*
%TO.C,R1*%
X133370000Y-120740000D03*
X134390000Y-120740000D03*
%TD*%
D36*
%TO.C,U12*%
X155830000Y-92600000D03*
X158190000Y-92600000D03*
%TD*%
D37*
%TO.C,R8*%
X141980000Y-95300000D03*
X141980000Y-101440000D03*
%TD*%
D38*
%TO.C,C43*%
X163405000Y-52240000D03*
X164955000Y-52240000D03*
%TD*%
D39*
%TO.C,L2*%
X168980000Y-55840000D03*
D40*
X166980000Y-55540000D03*
X164980000Y-55540000D03*
X162980000Y-55540000D03*
X160980000Y-55540000D03*
X158980000Y-55540000D03*
X156980000Y-55540000D03*
X154980000Y-55540000D03*
X154980000Y-71540000D03*
X156980000Y-71540000D03*
X158980000Y-71540000D03*
X160980000Y-71540000D03*
X162980000Y-71540000D03*
X164980000Y-71540000D03*
X166980000Y-71540000D03*
X168980000Y-71540000D03*
%TD*%
D35*
%TO.C,R60*%
X149290000Y-123917500D03*
X150310000Y-123917500D03*
%TD*%
D41*
%TO.C,U17*%
X159717500Y-116070000D03*
X158437500Y-116070000D03*
X157177500Y-116070000D03*
X155907500Y-116070000D03*
X155907500Y-121210000D03*
X157177500Y-121210000D03*
X158437500Y-121210000D03*
X159717500Y-121210000D03*
%TD*%
D42*
%TO.C,R50*%
X155080000Y-81115000D03*
X155080000Y-79465000D03*
%TD*%
D43*
%TO.C,C48*%
X142045000Y-76865000D03*
X142045000Y-78415000D03*
%TD*%
D44*
%TO.C,C13*%
X160410000Y-95400000D03*
X160410000Y-97300000D03*
%TD*%
D22*
%TO.C,R55*%
X164535000Y-94700000D03*
X162885000Y-94700000D03*
%TD*%
D18*
%TO.C,R56*%
X162885000Y-93200000D03*
X164535000Y-93200000D03*
%TD*%
D45*
%TO.C,SW2*%
X168880000Y-105540000D03*
X168880000Y-109900000D03*
%TD*%
D46*
%TO.C,D10*%
X158657500Y-129390000D03*
X156757500Y-129390000D03*
X157707500Y-131690000D03*
%TD*%
D47*
%TO.C,R6*%
X148750000Y-107660000D03*
X148750000Y-108680000D03*
%TD*%
D22*
%TO.C,R47*%
X166505000Y-100240000D03*
X164855000Y-100240000D03*
%TD*%
D19*
%TO.C,C21*%
X129955000Y-106340000D03*
X127005000Y-106340000D03*
%TD*%
D28*
%TO.C,C25*%
X141560000Y-106240000D03*
X140600000Y-106240000D03*
%TD*%
D48*
%TO.C,X1*%
X143715000Y-84525000D03*
X143715000Y-82325000D03*
X142015000Y-82325000D03*
X142015000Y-84525000D03*
%TD*%
D49*
%TO.C,D8*%
X166460000Y-97750000D03*
X168560000Y-97750000D03*
%TD*%
D35*
%TO.C,R13*%
X140570000Y-104540000D03*
X141590000Y-104540000D03*
%TD*%
D33*
%TO.C,C12*%
X161300000Y-117640000D03*
X162260000Y-117640000D03*
%TD*%
D50*
%TO.C,L3*%
X134980000Y-93320000D03*
X134980000Y-97360000D03*
%TD*%
D14*
%TO.C,R4*%
X139900000Y-129927500D03*
X139900000Y-128907500D03*
%TD*%
D51*
%TO.C,D2*%
X129280000Y-89140000D03*
X129280000Y-93140000D03*
%TD*%
D43*
%TO.C,C46*%
X143545000Y-76865000D03*
X143545000Y-78415000D03*
%TD*%
D10*
%TO.C,U5*%
X128857500Y-119290000D03*
X129807500Y-119290000D03*
X130757500Y-119290000D03*
X130757500Y-116990000D03*
X129807500Y-116990000D03*
X128857500Y-116990000D03*
%TD*%
D22*
%TO.C,R53*%
X148970000Y-75040000D03*
X147320000Y-75040000D03*
%TD*%
D31*
%TO.C,Q3*%
X150380000Y-110870000D03*
X150380000Y-111520000D03*
X150380000Y-112160000D03*
X150380000Y-112810000D03*
X153240000Y-112810000D03*
X153240000Y-112160000D03*
X153240000Y-111520000D03*
X153240000Y-110870000D03*
D32*
X152370000Y-111840000D03*
%TD*%
D52*
%TO.C,Card1*%
X163105000Y-78390000D03*
X163105000Y-79490000D03*
X163105000Y-80590000D03*
X163105000Y-81340000D03*
X163105000Y-82790000D03*
X163105000Y-83890000D03*
X163105000Y-84990000D03*
X163105000Y-86090000D03*
X163105000Y-82040000D03*
D53*
X161355000Y-87340000D03*
X156905000Y-87340000D03*
X156905000Y-77140000D03*
X161355000Y-77140000D03*
%TD*%
D10*
%TO.C,U8*%
X151307500Y-117240000D03*
X152257500Y-117240000D03*
X153207500Y-117240000D03*
X153207500Y-114940000D03*
X152257500Y-114940000D03*
X151307500Y-114940000D03*
%TD*%
D54*
%TO.C,Q5*%
X126770000Y-101640000D03*
X128050000Y-101640000D03*
X129310000Y-101640000D03*
X130580000Y-101640000D03*
X130580000Y-96240000D03*
X129310000Y-96240000D03*
X128050000Y-96240000D03*
X126770000Y-96240000D03*
%TD*%
D55*
%TO.C,C16*%
X152810000Y-98575000D03*
X152810000Y-97025000D03*
%TD*%
D42*
%TO.C,R58*%
X136880000Y-72665000D03*
X136880000Y-71015000D03*
%TD*%
%TO.C,R48*%
X168380000Y-101865000D03*
X168380000Y-100215000D03*
%TD*%
D56*
%TO.C,Q1*%
X132440000Y-119340000D03*
X133090000Y-119340000D03*
X133730000Y-119340000D03*
X134380000Y-119340000D03*
X134380000Y-116480000D03*
X133730000Y-116480000D03*
X133090000Y-116480000D03*
X132440000Y-116480000D03*
D57*
X133410000Y-117350000D03*
%TD*%
D58*
%TO.C,D16*%
X136767500Y-109540000D03*
X135192500Y-109540000D03*
%TD*%
D59*
%TO.C,C18*%
X127430000Y-118520000D03*
X127430000Y-117560000D03*
%TD*%
D10*
%TO.C,U10*%
X148800000Y-103370000D03*
X147850000Y-103370000D03*
X146900000Y-103370000D03*
X146900000Y-105670000D03*
X147850000Y-105670000D03*
X148800000Y-105670000D03*
%TD*%
D42*
%TO.C,R57*%
X138430000Y-72625000D03*
X138430000Y-70975000D03*
%TD*%
D59*
%TO.C,C19*%
X149980000Y-116470000D03*
X149980000Y-115510000D03*
%TD*%
D60*
%TO.C,U15*%
X131890000Y-52700000D03*
D61*
X131890000Y-52060000D03*
D62*
X131030000Y-52060000D03*
D63*
X131030000Y-52700000D03*
D64*
X131460000Y-52380000D03*
%TD*%
D65*
%TO.C,D3*%
X167980000Y-52640000D03*
X168980000Y-52640000D03*
%TD*%
D66*
%TO.C,D1*%
X132780000Y-89240000D03*
X136780000Y-89240000D03*
%TD*%
D67*
%TO.C,Q15*%
X148845000Y-73310000D03*
X148845000Y-72660000D03*
X148845000Y-72010000D03*
X147045000Y-72010000D03*
X147045000Y-72660000D03*
X147045000Y-73310000D03*
%TD*%
D43*
%TO.C,C41*%
X128080000Y-52725000D03*
X128080000Y-54275000D03*
%TD*%
D47*
%TO.C,R9*%
X133580000Y-103340000D03*
X133580000Y-104360000D03*
%TD*%
D55*
%TO.C,C40*%
X129580000Y-54275000D03*
X129580000Y-52725000D03*
%TD*%
D49*
%TO.C,D6*%
X166460000Y-91850000D03*
X168560000Y-91850000D03*
%TD*%
D22*
%TO.C,R69*%
X158532500Y-127540000D03*
X156882500Y-127540000D03*
%TD*%
D49*
%TO.C,D7*%
X166460000Y-94800000D03*
X168560000Y-94800000D03*
%TD*%
D14*
%TO.C,R2*%
X141670000Y-115530000D03*
X141670000Y-114510000D03*
%TD*%
D43*
%TO.C,C47*%
X140345000Y-72665000D03*
X140345000Y-74215000D03*
%TD*%
D11*
%TO.C,C7*%
X144610000Y-90540000D03*
X149950000Y-90540000D03*
%TD*%
D68*
%TO.C,R67*%
X158507500Y-124215000D03*
X158507500Y-125865000D03*
%TD*%
D28*
%TO.C,C15*%
X155240000Y-100300000D03*
X154280000Y-100300000D03*
%TD*%
D69*
%TO.C,U14*%
X146570000Y-81370000D03*
X146570000Y-81870000D03*
X146570000Y-82370000D03*
X146570000Y-82870000D03*
X146570000Y-83370000D03*
X146570000Y-83870000D03*
D70*
X147320000Y-84620000D03*
X147820000Y-84620000D03*
X148320000Y-84620000D03*
X148820000Y-84620000D03*
X149320000Y-84620000D03*
X149820000Y-84620000D03*
D69*
X150570000Y-83870000D03*
X150570000Y-83370000D03*
X150570000Y-82870000D03*
X150570000Y-82370000D03*
X150570000Y-81870000D03*
X150570000Y-81370000D03*
D70*
X149820000Y-80620000D03*
X149320000Y-80620000D03*
X148820000Y-80620000D03*
X148320000Y-80620000D03*
X147820000Y-80620000D03*
X147320000Y-80620000D03*
D13*
X148570000Y-82630000D03*
%TD*%
D71*
%TO.C,U1*%
X133480000Y-50220000D03*
X133480000Y-51490000D03*
X133480000Y-52760000D03*
X133480000Y-54030000D03*
X133480000Y-55300000D03*
X133480000Y-56570000D03*
X133480000Y-57840000D03*
X133480000Y-59110000D03*
X133480000Y-60380000D03*
X133480000Y-61650000D03*
X133480000Y-62920000D03*
X133480000Y-64190000D03*
X133480000Y-65460000D03*
X133480000Y-66730000D03*
D72*
X135240000Y-68000000D03*
X136510000Y-68000000D03*
X137780000Y-68000000D03*
X139050000Y-68000000D03*
X140320000Y-68000000D03*
X141600000Y-68000000D03*
X142860000Y-68000000D03*
X144130000Y-68000000D03*
X145400000Y-68000000D03*
X146680000Y-68000000D03*
X147950000Y-68000000D03*
X149220000Y-67970000D03*
D71*
X150980000Y-66730000D03*
X150980000Y-65460000D03*
X150980000Y-64190000D03*
X150980000Y-62920000D03*
X150980000Y-61650000D03*
X150980000Y-60380000D03*
X150980000Y-59110000D03*
X150980000Y-57840000D03*
X150980000Y-56570000D03*
X150980000Y-55300000D03*
X150980000Y-54030000D03*
X150980000Y-52760000D03*
X150980000Y-51490000D03*
X150980000Y-50220000D03*
D73*
X139330000Y-56540000D03*
X139330000Y-57940000D03*
X139330000Y-59340000D03*
X140730000Y-56540000D03*
X140730000Y-57940000D03*
X140730000Y-59340000D03*
X142130000Y-56540000D03*
X142130000Y-57940000D03*
X142130000Y-59340000D03*
%TD*%
D68*
%TO.C,R68*%
X157007500Y-124215000D03*
X157007500Y-125865000D03*
%TD*%
D74*
%TO.C,C42*%
X164955000Y-50740000D03*
X163405000Y-50740000D03*
%TD*%
D75*
%TO.C,U6*%
X140075000Y-119220000D03*
X140075000Y-118270000D03*
X140075000Y-117320000D03*
X137775000Y-117320000D03*
X137775000Y-118270000D03*
X137775000Y-119220000D03*
%TD*%
D28*
%TO.C,C17*%
X139305000Y-120670000D03*
X138345000Y-120670000D03*
%TD*%
D35*
%TO.C,R7*%
X140570000Y-107240000D03*
X141590000Y-107240000D03*
%TD*%
D76*
%TO.C,SW3*%
X126100000Y-50200000D03*
X130460000Y-50200000D03*
%TD*%
D47*
%TO.C,R3*%
X148980000Y-111650000D03*
X148980000Y-112670000D03*
%TD*%
D77*
%TO.C,U3*%
X142330000Y-72690000D03*
X142330000Y-73190000D03*
X142330000Y-73690000D03*
X142330000Y-74190000D03*
D78*
X143030000Y-74890000D03*
X143530000Y-74890000D03*
X144030000Y-74890000D03*
X144530000Y-74890000D03*
D77*
X145230000Y-74190000D03*
X145230000Y-73690000D03*
X145230000Y-73190000D03*
X145230000Y-72690000D03*
D78*
X144530000Y-71990000D03*
X144030000Y-71990000D03*
X143530000Y-71990000D03*
X143030000Y-71990000D03*
D79*
X143780000Y-73440000D03*
%TD*%
D47*
%TO.C,R10*%
X138080000Y-109030000D03*
X138080000Y-110050000D03*
%TD*%
D31*
%TO.C,Q4*%
X150390000Y-106370000D03*
X150390000Y-107020000D03*
X150390000Y-107660000D03*
X150390000Y-108310000D03*
X153250000Y-108310000D03*
X153250000Y-107660000D03*
X153250000Y-107020000D03*
X153250000Y-106370000D03*
D32*
X152380000Y-107340000D03*
%TD*%
D28*
%TO.C,C45*%
X149845000Y-78125000D03*
X148885000Y-78125000D03*
%TD*%
%TO.C,C24*%
X133560000Y-105340000D03*
X132600000Y-105340000D03*
%TD*%
D33*
%TO.C,C38*%
X137400000Y-76940000D03*
X138360000Y-76940000D03*
%TD*%
D80*
%TO.C,U11*%
X135087500Y-107220000D03*
X136087500Y-107220000D03*
X137087500Y-107220000D03*
X138087500Y-107220000D03*
X139087500Y-107220000D03*
X139087500Y-101700000D03*
X138087500Y-101700000D03*
X137087500Y-101700000D03*
X136087500Y-101700000D03*
X135087500Y-101700000D03*
%TD*%
D81*
%TO.C,C5*%
X132880000Y-78510000D03*
X132880000Y-79470000D03*
%TD*%
D14*
%TO.C,R59*%
X150300000Y-122627500D03*
X150300000Y-121607500D03*
%TD*%
D82*
%TO.C,U4*%
X134080000Y-75640000D03*
X134580000Y-75640000D03*
X135080000Y-75640000D03*
X135580000Y-75640000D03*
X135580000Y-73740000D03*
X135080000Y-73740000D03*
X134580000Y-73740000D03*
X134080000Y-73740000D03*
D83*
X134820000Y-74690000D03*
%TD*%
D81*
%TO.C,C20*%
X150400000Y-103990000D03*
X150400000Y-104950000D03*
%TD*%
D33*
%TO.C,C37*%
X151820000Y-125517500D03*
X152780000Y-125517500D03*
%TD*%
M02*
