%TF.GenerationSoftware,KiCad,Pcbnew,9.0.7+1*%
%TF.CreationDate,Date%
%TF.ProjectId,IndustrialSense,496e6475-7374-4726-9961-6c53656e7365,+ (Unreleased)*%
%TF.SameCoordinates,Original*%
%TF.FileFunction,Paste,Top*%
%TF.FilePolarity,Positive*%
%FSLAX46Y46*%
G04 Gerber Fmt 4.6, Leading zero omitted, Abs format (unit mm)*
G04 Created by KiCad*
%MOMM*%
%LPD*%
G01*
G04 APERTURE LIST*
G04 Aperture macros list*
%AMRoundRect*
0 Rectangle with rounded corners*
0 $1 Rounding radius*
0 $2 $3 $4 $5 $6 $7 $8 $9 X,Y pos of 4 corners*
0 Add a 4 corners polygon primitive as box body*
4,1,4,$2,$3,$4,$5,$6,$7,$8,$9,$2,$3,0*
0 Add four circle primitives for the rounded corners*
1,1,$1+$1,$2,$3*
1,1,$1+$1,$4,$5*
1,1,$1+$1,$6,$7*
1,1,$1+$1,$8,$9*
0 Add four rect primitives between the rounded corners*
20,1,$1+$1,$2,$3,$4,$5,0*
20,1,$1+$1,$4,$5,$6,$7,0*
20,1,$1+$1,$6,$7,$8,$9,0*
20,1,$1+$1,$8,$9,$2,$3,0*%
%AMRotRect*
0 Rectangle, with rotation*
0 The origin of the aperture is its center*
0 $1 length*
0 $2 width*
0 $3 Rotation angle, in degrees counterclockwise*
0 Add horizontal line*
21,1,$1,$2,0,0,$3*%
%AMFreePoly0*
4,1,15,0.215355,0.145355,0.230000,0.110000,0.230000,0.030000,0.215355,-0.005355,0.210697,-0.009468,0.030697,-0.149468,0.000000,-0.160000,-0.180000,-0.160000,-0.215355,-0.145355,-0.230000,-0.110000,-0.230000,0.110000,-0.215355,0.145355,-0.180000,0.160000,0.180000,0.160000,0.215355,0.145355,0.215355,0.145355,$1*%
%AMFreePoly1*
4,1,15,0.030697,0.139468,0.210697,-0.000532,0.229614,-0.033798,0.230000,-0.040000,0.230000,-0.120000,0.215355,-0.155355,0.180000,-0.170000,-0.180000,-0.170000,-0.215355,-0.155355,-0.230000,-0.120000,-0.230000,0.100000,-0.215355,0.135355,-0.180000,0.150000,0.000000,0.150000,0.030697,0.139468,0.030697,0.139468,$1*%
%AMFreePoly2*
4,1,15,0.215355,0.135355,0.230000,0.100000,0.230000,-0.120000,0.215355,-0.155355,0.180000,-0.170000,-0.180000,-0.170000,-0.215355,-0.155355,-0.230000,-0.120000,-0.230000,-0.040000,-0.215355,-0.004645,-0.210697,-0.000532,-0.030697,0.139468,0.000000,0.150000,0.180000,0.150000,0.215355,0.135355,0.215355,0.135355,$1*%
%AMFreePoly3*
4,1,15,0.215355,0.145355,0.230000,0.110000,0.230000,-0.110000,0.215355,-0.145355,0.180000,-0.160000,0.000000,-0.160000,-0.030697,-0.149468,-0.210697,-0.009468,-0.229614,0.023798,-0.230000,0.030000,-0.230000,0.110000,-0.215355,0.145355,-0.180000,0.160000,0.180000,0.160000,0.215355,0.145355,0.215355,0.145355,$1*%
G04 Aperture macros list end*
%ADD10R,0.530000X1.070000*%
%ADD11R,3.500000X1.200000*%
%ADD12RoundRect,0.135000X0.185000X-0.135000X0.185000X0.135000X-0.185000X0.135000X-0.185000X-0.135000X0*%
%ADD13R,2.800000X2.800000*%
%ADD14RoundRect,0.135000X-0.185000X0.135000X-0.185000X-0.135000X0.185000X-0.135000X0.185000X0.135000X0*%
%ADD15RoundRect,0.250000X-0.325000X-1.100000X0.325000X-1.100000X0.325000X1.100000X-0.325000X1.100000X0*%
%ADD16R,3.500000X0.700000*%
%ADD17R,2.300000X1.500000*%
%ADD18RoundRect,0.200000X-0.200000X-0.275000X0.200000X-0.275000X0.200000X0.275000X-0.200000X0.275000X0*%
%ADD19RoundRect,0.250000X0.325000X1.100000X-0.325000X1.100000X-0.325000X-1.100000X0.325000X-1.100000X0*%
%ADD20R,0.530000X1.040000*%
%ADD21R,0.800000X2.000000*%
%ADD22RoundRect,0.200000X0.200000X0.275000X-0.200000X0.275000X-0.200000X-0.275000X0.200000X-0.275000X0*%
%ADD23O,0.280000X0.800000*%
%ADD24O,0.800000X0.280000*%
%ADD25R,1.600000X1.600000*%
%ADD26R,0.550000X1.100000*%
%ADD27R,0.300000X1.100000*%
%ADD28RoundRect,0.140000X0.140000X0.170000X-0.140000X0.170000X-0.140000X-0.170000X0.140000X-0.170000X0*%
%ADD29RoundRect,0.150000X-0.150000X0.587500X-0.150000X-0.587500X0.150000X-0.587500X0.150000X0.587500X0*%
%ADD30RoundRect,0.135000X0.135000X0.185000X-0.135000X0.185000X-0.135000X-0.185000X0.135000X-0.185000X0*%
%ADD31R,1.100000X0.620000*%
%ADD32RoundRect,0.140000X0.170000X-0.140000X0.170000X0.140000X-0.170000X0.140000X-0.170000X-0.140000X0*%
%ADD33R,0.410000X0.990000*%
%ADD34R,2.230000X1.720000*%
%ADD35RoundRect,0.140000X-0.140000X-0.170000X0.140000X-0.170000X0.140000X0.170000X-0.140000X0.170000X0*%
%ADD36R,0.830000X0.630000*%
%ADD37RoundRect,0.135000X-0.135000X-0.185000X0.135000X-0.185000X0.135000X0.185000X-0.135000X0.185000X0*%
%ADD38R,1.000000X3.500000*%
%ADD39R,3.300000X2.000000*%
%ADD40RoundRect,0.225000X-0.225000X-0.250000X0.225000X-0.250000X0.225000X0.250000X-0.225000X0.250000X0*%
%ADD41R,1.200000X3.000000*%
%ADD42R,1.200000X2.400000*%
%ADD43O,0.590000X2.050000*%
%ADD44RoundRect,0.200000X0.275000X-0.200000X0.275000X0.200000X-0.275000X0.200000X-0.275000X-0.200000X0*%
%ADD45RoundRect,0.225000X-0.250000X0.225000X-0.250000X-0.225000X0.250000X-0.225000X0.250000X0.225000X0*%
%ADD46RoundRect,0.250000X-0.475000X0.250000X-0.475000X-0.250000X0.475000X-0.250000X0.475000X0.250000X0*%
%ADD47R,1.860000X1.230000*%
%ADD48R,0.800000X1.000000*%
%ADD49R,1.400000X1.200000*%
%ADD50RoundRect,0.112500X-0.187500X-0.112500X0.187500X-0.112500X0.187500X0.112500X-0.187500X0.112500X0*%
%ADD51R,5.600000X1.550000*%
%ADD52RoundRect,0.250000X-0.650000X1.000000X-0.650000X-1.000000X0.650000X-1.000000X0.650000X1.000000X0*%
%ADD53R,1.070000X0.530000*%
%ADD54R,0.990000X0.410000*%
%ADD55R,1.720000X2.230000*%
%ADD56R,1.500000X0.500000*%
%ADD57R,1.400000X1.300000*%
%ADD58O,0.570000X1.890000*%
%ADD59RoundRect,0.225000X0.250000X-0.225000X0.250000X0.225000X-0.250000X0.225000X-0.250000X-0.225000X0*%
%ADD60RoundRect,0.218750X0.218750X0.256250X-0.218750X0.256250X-0.218750X-0.256250X0.218750X-0.256250X0*%
%ADD61FreePoly0,180.000000*%
%ADD62FreePoly1,180.000000*%
%ADD63FreePoly2,180.000000*%
%ADD64FreePoly3,180.000000*%
%ADD65RotRect,0.480000X0.480000X225.000000*%
%ADD66R,0.600000X0.600000*%
%ADD67RoundRect,0.250000X-1.000000X-0.650000X1.000000X-0.650000X1.000000X0.650000X-1.000000X0.650000X0*%
%ADD68R,0.900000X0.400000*%
%ADD69RoundRect,0.225000X0.225000X0.250000X-0.225000X0.250000X-0.225000X-0.250000X0.225000X-0.250000X0*%
%ADD70RoundRect,0.112500X0.187500X0.112500X-0.187500X0.112500X-0.187500X-0.112500X0.187500X-0.112500X0*%
%ADD71RoundRect,0.200000X-0.275000X0.200000X-0.275000X-0.200000X0.275000X-0.200000X0.275000X0.200000X0*%
%ADD72O,0.280000X0.700000*%
%ADD73O,0.700000X0.280000*%
%ADD74R,1.500000X0.900000*%
%ADD75R,0.900000X1.500000*%
%ADD76R,0.900000X0.900000*%
%ADD77R,1.230000X1.860000*%
%ADD78R,0.750000X0.250000*%
%ADD79R,0.250000X0.750000*%
%ADD80R,1.700000X1.700000*%
%ADD81O,0.520000X2.010000*%
%ADD82RoundRect,0.140000X-0.170000X0.140000X-0.170000X-0.140000X0.170000X-0.140000X0.170000X0.140000X0*%
%ADD83R,0.250000X0.520000*%
%ADD84R,1.600000X0.900000*%
G04 APERTURE END LIST*
D10*
%TO.C,Q6*%
X153570000Y-125332500D03*
X154520000Y-125332500D03*
X155470000Y-125332500D03*
X155470000Y-123032500D03*
X154520000Y-123032500D03*
X153570000Y-123032500D03*
%TD*%
D11*
%TO.C,C1*%
X132350000Y-111740000D03*
X127010000Y-111740000D03*
%TD*%
D12*
%TO.C,R18*%
X163470000Y-117080000D03*
X163470000Y-116060000D03*
%TD*%
D13*
%TO.C,DC1*%
X126580000Y-131990000D03*
X126580000Y-125890000D03*
X137580000Y-131990000D03*
X137580000Y-125890000D03*
%TD*%
D14*
%TO.C,R5*%
X153650000Y-128600000D03*
X153650000Y-129620000D03*
%TD*%
D15*
%TO.C,C14*%
X156855000Y-101160000D03*
X159805000Y-101160000D03*
%TD*%
D16*
%TO.C,CN3*%
X129180000Y-76790000D03*
X129180000Y-78290000D03*
X129180000Y-79790000D03*
X129180000Y-81290000D03*
X129180000Y-82790000D03*
X129180000Y-84290000D03*
D17*
X127180000Y-86340000D03*
X127180000Y-74740000D03*
%TD*%
D18*
%TO.C,R49*%
X162625000Y-102262500D03*
X164275000Y-102262500D03*
%TD*%
D19*
%TO.C,C6*%
X155125000Y-103010000D03*
X152175000Y-103010000D03*
%TD*%
D20*
%TO.C,D5*%
X146570000Y-126150000D03*
X147520000Y-126150000D03*
X148470000Y-126150000D03*
X148470000Y-123850000D03*
X147520000Y-123850000D03*
X146570000Y-123850000D03*
%TD*%
D21*
%TO.C,RF1*%
X168980000Y-50022500D03*
X170280000Y-49222500D03*
X167680000Y-49222500D03*
%TD*%
D22*
%TO.C,R54*%
X148685000Y-70580000D03*
X147035000Y-70580000D03*
%TD*%
D23*
%TO.C,U7*%
X156810000Y-95800000D03*
X156310000Y-95800000D03*
X155810000Y-95800000D03*
X155310000Y-95800000D03*
D24*
X154660000Y-96450000D03*
X154660000Y-96950000D03*
X154660000Y-97450000D03*
X154660000Y-97950000D03*
D23*
X155310000Y-98600000D03*
X155810000Y-98600000D03*
X156310000Y-98600000D03*
X156810000Y-98600000D03*
D24*
X157460000Y-97950000D03*
X157460000Y-97450000D03*
X157460000Y-96950000D03*
X157460000Y-96450000D03*
D25*
X156060000Y-97200000D03*
%TD*%
D26*
%TO.C,USB1*%
X144310000Y-129620000D03*
X145110000Y-129620000D03*
D27*
X145760000Y-129620000D03*
X146260000Y-129620000D03*
X146760000Y-129620000D03*
X147260000Y-129620000D03*
X147760000Y-129620000D03*
X148260000Y-129620000D03*
X148760000Y-129620000D03*
X149260000Y-129620000D03*
D26*
X149910000Y-129620000D03*
X150710000Y-129620000D03*
%TD*%
D28*
%TO.C,C39*%
X134170000Y-76810000D03*
X133210000Y-76810000D03*
%TD*%
D15*
%TO.C,C4*%
X156855000Y-104430000D03*
X159805000Y-104430000D03*
%TD*%
D29*
%TO.C,Q13*%
X165250000Y-98062500D03*
X163350000Y-98062500D03*
X164300000Y-99937500D03*
%TD*%
D15*
%TO.C,C23*%
X146325000Y-96900000D03*
X149275000Y-96900000D03*
%TD*%
D30*
%TO.C,R12*%
X141590000Y-103540000D03*
X140570000Y-103540000D03*
%TD*%
D31*
%TO.C,U9*%
X134170000Y-78410000D03*
X134170000Y-79370000D03*
X134170000Y-80310000D03*
X136970000Y-80310000D03*
X136970000Y-78430000D03*
%TD*%
D12*
%TO.C,R19*%
X156570000Y-119140000D03*
X156570000Y-118120000D03*
%TD*%
D32*
%TO.C,C44*%
X151880000Y-84860000D03*
X151880000Y-83900000D03*
%TD*%
D33*
%TO.C,Q2*%
X136610000Y-114950000D03*
X137260000Y-114950000D03*
X137900000Y-114950000D03*
X138550000Y-114950000D03*
X138550000Y-112090000D03*
X137900000Y-112090000D03*
X137260000Y-112090000D03*
X136610000Y-112090000D03*
D34*
X137580000Y-112960000D03*
%TD*%
D35*
%TO.C,C26*%
X163470000Y-119290000D03*
X164430000Y-119290000D03*
%TD*%
D36*
%TO.C,D4*%
X141460000Y-123600000D03*
X143740000Y-123600000D03*
%TD*%
D37*
%TO.C,R11*%
X132560000Y-106360000D03*
X133580000Y-106360000D03*
%TD*%
D28*
%TO.C,C22*%
X126780000Y-103400000D03*
X125820000Y-103400000D03*
%TD*%
D12*
%TO.C,R1*%
X131880000Y-119342500D03*
X131880000Y-118322500D03*
%TD*%
D38*
%TO.C,U12*%
X156310000Y-92190000D03*
X158670000Y-92190000D03*
%TD*%
D39*
%TO.C,R8*%
X141980000Y-95300000D03*
X141980000Y-101440000D03*
%TD*%
D40*
%TO.C,C43*%
X163435000Y-52250000D03*
X164985000Y-52250000D03*
%TD*%
D41*
%TO.C,L2*%
X168980000Y-55840000D03*
D42*
X166980000Y-55540000D03*
X164980000Y-55540000D03*
X162980000Y-55540000D03*
X160980000Y-55540000D03*
X158980000Y-55540000D03*
X156980000Y-55540000D03*
X154980000Y-55540000D03*
X154980000Y-71540000D03*
X156980000Y-71540000D03*
X158980000Y-71540000D03*
X160980000Y-71540000D03*
X162980000Y-71540000D03*
X164980000Y-71540000D03*
X166980000Y-71540000D03*
X168980000Y-71540000D03*
%TD*%
D37*
%TO.C,R60*%
X151010000Y-125332500D03*
X152030000Y-125332500D03*
%TD*%
D43*
%TO.C,U17*%
X161770000Y-116060000D03*
X160490000Y-116060000D03*
X159230000Y-116060000D03*
X157960000Y-116060000D03*
X157960000Y-121200000D03*
X159230000Y-121200000D03*
X160490000Y-121200000D03*
X161770000Y-121200000D03*
%TD*%
D44*
%TO.C,R50*%
X155090000Y-81335000D03*
X155090000Y-79685000D03*
%TD*%
D45*
%TO.C,C48*%
X142010000Y-76865000D03*
X142010000Y-78415000D03*
%TD*%
D46*
%TO.C,C13*%
X159710000Y-95160000D03*
X159710000Y-97060000D03*
%TD*%
D22*
%TO.C,R55*%
X165225000Y-92800000D03*
X163575000Y-92800000D03*
%TD*%
D18*
%TO.C,R56*%
X163575000Y-91300000D03*
X165225000Y-91300000D03*
%TD*%
D47*
%TO.C,SW2*%
X169210000Y-96970000D03*
X169210000Y-101330000D03*
%TD*%
D48*
%TO.C,D10*%
X160730000Y-129380000D03*
X158830000Y-129380000D03*
X159780000Y-131680000D03*
%TD*%
D14*
%TO.C,R6*%
X149100000Y-106590000D03*
X149100000Y-107610000D03*
%TD*%
D22*
%TO.C,R47*%
X165255000Y-96160000D03*
X163605000Y-96160000D03*
%TD*%
D19*
%TO.C,C21*%
X129955000Y-106340000D03*
X127005000Y-106340000D03*
%TD*%
D28*
%TO.C,C25*%
X141610000Y-106220000D03*
X140650000Y-106220000D03*
%TD*%
D49*
%TO.C,X1*%
X148400000Y-79300000D03*
X150600000Y-79300000D03*
X150600000Y-77600000D03*
X148400000Y-77600000D03*
%TD*%
D50*
%TO.C,D8*%
X167102500Y-89510000D03*
X169202500Y-89510000D03*
%TD*%
D37*
%TO.C,R13*%
X140570000Y-104540000D03*
X141590000Y-104540000D03*
%TD*%
D35*
%TO.C,C12*%
X163467500Y-118240000D03*
X164427500Y-118240000D03*
%TD*%
D51*
%TO.C,L3*%
X134980000Y-93320000D03*
X134980000Y-97360000D03*
%TD*%
D14*
%TO.C,R4*%
X141350000Y-128600000D03*
X141350000Y-129620000D03*
%TD*%
D52*
%TO.C,D2*%
X129310000Y-89150000D03*
X129310000Y-93150000D03*
%TD*%
D45*
%TO.C,C46*%
X143530000Y-76865000D03*
X143530000Y-78415000D03*
%TD*%
D53*
%TO.C,U5*%
X135570000Y-119272500D03*
X135570000Y-118322500D03*
X135570000Y-117372500D03*
X133270000Y-117372500D03*
X133270000Y-118322500D03*
X133270000Y-119272500D03*
%TD*%
D22*
%TO.C,R53*%
X148845000Y-74990000D03*
X147195000Y-74990000D03*
%TD*%
D54*
%TO.C,Q3*%
X150390000Y-110130000D03*
X150390000Y-110780000D03*
X150390000Y-111420000D03*
X150390000Y-112070000D03*
X153250000Y-112070000D03*
X153250000Y-111420000D03*
X153250000Y-110780000D03*
X153250000Y-110130000D03*
D55*
X152380000Y-111100000D03*
%TD*%
D56*
%TO.C,Card1*%
X163105000Y-78390000D03*
X163105000Y-79490000D03*
X163105000Y-80590000D03*
X163105000Y-81340000D03*
X163105000Y-82790000D03*
X163105000Y-83890000D03*
X163105000Y-84990000D03*
X163105000Y-86090000D03*
X163105000Y-82040000D03*
D57*
X161355000Y-87340000D03*
X156905000Y-87340000D03*
X156905000Y-77140000D03*
X161355000Y-77140000D03*
%TD*%
D53*
%TO.C,U8*%
X145840000Y-113510000D03*
X145840000Y-114460000D03*
X145840000Y-115410000D03*
X148140000Y-115410000D03*
X148140000Y-114460000D03*
X148140000Y-113510000D03*
%TD*%
D58*
%TO.C,Q5*%
X126770000Y-101700000D03*
X128050000Y-101700000D03*
X129310000Y-101700000D03*
X130580000Y-101700000D03*
X130580000Y-96300000D03*
X129310000Y-96300000D03*
X128050000Y-96300000D03*
X126770000Y-96300000D03*
%TD*%
D59*
%TO.C,C16*%
X153120000Y-98605000D03*
X153120000Y-97055000D03*
%TD*%
D22*
%TO.C,R58*%
X138755000Y-72660000D03*
X137105000Y-72660000D03*
%TD*%
%TO.C,R48*%
X166905000Y-94600000D03*
X165255000Y-94600000D03*
%TD*%
D33*
%TO.C,Q1*%
X128430000Y-119322500D03*
X129080000Y-119322500D03*
X129720000Y-119322500D03*
X130370000Y-119322500D03*
X130370000Y-116462500D03*
X129720000Y-116462500D03*
X129080000Y-116462500D03*
X128430000Y-116462500D03*
D34*
X129400000Y-117332500D03*
%TD*%
D60*
%TO.C,D16*%
X136767500Y-109540000D03*
X135192500Y-109540000D03*
%TD*%
D28*
%TO.C,C18*%
X134480000Y-120700000D03*
X133520000Y-120700000D03*
%TD*%
D53*
%TO.C,U10*%
X145450000Y-106627500D03*
X145450000Y-107577500D03*
X145450000Y-108527500D03*
X147750000Y-108527500D03*
X147750000Y-107577500D03*
X147750000Y-106627500D03*
%TD*%
D22*
%TO.C,R57*%
X138755000Y-71150000D03*
X137105000Y-71150000D03*
%TD*%
D35*
%TO.C,C19*%
X145840000Y-111870000D03*
X146800000Y-111870000D03*
%TD*%
D61*
%TO.C,U15*%
X131890000Y-52760000D03*
D62*
X131890000Y-52120000D03*
D63*
X131030000Y-52120000D03*
D64*
X131030000Y-52760000D03*
D65*
X131460000Y-52440000D03*
%TD*%
D66*
%TO.C,D3*%
X167980000Y-52640000D03*
X168980000Y-52640000D03*
%TD*%
D67*
%TO.C,D1*%
X132750000Y-89150000D03*
X136750000Y-89150000D03*
%TD*%
D68*
%TO.C,Q15*%
X148845000Y-73300000D03*
X148845000Y-72650000D03*
X148845000Y-72000000D03*
X147045000Y-72000000D03*
X147045000Y-72650000D03*
X147045000Y-73300000D03*
%TD*%
D69*
%TO.C,C41*%
X129585000Y-52760000D03*
X128035000Y-52760000D03*
%TD*%
D14*
%TO.C,R9*%
X133580000Y-103340000D03*
X133580000Y-104360000D03*
%TD*%
D40*
%TO.C,C40*%
X128035000Y-54410000D03*
X129585000Y-54410000D03*
%TD*%
D70*
%TO.C,D6*%
X165350000Y-89500000D03*
X163250000Y-89500000D03*
%TD*%
D22*
%TO.C,R69*%
X160645000Y-127530000D03*
X158995000Y-127530000D03*
%TD*%
D50*
%TO.C,D7*%
X167090000Y-92800000D03*
X169190000Y-92800000D03*
%TD*%
D12*
%TO.C,R2*%
X140070000Y-114960000D03*
X140070000Y-113940000D03*
%TD*%
D59*
%TO.C,C47*%
X140200000Y-72675000D03*
X140200000Y-71125000D03*
%TD*%
D11*
%TO.C,C7*%
X145310000Y-91100000D03*
X150650000Y-91100000D03*
%TD*%
D71*
%TO.C,R67*%
X160580000Y-124205000D03*
X160580000Y-125855000D03*
%TD*%
D28*
%TO.C,C15*%
X155520000Y-100890000D03*
X154560000Y-100890000D03*
%TD*%
D72*
%TO.C,U14*%
X149900000Y-81600000D03*
X149400000Y-81600000D03*
X148900000Y-81600000D03*
X148400000Y-81600000D03*
X147900000Y-81600000D03*
X147400000Y-81600000D03*
D73*
X146650000Y-82350000D03*
X146650000Y-82850000D03*
X146650000Y-83350000D03*
X146650000Y-83850000D03*
X146650000Y-84350000D03*
X146650000Y-84850000D03*
D72*
X147400000Y-85600000D03*
X147900000Y-85600000D03*
X148400000Y-85600000D03*
X148900000Y-85600000D03*
X149400000Y-85600000D03*
X149900000Y-85600000D03*
D73*
X150650000Y-84850000D03*
X150650000Y-84350000D03*
X150650000Y-83850000D03*
X150650000Y-83350000D03*
X150650000Y-82850000D03*
X150650000Y-82350000D03*
D13*
X148640000Y-83600000D03*
%TD*%
D74*
%TO.C,U1*%
X133480000Y-50220000D03*
X133480000Y-51490000D03*
X133480000Y-52760000D03*
X133480000Y-54030000D03*
X133480000Y-55300000D03*
X133480000Y-56570000D03*
X133480000Y-57840000D03*
X133480000Y-59110000D03*
X133480000Y-60380000D03*
X133480000Y-61650000D03*
X133480000Y-62920000D03*
X133480000Y-64190000D03*
X133480000Y-65460000D03*
X133480000Y-66730000D03*
D75*
X135240000Y-68000000D03*
X136510000Y-68000000D03*
X137780000Y-68000000D03*
X139050000Y-68000000D03*
X140320000Y-68000000D03*
X141600000Y-68000000D03*
X142860000Y-68000000D03*
X144130000Y-68000000D03*
X145400000Y-68000000D03*
X146680000Y-68000000D03*
X147950000Y-68000000D03*
X149220000Y-67970000D03*
D74*
X150980000Y-66730000D03*
X150980000Y-65460000D03*
X150980000Y-64190000D03*
X150980000Y-62920000D03*
X150980000Y-61650000D03*
X150980000Y-60380000D03*
X150980000Y-59110000D03*
X150980000Y-57840000D03*
X150980000Y-56570000D03*
X150980000Y-55300000D03*
X150980000Y-54030000D03*
X150980000Y-52760000D03*
X150980000Y-51490000D03*
X150980000Y-50220000D03*
D76*
X139330000Y-56540000D03*
X139330000Y-57940000D03*
X139330000Y-59340000D03*
X140730000Y-56540000D03*
X140730000Y-57940000D03*
X140730000Y-59340000D03*
X142130000Y-56540000D03*
X142130000Y-57940000D03*
X142130000Y-59340000D03*
%TD*%
D71*
%TO.C,R68*%
X159080000Y-124205000D03*
X159080000Y-125855000D03*
%TD*%
D69*
%TO.C,C42*%
X164985000Y-50720000D03*
X163435000Y-50720000D03*
%TD*%
D53*
%TO.C,U6*%
X143625000Y-113970000D03*
X143625000Y-113020000D03*
X143625000Y-112070000D03*
X141325000Y-112070000D03*
X141325000Y-113020000D03*
X141325000Y-113970000D03*
%TD*%
D28*
%TO.C,C17*%
X142580000Y-115420000D03*
X141620000Y-115420000D03*
%TD*%
D37*
%TO.C,R7*%
X140590000Y-107220000D03*
X141610000Y-107220000D03*
%TD*%
D77*
%TO.C,SW3*%
X126250000Y-49940000D03*
X130610000Y-49940000D03*
%TD*%
D37*
%TO.C,R3*%
X149370000Y-113510000D03*
X150390000Y-113510000D03*
%TD*%
D78*
%TO.C,U3*%
X142330000Y-72690000D03*
X142330000Y-73190000D03*
X142330000Y-73690000D03*
X142330000Y-74190000D03*
D79*
X143030000Y-74890000D03*
X143530000Y-74890000D03*
X144030000Y-74890000D03*
X144530000Y-74890000D03*
D78*
X145230000Y-74190000D03*
X145230000Y-73690000D03*
X145230000Y-73190000D03*
X145230000Y-72690000D03*
D79*
X144530000Y-71990000D03*
X144030000Y-71990000D03*
X143530000Y-71990000D03*
X143030000Y-71990000D03*
D80*
X143780000Y-73440000D03*
%TD*%
D14*
%TO.C,R10*%
X138080000Y-109030000D03*
X138080000Y-110050000D03*
%TD*%
D54*
%TO.C,Q4*%
X150470000Y-105830000D03*
X150470000Y-106480000D03*
X150470000Y-107120000D03*
X150470000Y-107770000D03*
X153330000Y-107770000D03*
X153330000Y-107120000D03*
X153330000Y-106480000D03*
X153330000Y-105830000D03*
D55*
X152460000Y-106800000D03*
%TD*%
D32*
%TO.C,C45*%
X152880000Y-84860000D03*
X152880000Y-83900000D03*
%TD*%
D28*
%TO.C,C24*%
X133560000Y-105340000D03*
X132600000Y-105340000D03*
%TD*%
D35*
%TO.C,C38*%
X136970000Y-76810000D03*
X137930000Y-76810000D03*
%TD*%
D81*
%TO.C,U11*%
X135087500Y-107220000D03*
X136087500Y-107220000D03*
X137087500Y-107220000D03*
X138087500Y-107220000D03*
X139087500Y-107220000D03*
X139087500Y-101700000D03*
X138087500Y-101700000D03*
X137087500Y-101700000D03*
X136087500Y-101700000D03*
X135087500Y-101700000D03*
%TD*%
D82*
%TO.C,C5*%
X132460000Y-78410000D03*
X132460000Y-79370000D03*
%TD*%
D12*
%TO.C,R59*%
X152030000Y-124050000D03*
X152030000Y-123030000D03*
%TD*%
D83*
%TO.C,U4*%
X133850000Y-75510000D03*
X134350000Y-75510000D03*
X134850000Y-75510000D03*
X135350000Y-75510000D03*
X135350000Y-73610000D03*
X134850000Y-73610000D03*
X134350000Y-73610000D03*
X133850000Y-73610000D03*
D84*
X134590000Y-74560000D03*
%TD*%
D35*
%TO.C,C20*%
X146620000Y-105027500D03*
X147580000Y-105027500D03*
%TD*%
D28*
%TO.C,C37*%
X153570000Y-126760000D03*
X152610000Y-126760000D03*
%TD*%
M02*
