%TF.GenerationSoftware,KiCad,Pcbnew,9.0.7+1*%
%TF.CreationDate,Date%
%TF.ProjectId,IndustrialSense,496e6475-7374-4726-9961-6c53656e7365,+ (Unreleased)*%
%TF.SameCoordinates,Original*%
%TF.FileFunction,Soldermask,Bot*%
%TF.FilePolarity,Negative*%
%FSLAX46Y46*%
G04 Gerber Fmt 4.6, Leading zero omitted, Abs format (unit mm)*
G04 Created by KiCad*
%MOMM*%
%LPD*%
G01*
G04 APERTURE LIST*
G04 APERTURE END LIST*
G36*
X102183199Y-130127642D02*
G01*
X102309978Y-130180155D01*
X102424075Y-130256393D01*
X102521107Y-130353425D01*
X102597345Y-130467522D01*
X102649858Y-130594301D01*
X102676629Y-130728888D01*
X102680000Y-130797500D01*
X102680000Y-131397500D01*
X102676629Y-131466112D01*
X102649858Y-131600699D01*
X102597345Y-131727478D01*
X102521107Y-131841575D01*
X102424075Y-131938607D01*
X102309978Y-132014845D01*
X102183199Y-132067358D01*
X102048612Y-132094129D01*
X101911388Y-132094129D01*
X101776801Y-132067358D01*
X101650022Y-132014845D01*
X101535925Y-131938607D01*
X101438893Y-131841575D01*
X101362655Y-131727478D01*
X101310142Y-131600699D01*
X101283371Y-131466112D01*
X101280000Y-131397500D01*
X101280000Y-130797500D01*
X101283371Y-130728888D01*
X101310142Y-130594301D01*
X101362655Y-130467522D01*
X101438893Y-130353425D01*
X101535925Y-130256393D01*
X101650022Y-130180155D01*
X101776801Y-130127642D01*
X101911388Y-130100871D01*
X102048612Y-130100871D01*
X102183199Y-130127642D01*
G37*
G36*
X110823199Y-130127642D02*
G01*
X110949978Y-130180155D01*
X111064075Y-130256393D01*
X111161107Y-130353425D01*
X111237345Y-130467522D01*
X111289858Y-130594301D01*
X111316629Y-130728888D01*
X111320000Y-130797500D01*
X111320000Y-131397500D01*
X111316629Y-131466112D01*
X111289858Y-131600699D01*
X111237345Y-131727478D01*
X111161107Y-131841575D01*
X111064075Y-131938607D01*
X110949978Y-132014845D01*
X110823199Y-132067358D01*
X110688612Y-132094129D01*
X110551388Y-132094129D01*
X110416801Y-132067358D01*
X110290022Y-132014845D01*
X110175925Y-131938607D01*
X110078893Y-131841575D01*
X110002655Y-131727478D01*
X109950142Y-131600699D01*
X109923371Y-131466112D01*
X109920000Y-131397500D01*
X109920000Y-130797500D01*
X109923371Y-130728888D01*
X109950142Y-130594301D01*
X110002655Y-130467522D01*
X110078893Y-130353425D01*
X110175925Y-130256393D01*
X110290022Y-130180155D01*
X110416801Y-130127642D01*
X110551388Y-130100871D01*
X110688612Y-130100871D01*
X110823199Y-130127642D01*
G37*
G36*
X140425770Y-129875907D02*
G01*
X140597827Y-129947175D01*
X140752674Y-130050640D01*
X140884360Y-130182326D01*
X140987825Y-130337173D01*
X141059093Y-130509230D01*
X141095425Y-130691884D01*
X141095425Y-130878116D01*
X141059093Y-131060770D01*
X140987825Y-131232827D01*
X140884360Y-131387674D01*
X140752674Y-131519360D01*
X140597827Y-131622825D01*
X140425770Y-131694093D01*
X140243116Y-131730425D01*
X140056884Y-131730425D01*
X139874230Y-131694093D01*
X139702173Y-131622825D01*
X139547326Y-131519360D01*
X139415640Y-131387674D01*
X139312175Y-131232827D01*
X139240907Y-131060770D01*
X139204575Y-130878116D01*
X139204575Y-130691884D01*
X139240907Y-130509230D01*
X139312175Y-130337173D01*
X139415640Y-130182326D01*
X139547326Y-130050640D01*
X139702173Y-129947175D01*
X139874230Y-129875907D01*
X140056884Y-129839575D01*
X140243116Y-129839575D01*
X140425770Y-129875907D01*
G37*
G36*
X142965770Y-129875907D02*
G01*
X143137827Y-129947175D01*
X143292674Y-130050640D01*
X143424360Y-130182326D01*
X143527825Y-130337173D01*
X143599093Y-130509230D01*
X143635425Y-130691884D01*
X143635425Y-130878116D01*
X143599093Y-131060770D01*
X143527825Y-131232827D01*
X143424360Y-131387674D01*
X143292674Y-131519360D01*
X143137827Y-131622825D01*
X142965770Y-131694093D01*
X142783116Y-131730425D01*
X142596884Y-131730425D01*
X142414230Y-131694093D01*
X142242173Y-131622825D01*
X142087326Y-131519360D01*
X141955640Y-131387674D01*
X141852175Y-131232827D01*
X141780907Y-131060770D01*
X141744575Y-130878116D01*
X141744575Y-130691884D01*
X141780907Y-130509230D01*
X141852175Y-130337173D01*
X141955640Y-130182326D01*
X142087326Y-130050640D01*
X142242173Y-129947175D01*
X142414230Y-129875907D01*
X142596884Y-129839575D01*
X142783116Y-129839575D01*
X142965770Y-129875907D01*
G37*
G36*
X140425770Y-127335907D02*
G01*
X140597827Y-127407175D01*
X140752674Y-127510640D01*
X140884360Y-127642326D01*
X140987825Y-127797173D01*
X141059093Y-127969230D01*
X141095425Y-128151884D01*
X141095425Y-128338116D01*
X141059093Y-128520770D01*
X140987825Y-128692827D01*
X140884360Y-128847674D01*
X140752674Y-128979360D01*
X140597827Y-129082825D01*
X140425770Y-129154093D01*
X140243116Y-129190425D01*
X140056884Y-129190425D01*
X139874230Y-129154093D01*
X139702173Y-129082825D01*
X139547326Y-128979360D01*
X139415640Y-128847674D01*
X139312175Y-128692827D01*
X139240907Y-128520770D01*
X139204575Y-128338116D01*
X139204575Y-128151884D01*
X139240907Y-127969230D01*
X139312175Y-127797173D01*
X139415640Y-127642326D01*
X139547326Y-127510640D01*
X139702173Y-127407175D01*
X139874230Y-127335907D01*
X140056884Y-127299575D01*
X140243116Y-127299575D01*
X140425770Y-127335907D01*
G37*
G36*
X142965770Y-127335907D02*
G01*
X143137827Y-127407175D01*
X143292674Y-127510640D01*
X143424360Y-127642326D01*
X143527825Y-127797173D01*
X143599093Y-127969230D01*
X143635425Y-128151884D01*
X143635425Y-128338116D01*
X143599093Y-128520770D01*
X143527825Y-128692827D01*
X143424360Y-128847674D01*
X143292674Y-128979360D01*
X143137827Y-129082825D01*
X142965770Y-129154093D01*
X142783116Y-129190425D01*
X142596884Y-129190425D01*
X142414230Y-129154093D01*
X142242173Y-129082825D01*
X142087326Y-128979360D01*
X141955640Y-128847674D01*
X141852175Y-128692827D01*
X141780907Y-128520770D01*
X141744575Y-128338116D01*
X141744575Y-128151884D01*
X141780907Y-127969230D01*
X141852175Y-127797173D01*
X141955640Y-127642326D01*
X142087326Y-127510640D01*
X142242173Y-127407175D01*
X142414230Y-127335907D01*
X142596884Y-127299575D01*
X142783116Y-127299575D01*
X142965770Y-127335907D01*
G37*
G36*
X102168685Y-125815489D02*
G01*
X102286408Y-125864251D01*
X102392356Y-125935043D01*
X102482457Y-126025144D01*
X102553249Y-126131092D01*
X102602011Y-126248815D01*
X102626870Y-126373789D01*
X102630000Y-126437500D01*
X102630000Y-127337500D01*
X102626870Y-127401211D01*
X102602011Y-127526185D01*
X102553249Y-127643908D01*
X102482457Y-127749856D01*
X102392356Y-127839957D01*
X102286408Y-127910749D01*
X102168685Y-127959511D01*
X102043711Y-127984370D01*
X101916289Y-127984370D01*
X101791315Y-127959511D01*
X101673592Y-127910749D01*
X101567644Y-127839957D01*
X101477543Y-127749856D01*
X101406751Y-127643908D01*
X101357989Y-127526185D01*
X101333130Y-127401211D01*
X101330000Y-127337500D01*
X101330000Y-126437500D01*
X101333130Y-126373789D01*
X101357989Y-126248815D01*
X101406751Y-126131092D01*
X101477543Y-126025144D01*
X101567644Y-125935043D01*
X101673592Y-125864251D01*
X101791315Y-125815489D01*
X101916289Y-125790630D01*
X102043711Y-125790630D01*
X102168685Y-125815489D01*
G37*
G36*
X110808685Y-125815489D02*
G01*
X110926408Y-125864251D01*
X111032356Y-125935043D01*
X111122457Y-126025144D01*
X111193249Y-126131092D01*
X111242011Y-126248815D01*
X111266870Y-126373789D01*
X111270000Y-126437500D01*
X111270000Y-127337500D01*
X111266870Y-127401211D01*
X111242011Y-127526185D01*
X111193249Y-127643908D01*
X111122457Y-127749856D01*
X111032356Y-127839957D01*
X110926408Y-127910749D01*
X110808685Y-127959511D01*
X110683711Y-127984370D01*
X110556289Y-127984370D01*
X110431315Y-127959511D01*
X110313592Y-127910749D01*
X110207644Y-127839957D01*
X110117543Y-127749856D01*
X110046751Y-127643908D01*
X109997989Y-127526185D01*
X109973130Y-127401211D01*
X109970000Y-127337500D01*
X109970000Y-126437500D01*
X109973130Y-126373789D01*
X109997989Y-126248815D01*
X110046751Y-126131092D01*
X110117543Y-126025144D01*
X110207644Y-125935043D01*
X110313592Y-125864251D01*
X110431315Y-125815489D01*
X110556289Y-125790630D01*
X110683711Y-125790630D01*
X110808685Y-125815489D01*
G37*
G36*
X103582208Y-127001754D02*
G01*
X103683943Y-127060491D01*
X103767009Y-127143557D01*
X103825746Y-127245292D01*
X103856150Y-127358763D01*
X103856150Y-127476237D01*
X103825746Y-127589708D01*
X103767009Y-127691443D01*
X103683943Y-127774509D01*
X103582208Y-127833246D01*
X103468737Y-127863650D01*
X103351263Y-127863650D01*
X103237792Y-127833246D01*
X103136057Y-127774509D01*
X103052991Y-127691443D01*
X102994254Y-127589708D01*
X102963850Y-127476237D01*
X102963850Y-127358763D01*
X102994254Y-127245292D01*
X103052991Y-127143557D01*
X103136057Y-127060491D01*
X103237792Y-127001754D01*
X103351263Y-126971350D01*
X103468737Y-126971350D01*
X103582208Y-127001754D01*
G37*
G36*
X109362208Y-127001754D02*
G01*
X109463943Y-127060491D01*
X109547009Y-127143557D01*
X109605746Y-127245292D01*
X109636150Y-127358763D01*
X109636150Y-127476237D01*
X109605746Y-127589708D01*
X109547009Y-127691443D01*
X109463943Y-127774509D01*
X109362208Y-127833246D01*
X109248737Y-127863650D01*
X109131263Y-127863650D01*
X109017792Y-127833246D01*
X108916057Y-127774509D01*
X108832991Y-127691443D01*
X108774254Y-127589708D01*
X108743850Y-127476237D01*
X108743850Y-127358763D01*
X108774254Y-127245292D01*
X108832991Y-127143557D01*
X108916057Y-127060491D01*
X109017792Y-127001754D01*
X109131263Y-126971350D01*
X109248737Y-126971350D01*
X109362208Y-127001754D01*
G37*
G36*
X140425770Y-124795907D02*
G01*
X140597827Y-124867175D01*
X140752674Y-124970640D01*
X140884360Y-125102326D01*
X140987825Y-125257173D01*
X141059093Y-125429230D01*
X141095425Y-125611884D01*
X141095425Y-125798116D01*
X141059093Y-125980770D01*
X140987825Y-126152827D01*
X140884360Y-126307674D01*
X140752674Y-126439360D01*
X140597827Y-126542825D01*
X140425770Y-126614093D01*
X140243116Y-126650425D01*
X140056884Y-126650425D01*
X139874230Y-126614093D01*
X139702173Y-126542825D01*
X139547326Y-126439360D01*
X139415640Y-126307674D01*
X139312175Y-126152827D01*
X139240907Y-125980770D01*
X139204575Y-125798116D01*
X139204575Y-125611884D01*
X139240907Y-125429230D01*
X139312175Y-125257173D01*
X139415640Y-125102326D01*
X139547326Y-124970640D01*
X139702173Y-124867175D01*
X139874230Y-124795907D01*
X140056884Y-124759575D01*
X140243116Y-124759575D01*
X140425770Y-124795907D01*
G37*
G36*
X142965770Y-124795907D02*
G01*
X143137827Y-124867175D01*
X143292674Y-124970640D01*
X143424360Y-125102326D01*
X143527825Y-125257173D01*
X143599093Y-125429230D01*
X143635425Y-125611884D01*
X143635425Y-125798116D01*
X143599093Y-125980770D01*
X143527825Y-126152827D01*
X143424360Y-126307674D01*
X143292674Y-126439360D01*
X143137827Y-126542825D01*
X142965770Y-126614093D01*
X142783116Y-126650425D01*
X142596884Y-126650425D01*
X142414230Y-126614093D01*
X142242173Y-126542825D01*
X142087326Y-126439360D01*
X141955640Y-126307674D01*
X141852175Y-126152827D01*
X141780907Y-125980770D01*
X141744575Y-125798116D01*
X141744575Y-125611884D01*
X141780907Y-125429230D01*
X141852175Y-125257173D01*
X141955640Y-125102326D01*
X142087326Y-124970640D01*
X142242173Y-124867175D01*
X142414230Y-124795907D01*
X142596884Y-124759575D01*
X142783116Y-124759575D01*
X142965770Y-124795907D01*
G37*
G36*
X140425770Y-122255907D02*
G01*
X140597827Y-122327175D01*
X140752674Y-122430640D01*
X140884360Y-122562326D01*
X140987825Y-122717173D01*
X141059093Y-122889230D01*
X141095425Y-123071884D01*
X141095425Y-123258116D01*
X141059093Y-123440770D01*
X140987825Y-123612827D01*
X140884360Y-123767674D01*
X140752674Y-123899360D01*
X140597827Y-124002825D01*
X140425770Y-124074093D01*
X140243116Y-124110425D01*
X140056884Y-124110425D01*
X139874230Y-124074093D01*
X139702173Y-124002825D01*
X139547326Y-123899360D01*
X139415640Y-123767674D01*
X139312175Y-123612827D01*
X139240907Y-123440770D01*
X139204575Y-123258116D01*
X139204575Y-123071884D01*
X139240907Y-122889230D01*
X139312175Y-122717173D01*
X139415640Y-122562326D01*
X139547326Y-122430640D01*
X139702173Y-122327175D01*
X139874230Y-122255907D01*
X140056884Y-122219575D01*
X140243116Y-122219575D01*
X140425770Y-122255907D01*
G37*
G36*
X142965770Y-122255907D02*
G01*
X143137827Y-122327175D01*
X143292674Y-122430640D01*
X143424360Y-122562326D01*
X143527825Y-122717173D01*
X143599093Y-122889230D01*
X143635425Y-123071884D01*
X143635425Y-123258116D01*
X143599093Y-123440770D01*
X143527825Y-123612827D01*
X143424360Y-123767674D01*
X143292674Y-123899360D01*
X143137827Y-124002825D01*
X142965770Y-124074093D01*
X142783116Y-124110425D01*
X142596884Y-124110425D01*
X142414230Y-124074093D01*
X142242173Y-124002825D01*
X142087326Y-123899360D01*
X141955640Y-123767674D01*
X141852175Y-123612827D01*
X141780907Y-123440770D01*
X141744575Y-123258116D01*
X141744575Y-123071884D01*
X141780907Y-122889230D01*
X141852175Y-122717173D01*
X141955640Y-122562326D01*
X142087326Y-122430640D01*
X142242173Y-122327175D01*
X142414230Y-122255907D01*
X142596884Y-122219575D01*
X142783116Y-122219575D01*
X142965770Y-122255907D01*
G37*
G36*
X141038268Y-119682612D02*
G01*
X141070711Y-119704289D01*
X141092388Y-119736732D01*
X141100000Y-119775000D01*
X141100000Y-121475000D01*
X141092388Y-121513268D01*
X141070711Y-121545711D01*
X141038268Y-121567388D01*
X141000000Y-121575000D01*
X139300000Y-121575000D01*
X139261732Y-121567388D01*
X139229289Y-121545711D01*
X139207612Y-121513268D01*
X139200000Y-121475000D01*
X139200000Y-119775000D01*
X139207612Y-119736732D01*
X139229289Y-119704289D01*
X139261732Y-119682612D01*
X139300000Y-119675000D01*
X141000000Y-119675000D01*
X141038268Y-119682612D01*
G37*
G36*
X142965770Y-119715907D02*
G01*
X143137827Y-119787175D01*
X143292674Y-119890640D01*
X143424360Y-120022326D01*
X143527825Y-120177173D01*
X143599093Y-120349230D01*
X143635425Y-120531884D01*
X143635425Y-120718116D01*
X143599093Y-120900770D01*
X143527825Y-121072827D01*
X143424360Y-121227674D01*
X143292674Y-121359360D01*
X143137827Y-121462825D01*
X142965770Y-121534093D01*
X142783116Y-121570425D01*
X142596884Y-121570425D01*
X142414230Y-121534093D01*
X142242173Y-121462825D01*
X142087326Y-121359360D01*
X141955640Y-121227674D01*
X141852175Y-121072827D01*
X141780907Y-120900770D01*
X141744575Y-120718116D01*
X141744575Y-120531884D01*
X141780907Y-120349230D01*
X141852175Y-120177173D01*
X141955640Y-120022326D01*
X142087326Y-119890640D01*
X142242173Y-119787175D01*
X142414230Y-119715907D01*
X142596884Y-119679575D01*
X142783116Y-119679575D01*
X142965770Y-119715907D01*
G37*
G36*
X92273199Y-84620142D02*
G01*
X92399978Y-84672655D01*
X92514075Y-84748893D01*
X92611107Y-84845925D01*
X92687345Y-84960022D01*
X92739858Y-85086801D01*
X92766629Y-85221388D01*
X92766629Y-85358612D01*
X92739858Y-85493199D01*
X92687345Y-85619978D01*
X92611107Y-85734075D01*
X92514075Y-85831107D01*
X92399978Y-85907345D01*
X92273199Y-85959858D01*
X92138612Y-85986629D01*
X92001388Y-85986629D01*
X91866801Y-85959858D01*
X91740022Y-85907345D01*
X91625925Y-85831107D01*
X91528893Y-85734075D01*
X91452655Y-85619978D01*
X91400142Y-85493199D01*
X91373371Y-85358612D01*
X91373371Y-85221388D01*
X91400142Y-85086801D01*
X91452655Y-84960022D01*
X91528893Y-84845925D01*
X91625925Y-84748893D01*
X91740022Y-84672655D01*
X91866801Y-84620142D01*
X92001388Y-84593371D01*
X92138612Y-84593371D01*
X92273199Y-84620142D01*
G37*
G36*
X92273199Y-83120142D02*
G01*
X92399978Y-83172655D01*
X92514075Y-83248893D01*
X92611107Y-83345925D01*
X92687345Y-83460022D01*
X92739858Y-83586801D01*
X92766629Y-83721388D01*
X92766629Y-83858612D01*
X92739858Y-83993199D01*
X92687345Y-84119978D01*
X92611107Y-84234075D01*
X92514075Y-84331107D01*
X92399978Y-84407345D01*
X92273199Y-84459858D01*
X92138612Y-84486629D01*
X92001388Y-84486629D01*
X91866801Y-84459858D01*
X91740022Y-84407345D01*
X91625925Y-84331107D01*
X91528893Y-84234075D01*
X91452655Y-84119978D01*
X91400142Y-83993199D01*
X91373371Y-83858612D01*
X91373371Y-83721388D01*
X91400142Y-83586801D01*
X91452655Y-83460022D01*
X91528893Y-83345925D01*
X91625925Y-83248893D01*
X91740022Y-83172655D01*
X91866801Y-83120142D01*
X92001388Y-83093371D01*
X92138612Y-83093371D01*
X92273199Y-83120142D01*
G37*
G36*
X92273199Y-81620142D02*
G01*
X92399978Y-81672655D01*
X92514075Y-81748893D01*
X92611107Y-81845925D01*
X92687345Y-81960022D01*
X92739858Y-82086801D01*
X92766629Y-82221388D01*
X92766629Y-82358612D01*
X92739858Y-82493199D01*
X92687345Y-82619978D01*
X92611107Y-82734075D01*
X92514075Y-82831107D01*
X92399978Y-82907345D01*
X92273199Y-82959858D01*
X92138612Y-82986629D01*
X92001388Y-82986629D01*
X91866801Y-82959858D01*
X91740022Y-82907345D01*
X91625925Y-82831107D01*
X91528893Y-82734075D01*
X91452655Y-82619978D01*
X91400142Y-82493199D01*
X91373371Y-82358612D01*
X91373371Y-82221388D01*
X91400142Y-82086801D01*
X91452655Y-81960022D01*
X91528893Y-81845925D01*
X91625925Y-81748893D01*
X91740022Y-81672655D01*
X91866801Y-81620142D01*
X92001388Y-81593371D01*
X92138612Y-81593371D01*
X92273199Y-81620142D01*
G37*
G36*
X92708268Y-80097612D02*
G01*
X92740711Y-80119289D01*
X92762388Y-80151732D01*
X92770000Y-80190000D01*
X92770000Y-81390000D01*
X92762388Y-81428268D01*
X92740711Y-81460711D01*
X92708268Y-81482388D01*
X92670000Y-81490000D01*
X91470000Y-81490000D01*
X91431732Y-81482388D01*
X91399289Y-81460711D01*
X91377612Y-81428268D01*
X91370000Y-81390000D01*
X91370000Y-80190000D01*
X91377612Y-80151732D01*
X91399289Y-80119289D01*
X91431732Y-80097612D01*
X91470000Y-80090000D01*
X92670000Y-80090000D01*
X92708268Y-80097612D01*
G37*
G36*
X92358685Y-67017989D02*
G01*
X92476408Y-67066751D01*
X92582356Y-67137543D01*
X92672457Y-67227644D01*
X92743249Y-67333592D01*
X92792011Y-67451315D01*
X92816870Y-67576289D01*
X92816870Y-67703711D01*
X92792011Y-67828685D01*
X92743249Y-67946408D01*
X92672457Y-68052356D01*
X92582356Y-68142457D01*
X92476408Y-68213249D01*
X92358685Y-68262011D01*
X92233711Y-68286870D01*
X92106289Y-68286870D01*
X91981315Y-68262011D01*
X91863592Y-68213249D01*
X91757644Y-68142457D01*
X91667543Y-68052356D01*
X91596751Y-67946408D01*
X91547989Y-67828685D01*
X91523130Y-67703711D01*
X91523130Y-67576289D01*
X91547989Y-67451315D01*
X91596751Y-67333592D01*
X91667543Y-67227644D01*
X91757644Y-67137543D01*
X91863592Y-67066751D01*
X91981315Y-67017989D01*
X92106289Y-66993130D01*
X92233711Y-66993130D01*
X92358685Y-67017989D01*
G37*
G36*
X92358685Y-65517989D02*
G01*
X92476408Y-65566751D01*
X92582356Y-65637543D01*
X92672457Y-65727644D01*
X92743249Y-65833592D01*
X92792011Y-65951315D01*
X92816870Y-66076289D01*
X92816870Y-66203711D01*
X92792011Y-66328685D01*
X92743249Y-66446408D01*
X92672457Y-66552356D01*
X92582356Y-66642457D01*
X92476408Y-66713249D01*
X92358685Y-66762011D01*
X92233711Y-66786870D01*
X92106289Y-66786870D01*
X91981315Y-66762011D01*
X91863592Y-66713249D01*
X91757644Y-66642457D01*
X91667543Y-66552356D01*
X91596751Y-66446408D01*
X91547989Y-66328685D01*
X91523130Y-66203711D01*
X91523130Y-66076289D01*
X91547989Y-65951315D01*
X91596751Y-65833592D01*
X91667543Y-65727644D01*
X91757644Y-65637543D01*
X91863592Y-65566751D01*
X91981315Y-65517989D01*
X92106289Y-65493130D01*
X92233711Y-65493130D01*
X92358685Y-65517989D01*
G37*
G36*
X92358685Y-64017989D02*
G01*
X92476408Y-64066751D01*
X92582356Y-64137543D01*
X92672457Y-64227644D01*
X92743249Y-64333592D01*
X92792011Y-64451315D01*
X92816870Y-64576289D01*
X92816870Y-64703711D01*
X92792011Y-64828685D01*
X92743249Y-64946408D01*
X92672457Y-65052356D01*
X92582356Y-65142457D01*
X92476408Y-65213249D01*
X92358685Y-65262011D01*
X92233711Y-65286870D01*
X92106289Y-65286870D01*
X91981315Y-65262011D01*
X91863592Y-65213249D01*
X91757644Y-65142457D01*
X91667543Y-65052356D01*
X91596751Y-64946408D01*
X91547989Y-64828685D01*
X91523130Y-64703711D01*
X91523130Y-64576289D01*
X91547989Y-64451315D01*
X91596751Y-64333592D01*
X91667543Y-64227644D01*
X91757644Y-64137543D01*
X91863592Y-64066751D01*
X91981315Y-64017989D01*
X92106289Y-63993130D01*
X92233711Y-63993130D01*
X92358685Y-64017989D01*
G37*
G36*
X92358685Y-62517989D02*
G01*
X92476408Y-62566751D01*
X92582356Y-62637543D01*
X92672457Y-62727644D01*
X92743249Y-62833592D01*
X92792011Y-62951315D01*
X92816870Y-63076289D01*
X92816870Y-63203711D01*
X92792011Y-63328685D01*
X92743249Y-63446408D01*
X92672457Y-63552356D01*
X92582356Y-63642457D01*
X92476408Y-63713249D01*
X92358685Y-63762011D01*
X92233711Y-63786870D01*
X92106289Y-63786870D01*
X91981315Y-63762011D01*
X91863592Y-63713249D01*
X91757644Y-63642457D01*
X91667543Y-63552356D01*
X91596751Y-63446408D01*
X91547989Y-63328685D01*
X91523130Y-63203711D01*
X91523130Y-63076289D01*
X91547989Y-62951315D01*
X91596751Y-62833592D01*
X91667543Y-62727644D01*
X91757644Y-62637543D01*
X91863592Y-62566751D01*
X91981315Y-62517989D01*
X92106289Y-62493130D01*
X92233711Y-62493130D01*
X92358685Y-62517989D01*
G37*
G36*
X92758268Y-60997612D02*
G01*
X92790711Y-61019289D01*
X92812388Y-61051732D01*
X92820000Y-61090000D01*
X92820000Y-62190000D01*
X92812388Y-62228268D01*
X92790711Y-62260711D01*
X92758268Y-62282388D01*
X92720000Y-62290000D01*
X91620000Y-62290000D01*
X91581732Y-62282388D01*
X91549289Y-62260711D01*
X91527612Y-62228268D01*
X91520000Y-62190000D01*
X91520000Y-61090000D01*
X91527612Y-61051732D01*
X91549289Y-61019289D01*
X91581732Y-60997612D01*
X91620000Y-60990000D01*
X92720000Y-60990000D01*
X92758268Y-60997612D01*
G37*
M02*
