M48
; DRILL file {KiCad 9.0.7+1} date 2026-02-23T04:27:52+0000
; FORMAT={-:-/ absolute / metric / decimal}
; #@! TF.CreationDate,2026-02-23T04:27:52+00:00
; #@! TF.GenerationSoftware,Kicad,Pcbnew,9.0.7+1
; #@! TF.FileFunction,Plated,1,6,PTH
FMAT,2
METRIC
; #@! TA.AperFunction,Plated,PTH,ComponentDrill
T1C0.600
; #@! TA.AperFunction,Plated,PTH,ComponentDrill
T2C0.700
; #@! TA.AperFunction,Plated,PTH,ComponentDrill
T3C0.700
; #@! TA.AperFunction,Plated,PTH,ComponentDrill
T4C0.750
; #@! TA.AperFunction,Plated,PTH,ComponentDrill
T5C1.000
%
G90
G05
T2
X103.41Y-127.417
X109.19Y-127.417
T3
X92.17Y-61.64
X92.17Y-63.14
X92.17Y-64.64
X92.17Y-66.14
X92.17Y-67.64
T4
X92.07Y-80.79
X92.07Y-82.29
X92.07Y-83.79
X92.07Y-85.29
T5
X140.15Y-120.625
X140.15Y-123.165
X140.15Y-125.705
X140.15Y-128.245
X140.15Y-130.785
X142.69Y-120.625
X142.69Y-123.165
X142.69Y-125.705
X142.69Y-128.245
X142.69Y-130.785
T1
G00X101.98Y-126.438
M15
G01X101.98Y-127.337
M16
G05
G00X101.98Y-130.798
M15
G01X101.98Y-131.397
M16
G05
G00X110.62Y-126.437
M15
G01X110.62Y-127.338
M16
G05
G00X110.62Y-130.798
M15
G01X110.62Y-131.397
M16
G05
M30
