M48
; DRILL file {KiCad 9.0.7+1} date 2026-03-03T17:23:37+0000
; FORMAT={-:-/ absolute / metric / decimal}
; #@! TF.CreationDate,2026-03-03T17:23:37+00:00
; #@! TF.GenerationSoftware,Kicad,Pcbnew,9.0.7+1
; #@! TF.FileFunction,Plated,1,4,PTH
FMAT,2
METRIC
; #@! TA.AperFunction,Plated,PTH,ViaDrill
T1C0.300
; #@! TA.AperFunction,Plated,PTH,ComponentDrill
T2C0.600
; #@! TA.AperFunction,Plated,PTH,ComponentDrill
T3C0.700
; #@! TA.AperFunction,Plated,PTH,ComponentDrill
T4C0.730
; #@! TA.AperFunction,Plated,PTH,ComponentDrill
T5C0.750
; #@! TA.AperFunction,Plated,PTH,ComponentDrill
T6C1.000
; #@! TA.AperFunction,Plated,PTH,ComponentDrill
T7C1.800
; #@! TA.AperFunction,Plated,PTH,ComponentDrill
T8C2.000
%
G90
G05
T1
X125.424Y-73.6
X125.424Y-110.55
X125.95Y-48.6
X126.0Y-72.71
X126.0Y-93.43
X126.29Y-104.32
X126.95Y-52.76
X127.0Y-112.95
X127.18Y-75.98
X127.18Y-87.65
X128.04Y-55.53
X128.12Y-106.34
X130.62Y-64.85
X130.62Y-73.6
X131.03Y-51.41
X131.31Y-68.585
X131.31Y-69.435
X131.4Y-67.5
X131.64Y-65.67
X131.64Y-66.52
X132.33Y-64.19
X132.33Y-69.9
X132.37Y-76.81
X132.45Y-80.28
X133.0Y-70.75
X133.15Y-74.56
X133.25Y-75.51
X133.85Y-69.9
X133.85Y-99.3
X134.74Y-71.15
X134.74Y-72.71
X134.75Y-50.22
X135.0Y-87.0
X135.44Y-62.92
X135.44Y-86.07
X136.03Y-52.76
X136.08Y-61.65
X136.08Y-86.89
X136.08Y-105.52
X136.63Y-118.32
X136.75Y-62.69
X136.75Y-75.79
X137.25Y-61.75
X137.61Y-63.72
X137.61Y-74.83
X137.93Y-77.67
X138.3Y-64.6
X138.5Y-120.25
X138.5Y-122.0
X138.63Y-89.15
X139.02Y-109.65
X139.32Y-59.34
X139.33Y-57.94
X139.34Y-56.55
X139.55Y-61.12
X139.55Y-91.39
X139.55Y-131.99
X139.56Y-125.89
X140.3Y-64.6
X140.32Y-65.79
X140.5Y-120.25
X140.5Y-122.0
X140.5Y-123.6
X140.65Y-105.39
X140.72Y-57.93
X140.73Y-59.34
X140.74Y-56.55
X140.8Y-61.1
X141.27Y-71.12
X141.35Y-127.01
X141.35Y-130.5
X141.58Y-105.39
X141.6Y-65.05
X141.61Y-74.83
X142.0Y-80.9
X142.01Y-79.48
X142.14Y-57.93
X142.14Y-59.34
X142.15Y-56.55
X142.22Y-70.48
X142.33Y-71.41
X142.4Y-82.2
X142.6Y-75.79
X142.69Y-99.3
X142.69Y-108.54
X142.77Y-60.78
X142.77Y-63.72
X142.86Y-66.51
X142.96Y-83.175
X142.96Y-84.025
X143.23Y-72.89
X143.23Y-73.99
X143.4Y-55.3
X143.4Y-61.7
X143.53Y-79.47
X143.6Y-80.9
X143.94Y-93.43
X143.94Y-106.6
X144.12Y-54.03
X144.12Y-62.69
X144.13Y-64.39
X144.139Y-84.669
X144.33Y-72.9
X144.33Y-73.99
X144.39Y-107.57
X144.634Y-81.421
X144.67Y-112.07
X144.67Y-113.02
X144.741Y-85.271
X144.78Y-114.46
X145.0Y-63.5
X145.13Y-55.3
X145.13Y-60.78
X145.28Y-75.42
X145.3Y-121.53
X145.3Y-127.01
X145.4Y-69.55
X145.484Y-81.421
X146.05Y-52.76
X146.05Y-71.217
X146.06Y-72.68
X146.09Y-74.69
X146.397Y-78.568
X146.397Y-79.418
X146.68Y-62.71
X147.02Y-77.6
X147.11Y-122.32
X147.11Y-125.0
X147.125Y-88.54
X147.125Y-116.75
X147.52Y-127.27
X147.54Y-82.51
X147.54Y-84.7
X147.95Y-63.64
X147.96Y-122.32
X147.96Y-125.0
X147.975Y-88.54
X147.975Y-116.75
X148.65Y-83.6
X148.85Y-105.02
X149.74Y-82.5
X149.74Y-84.7
X149.763Y-71.217
X150.43Y-72.68
X150.46Y-96.9
X150.65Y-89.95
X150.98Y-74.69
X151.53Y-94.97
X151.53Y-116.3
X151.76Y-126.77
X151.83Y-70.48
X151.83Y-75.45
X151.88Y-83.11
X151.93Y-79.3
X152.17Y-101.11
X152.28Y-50.22
X152.7Y-94.2
X152.72Y-61.65
X152.81Y-60.38
X152.88Y-83.1
X153.12Y-95.97
X153.65Y-130.41
X153.75Y-100.88
X153.83Y-57.84
X153.83Y-94.97
X154.52Y-126.41
X154.69Y-59.11
X154.69Y-114.5
X154.75Y-51.5
X154.75Y-53.2
X154.8Y-49.6
X155.44Y-73.41
X155.47Y-121.53
X155.56Y-96.7
X155.56Y-97.7
X155.7Y-75.45
X156.1Y-59.2
X156.5Y-109.75
X156.5Y-111.5
X156.56Y-96.7
X156.56Y-97.7
X156.75Y-49.6
X156.75Y-51.5
X156.75Y-53.2
X156.905Y-75.905
X156.908Y-88.43
X156.98Y-69.55
X157.0Y-74.25
X157.0Y-83.0
X157.0Y-84.75
X157.73Y-58.47
X157.73Y-67.27
X157.89Y-95.62
X157.96Y-122.73
X158.0Y-68.5
X158.29Y-98.94
X158.5Y-109.75
X158.5Y-111.5
X158.75Y-49.6
X158.75Y-51.4
X158.75Y-53.2
X158.98Y-62.71
X159.0Y-74.25
X159.0Y-83.0
X159.0Y-84.75
X159.5Y-86.89
X159.5Y-111.43
X159.78Y-130.135
X160.36Y-93.6
X160.37Y-98.31
X160.52Y-107.57
X160.52Y-118.26
X160.75Y-49.7
X160.75Y-51.4
X160.75Y-53.2
X160.88Y-88.57
X160.98Y-65.05
X160.98Y-75.19
X160.98Y-82.79
X161.0Y-99.75
X161.0Y-100.75
X161.0Y-101.75
X161.0Y-102.75
X161.0Y-103.75
X161.0Y-104.75
X161.0Y-105.75
X161.385Y-92.8
X161.385Y-98.94
X161.4Y-90.7
X161.59Y-89.51
X161.77Y-109.63
X161.895Y-75.925
X162.41Y-91.39
X162.41Y-107.57
X162.7Y-132.3
X162.72Y-110.55
X162.72Y-130.3
X162.98Y-58.97
X162.98Y-63.64
X162.98Y-66.51
X162.98Y-75.09
X163.0Y-65.0
X163.43Y-53.36
X163.44Y-49.65
X163.61Y-95.09
X164.15Y-98.06
X164.4Y-129.1
X164.42Y-83.89
X164.43Y-120.24
X164.73Y-117.39
X164.87Y-86.07
X164.87Y-109.63
X164.98Y-65.79
X165.0Y-63.6
X165.0Y-115.5
X165.03Y-114.5
X165.28Y-130.3
X165.36Y-118.26
X165.6Y-102.3
X165.69Y-116.3
X165.75Y-48.5
X166.02Y-64.39
X166.02Y-75.09
X166.02Y-84.99
X166.22Y-91.3
X166.25Y-53.5
X166.28Y-106.6
X166.28Y-108.54
X166.3Y-86.3
X166.5Y-49.75
X166.5Y-51.0
X166.5Y-52.25
X166.98Y-57.29
X167.07Y-61.65
X167.07Y-97.44
X167.29Y-99.91
X167.3Y-102.3
X167.7Y-62.6
X168.44Y-60.38
X168.44Y-87.05
X169.4Y-73.4
X169.4Y-76.2
X169.4Y-79.0
X169.4Y-81.9
X169.4Y-84.8
X170.1Y-67.27
X170.1Y-120.95
X170.25Y-51.25
X170.25Y-52.5
X170.25Y-53.75
T3
X144.62Y-130.7
X150.4Y-130.7
T4
X143.8Y-119.4
X145.3Y-119.4
X146.8Y-119.4
X148.3Y-119.4
X149.8Y-119.4
X151.3Y-119.4
X168.65Y-113.45
X168.65Y-114.95
X168.65Y-116.45
X168.65Y-117.95
X168.65Y-119.45
X168.65Y-120.95
T5
X157.54Y-134.78
X159.04Y-134.78
X160.54Y-134.78
X162.04Y-134.78
X168.55Y-104.75
X168.55Y-106.25
X168.55Y-107.75
X168.55Y-109.25
T6
X126.36Y-60.12
X126.36Y-62.66
X126.36Y-65.2
X126.36Y-67.74
X126.36Y-70.28
X128.9Y-60.12
X128.9Y-62.66
X128.9Y-65.2
X128.9Y-67.74
X128.9Y-70.28
X167.06Y-125.22
X167.06Y-127.76
X167.06Y-130.3
X167.06Y-132.84
X167.06Y-135.38
X169.6Y-125.22
X169.6Y-127.76
X169.6Y-130.3
X169.6Y-132.84
X169.6Y-135.38
T7
X132.08Y-131.99
T8
X132.08Y-127.49
T2
G00X143.19Y-129.72
M15
G01X143.19Y-130.62
M16
G05
G00X143.19Y-134.08
M15
G01X143.19Y-134.68
M16
G05
G00X151.83Y-129.72
M15
G01X151.83Y-130.62
M16
G05
G00X151.83Y-134.08
M15
G01X151.83Y-134.68
M16
G05
M30
