%TF.GenerationSoftware,KiCad,Pcbnew,9.0.7+1*%
%TF.CreationDate,Date%
%TF.ProjectId,IndustrialSense,496e6475-7374-4726-9961-6c53656e7365,+ (Unreleased)*%
%TF.SameCoordinates,Original*%
%TF.FileFunction,Copper,L4,Bot*%
%TF.FilePolarity,Positive*%
%FSLAX46Y46*%
G04 Gerber Fmt 4.6, Leading zero omitted, Abs format (unit mm)*
G04 Created by KiCad*
%MOMM*%
%LPD*%
G01*
G04 APERTURE LIST*
G04 Aperture macros list*
%AMRoundRect*
0 Rectangle with rounded corners*
0 $1 Rounding radius*
0 $2 $3 $4 $5 $6 $7 $8 $9 X,Y pos of 4 corners*
0 Add a 4 corners polygon primitive as box body*
4,1,4,$2,$3,$4,$5,$6,$7,$8,$9,$2,$3,0*
0 Add four circle primitives for the rounded corners*
1,1,$1+$1,$2,$3*
1,1,$1+$1,$4,$5*
1,1,$1+$1,$6,$7*
1,1,$1+$1,$8,$9*
0 Add four rect primitives between the rounded corners*
20,1,$1+$1,$2,$3,$4,$5,0*
20,1,$1+$1,$4,$5,$6,$7,0*
20,1,$1+$1,$6,$7,$8,$9,0*
20,1,$1+$1,$8,$9,$2,$3,0*%
G04 Aperture macros list end*
%TA.AperFunction,ComponentPad*%
%ADD10C,1.800000*%
%TD*%
%TA.AperFunction,ComponentPad*%
%ADD11C,2.000000*%
%TD*%
%TA.AperFunction,ComponentPad*%
%ADD12RoundRect,0.250000X0.265000X0.615000X-0.265000X0.615000X-0.265000X-0.615000X0.265000X-0.615000X0*%
%TD*%
%TA.AperFunction,ComponentPad*%
%ADD13O,1.030000X1.730000*%
%TD*%
%TA.AperFunction,ComponentPad*%
%ADD14C,0.700000*%
%TD*%
%TA.AperFunction,ComponentPad*%
%ADD15O,1.100000X2.000000*%
%TD*%
%TA.AperFunction,ComponentPad*%
%ADD16O,1.200000X1.800000*%
%TD*%
%TA.AperFunction,ComponentPad*%
%ADD17R,1.700000X1.700000*%
%TD*%
%TA.AperFunction,ComponentPad*%
%ADD18O,1.700000X1.700000*%
%TD*%
%TA.AperFunction,ComponentPad*%
%ADD19R,1.200000X1.200000*%
%TD*%
%TA.AperFunction,ComponentPad*%
%ADD20C,1.200000*%
%TD*%
%TA.AperFunction,ComponentPad*%
%ADD21RoundRect,0.250000X0.615000X-0.265000X0.615000X0.265000X-0.615000X0.265000X-0.615000X-0.265000X0*%
%TD*%
%TA.AperFunction,ComponentPad*%
%ADD22O,1.730000X1.030000*%
%TD*%
%TA.AperFunction,ViaPad*%
%ADD23C,0.600000*%
%TD*%
%TA.AperFunction,Conductor*%
%ADD24C,0.533400*%
%TD*%
%TA.AperFunction,Conductor*%
%ADD25C,0.279400*%
%TD*%
%TA.AperFunction,Conductor*%
%ADD26C,0.200000*%
%TD*%
%TA.AperFunction,Conductor*%
%ADD27C,0.152000*%
%TD*%
G04 APERTURE END LIST*
D10*
%TO.P,DC1,*%
%TO.N,*%
X132080000Y-131990000D03*
D11*
X132080000Y-127490000D03*
%TD*%
D12*
%TO.P,U13,1,1*%
%TO.N,GND*%
X151300000Y-119400000D03*
D13*
%TO.P,U13,2,2*%
%TO.N,/Project Architecture/External Connectors/CC2*%
X149800000Y-119400000D03*
%TO.P,U13,3,3*%
%TO.N,/Project Architecture/External Connectors/USBCD+*%
X148300000Y-119400000D03*
%TO.P,U13,4,4*%
%TO.N,/Project Architecture/External Connectors/USBCD-*%
X146800000Y-119400000D03*
%TO.P,U13,5,5*%
%TO.N,/Project Architecture/External Connectors/CC1*%
X145300000Y-119400000D03*
%TO.P,U13,6,6*%
%TO.N,VBUS*%
X143800000Y-119400000D03*
%TD*%
D14*
%TO.P,USB1,*%
%TO.N,*%
X144620000Y-130700000D03*
X150400000Y-130700000D03*
D15*
%TO.P,USB1,13,SHELL*%
%TO.N,GND*%
X143190000Y-130170000D03*
D16*
X143190000Y-134380000D03*
D15*
%TO.P,USB1,14,SHELL*%
X151830000Y-130170000D03*
D16*
X151830000Y-134380000D03*
%TD*%
D17*
%TO.P,J6,1,Pin_1*%
%TO.N,/Project Architecture/External Connectors/LTE_TXD2*%
X126360000Y-60120000D03*
D18*
%TO.P,J6,2,Pin_2*%
%TO.N,/Project Architecture/External Connectors/LTE_RXD2*%
X128900000Y-60120000D03*
%TO.P,J6,3,Pin_3*%
%TO.N,GND*%
X126360000Y-62660000D03*
%TO.P,J6,4,Pin_4*%
%TO.N,/Project Architecture/External Connectors/LTE_RST*%
X128900000Y-62660000D03*
%TO.P,J6,5,Pin_5*%
%TO.N,GND*%
X126360000Y-65200000D03*
%TO.P,J6,6,Pin_6*%
%TO.N,/Project Architecture/External Connectors/LTE_ON*%
X128900000Y-65200000D03*
%TO.P,J6,7,Pin_7*%
%TO.N,V_MAIN*%
X126360000Y-67740000D03*
%TO.P,J6,8,Pin_8*%
%TO.N,/Project Architecture/External Connectors/LTE_USBD-*%
X128900000Y-67740000D03*
%TO.P,J6,9,Pin_9*%
%TO.N,V_MAIN*%
X126360000Y-70280000D03*
%TO.P,J6,10,Pin_10*%
%TO.N,/Project Architecture/External Connectors/LTE_USBD+*%
X128900000Y-70280000D03*
%TD*%
D19*
%TO.P,CN4,1,1*%
%TO.N,GND*%
X168550000Y-109250000D03*
D20*
%TO.P,CN4,2,2*%
%TO.N,/Project Architecture/External Connectors/I2C_SDA*%
X168550000Y-107750000D03*
%TO.P,CN4,3,3*%
%TO.N,/Project Architecture/External Connectors/I2C_SCL*%
X168550000Y-106250000D03*
%TO.P,CN4,4,4*%
%TO.N,3V3_MCU*%
X168550000Y-104750000D03*
%TD*%
D17*
%TO.P,J5,1,Pin_1*%
%TO.N,/Project Architecture/External Connectors/GPIO41G*%
X167060000Y-125220000D03*
D18*
%TO.P,J5,2,Pin_2*%
%TO.N,/Project Architecture/External Connectors/GPIO42R*%
X169600000Y-125220000D03*
%TO.P,J5,3,Pin_3*%
%TO.N,/Project Architecture/External Connectors/GPIO15*%
X167060000Y-127760000D03*
%TO.P,J5,4,Pin_4*%
%TO.N,/Project Architecture/External Connectors/GPIO40B*%
X169600000Y-127760000D03*
%TO.P,J5,5,Pin_5*%
%TO.N,/Project Architecture/External Connectors/GPIO16*%
X167060000Y-130300000D03*
%TO.P,J5,6,Pin_6*%
%TO.N,GND*%
X169600000Y-130300000D03*
%TO.P,J5,7,Pin_7*%
%TO.N,3V3_MCU*%
X167060000Y-132840000D03*
%TO.P,J5,8,Pin_8*%
%TO.N,GND*%
X169600000Y-132840000D03*
%TO.P,J5,9,Pin_9*%
%TO.N,V_MAIN*%
X167060000Y-135380000D03*
%TO.P,J5,10,Pin_10*%
%TO.N,GND*%
X169600000Y-135380000D03*
%TD*%
D21*
%TO.P,U2,1,1*%
%TO.N,/Project Architecture/External Connectors/GPIO42R*%
X168650000Y-120950000D03*
D22*
%TO.P,U2,2,2*%
%TO.N,/Project Architecture/External Connectors/GPIO41G*%
X168650000Y-119450000D03*
%TO.P,U2,3,3*%
%TO.N,/Project Architecture/External Connectors/GPIO40B*%
X168650000Y-117950000D03*
%TO.P,U2,4,4*%
%TO.N,GND*%
X168650000Y-116450000D03*
%TO.P,U2,5,5*%
%TO.N,KEY_PWR*%
X168650000Y-114950000D03*
%TO.P,U2,6,6*%
%TO.N,V_BAT*%
X168650000Y-113450000D03*
%TD*%
D19*
%TO.P,CN2,1,1*%
%TO.N,GND*%
X157540000Y-134780000D03*
D20*
%TO.P,CN2,2,2*%
%TO.N,/Project Architecture/External Connectors/RS485_A*%
X159040000Y-134780000D03*
%TO.P,CN2,3,3*%
%TO.N,/Project Architecture/External Connectors/RS485_B*%
X160540000Y-134780000D03*
%TO.P,CN2,4,4*%
%TO.N,V_MAIN*%
X162040000Y-134780000D03*
%TD*%
D23*
%TO.N,GND*%
X127180000Y-87650000D03*
X161000000Y-104750000D03*
X138630000Y-89150000D03*
X150460000Y-96900000D03*
X161000000Y-103750000D03*
X131030000Y-51410000D03*
X152170000Y-101110000D03*
X144330000Y-73990000D03*
X132370000Y-76810000D03*
X155560000Y-96700000D03*
X163610000Y-95090000D03*
X161000000Y-101750000D03*
X147540000Y-82510000D03*
X127000000Y-112950000D03*
X169400000Y-73400000D03*
X128120000Y-106340000D03*
X161000000Y-100750000D03*
X132450000Y-80280000D03*
X126290000Y-104320000D03*
X134750000Y-50220000D03*
X140720000Y-57930000D03*
X140740000Y-56550000D03*
X151880000Y-83110000D03*
X153650000Y-130410000D03*
X147020000Y-77600000D03*
X136630000Y-118320000D03*
X149740000Y-84700000D03*
X157890000Y-95620000D03*
X149740000Y-82500000D03*
X142010000Y-79480000D03*
X161000000Y-99750000D03*
X141270000Y-71120000D03*
X144670000Y-113020000D03*
X141350000Y-130500000D03*
X160880000Y-88570000D03*
X163440000Y-49650000D03*
X166980000Y-57290000D03*
X147540000Y-84700000D03*
X126950000Y-52760000D03*
X142140000Y-57930000D03*
X139330000Y-57940000D03*
X144390000Y-107570000D03*
X151930000Y-79300000D03*
X163430000Y-53360000D03*
X128040000Y-55530000D03*
X167290000Y-99910000D03*
X151760000Y-126770000D03*
X161000000Y-105750000D03*
X143230000Y-72890000D03*
X156560000Y-97700000D03*
X133150000Y-74560000D03*
X152880000Y-83100000D03*
X141580000Y-105390000D03*
X143530000Y-79470000D03*
X133250000Y-75510000D03*
X155440000Y-73410000D03*
X153120000Y-95970000D03*
X164420000Y-83890000D03*
X139560000Y-125890000D03*
X139020000Y-109650000D03*
X164730000Y-117390000D03*
X136080000Y-105520000D03*
X161000000Y-102750000D03*
X152280000Y-50220000D03*
X148650000Y-83600000D03*
X143230000Y-73990000D03*
X154520000Y-126410000D03*
X139340000Y-56550000D03*
X142140000Y-59340000D03*
X139320000Y-59340000D03*
X161895000Y-75925000D03*
X155560000Y-97700000D03*
X164150000Y-98060000D03*
X142150000Y-56550000D03*
X156908240Y-88430300D03*
X137930000Y-77670000D03*
X127180000Y-75980000D03*
X125950000Y-48600000D03*
X140730000Y-59340000D03*
X150650000Y-89950000D03*
X140500000Y-123600000D03*
X164430000Y-120240000D03*
X144780000Y-114460000D03*
X153750000Y-100880000D03*
X147520000Y-127270000D03*
X156905000Y-75905000D03*
X159780000Y-130640000D03*
X166220000Y-91300000D03*
X157960000Y-122730000D03*
X156560000Y-96700000D03*
X140650000Y-105390000D03*
X144330000Y-72900000D03*
X139550000Y-131990000D03*
%TO.N,V_BAT*%
X148850000Y-105020000D03*
%TO.N,3V3_MCU*%
X142330000Y-71410000D03*
X145280000Y-75420000D03*
X160370000Y-98310000D03*
X160360000Y-93600000D03*
%TO.N,VBUS*%
X161590000Y-89510000D03*
X144670000Y-112070000D03*
%TO.N,/Project Architecture/LoRa/SPI_MOSI{slash}CMD*%
X164980000Y-65790000D03*
X140320000Y-65790000D03*
%TO.N,/Project Architecture/LoRa/SPI_CLK*%
X160980000Y-75190000D03*
X160980000Y-65050000D03*
X141600000Y-65050000D03*
X160980000Y-82790000D03*
%TO.N,/Project Architecture/LoRa/SPI_MISO{slash}D0*%
X162980000Y-75090000D03*
X166020000Y-84990000D03*
X162980000Y-66510000D03*
X142860000Y-66510000D03*
X166020000Y-75090000D03*
%TO.N,SD_CS{slash}D3*%
X151830000Y-75450000D03*
X151830000Y-70480000D03*
X155700000Y-75450000D03*
X142220000Y-70480000D03*
%TO.N,/Project Architecture/External Connectors/I2C_SDA*%
X142690000Y-108540000D03*
X133850000Y-69900000D03*
X142690000Y-99300000D03*
X133850000Y-99300000D03*
X132330000Y-64190000D03*
X166280000Y-108540000D03*
X132330000Y-69900000D03*
%TO.N,/Project Architecture/External Connectors/I2C_SCL*%
X134740000Y-72710000D03*
X126000000Y-72710000D03*
X143940000Y-106600000D03*
X143940000Y-93430000D03*
X126000000Y-93430000D03*
X134740000Y-71150000D03*
X166280000Y-106600000D03*
%TO.N,/Project Architecture/External Connectors/LTE_USBD-*%
X131310000Y-68585000D03*
X144139479Y-84669479D03*
%TO.N,/Project Architecture/External Connectors/LTE_USBD+*%
X131310000Y-69435000D03*
X144740521Y-85270521D03*
%TO.N,/Project Architecture/LoRa/RA_CS*%
X166020000Y-64390000D03*
X144130000Y-64390000D03*
%TO.N,/Project Architecture/LoRa/RA_DIO1*%
X146680000Y-62710000D03*
X158980000Y-62710000D03*
%TO.N,/Project Architecture/LoRa/RA_RST*%
X147950000Y-63640000D03*
X162980000Y-58970000D03*
X162980000Y-63640000D03*
%TO.N,/Project Architecture/LoRa/RA_BUSY*%
X156980000Y-69550000D03*
X145400000Y-69550000D03*
%TO.N,/Project Architecture/MCU/CH343_DTR*%
X146060000Y-72680000D03*
X150430000Y-72680000D03*
%TO.N,/Project Architecture/MCU/ESP_EN*%
X146050000Y-71217294D03*
X146050000Y-52760000D03*
X136030000Y-52760000D03*
X149762706Y-71217294D03*
%TO.N,/Project Architecture/MCU/ESP_BOOT*%
X150980000Y-74690000D03*
X146090000Y-74690000D03*
%TO.N,/Project Architecture/MCU/RS485_RXD1*%
X164870000Y-109630000D03*
X164870000Y-86070000D03*
X135440000Y-62920000D03*
X161770000Y-109630000D03*
X135440000Y-86070000D03*
%TO.N,Net-(U7-EN)*%
X161385150Y-92800000D03*
X161385150Y-98940000D03*
X158290000Y-98940000D03*
%TO.N,/Project Architecture/MCU/ESP_RXD0*%
X142770000Y-60780000D03*
X137610000Y-74830000D03*
X137610000Y-63720000D03*
X141610000Y-74830000D03*
X142770000Y-63720000D03*
X145130000Y-55300000D03*
X145130000Y-60780000D03*
%TO.N,/Project Architecture/HUB/ESP_USBD+*%
X131640000Y-66520000D03*
X142960000Y-84025000D03*
%TO.N,/Project Architecture/MCU/RS485_TXD1*%
X159500000Y-111430000D03*
X159500000Y-86890000D03*
X136080000Y-86890000D03*
X136080000Y-61650000D03*
%TO.N,/Project Architecture/MCU/ESP_TXD0*%
X144120000Y-62690000D03*
X136750000Y-62690000D03*
X144120000Y-54030000D03*
X136750000Y-75790000D03*
X142600000Y-75790000D03*
%TO.N,/Project Architecture/HUB/ESP_USBD-*%
X131640000Y-65670000D03*
X142960000Y-83175000D03*
%TO.N,/Project Architecture/HUB/CH343_USBD-*%
X144634174Y-81420717D03*
X146397087Y-78567559D03*
%TO.N,/Project Architecture/HUB/CH343_USBD+*%
X146397087Y-79417559D03*
X145484174Y-81420717D03*
%TO.N,/Project Architecture/External Connectors/USBCD+*%
X147960000Y-122320000D03*
X147960000Y-125000000D03*
X147975000Y-88540000D03*
X147975000Y-116750000D03*
%TO.N,/Project Architecture/External Connectors/USBCD-*%
X147125000Y-88540000D03*
X147110000Y-122320000D03*
X147125000Y-116750000D03*
X147110000Y-125000000D03*
%TO.N,/Project Architecture/External Connectors/CC1*%
X155470000Y-121530000D03*
X141350000Y-127010000D03*
X145300000Y-127010000D03*
X145300000Y-121530000D03*
%TO.N,/Project Architecture/External Connectors/GPIO41G*%
X153830000Y-94970000D03*
X151530000Y-94970000D03*
X151530000Y-116300000D03*
X153830000Y-57840000D03*
X165690000Y-116300000D03*
%TO.N,/Project Architecture/External Connectors/GPIO42R*%
X157730000Y-58470000D03*
X157730000Y-67270000D03*
X170100000Y-67270000D03*
X170100000Y-120950000D03*
%TO.N,/Project Architecture/External Connectors/GPIO40B*%
X165030000Y-114500000D03*
X154690000Y-114500000D03*
X154690000Y-59110000D03*
%TO.N,/Project Architecture/External Connectors/GPIO16*%
X125424000Y-110550000D03*
X130620000Y-64850000D03*
X162720000Y-130300000D03*
X125424000Y-73600000D03*
X162720000Y-110550000D03*
X130620000Y-73600000D03*
X165280000Y-130300000D03*
%TO.N,/Project Architecture/External Connectors/GPIO15*%
X160520000Y-107570000D03*
X162410000Y-107570000D03*
X160520000Y-118260000D03*
X165360000Y-118260000D03*
X162410000Y-91390000D03*
X139550000Y-61120000D03*
X139550000Y-91390000D03*
%TO.N,/Project Architecture/MCU/LOCK_PWR*%
X168440000Y-87050000D03*
X152810000Y-60380000D03*
X168440000Y-60380000D03*
%TO.N,/Project Architecture/MCU/PWR_KEY*%
X167070000Y-97440000D03*
X152720000Y-61650000D03*
X167070000Y-61650000D03*
%TD*%
D24*
%TO.N,V_MAIN*%
X129080000Y-73000000D02*
X129080000Y-132810000D01*
X161578528Y-136090000D02*
X162040000Y-135628528D01*
X132360000Y-136090000D02*
X161578528Y-136090000D01*
X162040000Y-135628528D02*
X162040000Y-134780000D01*
X129080000Y-132810000D02*
X132360000Y-136090000D01*
X126360000Y-70280000D02*
X129080000Y-73000000D01*
%TO.N,V_BAT*%
X148850000Y-105020000D02*
X157280000Y-113450000D01*
X157280000Y-113450000D02*
X168650000Y-113450000D01*
D25*
%TO.N,3V3_MCU*%
X160370000Y-98310000D02*
X160370000Y-98090000D01*
X142330000Y-71410000D02*
X144840000Y-71410000D01*
X145280000Y-71850000D02*
X145280000Y-75420000D01*
X160360000Y-98080000D02*
X160360000Y-93600000D01*
X160370000Y-98090000D02*
X160360000Y-98080000D01*
X144840000Y-71410000D02*
X145280000Y-71850000D01*
%TO.N,VBUS*%
X145460000Y-104110000D02*
X145460000Y-87700000D01*
X145750000Y-87410000D02*
X146080000Y-87080000D01*
X150780000Y-87080000D02*
X153990000Y-87080000D01*
X156410000Y-89500000D02*
X161590000Y-89500000D01*
X146080000Y-87080000D02*
X150780000Y-87080000D01*
X156050000Y-89140000D02*
X156410000Y-89500000D01*
X144660000Y-112070000D02*
X145460000Y-111270000D01*
X145460000Y-87700000D02*
X145750000Y-87410000D01*
X153990000Y-87080000D02*
X156050000Y-89140000D01*
X145460000Y-111270000D02*
X145460000Y-104110000D01*
D26*
%TO.N,/Project Architecture/External Connectors/LTE_USBD-*%
X131509999Y-68784999D02*
X131310000Y-68585000D01*
X143406802Y-85685000D02*
X142423198Y-85685000D01*
X139280000Y-82541802D02*
X139280000Y-73601802D01*
X144139479Y-84669479D02*
X144139479Y-84952322D01*
X134463197Y-68784999D02*
X131509999Y-68784999D01*
X139280000Y-73601802D02*
X134463197Y-68784999D01*
X142423198Y-85685000D02*
X139280000Y-82541802D01*
X144139479Y-84952322D02*
X143406802Y-85685000D01*
%TO.N,/Project Architecture/External Connectors/LTE_USBD+*%
X138830000Y-82728198D02*
X138830000Y-73788198D01*
X144457678Y-85270521D02*
X143593198Y-86135000D01*
X143593198Y-86135000D02*
X142236802Y-86135000D01*
X138830000Y-73788198D02*
X134276803Y-69235001D01*
X144740521Y-85270521D02*
X144457678Y-85270521D01*
X131509999Y-69235001D02*
X131310000Y-69435000D01*
X142236802Y-86135000D02*
X138830000Y-82728198D01*
X134276803Y-69235001D02*
X131509999Y-69235001D01*
%TO.N,/Project Architecture/HUB/ESP_USBD+*%
X142960000Y-84025000D02*
X142760001Y-83825001D01*
X140195000Y-78490000D02*
X140195000Y-81130000D01*
X140195000Y-70823198D02*
X135691803Y-66320001D01*
X141826803Y-83825001D02*
X140195000Y-82193198D01*
X140195000Y-81130000D02*
X140195000Y-70823198D01*
X131839999Y-66320001D02*
X131640000Y-66520000D01*
X135691803Y-66320001D02*
X131839999Y-66320001D01*
X142760001Y-83825001D02*
X141826803Y-83825001D01*
X140195000Y-82193198D02*
X140195000Y-78490000D01*
%TO.N,/Project Architecture/HUB/ESP_USBD-*%
X142760001Y-83374999D02*
X142013197Y-83374999D01*
X140645000Y-82006802D02*
X140645000Y-78490000D01*
X142013197Y-83374999D02*
X140645000Y-82006802D01*
X140645000Y-70636802D02*
X135878197Y-65869999D01*
X131839999Y-65869999D02*
X131640000Y-65670000D01*
X135878197Y-65869999D02*
X131839999Y-65869999D01*
X142960000Y-83175000D02*
X142760001Y-83374999D01*
X140645000Y-78490000D02*
X140645000Y-81130000D01*
X140645000Y-81130000D02*
X140645000Y-70636802D01*
%TO.N,/Project Architecture/HUB/CH343_USBD-*%
X146197088Y-78767558D02*
X146397087Y-78567559D01*
X144834173Y-81220718D02*
X144834173Y-79327629D01*
X144834173Y-79327629D02*
X145394244Y-78767558D01*
X145394244Y-78767558D02*
X146197088Y-78767558D01*
X144634174Y-81420717D02*
X144834173Y-81220718D01*
%TO.N,/Project Architecture/HUB/CH343_USBD+*%
X146197088Y-79217560D02*
X146397087Y-79417559D01*
X145284175Y-81220718D02*
X145284175Y-79514023D01*
X145284175Y-79514023D02*
X145580638Y-79217560D01*
X145580638Y-79217560D02*
X146197088Y-79217560D01*
X145484174Y-81420717D02*
X145284175Y-81220718D01*
D27*
%TO.N,/Project Architecture/External Connectors/USBCD+*%
X147960000Y-125000000D02*
X147736000Y-124776000D01*
D26*
X147775001Y-116550001D02*
X147775001Y-88739999D01*
X147975000Y-116750000D02*
X147775001Y-116550001D01*
X147775001Y-88739999D02*
X147975000Y-88540000D01*
D27*
X147736000Y-124776000D02*
X147736000Y-122544000D01*
X147736000Y-122544000D02*
X147960000Y-122320000D01*
%TO.N,/Project Architecture/External Connectors/USBCD-*%
X147334000Y-122544000D02*
X147110000Y-122320000D01*
D26*
X147125000Y-116750000D02*
X147324999Y-116550001D01*
X147324999Y-116550001D02*
X147324999Y-88739999D01*
D27*
X147110000Y-125000000D02*
X147334000Y-124776000D01*
D26*
X147324999Y-88739999D02*
X147125000Y-88540000D01*
D27*
X147334000Y-124776000D02*
X147334000Y-122544000D01*
%TD*%
%TA.AperFunction,Conductor*%
%TO.N,GND*%
G36*
X170852539Y-47720185D02*
G01*
X170898294Y-47772989D01*
X170909500Y-47824500D01*
X170909500Y-136575500D01*
X170889815Y-136642539D01*
X170837011Y-136688294D01*
X170785500Y-136699500D01*
X161920017Y-136699500D01*
X161852978Y-136679815D01*
X161807223Y-136627011D01*
X161797279Y-136557853D01*
X161826304Y-136494297D01*
X161858017Y-136468113D01*
X161865396Y-136463853D01*
X162413853Y-135915396D01*
X162475361Y-135808861D01*
X162507200Y-135690036D01*
X162507200Y-135567020D01*
X162507200Y-135495799D01*
X162526885Y-135428760D01*
X162546552Y-135406667D01*
X162545982Y-135406097D01*
X162661786Y-135290292D01*
X162661789Y-135290289D01*
X162670983Y-135276530D01*
X166009500Y-135276530D01*
X166009500Y-135483469D01*
X166049868Y-135686412D01*
X166049870Y-135686420D01*
X166129058Y-135877596D01*
X166244024Y-136049657D01*
X166390342Y-136195975D01*
X166390345Y-136195977D01*
X166562402Y-136310941D01*
X166753580Y-136390130D01*
X166956530Y-136430499D01*
X166956534Y-136430500D01*
X166956535Y-136430500D01*
X167163466Y-136430500D01*
X167163467Y-136430499D01*
X167366420Y-136390130D01*
X167557598Y-136310941D01*
X167729655Y-136195977D01*
X167875977Y-136049655D01*
X167990941Y-135877598D01*
X168070130Y-135686420D01*
X168110500Y-135483465D01*
X168110500Y-135276535D01*
X168070130Y-135073580D01*
X167990941Y-134882402D01*
X167875977Y-134710345D01*
X167875975Y-134710342D01*
X167729657Y-134564024D01*
X167643626Y-134506541D01*
X167557598Y-134449059D01*
X167441156Y-134400827D01*
X167366420Y-134369870D01*
X167366412Y-134369868D01*
X167163469Y-134329500D01*
X167163465Y-134329500D01*
X166956535Y-134329500D01*
X166956530Y-134329500D01*
X166753587Y-134369868D01*
X166753579Y-134369870D01*
X166562403Y-134449058D01*
X166390342Y-134564024D01*
X166244024Y-134710342D01*
X166129058Y-134882403D01*
X166049870Y-135073579D01*
X166049868Y-135073587D01*
X166009500Y-135276530D01*
X162670983Y-135276530D01*
X162703880Y-135227296D01*
X162721082Y-135201552D01*
X162749390Y-135159185D01*
X162749390Y-135159184D01*
X162749394Y-135159179D01*
X162809737Y-135013497D01*
X162840500Y-134858842D01*
X162840500Y-134701158D01*
X162840500Y-134701155D01*
X162840499Y-134701153D01*
X162809738Y-134546510D01*
X162809737Y-134546503D01*
X162769375Y-134449059D01*
X162749397Y-134400827D01*
X162749390Y-134400814D01*
X162661789Y-134269711D01*
X162661786Y-134269707D01*
X162550292Y-134158213D01*
X162550288Y-134158210D01*
X162419185Y-134070609D01*
X162419172Y-134070602D01*
X162273501Y-134010264D01*
X162273489Y-134010261D01*
X162118845Y-133979500D01*
X162118842Y-133979500D01*
X161961158Y-133979500D01*
X161961155Y-133979500D01*
X161806510Y-134010261D01*
X161806498Y-134010264D01*
X161660827Y-134070602D01*
X161660814Y-134070609D01*
X161529711Y-134158210D01*
X161529707Y-134158213D01*
X161418213Y-134269707D01*
X161393102Y-134307289D01*
X161339489Y-134352093D01*
X161270164Y-134360800D01*
X161207137Y-134330645D01*
X161186898Y-134307289D01*
X161161786Y-134269707D01*
X161050292Y-134158213D01*
X161050288Y-134158210D01*
X160919185Y-134070609D01*
X160919172Y-134070602D01*
X160773501Y-134010264D01*
X160773489Y-134010261D01*
X160618845Y-133979500D01*
X160618842Y-133979500D01*
X160461158Y-133979500D01*
X160461155Y-133979500D01*
X160306510Y-134010261D01*
X160306498Y-134010264D01*
X160160827Y-134070602D01*
X160160814Y-134070609D01*
X160029711Y-134158210D01*
X160029707Y-134158213D01*
X159918213Y-134269707D01*
X159893102Y-134307289D01*
X159839489Y-134352093D01*
X159770164Y-134360800D01*
X159707137Y-134330645D01*
X159686898Y-134307289D01*
X159661786Y-134269707D01*
X159550292Y-134158213D01*
X159550288Y-134158210D01*
X159419185Y-134070609D01*
X159419172Y-134070602D01*
X159273501Y-134010264D01*
X159273489Y-134010261D01*
X159118845Y-133979500D01*
X159118842Y-133979500D01*
X158961158Y-133979500D01*
X158961155Y-133979500D01*
X158806510Y-134010261D01*
X158806498Y-134010264D01*
X158660827Y-134070602D01*
X158660814Y-134070609D01*
X158529711Y-134158210D01*
X158529707Y-134158213D01*
X158418213Y-134269707D01*
X158418210Y-134269711D01*
X158330609Y-134400814D01*
X158330602Y-134400827D01*
X158270264Y-134546498D01*
X158270261Y-134546510D01*
X158239500Y-134701153D01*
X158239500Y-134858846D01*
X158270261Y-135013489D01*
X158270264Y-135013501D01*
X158330602Y-135159172D01*
X158330609Y-135159185D01*
X158418210Y-135290288D01*
X158418213Y-135290292D01*
X158529711Y-135401790D01*
X158531123Y-135402949D01*
X158531663Y-135403742D01*
X158534018Y-135406097D01*
X158533571Y-135406543D01*
X158570456Y-135460696D01*
X158572325Y-135530540D01*
X158536136Y-135590308D01*
X158473379Y-135621022D01*
X158452456Y-135622800D01*
X132604883Y-135622800D01*
X132537844Y-135603115D01*
X132517202Y-135586481D01*
X129583519Y-132652798D01*
X129550034Y-132591475D01*
X129547200Y-132565117D01*
X129547200Y-131903389D01*
X130979500Y-131903389D01*
X130979500Y-132076610D01*
X130994345Y-132170342D01*
X131006598Y-132247701D01*
X131060127Y-132412445D01*
X131138768Y-132566788D01*
X131240586Y-132706928D01*
X131363072Y-132829414D01*
X131503212Y-132931232D01*
X131657555Y-133009873D01*
X131822299Y-133063402D01*
X131993389Y-133090500D01*
X131993390Y-133090500D01*
X132166610Y-133090500D01*
X132166611Y-133090500D01*
X132337701Y-133063402D01*
X132502445Y-133009873D01*
X132656788Y-132931232D01*
X132796928Y-132829414D01*
X132889812Y-132736530D01*
X166009500Y-132736530D01*
X166009500Y-132943469D01*
X166049868Y-133146412D01*
X166049870Y-133146420D01*
X166129058Y-133337596D01*
X166244024Y-133509657D01*
X166390342Y-133655975D01*
X166390345Y-133655977D01*
X166562402Y-133770941D01*
X166753580Y-133850130D01*
X166956530Y-133890499D01*
X166956534Y-133890500D01*
X166956535Y-133890500D01*
X167163466Y-133890500D01*
X167163467Y-133890499D01*
X167366420Y-133850130D01*
X167557598Y-133770941D01*
X167729655Y-133655977D01*
X167875977Y-133509655D01*
X167990941Y-133337598D01*
X168070130Y-133146420D01*
X168110500Y-132943465D01*
X168110500Y-132736535D01*
X168070130Y-132533580D01*
X167990941Y-132342402D01*
X167875977Y-132170345D01*
X167875975Y-132170342D01*
X167729657Y-132024024D01*
X167643626Y-131966541D01*
X167557598Y-131909059D01*
X167543909Y-131903389D01*
X167366420Y-131829870D01*
X167366412Y-131829868D01*
X167163469Y-131789500D01*
X167163465Y-131789500D01*
X166956535Y-131789500D01*
X166956530Y-131789500D01*
X166753587Y-131829868D01*
X166753579Y-131829870D01*
X166562403Y-131909058D01*
X166390342Y-132024024D01*
X166244024Y-132170342D01*
X166129058Y-132342403D01*
X166049870Y-132533579D01*
X166049868Y-132533587D01*
X166009500Y-132736530D01*
X132889812Y-132736530D01*
X132919414Y-132706928D01*
X133021232Y-132566788D01*
X133099873Y-132412445D01*
X133153402Y-132247701D01*
X133180500Y-132076611D01*
X133180500Y-131903389D01*
X133153402Y-131732299D01*
X133099873Y-131567555D01*
X133021232Y-131413212D01*
X132919414Y-131273072D01*
X132796928Y-131150586D01*
X132656788Y-131048768D01*
X132502445Y-130970127D01*
X132337701Y-130916598D01*
X132337699Y-130916597D01*
X132337698Y-130916597D01*
X132206271Y-130895781D01*
X132166611Y-130889500D01*
X131993389Y-130889500D01*
X131953728Y-130895781D01*
X131822302Y-130916597D01*
X131822299Y-130916598D01*
X131659002Y-130969657D01*
X131657552Y-130970128D01*
X131503211Y-131048768D01*
X131423256Y-131106859D01*
X131363072Y-131150586D01*
X131363070Y-131150588D01*
X131363069Y-131150588D01*
X131240588Y-131273069D01*
X131240588Y-131273070D01*
X131240586Y-131273072D01*
X131213662Y-131310130D01*
X131138768Y-131413211D01*
X131060128Y-131567552D01*
X131006597Y-131732302D01*
X130979500Y-131903389D01*
X129547200Y-131903389D01*
X129547200Y-130627525D01*
X144069500Y-130627525D01*
X144069500Y-130772475D01*
X144100857Y-130889500D01*
X144107017Y-130912488D01*
X144179488Y-131038011D01*
X144179490Y-131038013D01*
X144179491Y-131038015D01*
X144281985Y-131140509D01*
X144281986Y-131140510D01*
X144281988Y-131140511D01*
X144407511Y-131212982D01*
X144407512Y-131212982D01*
X144407515Y-131212984D01*
X144547525Y-131250500D01*
X144547528Y-131250500D01*
X144692472Y-131250500D01*
X144692475Y-131250500D01*
X144832485Y-131212984D01*
X144958015Y-131140509D01*
X145060509Y-131038015D01*
X145132984Y-130912485D01*
X145170500Y-130772475D01*
X145170500Y-130627525D01*
X149849500Y-130627525D01*
X149849500Y-130772475D01*
X149880857Y-130889500D01*
X149887017Y-130912488D01*
X149959488Y-131038011D01*
X149959490Y-131038013D01*
X149959491Y-131038015D01*
X150061985Y-131140509D01*
X150061986Y-131140510D01*
X150061988Y-131140511D01*
X150187511Y-131212982D01*
X150187512Y-131212982D01*
X150187515Y-131212984D01*
X150327525Y-131250500D01*
X150327528Y-131250500D01*
X150472472Y-131250500D01*
X150472475Y-131250500D01*
X150612485Y-131212984D01*
X150738015Y-131140509D01*
X150840509Y-131038015D01*
X150912984Y-130912485D01*
X150950500Y-130772475D01*
X150950500Y-130627525D01*
X150912984Y-130487515D01*
X150869950Y-130412979D01*
X150840511Y-130361988D01*
X150840506Y-130361982D01*
X150738017Y-130259493D01*
X150738011Y-130259488D01*
X150694052Y-130234108D01*
X162219500Y-130234108D01*
X162219500Y-130365892D01*
X162232117Y-130412979D01*
X162253608Y-130493187D01*
X162286554Y-130550250D01*
X162319500Y-130607314D01*
X162412686Y-130700500D01*
X162526814Y-130766392D01*
X162654108Y-130800500D01*
X162654110Y-130800500D01*
X162785890Y-130800500D01*
X162785892Y-130800500D01*
X162913186Y-130766392D01*
X163027314Y-130700500D01*
X163120500Y-130607314D01*
X163186392Y-130493186D01*
X163220500Y-130365892D01*
X163220500Y-130234108D01*
X164779500Y-130234108D01*
X164779500Y-130365892D01*
X164792117Y-130412979D01*
X164813608Y-130493187D01*
X164846554Y-130550250D01*
X164879500Y-130607314D01*
X164972686Y-130700500D01*
X165086814Y-130766392D01*
X165214108Y-130800500D01*
X165214110Y-130800500D01*
X165345890Y-130800500D01*
X165345892Y-130800500D01*
X165473186Y-130766392D01*
X165587314Y-130700500D01*
X165680500Y-130607314D01*
X165746392Y-130493186D01*
X165770000Y-130405075D01*
X165806365Y-130345416D01*
X165869212Y-130314887D01*
X165938587Y-130323182D01*
X165992465Y-130367667D01*
X166011392Y-130412979D01*
X166049868Y-130606412D01*
X166049870Y-130606420D01*
X166116132Y-130766391D01*
X166129059Y-130797598D01*
X166130998Y-130800500D01*
X166244024Y-130969657D01*
X166390342Y-131115975D01*
X166390345Y-131115977D01*
X166562402Y-131230941D01*
X166753580Y-131310130D01*
X166956530Y-131350499D01*
X166956534Y-131350500D01*
X166956535Y-131350500D01*
X167163466Y-131350500D01*
X167163467Y-131350499D01*
X167366420Y-131310130D01*
X167557598Y-131230941D01*
X167729655Y-131115977D01*
X167875977Y-130969655D01*
X167990941Y-130797598D01*
X168070130Y-130606420D01*
X168110500Y-130403465D01*
X168110500Y-130196535D01*
X168070130Y-129993580D01*
X167990941Y-129802402D01*
X167875977Y-129630345D01*
X167875975Y-129630342D01*
X167729657Y-129484024D01*
X167643626Y-129426541D01*
X167557598Y-129369059D01*
X167366420Y-129289870D01*
X167366412Y-129289868D01*
X167163469Y-129249500D01*
X167163465Y-129249500D01*
X166956535Y-129249500D01*
X166956530Y-129249500D01*
X166753587Y-129289868D01*
X166753579Y-129289870D01*
X166562403Y-129369058D01*
X166390342Y-129484024D01*
X166244024Y-129630342D01*
X166129058Y-129802403D01*
X166049870Y-129993579D01*
X166049868Y-129993587D01*
X166011392Y-130187020D01*
X165979007Y-130248931D01*
X165918292Y-130283505D01*
X165848522Y-130279766D01*
X165791850Y-130238899D01*
X165770000Y-130194922D01*
X165767882Y-130187016D01*
X165746392Y-130106814D01*
X165680500Y-129992686D01*
X165587314Y-129899500D01*
X165530250Y-129866554D01*
X165473187Y-129833608D01*
X165409539Y-129816554D01*
X165345892Y-129799500D01*
X165214108Y-129799500D01*
X165086812Y-129833608D01*
X164972686Y-129899500D01*
X164972683Y-129899502D01*
X164879502Y-129992683D01*
X164879500Y-129992686D01*
X164813608Y-130106812D01*
X164779500Y-130234108D01*
X163220500Y-130234108D01*
X163186392Y-130106814D01*
X163120500Y-129992686D01*
X163027314Y-129899500D01*
X162970250Y-129866554D01*
X162913187Y-129833608D01*
X162849539Y-129816554D01*
X162785892Y-129799500D01*
X162654108Y-129799500D01*
X162526812Y-129833608D01*
X162412686Y-129899500D01*
X162412683Y-129899502D01*
X162319502Y-129992683D01*
X162319500Y-129992686D01*
X162253608Y-130106812D01*
X162219500Y-130234108D01*
X150694052Y-130234108D01*
X150612488Y-130187017D01*
X150612489Y-130187017D01*
X150601006Y-130183940D01*
X150472475Y-130149500D01*
X150327525Y-130149500D01*
X150198993Y-130183940D01*
X150187511Y-130187017D01*
X150061988Y-130259488D01*
X150061982Y-130259493D01*
X149959493Y-130361982D01*
X149959488Y-130361988D01*
X149887017Y-130487511D01*
X149887016Y-130487515D01*
X149849500Y-130627525D01*
X145170500Y-130627525D01*
X145132984Y-130487515D01*
X145089950Y-130412979D01*
X145060511Y-130361988D01*
X145060506Y-130361982D01*
X144958017Y-130259493D01*
X144958011Y-130259488D01*
X144832488Y-130187017D01*
X144832489Y-130187017D01*
X144821006Y-130183940D01*
X144692475Y-130149500D01*
X144547525Y-130149500D01*
X144418993Y-130183940D01*
X144407511Y-130187017D01*
X144281988Y-130259488D01*
X144281982Y-130259493D01*
X144179493Y-130361982D01*
X144179488Y-130361988D01*
X144107017Y-130487511D01*
X144107016Y-130487515D01*
X144069500Y-130627525D01*
X129547200Y-130627525D01*
X129547200Y-127395513D01*
X130879500Y-127395513D01*
X130879500Y-127584486D01*
X130909059Y-127771118D01*
X130967454Y-127950836D01*
X131026348Y-128066420D01*
X131053240Y-128119199D01*
X131164310Y-128272073D01*
X131297927Y-128405690D01*
X131450801Y-128516760D01*
X131530347Y-128557290D01*
X131619163Y-128602545D01*
X131619165Y-128602545D01*
X131619168Y-128602547D01*
X131715497Y-128633846D01*
X131798881Y-128660940D01*
X131985514Y-128690500D01*
X131985519Y-128690500D01*
X132174486Y-128690500D01*
X132361118Y-128660940D01*
X132540832Y-128602547D01*
X132709199Y-128516760D01*
X132862073Y-128405690D01*
X132995690Y-128272073D01*
X133106760Y-128119199D01*
X133192547Y-127950832D01*
X133250940Y-127771118D01*
X133269089Y-127656530D01*
X166009500Y-127656530D01*
X166009500Y-127863469D01*
X166049868Y-128066412D01*
X166049870Y-128066420D01*
X166129059Y-128257598D01*
X166138732Y-128272075D01*
X166244024Y-128429657D01*
X166390342Y-128575975D01*
X166390345Y-128575977D01*
X166562402Y-128690941D01*
X166753580Y-128770130D01*
X166956530Y-128810499D01*
X166956534Y-128810500D01*
X166956535Y-128810500D01*
X167163466Y-128810500D01*
X167163467Y-128810499D01*
X167366420Y-128770130D01*
X167557598Y-128690941D01*
X167729655Y-128575977D01*
X167875977Y-128429655D01*
X167990941Y-128257598D01*
X168070130Y-128066420D01*
X168110500Y-127863465D01*
X168110500Y-127656535D01*
X168110499Y-127656530D01*
X168549500Y-127656530D01*
X168549500Y-127863469D01*
X168589868Y-128066412D01*
X168589870Y-128066420D01*
X168669059Y-128257598D01*
X168678732Y-128272075D01*
X168784024Y-128429657D01*
X168930342Y-128575975D01*
X168930345Y-128575977D01*
X169102402Y-128690941D01*
X169293580Y-128770130D01*
X169496530Y-128810499D01*
X169496534Y-128810500D01*
X169496535Y-128810500D01*
X169703466Y-128810500D01*
X169703467Y-128810499D01*
X169906420Y-128770130D01*
X170097598Y-128690941D01*
X170269655Y-128575977D01*
X170415977Y-128429655D01*
X170530941Y-128257598D01*
X170610130Y-128066420D01*
X170650500Y-127863465D01*
X170650500Y-127656535D01*
X170610130Y-127453580D01*
X170530941Y-127262402D01*
X170415977Y-127090345D01*
X170415975Y-127090342D01*
X170269657Y-126944024D01*
X170183626Y-126886541D01*
X170097598Y-126829059D01*
X170068031Y-126816812D01*
X169906420Y-126749870D01*
X169906412Y-126749868D01*
X169703469Y-126709500D01*
X169703465Y-126709500D01*
X169496535Y-126709500D01*
X169496530Y-126709500D01*
X169293587Y-126749868D01*
X169293579Y-126749870D01*
X169102403Y-126829058D01*
X168930342Y-126944024D01*
X168784024Y-127090342D01*
X168669058Y-127262403D01*
X168589870Y-127453579D01*
X168589868Y-127453587D01*
X168549500Y-127656530D01*
X168110499Y-127656530D01*
X168070130Y-127453580D01*
X167990941Y-127262402D01*
X167875977Y-127090345D01*
X167875975Y-127090342D01*
X167729657Y-126944024D01*
X167643626Y-126886541D01*
X167557598Y-126829059D01*
X167528031Y-126816812D01*
X167366420Y-126749870D01*
X167366412Y-126749868D01*
X167163469Y-126709500D01*
X167163465Y-126709500D01*
X166956535Y-126709500D01*
X166956530Y-126709500D01*
X166753587Y-126749868D01*
X166753579Y-126749870D01*
X166562403Y-126829058D01*
X166390342Y-126944024D01*
X166244024Y-127090342D01*
X166129058Y-127262403D01*
X166049870Y-127453579D01*
X166049868Y-127453587D01*
X166009500Y-127656530D01*
X133269089Y-127656530D01*
X133273126Y-127631045D01*
X133280500Y-127584486D01*
X133280500Y-127395513D01*
X133250940Y-127208881D01*
X133212424Y-127090342D01*
X133192547Y-127029168D01*
X133192545Y-127029165D01*
X133192544Y-127029160D01*
X133173751Y-126992277D01*
X133173750Y-126992276D01*
X133149207Y-126944108D01*
X140849500Y-126944108D01*
X140849500Y-127075891D01*
X140883608Y-127203187D01*
X140916554Y-127260250D01*
X140949500Y-127317314D01*
X141042686Y-127410500D01*
X141156814Y-127476392D01*
X141284108Y-127510500D01*
X141284110Y-127510500D01*
X141415890Y-127510500D01*
X141415892Y-127510500D01*
X141543186Y-127476392D01*
X141657314Y-127410500D01*
X141750500Y-127317314D01*
X141816392Y-127203186D01*
X141850500Y-127075892D01*
X141850500Y-126944108D01*
X144799500Y-126944108D01*
X144799500Y-127075891D01*
X144833608Y-127203187D01*
X144866554Y-127260250D01*
X144899500Y-127317314D01*
X144992686Y-127410500D01*
X145106814Y-127476392D01*
X145234108Y-127510500D01*
X145234110Y-127510500D01*
X145365890Y-127510500D01*
X145365892Y-127510500D01*
X145493186Y-127476392D01*
X145607314Y-127410500D01*
X145700500Y-127317314D01*
X145766392Y-127203186D01*
X145800500Y-127075892D01*
X145800500Y-126944108D01*
X145766392Y-126816814D01*
X145700500Y-126702686D01*
X145607314Y-126609500D01*
X145546363Y-126574310D01*
X145493187Y-126543608D01*
X145429539Y-126526554D01*
X145365892Y-126509500D01*
X145234108Y-126509500D01*
X145106812Y-126543608D01*
X144992686Y-126609500D01*
X144992683Y-126609502D01*
X144899502Y-126702683D01*
X144899500Y-126702686D01*
X144833608Y-126816812D01*
X144799500Y-126944108D01*
X141850500Y-126944108D01*
X141816392Y-126816814D01*
X141750500Y-126702686D01*
X141657314Y-126609500D01*
X141596363Y-126574310D01*
X141543187Y-126543608D01*
X141479539Y-126526554D01*
X141415892Y-126509500D01*
X141284108Y-126509500D01*
X141156812Y-126543608D01*
X141042686Y-126609500D01*
X141042683Y-126609502D01*
X140949502Y-126702683D01*
X140949500Y-126702686D01*
X140883608Y-126816812D01*
X140849500Y-126944108D01*
X133149207Y-126944108D01*
X133106759Y-126860800D01*
X132995690Y-126707927D01*
X132862073Y-126574310D01*
X132709199Y-126463240D01*
X132540836Y-126377454D01*
X132361118Y-126319059D01*
X132174486Y-126289500D01*
X132174481Y-126289500D01*
X131985519Y-126289500D01*
X131985514Y-126289500D01*
X131798881Y-126319059D01*
X131619163Y-126377454D01*
X131450800Y-126463240D01*
X131387130Y-126509500D01*
X131297927Y-126574310D01*
X131297925Y-126574312D01*
X131297924Y-126574312D01*
X131164312Y-126707924D01*
X131164312Y-126707925D01*
X131164310Y-126707927D01*
X131116610Y-126773579D01*
X131053240Y-126860800D01*
X130967454Y-127029163D01*
X130909059Y-127208881D01*
X130879500Y-127395513D01*
X129547200Y-127395513D01*
X129547200Y-122254108D01*
X146609500Y-122254108D01*
X146609500Y-122385891D01*
X146643608Y-122513187D01*
X146676554Y-122570250D01*
X146709500Y-122627314D01*
X146802686Y-122720500D01*
X146916814Y-122786392D01*
X146965594Y-122799462D01*
X147025253Y-122835825D01*
X147055783Y-122898671D01*
X147057500Y-122919236D01*
X147057500Y-124400763D01*
X147037815Y-124467802D01*
X146985011Y-124513557D01*
X146965598Y-124520536D01*
X146916814Y-124533608D01*
X146916812Y-124533608D01*
X146916812Y-124533609D01*
X146802686Y-124599500D01*
X146802683Y-124599502D01*
X146709502Y-124692683D01*
X146709500Y-124692686D01*
X146643608Y-124806812D01*
X146609500Y-124934108D01*
X146609500Y-125065891D01*
X146643608Y-125193187D01*
X146676554Y-125250250D01*
X146709500Y-125307314D01*
X146802686Y-125400500D01*
X146916814Y-125466392D01*
X147044108Y-125500500D01*
X147044110Y-125500500D01*
X147175890Y-125500500D01*
X147175892Y-125500500D01*
X147303186Y-125466392D01*
X147417314Y-125400500D01*
X147447319Y-125370495D01*
X147508642Y-125337010D01*
X147578334Y-125341994D01*
X147622681Y-125370495D01*
X147652686Y-125400500D01*
X147766814Y-125466392D01*
X147894108Y-125500500D01*
X147894110Y-125500500D01*
X148025890Y-125500500D01*
X148025892Y-125500500D01*
X148153186Y-125466392D01*
X148267314Y-125400500D01*
X148360500Y-125307314D01*
X148426392Y-125193186D01*
X148460500Y-125065892D01*
X148460500Y-124934108D01*
X148426392Y-124806814D01*
X148360500Y-124692686D01*
X148267314Y-124599500D01*
X148153186Y-124533608D01*
X148104404Y-124520537D01*
X148080626Y-124506043D01*
X148055297Y-124494476D01*
X148051206Y-124488110D01*
X148044746Y-124484173D01*
X148032578Y-124459125D01*
X148017523Y-124435698D01*
X148015977Y-124424950D01*
X148014217Y-124421326D01*
X148012500Y-124400763D01*
X148012500Y-124350247D01*
X166009500Y-124350247D01*
X166009500Y-126089752D01*
X166021131Y-126148229D01*
X166021132Y-126148230D01*
X166065447Y-126214552D01*
X166131769Y-126258867D01*
X166131770Y-126258868D01*
X166190247Y-126270499D01*
X166190250Y-126270500D01*
X166190252Y-126270500D01*
X167929750Y-126270500D01*
X167929751Y-126270499D01*
X167944568Y-126267552D01*
X167988229Y-126258868D01*
X167988229Y-126258867D01*
X167988231Y-126258867D01*
X168054552Y-126214552D01*
X168098867Y-126148231D01*
X168098867Y-126148229D01*
X168098868Y-126148229D01*
X168110499Y-126089752D01*
X168110500Y-126089750D01*
X168110500Y-125116530D01*
X168549500Y-125116530D01*
X168549500Y-125323469D01*
X168589868Y-125526412D01*
X168589870Y-125526420D01*
X168669058Y-125717596D01*
X168784024Y-125889657D01*
X168930342Y-126035975D01*
X168930345Y-126035977D01*
X169102402Y-126150941D01*
X169293580Y-126230130D01*
X169438052Y-126258867D01*
X169496530Y-126270499D01*
X169496534Y-126270500D01*
X169496535Y-126270500D01*
X169703466Y-126270500D01*
X169703467Y-126270499D01*
X169906420Y-126230130D01*
X170097598Y-126150941D01*
X170269655Y-126035977D01*
X170415977Y-125889655D01*
X170530941Y-125717598D01*
X170610130Y-125526420D01*
X170650500Y-125323465D01*
X170650500Y-125116535D01*
X170610130Y-124913580D01*
X170530941Y-124722402D01*
X170415977Y-124550345D01*
X170415975Y-124550342D01*
X170269657Y-124404024D01*
X170101655Y-124291770D01*
X170097598Y-124289059D01*
X169906420Y-124209870D01*
X169906412Y-124209868D01*
X169703469Y-124169500D01*
X169703465Y-124169500D01*
X169496535Y-124169500D01*
X169496530Y-124169500D01*
X169293587Y-124209868D01*
X169293579Y-124209870D01*
X169102403Y-124289058D01*
X168930342Y-124404024D01*
X168784024Y-124550342D01*
X168669058Y-124722403D01*
X168589870Y-124913579D01*
X168589868Y-124913587D01*
X168549500Y-125116530D01*
X168110500Y-125116530D01*
X168110500Y-124350249D01*
X168110499Y-124350247D01*
X168098868Y-124291770D01*
X168098867Y-124291769D01*
X168054552Y-124225447D01*
X167988230Y-124181132D01*
X167988229Y-124181131D01*
X167929752Y-124169500D01*
X167929748Y-124169500D01*
X166190252Y-124169500D01*
X166190247Y-124169500D01*
X166131770Y-124181131D01*
X166131769Y-124181132D01*
X166065447Y-124225447D01*
X166021132Y-124291769D01*
X166021131Y-124291770D01*
X166009500Y-124350247D01*
X148012500Y-124350247D01*
X148012500Y-122919236D01*
X148032185Y-122852197D01*
X148084989Y-122806442D01*
X148104398Y-122799464D01*
X148153186Y-122786392D01*
X148267314Y-122720500D01*
X148360500Y-122627314D01*
X148426392Y-122513186D01*
X148460500Y-122385892D01*
X148460500Y-122254108D01*
X148426392Y-122126814D01*
X148360500Y-122012686D01*
X148267314Y-121919500D01*
X148210250Y-121886554D01*
X148153187Y-121853608D01*
X148089539Y-121836554D01*
X148025892Y-121819500D01*
X147894108Y-121819500D01*
X147766812Y-121853608D01*
X147652686Y-121919500D01*
X147652683Y-121919502D01*
X147622681Y-121949505D01*
X147561358Y-121982990D01*
X147491666Y-121978006D01*
X147447319Y-121949505D01*
X147417316Y-121919502D01*
X147417314Y-121919500D01*
X147360250Y-121886554D01*
X147303187Y-121853608D01*
X147239539Y-121836554D01*
X147175892Y-121819500D01*
X147044108Y-121819500D01*
X146916812Y-121853608D01*
X146802686Y-121919500D01*
X146802683Y-121919502D01*
X146709502Y-122012683D01*
X146709500Y-122012686D01*
X146643608Y-122126812D01*
X146609500Y-122254108D01*
X129547200Y-122254108D01*
X129547200Y-121464108D01*
X144799500Y-121464108D01*
X144799500Y-121595891D01*
X144833608Y-121723187D01*
X144866554Y-121780250D01*
X144899500Y-121837314D01*
X144992686Y-121930500D01*
X145106814Y-121996392D01*
X145234108Y-122030500D01*
X145234110Y-122030500D01*
X145365890Y-122030500D01*
X145365892Y-122030500D01*
X145493186Y-121996392D01*
X145607314Y-121930500D01*
X145700500Y-121837314D01*
X145766392Y-121723186D01*
X145800500Y-121595892D01*
X145800500Y-121464108D01*
X154969500Y-121464108D01*
X154969500Y-121595891D01*
X155003608Y-121723187D01*
X155036554Y-121780250D01*
X155069500Y-121837314D01*
X155162686Y-121930500D01*
X155276814Y-121996392D01*
X155404108Y-122030500D01*
X155404110Y-122030500D01*
X155535890Y-122030500D01*
X155535892Y-122030500D01*
X155663186Y-121996392D01*
X155777314Y-121930500D01*
X155870500Y-121837314D01*
X155936392Y-121723186D01*
X155970500Y-121595892D01*
X155970500Y-121464108D01*
X155936392Y-121336814D01*
X155870500Y-121222686D01*
X155777314Y-121129500D01*
X155720250Y-121096554D01*
X155663187Y-121063608D01*
X155599539Y-121046554D01*
X155535892Y-121029500D01*
X155404108Y-121029500D01*
X155276812Y-121063608D01*
X155162686Y-121129500D01*
X155162683Y-121129502D01*
X155069502Y-121222683D01*
X155069500Y-121222686D01*
X155003608Y-121336812D01*
X154969500Y-121464108D01*
X145800500Y-121464108D01*
X145766392Y-121336814D01*
X145700500Y-121222686D01*
X145607314Y-121129500D01*
X145550250Y-121096554D01*
X145493187Y-121063608D01*
X145429539Y-121046554D01*
X145365892Y-121029500D01*
X145234108Y-121029500D01*
X145106812Y-121063608D01*
X144992686Y-121129500D01*
X144992683Y-121129502D01*
X144899502Y-121222683D01*
X144899500Y-121222686D01*
X144833608Y-121336812D01*
X144799500Y-121464108D01*
X129547200Y-121464108D01*
X129547200Y-118979524D01*
X143084500Y-118979524D01*
X143084500Y-119820475D01*
X143111994Y-119958696D01*
X143111996Y-119958704D01*
X143165930Y-120088913D01*
X143165935Y-120088922D01*
X143244234Y-120206104D01*
X143244237Y-120206108D01*
X143343891Y-120305762D01*
X143343895Y-120305765D01*
X143461077Y-120384064D01*
X143461083Y-120384067D01*
X143461084Y-120384068D01*
X143591296Y-120438004D01*
X143729524Y-120465499D01*
X143729528Y-120465500D01*
X143729529Y-120465500D01*
X143870472Y-120465500D01*
X143870473Y-120465499D01*
X144008704Y-120438004D01*
X144138916Y-120384068D01*
X144256105Y-120305765D01*
X144355765Y-120206105D01*
X144434068Y-120088916D01*
X144435438Y-120085609D01*
X144436618Y-120084144D01*
X144436938Y-120083546D01*
X144437051Y-120083606D01*
X144479278Y-120031204D01*
X144545571Y-120009138D01*
X144613271Y-120026416D01*
X144660883Y-120077552D01*
X144664562Y-120085609D01*
X144665930Y-120088912D01*
X144665935Y-120088922D01*
X144744234Y-120206104D01*
X144744237Y-120206108D01*
X144843891Y-120305762D01*
X144843895Y-120305765D01*
X144961077Y-120384064D01*
X144961083Y-120384067D01*
X144961084Y-120384068D01*
X145091296Y-120438004D01*
X145229524Y-120465499D01*
X145229528Y-120465500D01*
X145229529Y-120465500D01*
X145370472Y-120465500D01*
X145370473Y-120465499D01*
X145508704Y-120438004D01*
X145638916Y-120384068D01*
X145756105Y-120305765D01*
X145855765Y-120206105D01*
X145934068Y-120088916D01*
X145935438Y-120085609D01*
X145936618Y-120084144D01*
X145936938Y-120083546D01*
X145937051Y-120083606D01*
X145979278Y-120031204D01*
X146045571Y-120009138D01*
X146113271Y-120026416D01*
X146160883Y-120077552D01*
X146164562Y-120085609D01*
X146165930Y-120088912D01*
X146165935Y-120088922D01*
X146244234Y-120206104D01*
X146244237Y-120206108D01*
X146343891Y-120305762D01*
X146343895Y-120305765D01*
X146461077Y-120384064D01*
X146461083Y-120384067D01*
X146461084Y-120384068D01*
X146591296Y-120438004D01*
X146729524Y-120465499D01*
X146729528Y-120465500D01*
X146729529Y-120465500D01*
X146870472Y-120465500D01*
X146870473Y-120465499D01*
X147008704Y-120438004D01*
X147138916Y-120384068D01*
X147256105Y-120305765D01*
X147355765Y-120206105D01*
X147434068Y-120088916D01*
X147435438Y-120085609D01*
X147436618Y-120084144D01*
X147436938Y-120083546D01*
X147437051Y-120083606D01*
X147479278Y-120031204D01*
X147545571Y-120009138D01*
X147613271Y-120026416D01*
X147660883Y-120077552D01*
X147664562Y-120085609D01*
X147665930Y-120088912D01*
X147665935Y-120088922D01*
X147744234Y-120206104D01*
X147744237Y-120206108D01*
X147843891Y-120305762D01*
X147843895Y-120305765D01*
X147961077Y-120384064D01*
X147961083Y-120384067D01*
X147961084Y-120384068D01*
X148091296Y-120438004D01*
X148229524Y-120465499D01*
X148229528Y-120465500D01*
X148229529Y-120465500D01*
X148370472Y-120465500D01*
X148370473Y-120465499D01*
X148508704Y-120438004D01*
X148638916Y-120384068D01*
X148756105Y-120305765D01*
X148855765Y-120206105D01*
X148934068Y-120088916D01*
X148935438Y-120085609D01*
X148936618Y-120084144D01*
X148936938Y-120083546D01*
X148937051Y-120083606D01*
X148979278Y-120031204D01*
X149045571Y-120009138D01*
X149113271Y-120026416D01*
X149160883Y-120077552D01*
X149164562Y-120085609D01*
X149165930Y-120088912D01*
X149165935Y-120088922D01*
X149244234Y-120206104D01*
X149244237Y-120206108D01*
X149343891Y-120305762D01*
X149343895Y-120305765D01*
X149461077Y-120384064D01*
X149461083Y-120384067D01*
X149461084Y-120384068D01*
X149591296Y-120438004D01*
X149729524Y-120465499D01*
X149729528Y-120465500D01*
X149729529Y-120465500D01*
X149870472Y-120465500D01*
X149870473Y-120465499D01*
X150008704Y-120438004D01*
X150138916Y-120384068D01*
X150256105Y-120305765D01*
X150355765Y-120206105D01*
X150434068Y-120088916D01*
X150488004Y-119958704D01*
X150515500Y-119820471D01*
X150515500Y-118979529D01*
X150488004Y-118841296D01*
X150436046Y-118715859D01*
X150434069Y-118711086D01*
X150434064Y-118711077D01*
X150355765Y-118593895D01*
X150355762Y-118593891D01*
X150256108Y-118494237D01*
X150256104Y-118494234D01*
X150138922Y-118415935D01*
X150138913Y-118415930D01*
X150008704Y-118361996D01*
X150008696Y-118361994D01*
X149870475Y-118334500D01*
X149870471Y-118334500D01*
X149729529Y-118334500D01*
X149729524Y-118334500D01*
X149591303Y-118361994D01*
X149591295Y-118361996D01*
X149461086Y-118415930D01*
X149461077Y-118415935D01*
X149343895Y-118494234D01*
X149343891Y-118494237D01*
X149244237Y-118593891D01*
X149244234Y-118593895D01*
X149165935Y-118711077D01*
X149165929Y-118711089D01*
X149164560Y-118714395D01*
X149163379Y-118715859D01*
X149163062Y-118716454D01*
X149162949Y-118716393D01*
X149120718Y-118768797D01*
X149054424Y-118790861D01*
X148986725Y-118773581D01*
X148939115Y-118722443D01*
X148935440Y-118714395D01*
X148934070Y-118711089D01*
X148934068Y-118711084D01*
X148934066Y-118711081D01*
X148934064Y-118711077D01*
X148855765Y-118593895D01*
X148855762Y-118593891D01*
X148756108Y-118494237D01*
X148756104Y-118494234D01*
X148638922Y-118415935D01*
X148638913Y-118415930D01*
X148508704Y-118361996D01*
X148508696Y-118361994D01*
X148370475Y-118334500D01*
X148370471Y-118334500D01*
X148229529Y-118334500D01*
X148229524Y-118334500D01*
X148091303Y-118361994D01*
X148091295Y-118361996D01*
X147961086Y-118415930D01*
X147961077Y-118415935D01*
X147843895Y-118494234D01*
X147843891Y-118494237D01*
X147744237Y-118593891D01*
X147744234Y-118593895D01*
X147665935Y-118711077D01*
X147665929Y-118711089D01*
X147664560Y-118714395D01*
X147663379Y-118715859D01*
X147663062Y-118716454D01*
X147662949Y-118716393D01*
X147620718Y-118768797D01*
X147554424Y-118790861D01*
X147486725Y-118773581D01*
X147439115Y-118722443D01*
X147435440Y-118714395D01*
X147434070Y-118711089D01*
X147434068Y-118711084D01*
X147434066Y-118711081D01*
X147434064Y-118711077D01*
X147355765Y-118593895D01*
X147355762Y-118593891D01*
X147256108Y-118494237D01*
X147256104Y-118494234D01*
X147138922Y-118415935D01*
X147138913Y-118415930D01*
X147008704Y-118361996D01*
X147008696Y-118361994D01*
X146870475Y-118334500D01*
X146870471Y-118334500D01*
X146729529Y-118334500D01*
X146729524Y-118334500D01*
X146591303Y-118361994D01*
X146591295Y-118361996D01*
X146461086Y-118415930D01*
X146461077Y-118415935D01*
X146343895Y-118494234D01*
X146343891Y-118494237D01*
X146244237Y-118593891D01*
X146244234Y-118593895D01*
X146165935Y-118711077D01*
X146165929Y-118711089D01*
X146164560Y-118714395D01*
X146163379Y-118715859D01*
X146163062Y-118716454D01*
X146162949Y-118716393D01*
X146120718Y-118768797D01*
X146054424Y-118790861D01*
X145986725Y-118773581D01*
X145939115Y-118722443D01*
X145935440Y-118714395D01*
X145934070Y-118711089D01*
X145934068Y-118711084D01*
X145934066Y-118711081D01*
X145934064Y-118711077D01*
X145855765Y-118593895D01*
X145855762Y-118593891D01*
X145756108Y-118494237D01*
X145756104Y-118494234D01*
X145638922Y-118415935D01*
X145638913Y-118415930D01*
X145508704Y-118361996D01*
X145508696Y-118361994D01*
X145370475Y-118334500D01*
X145370471Y-118334500D01*
X145229529Y-118334500D01*
X145229524Y-118334500D01*
X145091303Y-118361994D01*
X145091295Y-118361996D01*
X144961086Y-118415930D01*
X144961077Y-118415935D01*
X144843895Y-118494234D01*
X144843891Y-118494237D01*
X144744237Y-118593891D01*
X144744234Y-118593895D01*
X144665935Y-118711077D01*
X144665929Y-118711089D01*
X144664560Y-118714395D01*
X144663379Y-118715859D01*
X144663062Y-118716454D01*
X144662949Y-118716393D01*
X144620718Y-118768797D01*
X144554424Y-118790861D01*
X144486725Y-118773581D01*
X144439115Y-118722443D01*
X144435440Y-118714395D01*
X144434070Y-118711089D01*
X144434068Y-118711084D01*
X144434066Y-118711081D01*
X144434064Y-118711077D01*
X144355765Y-118593895D01*
X144355762Y-118593891D01*
X144256108Y-118494237D01*
X144256104Y-118494234D01*
X144138922Y-118415935D01*
X144138913Y-118415930D01*
X144008704Y-118361996D01*
X144008696Y-118361994D01*
X143870475Y-118334500D01*
X143870471Y-118334500D01*
X143729529Y-118334500D01*
X143729524Y-118334500D01*
X143591303Y-118361994D01*
X143591295Y-118361996D01*
X143461086Y-118415930D01*
X143461077Y-118415935D01*
X143343895Y-118494234D01*
X143343891Y-118494237D01*
X143244237Y-118593891D01*
X143244234Y-118593895D01*
X143165935Y-118711077D01*
X143165930Y-118711086D01*
X143111996Y-118841295D01*
X143111994Y-118841303D01*
X143084500Y-118979524D01*
X129547200Y-118979524D01*
X129547200Y-118194108D01*
X160019500Y-118194108D01*
X160019500Y-118325892D01*
X160029174Y-118361996D01*
X160053608Y-118453187D01*
X160077307Y-118494234D01*
X160119500Y-118567314D01*
X160212686Y-118660500D01*
X160326814Y-118726392D01*
X160454108Y-118760500D01*
X160454110Y-118760500D01*
X160585890Y-118760500D01*
X160585892Y-118760500D01*
X160713186Y-118726392D01*
X160827314Y-118660500D01*
X160920500Y-118567314D01*
X160986392Y-118453186D01*
X161020500Y-118325892D01*
X161020500Y-118194108D01*
X164859500Y-118194108D01*
X164859500Y-118325892D01*
X164869174Y-118361996D01*
X164893608Y-118453187D01*
X164917307Y-118494234D01*
X164959500Y-118567314D01*
X165052686Y-118660500D01*
X165166814Y-118726392D01*
X165294108Y-118760500D01*
X165294110Y-118760500D01*
X165425890Y-118760500D01*
X165425892Y-118760500D01*
X165553186Y-118726392D01*
X165667314Y-118660500D01*
X165760500Y-118567314D01*
X165826392Y-118453186D01*
X165860500Y-118325892D01*
X165860500Y-118194108D01*
X165826392Y-118066814D01*
X165760500Y-117952686D01*
X165687338Y-117879524D01*
X167584500Y-117879524D01*
X167584500Y-118020475D01*
X167611994Y-118158696D01*
X167611996Y-118158704D01*
X167665930Y-118288913D01*
X167665935Y-118288922D01*
X167744234Y-118406104D01*
X167744237Y-118406108D01*
X167843891Y-118505762D01*
X167843895Y-118505765D01*
X167961077Y-118584064D01*
X167961081Y-118584066D01*
X167961084Y-118584068D01*
X167961089Y-118584070D01*
X167964395Y-118585440D01*
X167965859Y-118586620D01*
X167966454Y-118586938D01*
X167966393Y-118587050D01*
X168018797Y-118629282D01*
X168040861Y-118695576D01*
X168023581Y-118763275D01*
X167972443Y-118810885D01*
X167964395Y-118814560D01*
X167961089Y-118815929D01*
X167961077Y-118815935D01*
X167843895Y-118894234D01*
X167843891Y-118894237D01*
X167744237Y-118993891D01*
X167744234Y-118993895D01*
X167665935Y-119111077D01*
X167665930Y-119111086D01*
X167611996Y-119241295D01*
X167611994Y-119241303D01*
X167584500Y-119379524D01*
X167584500Y-119520475D01*
X167611994Y-119658696D01*
X167611996Y-119658704D01*
X167665930Y-119788913D01*
X167665935Y-119788922D01*
X167744234Y-119906104D01*
X167744237Y-119906108D01*
X167843894Y-120005765D01*
X167901309Y-120044128D01*
X167946114Y-120097740D01*
X167954821Y-120167065D01*
X167924667Y-120230092D01*
X167873375Y-120264271D01*
X167842130Y-120275204D01*
X167822118Y-120282207D01*
X167822117Y-120282207D01*
X167822116Y-120282208D01*
X167712850Y-120362850D01*
X167632207Y-120472117D01*
X167632206Y-120472119D01*
X167587353Y-120600298D01*
X167587353Y-120600300D01*
X167584500Y-120630730D01*
X167584500Y-121269269D01*
X167587353Y-121299699D01*
X167587353Y-121299701D01*
X167629806Y-121421021D01*
X167632207Y-121427882D01*
X167712850Y-121537150D01*
X167822118Y-121617793D01*
X167864845Y-121632744D01*
X167950299Y-121662646D01*
X167980730Y-121665500D01*
X167980734Y-121665500D01*
X169319270Y-121665500D01*
X169349699Y-121662646D01*
X169349701Y-121662646D01*
X169413790Y-121640219D01*
X169477882Y-121617793D01*
X169587150Y-121537150D01*
X169667793Y-121427882D01*
X169667797Y-121427868D01*
X169668172Y-121427162D01*
X169668801Y-121426514D01*
X169673311Y-121420405D01*
X169674146Y-121421021D01*
X169716896Y-121377085D01*
X169784959Y-121361299D01*
X169839807Y-121377705D01*
X169906814Y-121416392D01*
X170034108Y-121450500D01*
X170034110Y-121450500D01*
X170165890Y-121450500D01*
X170165892Y-121450500D01*
X170293186Y-121416392D01*
X170407314Y-121350500D01*
X170500500Y-121257314D01*
X170566392Y-121143186D01*
X170600500Y-121015892D01*
X170600500Y-120884108D01*
X170566392Y-120756814D01*
X170500500Y-120642686D01*
X170407314Y-120549500D01*
X170349140Y-120515913D01*
X170293187Y-120483608D01*
X170225602Y-120465499D01*
X170165892Y-120449500D01*
X170034108Y-120449500D01*
X169906814Y-120483608D01*
X169906813Y-120483608D01*
X169906811Y-120483609D01*
X169906810Y-120483609D01*
X169839808Y-120522293D01*
X169771907Y-120538766D01*
X169705881Y-120515913D01*
X169673782Y-120479247D01*
X169673311Y-120479595D01*
X169669143Y-120473948D01*
X169668175Y-120472842D01*
X169667793Y-120472119D01*
X169667793Y-120472118D01*
X169587150Y-120362850D01*
X169477882Y-120282207D01*
X169426625Y-120264271D01*
X169369849Y-120223548D01*
X169344103Y-120158595D01*
X169357560Y-120090034D01*
X169398689Y-120044128D01*
X169456105Y-120005765D01*
X169555765Y-119906105D01*
X169634068Y-119788916D01*
X169688004Y-119658704D01*
X169715500Y-119520471D01*
X169715500Y-119379529D01*
X169688004Y-119241296D01*
X169634068Y-119111084D01*
X169634067Y-119111083D01*
X169634064Y-119111077D01*
X169555765Y-118993895D01*
X169555762Y-118993891D01*
X169456108Y-118894237D01*
X169456104Y-118894234D01*
X169338922Y-118815935D01*
X169338912Y-118815930D01*
X169335609Y-118814562D01*
X169334144Y-118813381D01*
X169333546Y-118813062D01*
X169333606Y-118812948D01*
X169281204Y-118770722D01*
X169259138Y-118704429D01*
X169276416Y-118636729D01*
X169327552Y-118589117D01*
X169335609Y-118585438D01*
X169336334Y-118585137D01*
X169338916Y-118584068D01*
X169456105Y-118505765D01*
X169555765Y-118406105D01*
X169634068Y-118288916D01*
X169688004Y-118158704D01*
X169715500Y-118020471D01*
X169715500Y-117879529D01*
X169688004Y-117741296D01*
X169634068Y-117611084D01*
X169634067Y-117611083D01*
X169634064Y-117611077D01*
X169555765Y-117493895D01*
X169555762Y-117493891D01*
X169456108Y-117394237D01*
X169456104Y-117394234D01*
X169338922Y-117315935D01*
X169338913Y-117315930D01*
X169208704Y-117261996D01*
X169208696Y-117261994D01*
X169070475Y-117234500D01*
X169070471Y-117234500D01*
X168229529Y-117234500D01*
X168229524Y-117234500D01*
X168091303Y-117261994D01*
X168091295Y-117261996D01*
X167961086Y-117315930D01*
X167961077Y-117315935D01*
X167843895Y-117394234D01*
X167843891Y-117394237D01*
X167744237Y-117493891D01*
X167744234Y-117493895D01*
X167665935Y-117611077D01*
X167665930Y-117611086D01*
X167611996Y-117741295D01*
X167611994Y-117741303D01*
X167584500Y-117879524D01*
X165687338Y-117879524D01*
X165667314Y-117859500D01*
X165610250Y-117826554D01*
X165553187Y-117793608D01*
X165489539Y-117776554D01*
X165425892Y-117759500D01*
X165294108Y-117759500D01*
X165166812Y-117793608D01*
X165052686Y-117859500D01*
X165052683Y-117859502D01*
X164959502Y-117952683D01*
X164959500Y-117952686D01*
X164893608Y-118066812D01*
X164868986Y-118158704D01*
X164859500Y-118194108D01*
X161020500Y-118194108D01*
X160986392Y-118066814D01*
X160920500Y-117952686D01*
X160827314Y-117859500D01*
X160770250Y-117826554D01*
X160713187Y-117793608D01*
X160649539Y-117776554D01*
X160585892Y-117759500D01*
X160454108Y-117759500D01*
X160326812Y-117793608D01*
X160212686Y-117859500D01*
X160212683Y-117859502D01*
X160119502Y-117952683D01*
X160119500Y-117952686D01*
X160053608Y-118066812D01*
X160028986Y-118158704D01*
X160019500Y-118194108D01*
X129547200Y-118194108D01*
X129547200Y-112004108D01*
X144169500Y-112004108D01*
X144169500Y-112135891D01*
X144203608Y-112263187D01*
X144236554Y-112320250D01*
X144269500Y-112377314D01*
X144362686Y-112470500D01*
X144476814Y-112536392D01*
X144604108Y-112570500D01*
X144604110Y-112570500D01*
X144735890Y-112570500D01*
X144735892Y-112570500D01*
X144863186Y-112536392D01*
X144977314Y-112470500D01*
X145070500Y-112377314D01*
X145136392Y-112263186D01*
X145170500Y-112135892D01*
X145170500Y-112091978D01*
X145190185Y-112024939D01*
X145206819Y-112004297D01*
X145448433Y-111762683D01*
X145732228Y-111478888D01*
X145777016Y-111401312D01*
X145800200Y-111314788D01*
X145800200Y-111225212D01*
X145800200Y-104065212D01*
X145800200Y-88474108D01*
X146624500Y-88474108D01*
X146624500Y-88605891D01*
X146658608Y-88733187D01*
X146691554Y-88790250D01*
X146724500Y-88847314D01*
X146817686Y-88940500D01*
X146931814Y-89006392D01*
X146932582Y-89006597D01*
X146933159Y-89006949D01*
X146939326Y-89009504D01*
X146938927Y-89010464D01*
X146992245Y-89042957D01*
X147022780Y-89105801D01*
X147024499Y-89126375D01*
X147024499Y-116163624D01*
X147004814Y-116230663D01*
X146952010Y-116276418D01*
X146932604Y-116283396D01*
X146931815Y-116283607D01*
X146931814Y-116283607D01*
X146817686Y-116349500D01*
X146817683Y-116349502D01*
X146724502Y-116442683D01*
X146724500Y-116442686D01*
X146658608Y-116556812D01*
X146624500Y-116684108D01*
X146624500Y-116815891D01*
X146658608Y-116943187D01*
X146691554Y-117000250D01*
X146724500Y-117057314D01*
X146817686Y-117150500D01*
X146931814Y-117216392D01*
X147059108Y-117250500D01*
X147059110Y-117250500D01*
X147190890Y-117250500D01*
X147190892Y-117250500D01*
X147318186Y-117216392D01*
X147432314Y-117150500D01*
X147462319Y-117120495D01*
X147523642Y-117087010D01*
X147593334Y-117091994D01*
X147637681Y-117120495D01*
X147667686Y-117150500D01*
X147781814Y-117216392D01*
X147909108Y-117250500D01*
X147909110Y-117250500D01*
X148040890Y-117250500D01*
X148040892Y-117250500D01*
X148168186Y-117216392D01*
X148282314Y-117150500D01*
X148375500Y-117057314D01*
X148441392Y-116943186D01*
X148475500Y-116815892D01*
X148475500Y-116684108D01*
X148441392Y-116556814D01*
X148375500Y-116442686D01*
X148282314Y-116349500D01*
X148168186Y-116283608D01*
X148153676Y-116279720D01*
X148141130Y-116273026D01*
X148125925Y-116258112D01*
X148107739Y-116247025D01*
X148101478Y-116234134D01*
X148101451Y-116234108D01*
X151029500Y-116234108D01*
X151029500Y-116365891D01*
X151063608Y-116493187D01*
X151096554Y-116550250D01*
X151129500Y-116607314D01*
X151222686Y-116700500D01*
X151336814Y-116766392D01*
X151464108Y-116800500D01*
X151464110Y-116800500D01*
X151595890Y-116800500D01*
X151595892Y-116800500D01*
X151723186Y-116766392D01*
X151837314Y-116700500D01*
X151930500Y-116607314D01*
X151996392Y-116493186D01*
X152030500Y-116365892D01*
X152030500Y-116234108D01*
X165189500Y-116234108D01*
X165189500Y-116365891D01*
X165223608Y-116493187D01*
X165256554Y-116550250D01*
X165289500Y-116607314D01*
X165382686Y-116700500D01*
X165496814Y-116766392D01*
X165624108Y-116800500D01*
X165624110Y-116800500D01*
X165755890Y-116800500D01*
X165755892Y-116800500D01*
X165883186Y-116766392D01*
X165997314Y-116700500D01*
X166090500Y-116607314D01*
X166156392Y-116493186D01*
X166190500Y-116365892D01*
X166190500Y-116234108D01*
X166156392Y-116106814D01*
X166090500Y-115992686D01*
X165997314Y-115899500D01*
X165940250Y-115866554D01*
X165883187Y-115833608D01*
X165819539Y-115816554D01*
X165755892Y-115799500D01*
X165624108Y-115799500D01*
X165496812Y-115833608D01*
X165382686Y-115899500D01*
X165382683Y-115899502D01*
X165289502Y-115992683D01*
X165289500Y-115992686D01*
X165223608Y-116106812D01*
X165189500Y-116234108D01*
X152030500Y-116234108D01*
X151996392Y-116106814D01*
X151930500Y-115992686D01*
X151837314Y-115899500D01*
X151780250Y-115866554D01*
X151723187Y-115833608D01*
X151659539Y-115816554D01*
X151595892Y-115799500D01*
X151464108Y-115799500D01*
X151336812Y-115833608D01*
X151222686Y-115899500D01*
X151222683Y-115899502D01*
X151129502Y-115992683D01*
X151129500Y-115992686D01*
X151063608Y-116106812D01*
X151029500Y-116234108D01*
X148101451Y-116234108D01*
X148091249Y-116224101D01*
X148086520Y-116203333D01*
X148077216Y-116184175D01*
X148075501Y-116163624D01*
X148075501Y-114434108D01*
X154189500Y-114434108D01*
X154189500Y-114565891D01*
X154223608Y-114693187D01*
X154251384Y-114741295D01*
X154289500Y-114807314D01*
X154382686Y-114900500D01*
X154496814Y-114966392D01*
X154624108Y-115000500D01*
X154624110Y-115000500D01*
X154755890Y-115000500D01*
X154755892Y-115000500D01*
X154883186Y-114966392D01*
X154997314Y-114900500D01*
X155090500Y-114807314D01*
X155156392Y-114693186D01*
X155190500Y-114565892D01*
X155190500Y-114434108D01*
X155156392Y-114306814D01*
X155090500Y-114192686D01*
X154997314Y-114099500D01*
X154926901Y-114058847D01*
X154883187Y-114033608D01*
X154819539Y-114016554D01*
X154755892Y-113999500D01*
X154624108Y-113999500D01*
X154496812Y-114033608D01*
X154382686Y-114099500D01*
X154382683Y-114099502D01*
X154289502Y-114192683D01*
X154289500Y-114192686D01*
X154223608Y-114306812D01*
X154189500Y-114434108D01*
X148075501Y-114434108D01*
X148075501Y-104954108D01*
X148349500Y-104954108D01*
X148349500Y-105085891D01*
X148383608Y-105213187D01*
X148410802Y-105260288D01*
X148449500Y-105327314D01*
X148542686Y-105420500D01*
X148639973Y-105476668D01*
X148665652Y-105496373D01*
X156993132Y-113823853D01*
X157054640Y-113859364D01*
X157099668Y-113885361D01*
X157218492Y-113917200D01*
X164605624Y-113917200D01*
X164672663Y-113936885D01*
X164718418Y-113989689D01*
X164728362Y-114058847D01*
X164699337Y-114122403D01*
X164693305Y-114128881D01*
X164629502Y-114192683D01*
X164629500Y-114192686D01*
X164563608Y-114306812D01*
X164529500Y-114434108D01*
X164529500Y-114565891D01*
X164563608Y-114693187D01*
X164591384Y-114741295D01*
X164629500Y-114807314D01*
X164722686Y-114900500D01*
X164836814Y-114966392D01*
X164964108Y-115000500D01*
X164964110Y-115000500D01*
X165095890Y-115000500D01*
X165095892Y-115000500D01*
X165223186Y-114966392D01*
X165337314Y-114900500D01*
X165430500Y-114807314D01*
X165496392Y-114693186D01*
X165530500Y-114565892D01*
X165530500Y-114434108D01*
X165496392Y-114306814D01*
X165430500Y-114192686D01*
X165366695Y-114128881D01*
X165333210Y-114067558D01*
X165338194Y-113997866D01*
X165380066Y-113941933D01*
X165445530Y-113917516D01*
X165454376Y-113917200D01*
X167703968Y-113917200D01*
X167771007Y-113936885D01*
X167791650Y-113953520D01*
X167843891Y-114005762D01*
X167843895Y-114005765D01*
X167961077Y-114084064D01*
X167961081Y-114084066D01*
X167961084Y-114084068D01*
X167961089Y-114084070D01*
X167964395Y-114085440D01*
X167965859Y-114086620D01*
X167966454Y-114086938D01*
X167966393Y-114087050D01*
X168018797Y-114129282D01*
X168040861Y-114195576D01*
X168023581Y-114263275D01*
X167972443Y-114310885D01*
X167964395Y-114314560D01*
X167961089Y-114315929D01*
X167961077Y-114315935D01*
X167843895Y-114394234D01*
X167843891Y-114394237D01*
X167744237Y-114493891D01*
X167744234Y-114493895D01*
X167665935Y-114611077D01*
X167665930Y-114611086D01*
X167611996Y-114741295D01*
X167611994Y-114741303D01*
X167584500Y-114879524D01*
X167584500Y-115020475D01*
X167611994Y-115158696D01*
X167611996Y-115158704D01*
X167665930Y-115288913D01*
X167665935Y-115288922D01*
X167744234Y-115406104D01*
X167744237Y-115406108D01*
X167843891Y-115505762D01*
X167843895Y-115505765D01*
X167961077Y-115584064D01*
X167961083Y-115584067D01*
X167961084Y-115584068D01*
X168091296Y-115638004D01*
X168229524Y-115665499D01*
X168229528Y-115665500D01*
X168229529Y-115665500D01*
X169070472Y-115665500D01*
X169070473Y-115665499D01*
X169208704Y-115638004D01*
X169338916Y-115584068D01*
X169456105Y-115505765D01*
X169555765Y-115406105D01*
X169634068Y-115288916D01*
X169688004Y-115158704D01*
X169715500Y-115020471D01*
X169715500Y-114879529D01*
X169688004Y-114741296D01*
X169634068Y-114611084D01*
X169634067Y-114611083D01*
X169634064Y-114611077D01*
X169555765Y-114493895D01*
X169555762Y-114493891D01*
X169456108Y-114394237D01*
X169456104Y-114394234D01*
X169338922Y-114315935D01*
X169338912Y-114315930D01*
X169335609Y-114314562D01*
X169334144Y-114313381D01*
X169333546Y-114313062D01*
X169333606Y-114312948D01*
X169281204Y-114270722D01*
X169259138Y-114204429D01*
X169276416Y-114136729D01*
X169327552Y-114089117D01*
X169335609Y-114085438D01*
X169336334Y-114085137D01*
X169338916Y-114084068D01*
X169456105Y-114005765D01*
X169555765Y-113906105D01*
X169634068Y-113788916D01*
X169688004Y-113658704D01*
X169715500Y-113520471D01*
X169715500Y-113379529D01*
X169688004Y-113241296D01*
X169634068Y-113111084D01*
X169634067Y-113111083D01*
X169634064Y-113111077D01*
X169555765Y-112993895D01*
X169555762Y-112993891D01*
X169456108Y-112894237D01*
X169456104Y-112894234D01*
X169338922Y-112815935D01*
X169338913Y-112815930D01*
X169208704Y-112761996D01*
X169208696Y-112761994D01*
X169070475Y-112734500D01*
X169070471Y-112734500D01*
X168229529Y-112734500D01*
X168229524Y-112734500D01*
X168091303Y-112761994D01*
X168091295Y-112761996D01*
X167961086Y-112815930D01*
X167961077Y-112815935D01*
X167843895Y-112894234D01*
X167843891Y-112894237D01*
X167791650Y-112946480D01*
X167730327Y-112979966D01*
X167703968Y-112982800D01*
X157524883Y-112982800D01*
X157457844Y-112963115D01*
X157437202Y-112946481D01*
X155854829Y-111364108D01*
X158999500Y-111364108D01*
X158999500Y-111495892D01*
X159016554Y-111559539D01*
X159033608Y-111623187D01*
X159060347Y-111669500D01*
X159099500Y-111737314D01*
X159192686Y-111830500D01*
X159306814Y-111896392D01*
X159434108Y-111930500D01*
X159434110Y-111930500D01*
X159565890Y-111930500D01*
X159565892Y-111930500D01*
X159693186Y-111896392D01*
X159807314Y-111830500D01*
X159900500Y-111737314D01*
X159966392Y-111623186D01*
X160000500Y-111495892D01*
X160000500Y-111364108D01*
X159966392Y-111236814D01*
X159900500Y-111122686D01*
X159807314Y-111029500D01*
X159740932Y-110991174D01*
X159693187Y-110963608D01*
X159629539Y-110946554D01*
X159565892Y-110929500D01*
X159434108Y-110929500D01*
X159306812Y-110963608D01*
X159192686Y-111029500D01*
X159192683Y-111029502D01*
X159099502Y-111122683D01*
X159099500Y-111122686D01*
X159033608Y-111236812D01*
X159012715Y-111314787D01*
X158999500Y-111364108D01*
X155854829Y-111364108D01*
X154974829Y-110484108D01*
X162219500Y-110484108D01*
X162219500Y-110615891D01*
X162253608Y-110743187D01*
X162286554Y-110800250D01*
X162319500Y-110857314D01*
X162412686Y-110950500D01*
X162526814Y-111016392D01*
X162654108Y-111050500D01*
X162654110Y-111050500D01*
X162785890Y-111050500D01*
X162785892Y-111050500D01*
X162913186Y-111016392D01*
X163027314Y-110950500D01*
X163120500Y-110857314D01*
X163186392Y-110743186D01*
X163220500Y-110615892D01*
X163220500Y-110484108D01*
X163186392Y-110356814D01*
X163120500Y-110242686D01*
X163027314Y-110149500D01*
X162947500Y-110103419D01*
X162913187Y-110083608D01*
X162849539Y-110066554D01*
X162785892Y-110049500D01*
X162654108Y-110049500D01*
X162526812Y-110083608D01*
X162412686Y-110149500D01*
X162412683Y-110149502D01*
X162319502Y-110242683D01*
X162319500Y-110242686D01*
X162253608Y-110356812D01*
X162219500Y-110484108D01*
X154974829Y-110484108D01*
X154054829Y-109564108D01*
X161269500Y-109564108D01*
X161269500Y-109695891D01*
X161303608Y-109823187D01*
X161336554Y-109880250D01*
X161369500Y-109937314D01*
X161462686Y-110030500D01*
X161576814Y-110096392D01*
X161704108Y-110130500D01*
X161704110Y-110130500D01*
X161835890Y-110130500D01*
X161835892Y-110130500D01*
X161963186Y-110096392D01*
X162077314Y-110030500D01*
X162170500Y-109937314D01*
X162236392Y-109823186D01*
X162270500Y-109695892D01*
X162270500Y-109564108D01*
X164369500Y-109564108D01*
X164369500Y-109695891D01*
X164403608Y-109823187D01*
X164436554Y-109880250D01*
X164469500Y-109937314D01*
X164562686Y-110030500D01*
X164676814Y-110096392D01*
X164804108Y-110130500D01*
X164804110Y-110130500D01*
X164935890Y-110130500D01*
X164935892Y-110130500D01*
X165063186Y-110096392D01*
X165177314Y-110030500D01*
X165270500Y-109937314D01*
X165336392Y-109823186D01*
X165370500Y-109695892D01*
X165370500Y-109564108D01*
X165336392Y-109436814D01*
X165270500Y-109322686D01*
X165177314Y-109229500D01*
X165120250Y-109196554D01*
X165063187Y-109163608D01*
X164999539Y-109146554D01*
X164935892Y-109129500D01*
X164804108Y-109129500D01*
X164676812Y-109163608D01*
X164562686Y-109229500D01*
X164562683Y-109229502D01*
X164469502Y-109322683D01*
X164469500Y-109322686D01*
X164403608Y-109436812D01*
X164369500Y-109564108D01*
X162270500Y-109564108D01*
X162236392Y-109436814D01*
X162170500Y-109322686D01*
X162077314Y-109229500D01*
X162020250Y-109196554D01*
X161963187Y-109163608D01*
X161899539Y-109146554D01*
X161835892Y-109129500D01*
X161704108Y-109129500D01*
X161576812Y-109163608D01*
X161462686Y-109229500D01*
X161462683Y-109229502D01*
X161369502Y-109322683D01*
X161369500Y-109322686D01*
X161303608Y-109436812D01*
X161269500Y-109564108D01*
X154054829Y-109564108D01*
X152964829Y-108474108D01*
X165779500Y-108474108D01*
X165779500Y-108605891D01*
X165813608Y-108733187D01*
X165846554Y-108790250D01*
X165879500Y-108847314D01*
X165972686Y-108940500D01*
X166086814Y-109006392D01*
X166214108Y-109040500D01*
X166214110Y-109040500D01*
X166345890Y-109040500D01*
X166345892Y-109040500D01*
X166473186Y-109006392D01*
X166587314Y-108940500D01*
X166680500Y-108847314D01*
X166746392Y-108733186D01*
X166780500Y-108605892D01*
X166780500Y-108474108D01*
X166746392Y-108346814D01*
X166680500Y-108232686D01*
X166587314Y-108139500D01*
X166530250Y-108106554D01*
X166473187Y-108073608D01*
X166409539Y-108056554D01*
X166345892Y-108039500D01*
X166214108Y-108039500D01*
X166086812Y-108073608D01*
X165972686Y-108139500D01*
X165972683Y-108139502D01*
X165879502Y-108232683D01*
X165879500Y-108232686D01*
X165813608Y-108346812D01*
X165779500Y-108474108D01*
X152964829Y-108474108D01*
X151994829Y-107504108D01*
X160019500Y-107504108D01*
X160019500Y-107635892D01*
X160036554Y-107699539D01*
X160053608Y-107763187D01*
X160086554Y-107820250D01*
X160119500Y-107877314D01*
X160212686Y-107970500D01*
X160326814Y-108036392D01*
X160454108Y-108070500D01*
X160454110Y-108070500D01*
X160585890Y-108070500D01*
X160585892Y-108070500D01*
X160713186Y-108036392D01*
X160827314Y-107970500D01*
X160920500Y-107877314D01*
X160986392Y-107763186D01*
X161020500Y-107635892D01*
X161020500Y-107504108D01*
X161909500Y-107504108D01*
X161909500Y-107635892D01*
X161926554Y-107699539D01*
X161943608Y-107763187D01*
X161976554Y-107820250D01*
X162009500Y-107877314D01*
X162102686Y-107970500D01*
X162216814Y-108036392D01*
X162344108Y-108070500D01*
X162344110Y-108070500D01*
X162475890Y-108070500D01*
X162475892Y-108070500D01*
X162603186Y-108036392D01*
X162717314Y-107970500D01*
X162810500Y-107877314D01*
X162876392Y-107763186D01*
X162910500Y-107635892D01*
X162910500Y-107504108D01*
X162876392Y-107376814D01*
X162810500Y-107262686D01*
X162717314Y-107169500D01*
X162645793Y-107128207D01*
X162603187Y-107103608D01*
X162525764Y-107082863D01*
X162475892Y-107069500D01*
X162344108Y-107069500D01*
X162216812Y-107103608D01*
X162102686Y-107169500D01*
X162102683Y-107169502D01*
X162009502Y-107262683D01*
X162009500Y-107262686D01*
X161943608Y-107376812D01*
X161909500Y-107504108D01*
X161020500Y-107504108D01*
X160986392Y-107376814D01*
X160920500Y-107262686D01*
X160827314Y-107169500D01*
X160755793Y-107128207D01*
X160713187Y-107103608D01*
X160635764Y-107082863D01*
X160585892Y-107069500D01*
X160454108Y-107069500D01*
X160326812Y-107103608D01*
X160212686Y-107169500D01*
X160212683Y-107169502D01*
X160119502Y-107262683D01*
X160119500Y-107262686D01*
X160053608Y-107376812D01*
X160019500Y-107504108D01*
X151994829Y-107504108D01*
X151024829Y-106534108D01*
X165779500Y-106534108D01*
X165779500Y-106665891D01*
X165813608Y-106793187D01*
X165846554Y-106850250D01*
X165879500Y-106907314D01*
X165972686Y-107000500D01*
X166086814Y-107066392D01*
X166214108Y-107100500D01*
X166214110Y-107100500D01*
X166345890Y-107100500D01*
X166345892Y-107100500D01*
X166473186Y-107066392D01*
X166587314Y-107000500D01*
X166680500Y-106907314D01*
X166746392Y-106793186D01*
X166780500Y-106665892D01*
X166780500Y-106534108D01*
X166746392Y-106406814D01*
X166680500Y-106292686D01*
X166587314Y-106199500D01*
X166530250Y-106166554D01*
X166473187Y-106133608D01*
X166409539Y-106116554D01*
X166345892Y-106099500D01*
X166214108Y-106099500D01*
X166086812Y-106133608D01*
X165972686Y-106199500D01*
X165972683Y-106199502D01*
X165879502Y-106292683D01*
X165879500Y-106292686D01*
X165813608Y-106406812D01*
X165779500Y-106534108D01*
X151024829Y-106534108D01*
X149326373Y-104835652D01*
X149306667Y-104809971D01*
X149258802Y-104727066D01*
X149258801Y-104727064D01*
X149250499Y-104712685D01*
X149208967Y-104671153D01*
X167749500Y-104671153D01*
X167749500Y-104828846D01*
X167780261Y-104983489D01*
X167780264Y-104983501D01*
X167840602Y-105129172D01*
X167840609Y-105129185D01*
X167928210Y-105260288D01*
X167928213Y-105260292D01*
X168039707Y-105371786D01*
X168039710Y-105371788D01*
X168039711Y-105371789D01*
X168065219Y-105388833D01*
X168077289Y-105396898D01*
X168122093Y-105450511D01*
X168130800Y-105519836D01*
X168100645Y-105582863D01*
X168077289Y-105603102D01*
X168039707Y-105628213D01*
X167928213Y-105739707D01*
X167928210Y-105739711D01*
X167840609Y-105870814D01*
X167840602Y-105870827D01*
X167780264Y-106016498D01*
X167780261Y-106016510D01*
X167749500Y-106171153D01*
X167749500Y-106328846D01*
X167780261Y-106483489D01*
X167780264Y-106483501D01*
X167840602Y-106629172D01*
X167840609Y-106629185D01*
X167928210Y-106760288D01*
X167928213Y-106760292D01*
X168039707Y-106871786D01*
X168039710Y-106871788D01*
X168039711Y-106871789D01*
X168065219Y-106888833D01*
X168077289Y-106896898D01*
X168122093Y-106950511D01*
X168130800Y-107019836D01*
X168100645Y-107082863D01*
X168077289Y-107103102D01*
X168039707Y-107128213D01*
X167928213Y-107239707D01*
X167928210Y-107239711D01*
X167840609Y-107370814D01*
X167840602Y-107370827D01*
X167780264Y-107516498D01*
X167780261Y-107516510D01*
X167749500Y-107671153D01*
X167749500Y-107828846D01*
X167780261Y-107983489D01*
X167780264Y-107983501D01*
X167840602Y-108129172D01*
X167840609Y-108129185D01*
X167928210Y-108260288D01*
X167928213Y-108260292D01*
X168039707Y-108371786D01*
X168039711Y-108371789D01*
X168170814Y-108459390D01*
X168170827Y-108459397D01*
X168316498Y-108519735D01*
X168316503Y-108519737D01*
X168471153Y-108550499D01*
X168471156Y-108550500D01*
X168471158Y-108550500D01*
X168628844Y-108550500D01*
X168628845Y-108550499D01*
X168783497Y-108519737D01*
X168929179Y-108459394D01*
X169060289Y-108371789D01*
X169171789Y-108260289D01*
X169259394Y-108129179D01*
X169319737Y-107983497D01*
X169350500Y-107828842D01*
X169350500Y-107671158D01*
X169350500Y-107671155D01*
X169350499Y-107671153D01*
X169319738Y-107516510D01*
X169319737Y-107516503D01*
X169314603Y-107504108D01*
X169259397Y-107370827D01*
X169259390Y-107370814D01*
X169171789Y-107239711D01*
X169171786Y-107239707D01*
X169060292Y-107128213D01*
X169060284Y-107128207D01*
X169022712Y-107103102D01*
X168977906Y-107049490D01*
X168969199Y-106980165D01*
X168999353Y-106917138D01*
X169022712Y-106896898D01*
X169049279Y-106879145D01*
X169060289Y-106871789D01*
X169171789Y-106760289D01*
X169259394Y-106629179D01*
X169319737Y-106483497D01*
X169350500Y-106328842D01*
X169350500Y-106171158D01*
X169350500Y-106171155D01*
X169350499Y-106171153D01*
X169319738Y-106016510D01*
X169319737Y-106016503D01*
X169319735Y-106016498D01*
X169259397Y-105870827D01*
X169259390Y-105870814D01*
X169171789Y-105739711D01*
X169171786Y-105739707D01*
X169060292Y-105628213D01*
X169060284Y-105628207D01*
X169022712Y-105603102D01*
X168977906Y-105549490D01*
X168969199Y-105480165D01*
X168999353Y-105417138D01*
X169022712Y-105396898D01*
X169049279Y-105379145D01*
X169060289Y-105371789D01*
X169171789Y-105260289D01*
X169259394Y-105129179D01*
X169319737Y-104983497D01*
X169350500Y-104828842D01*
X169350500Y-104671158D01*
X169350500Y-104671155D01*
X169350499Y-104671153D01*
X169340225Y-104619502D01*
X169319737Y-104516503D01*
X169319735Y-104516498D01*
X169259397Y-104370827D01*
X169259390Y-104370814D01*
X169171789Y-104239711D01*
X169171786Y-104239707D01*
X169060292Y-104128213D01*
X169060288Y-104128210D01*
X168929185Y-104040609D01*
X168929172Y-104040602D01*
X168783501Y-103980264D01*
X168783489Y-103980261D01*
X168628845Y-103949500D01*
X168628842Y-103949500D01*
X168471158Y-103949500D01*
X168471155Y-103949500D01*
X168316510Y-103980261D01*
X168316498Y-103980264D01*
X168170827Y-104040602D01*
X168170814Y-104040609D01*
X168039711Y-104128210D01*
X168039707Y-104128213D01*
X167928213Y-104239707D01*
X167928210Y-104239711D01*
X167840609Y-104370814D01*
X167840602Y-104370827D01*
X167780264Y-104516498D01*
X167780261Y-104516510D01*
X167749500Y-104671153D01*
X149208967Y-104671153D01*
X149157316Y-104619502D01*
X149157314Y-104619500D01*
X149100250Y-104586554D01*
X149043187Y-104553608D01*
X148979539Y-104536554D01*
X148915892Y-104519500D01*
X148784108Y-104519500D01*
X148656812Y-104553608D01*
X148542686Y-104619500D01*
X148542683Y-104619502D01*
X148449502Y-104712683D01*
X148449500Y-104712686D01*
X148383608Y-104826812D01*
X148349500Y-104954108D01*
X148075501Y-104954108D01*
X148075501Y-98874108D01*
X157789500Y-98874108D01*
X157789500Y-99005891D01*
X157823608Y-99133187D01*
X157856554Y-99190250D01*
X157889500Y-99247314D01*
X157982686Y-99340500D01*
X158096814Y-99406392D01*
X158224108Y-99440500D01*
X158224110Y-99440500D01*
X158355890Y-99440500D01*
X158355892Y-99440500D01*
X158483186Y-99406392D01*
X158597314Y-99340500D01*
X158690500Y-99247314D01*
X158756392Y-99133186D01*
X158790500Y-99005892D01*
X158790500Y-98874108D01*
X158756392Y-98746814D01*
X158690500Y-98632686D01*
X158597314Y-98539500D01*
X158534418Y-98503187D01*
X158483187Y-98473608D01*
X158419539Y-98456554D01*
X158355892Y-98439500D01*
X158224108Y-98439500D01*
X158096812Y-98473608D01*
X157982686Y-98539500D01*
X157982683Y-98539502D01*
X157889502Y-98632683D01*
X157889500Y-98632686D01*
X157823608Y-98746812D01*
X157789500Y-98874108D01*
X148075501Y-98874108D01*
X148075501Y-94904108D01*
X151029500Y-94904108D01*
X151029500Y-95035891D01*
X151063608Y-95163187D01*
X151096554Y-95220250D01*
X151129500Y-95277314D01*
X151222686Y-95370500D01*
X151336814Y-95436392D01*
X151464108Y-95470500D01*
X151464110Y-95470500D01*
X151595890Y-95470500D01*
X151595892Y-95470500D01*
X151723186Y-95436392D01*
X151837314Y-95370500D01*
X151930500Y-95277314D01*
X151996392Y-95163186D01*
X152030500Y-95035892D01*
X152030500Y-94904108D01*
X153329500Y-94904108D01*
X153329500Y-95035891D01*
X153363608Y-95163187D01*
X153396554Y-95220250D01*
X153429500Y-95277314D01*
X153522686Y-95370500D01*
X153636814Y-95436392D01*
X153764108Y-95470500D01*
X153764110Y-95470500D01*
X153895890Y-95470500D01*
X153895892Y-95470500D01*
X154023186Y-95436392D01*
X154137314Y-95370500D01*
X154230500Y-95277314D01*
X154296392Y-95163186D01*
X154330500Y-95035892D01*
X154330500Y-94904108D01*
X154296392Y-94776814D01*
X154230500Y-94662686D01*
X154137314Y-94569500D01*
X154080250Y-94536554D01*
X154023187Y-94503608D01*
X153959539Y-94486554D01*
X153895892Y-94469500D01*
X153764108Y-94469500D01*
X153636812Y-94503608D01*
X153522686Y-94569500D01*
X153522683Y-94569502D01*
X153429502Y-94662683D01*
X153429500Y-94662686D01*
X153363608Y-94776812D01*
X153329500Y-94904108D01*
X152030500Y-94904108D01*
X151996392Y-94776814D01*
X151930500Y-94662686D01*
X151837314Y-94569500D01*
X151780250Y-94536554D01*
X151723187Y-94503608D01*
X151659539Y-94486554D01*
X151595892Y-94469500D01*
X151464108Y-94469500D01*
X151336812Y-94503608D01*
X151222686Y-94569500D01*
X151222683Y-94569502D01*
X151129502Y-94662683D01*
X151129500Y-94662686D01*
X151063608Y-94776812D01*
X151029500Y-94904108D01*
X148075501Y-94904108D01*
X148075501Y-93534108D01*
X159859500Y-93534108D01*
X159859500Y-93665891D01*
X159893608Y-93793187D01*
X159915151Y-93830499D01*
X159959500Y-93907314D01*
X159959502Y-93907316D01*
X159983481Y-93931295D01*
X160016966Y-93992618D01*
X160019800Y-94018976D01*
X160019800Y-97901024D01*
X160000115Y-97968063D01*
X159983481Y-97988705D01*
X159969502Y-98002683D01*
X159969500Y-98002686D01*
X159903608Y-98116812D01*
X159869500Y-98244108D01*
X159869500Y-98375891D01*
X159903608Y-98503187D01*
X159926021Y-98542007D01*
X159969500Y-98617314D01*
X160062686Y-98710500D01*
X160176814Y-98776392D01*
X160304108Y-98810500D01*
X160304110Y-98810500D01*
X160435890Y-98810500D01*
X160435892Y-98810500D01*
X160563186Y-98776392D01*
X160677314Y-98710500D01*
X160693194Y-98694619D01*
X160754514Y-98661134D01*
X160824206Y-98666117D01*
X160880140Y-98707987D01*
X160904559Y-98773451D01*
X160900650Y-98814392D01*
X160884650Y-98874106D01*
X160884650Y-99005891D01*
X160918758Y-99133187D01*
X160951704Y-99190250D01*
X160984650Y-99247314D01*
X161077836Y-99340500D01*
X161191964Y-99406392D01*
X161319258Y-99440500D01*
X161319260Y-99440500D01*
X161451040Y-99440500D01*
X161451042Y-99440500D01*
X161578336Y-99406392D01*
X161692464Y-99340500D01*
X161785650Y-99247314D01*
X161851542Y-99133186D01*
X161885650Y-99005892D01*
X161885650Y-98874108D01*
X161851542Y-98746814D01*
X161785650Y-98632686D01*
X161692464Y-98539500D01*
X161629568Y-98503187D01*
X161578337Y-98473608D01*
X161514689Y-98456554D01*
X161451042Y-98439500D01*
X161319258Y-98439500D01*
X161191962Y-98473608D01*
X161077836Y-98539500D01*
X161077832Y-98539503D01*
X161061953Y-98555382D01*
X161000629Y-98588866D01*
X160930938Y-98583880D01*
X160875005Y-98542007D01*
X160850590Y-98476542D01*
X160854498Y-98435611D01*
X160870500Y-98375892D01*
X160870500Y-98244108D01*
X160836392Y-98116814D01*
X160770500Y-98002686D01*
X160736519Y-97968705D01*
X160703034Y-97907382D01*
X160700200Y-97881024D01*
X160700200Y-97374108D01*
X166569500Y-97374108D01*
X166569500Y-97505891D01*
X166603608Y-97633187D01*
X166636554Y-97690250D01*
X166669500Y-97747314D01*
X166762686Y-97840500D01*
X166876814Y-97906392D01*
X167004108Y-97940500D01*
X167004110Y-97940500D01*
X167135890Y-97940500D01*
X167135892Y-97940500D01*
X167263186Y-97906392D01*
X167377314Y-97840500D01*
X167470500Y-97747314D01*
X167536392Y-97633186D01*
X167570500Y-97505892D01*
X167570500Y-97374108D01*
X167536392Y-97246814D01*
X167470500Y-97132686D01*
X167377314Y-97039500D01*
X167320250Y-97006554D01*
X167263187Y-96973608D01*
X167199539Y-96956554D01*
X167135892Y-96939500D01*
X167004108Y-96939500D01*
X166876812Y-96973608D01*
X166762686Y-97039500D01*
X166762683Y-97039502D01*
X166669502Y-97132683D01*
X166669500Y-97132686D01*
X166603608Y-97246812D01*
X166569500Y-97374108D01*
X160700200Y-97374108D01*
X160700200Y-94018976D01*
X160719885Y-93951937D01*
X160736519Y-93931295D01*
X160737315Y-93930499D01*
X160760500Y-93907314D01*
X160826392Y-93793186D01*
X160860500Y-93665892D01*
X160860500Y-93534108D01*
X160826392Y-93406814D01*
X160760500Y-93292686D01*
X160667314Y-93199500D01*
X160610250Y-93166554D01*
X160553187Y-93133608D01*
X160489539Y-93116554D01*
X160425892Y-93099500D01*
X160294108Y-93099500D01*
X160166812Y-93133608D01*
X160052686Y-93199500D01*
X160052683Y-93199502D01*
X159959502Y-93292683D01*
X159959500Y-93292686D01*
X159893608Y-93406812D01*
X159859500Y-93534108D01*
X148075501Y-93534108D01*
X148075501Y-92734108D01*
X160884650Y-92734108D01*
X160884650Y-92865891D01*
X160918758Y-92993187D01*
X160939724Y-93029500D01*
X160984650Y-93107314D01*
X161077836Y-93200500D01*
X161191964Y-93266392D01*
X161319258Y-93300500D01*
X161319260Y-93300500D01*
X161451040Y-93300500D01*
X161451042Y-93300500D01*
X161578336Y-93266392D01*
X161692464Y-93200500D01*
X161785650Y-93107314D01*
X161851542Y-92993186D01*
X161885650Y-92865892D01*
X161885650Y-92734108D01*
X161851542Y-92606814D01*
X161785650Y-92492686D01*
X161692464Y-92399500D01*
X161635400Y-92366554D01*
X161578337Y-92333608D01*
X161514689Y-92316554D01*
X161451042Y-92299500D01*
X161319258Y-92299500D01*
X161191962Y-92333608D01*
X161077836Y-92399500D01*
X161077833Y-92399502D01*
X160984652Y-92492683D01*
X160984650Y-92492686D01*
X160918758Y-92606812D01*
X160884650Y-92734108D01*
X148075501Y-92734108D01*
X148075501Y-91324108D01*
X161909500Y-91324108D01*
X161909500Y-91455891D01*
X161943608Y-91583187D01*
X161976554Y-91640250D01*
X162009500Y-91697314D01*
X162102686Y-91790500D01*
X162216814Y-91856392D01*
X162344108Y-91890500D01*
X162344110Y-91890500D01*
X162475890Y-91890500D01*
X162475892Y-91890500D01*
X162603186Y-91856392D01*
X162717314Y-91790500D01*
X162810500Y-91697314D01*
X162876392Y-91583186D01*
X162910500Y-91455892D01*
X162910500Y-91324108D01*
X162876392Y-91196814D01*
X162810500Y-91082686D01*
X162717314Y-90989500D01*
X162660250Y-90956554D01*
X162603187Y-90923608D01*
X162539539Y-90906554D01*
X162475892Y-90889500D01*
X162344108Y-90889500D01*
X162216812Y-90923608D01*
X162102686Y-90989500D01*
X162102683Y-90989502D01*
X162009502Y-91082683D01*
X162009500Y-91082686D01*
X161943608Y-91196812D01*
X161909500Y-91324108D01*
X148075501Y-91324108D01*
X148075501Y-89126375D01*
X148095186Y-89059336D01*
X148147990Y-89013581D01*
X148167413Y-89006599D01*
X148168186Y-89006392D01*
X148282314Y-88940500D01*
X148375500Y-88847314D01*
X148441392Y-88733186D01*
X148475500Y-88605892D01*
X148475500Y-88474108D01*
X148441392Y-88346814D01*
X148375500Y-88232686D01*
X148282314Y-88139500D01*
X148225250Y-88106554D01*
X148168187Y-88073608D01*
X148104539Y-88056554D01*
X148040892Y-88039500D01*
X147909108Y-88039500D01*
X147781812Y-88073608D01*
X147667686Y-88139500D01*
X147667683Y-88139502D01*
X147637681Y-88169505D01*
X147576358Y-88202990D01*
X147506666Y-88198006D01*
X147462319Y-88169505D01*
X147432316Y-88139502D01*
X147432314Y-88139500D01*
X147375250Y-88106554D01*
X147318187Y-88073608D01*
X147254539Y-88056554D01*
X147190892Y-88039500D01*
X147059108Y-88039500D01*
X146931812Y-88073608D01*
X146817686Y-88139500D01*
X146817683Y-88139502D01*
X146724502Y-88232683D01*
X146724500Y-88232686D01*
X146658608Y-88346812D01*
X146624500Y-88474108D01*
X145800200Y-88474108D01*
X145800200Y-87892278D01*
X145819885Y-87825239D01*
X145836519Y-87804597D01*
X146022228Y-87618888D01*
X146022228Y-87618887D01*
X146184598Y-87456516D01*
X146245919Y-87423034D01*
X146272277Y-87420200D01*
X150735212Y-87420200D01*
X153797722Y-87420200D01*
X153864761Y-87439885D01*
X153885402Y-87456518D01*
X155777772Y-89348888D01*
X156201112Y-89772228D01*
X156278688Y-89817016D01*
X156365212Y-89840200D01*
X156454788Y-89840200D01*
X161161024Y-89840200D01*
X161228063Y-89859885D01*
X161248705Y-89876519D01*
X161282686Y-89910500D01*
X161396814Y-89976392D01*
X161524108Y-90010500D01*
X161524110Y-90010500D01*
X161655890Y-90010500D01*
X161655892Y-90010500D01*
X161783186Y-89976392D01*
X161897314Y-89910500D01*
X161990500Y-89817314D01*
X162056392Y-89703186D01*
X162090500Y-89575892D01*
X162090500Y-89444108D01*
X162056392Y-89316814D01*
X161990500Y-89202686D01*
X161897314Y-89109500D01*
X161810428Y-89059336D01*
X161783187Y-89043608D01*
X161719539Y-89026554D01*
X161655892Y-89009500D01*
X161524108Y-89009500D01*
X161396812Y-89043608D01*
X161282686Y-89109500D01*
X161282683Y-89109502D01*
X161268705Y-89123481D01*
X161207382Y-89156966D01*
X161181024Y-89159800D01*
X156602278Y-89159800D01*
X156535239Y-89140115D01*
X156514597Y-89123481D01*
X154215224Y-86824108D01*
X158999500Y-86824108D01*
X158999500Y-86955892D01*
X159007061Y-86984110D01*
X159033608Y-87083187D01*
X159052490Y-87115891D01*
X159099500Y-87197314D01*
X159192686Y-87290500D01*
X159306814Y-87356392D01*
X159434108Y-87390500D01*
X159434110Y-87390500D01*
X159565890Y-87390500D01*
X159565892Y-87390500D01*
X159693186Y-87356392D01*
X159807314Y-87290500D01*
X159900500Y-87197314D01*
X159966392Y-87083186D01*
X159992940Y-86984108D01*
X167939500Y-86984108D01*
X167939500Y-87115892D01*
X167945363Y-87137772D01*
X167973608Y-87243187D01*
X168000923Y-87290497D01*
X168039500Y-87357314D01*
X168132686Y-87450500D01*
X168246814Y-87516392D01*
X168374108Y-87550500D01*
X168374110Y-87550500D01*
X168505890Y-87550500D01*
X168505892Y-87550500D01*
X168633186Y-87516392D01*
X168747314Y-87450500D01*
X168840500Y-87357314D01*
X168906392Y-87243186D01*
X168940500Y-87115892D01*
X168940500Y-86984108D01*
X168906392Y-86856814D01*
X168840500Y-86742686D01*
X168747314Y-86649500D01*
X168644578Y-86590185D01*
X168633187Y-86583608D01*
X168569539Y-86566554D01*
X168505892Y-86549500D01*
X168374108Y-86549500D01*
X168246812Y-86583608D01*
X168132686Y-86649500D01*
X168132683Y-86649502D01*
X168039502Y-86742683D01*
X168039500Y-86742686D01*
X167973608Y-86856812D01*
X167947061Y-86955890D01*
X167939500Y-86984108D01*
X159992940Y-86984108D01*
X160000500Y-86955892D01*
X160000500Y-86824108D01*
X159966392Y-86696814D01*
X159900500Y-86582686D01*
X159807314Y-86489500D01*
X159750250Y-86456554D01*
X159693187Y-86423608D01*
X159629539Y-86406554D01*
X159565892Y-86389500D01*
X159434108Y-86389500D01*
X159306812Y-86423608D01*
X159192686Y-86489500D01*
X159192683Y-86489502D01*
X159099502Y-86582683D01*
X159099500Y-86582686D01*
X159033608Y-86696812D01*
X159003878Y-86807770D01*
X158999500Y-86824108D01*
X154215224Y-86824108D01*
X154198890Y-86807774D01*
X154198888Y-86807772D01*
X154121313Y-86762984D01*
X154034788Y-86739800D01*
X150824788Y-86739800D01*
X146035212Y-86739800D01*
X145948688Y-86762984D01*
X145948687Y-86762984D01*
X145871113Y-86807770D01*
X145814841Y-86864043D01*
X145814840Y-86864042D01*
X145523670Y-87155213D01*
X145187774Y-87491109D01*
X145187770Y-87491115D01*
X145142983Y-87568686D01*
X145142984Y-87568686D01*
X145142984Y-87568687D01*
X145119800Y-87655212D01*
X145119800Y-111077722D01*
X145100115Y-111144761D01*
X145083481Y-111165403D01*
X144715703Y-111533181D01*
X144654380Y-111566666D01*
X144628022Y-111569500D01*
X144604108Y-111569500D01*
X144476812Y-111603608D01*
X144362686Y-111669500D01*
X144362683Y-111669502D01*
X144269502Y-111762683D01*
X144269500Y-111762686D01*
X144203608Y-111876812D01*
X144169500Y-112004108D01*
X129547200Y-112004108D01*
X129547200Y-108474108D01*
X142189500Y-108474108D01*
X142189500Y-108605891D01*
X142223608Y-108733187D01*
X142256554Y-108790250D01*
X142289500Y-108847314D01*
X142382686Y-108940500D01*
X142496814Y-109006392D01*
X142624108Y-109040500D01*
X142624110Y-109040500D01*
X142755890Y-109040500D01*
X142755892Y-109040500D01*
X142883186Y-109006392D01*
X142997314Y-108940500D01*
X143090500Y-108847314D01*
X143156392Y-108733186D01*
X143190500Y-108605892D01*
X143190500Y-108474108D01*
X143156392Y-108346814D01*
X143090500Y-108232686D01*
X142997314Y-108139500D01*
X142940250Y-108106554D01*
X142883187Y-108073608D01*
X142819539Y-108056554D01*
X142755892Y-108039500D01*
X142624108Y-108039500D01*
X142496812Y-108073608D01*
X142382686Y-108139500D01*
X142382683Y-108139502D01*
X142289502Y-108232683D01*
X142289500Y-108232686D01*
X142223608Y-108346812D01*
X142189500Y-108474108D01*
X129547200Y-108474108D01*
X129547200Y-106534108D01*
X143439500Y-106534108D01*
X143439500Y-106665891D01*
X143473608Y-106793187D01*
X143506554Y-106850250D01*
X143539500Y-106907314D01*
X143632686Y-107000500D01*
X143746814Y-107066392D01*
X143874108Y-107100500D01*
X143874110Y-107100500D01*
X144005890Y-107100500D01*
X144005892Y-107100500D01*
X144133186Y-107066392D01*
X144247314Y-107000500D01*
X144340500Y-106907314D01*
X144406392Y-106793186D01*
X144440500Y-106665892D01*
X144440500Y-106534108D01*
X144406392Y-106406814D01*
X144340500Y-106292686D01*
X144247314Y-106199500D01*
X144190250Y-106166554D01*
X144133187Y-106133608D01*
X144069539Y-106116554D01*
X144005892Y-106099500D01*
X143874108Y-106099500D01*
X143746812Y-106133608D01*
X143632686Y-106199500D01*
X143632683Y-106199502D01*
X143539502Y-106292683D01*
X143539500Y-106292686D01*
X143473608Y-106406812D01*
X143439500Y-106534108D01*
X129547200Y-106534108D01*
X129547200Y-99234108D01*
X133349500Y-99234108D01*
X133349500Y-99365891D01*
X133383608Y-99493187D01*
X133416554Y-99550250D01*
X133449500Y-99607314D01*
X133542686Y-99700500D01*
X133656814Y-99766392D01*
X133784108Y-99800500D01*
X133784110Y-99800500D01*
X133915890Y-99800500D01*
X133915892Y-99800500D01*
X134043186Y-99766392D01*
X134157314Y-99700500D01*
X134250500Y-99607314D01*
X134316392Y-99493186D01*
X134350500Y-99365892D01*
X134350500Y-99234108D01*
X142189500Y-99234108D01*
X142189500Y-99365891D01*
X142223608Y-99493187D01*
X142256554Y-99550250D01*
X142289500Y-99607314D01*
X142382686Y-99700500D01*
X142496814Y-99766392D01*
X142624108Y-99800500D01*
X142624110Y-99800500D01*
X142755890Y-99800500D01*
X142755892Y-99800500D01*
X142883186Y-99766392D01*
X142997314Y-99700500D01*
X143090500Y-99607314D01*
X143156392Y-99493186D01*
X143190500Y-99365892D01*
X143190500Y-99234108D01*
X143156392Y-99106814D01*
X143090500Y-98992686D01*
X142997314Y-98899500D01*
X142940250Y-98866554D01*
X142883187Y-98833608D01*
X142796941Y-98810499D01*
X142755892Y-98799500D01*
X142624108Y-98799500D01*
X142496812Y-98833608D01*
X142382686Y-98899500D01*
X142382683Y-98899502D01*
X142289502Y-98992683D01*
X142289500Y-98992686D01*
X142223608Y-99106812D01*
X142189500Y-99234108D01*
X134350500Y-99234108D01*
X134316392Y-99106814D01*
X134250500Y-98992686D01*
X134157314Y-98899500D01*
X134100250Y-98866554D01*
X134043187Y-98833608D01*
X133956941Y-98810499D01*
X133915892Y-98799500D01*
X133784108Y-98799500D01*
X133656812Y-98833608D01*
X133542686Y-98899500D01*
X133542683Y-98899502D01*
X133449502Y-98992683D01*
X133449500Y-98992686D01*
X133383608Y-99106812D01*
X133349500Y-99234108D01*
X129547200Y-99234108D01*
X129547200Y-93364108D01*
X143439500Y-93364108D01*
X143439500Y-93495891D01*
X143473608Y-93623187D01*
X143498263Y-93665890D01*
X143539500Y-93737314D01*
X143632686Y-93830500D01*
X143746814Y-93896392D01*
X143874108Y-93930500D01*
X143874110Y-93930500D01*
X144005890Y-93930500D01*
X144005892Y-93930500D01*
X144133186Y-93896392D01*
X144247314Y-93830500D01*
X144340500Y-93737314D01*
X144406392Y-93623186D01*
X144440500Y-93495892D01*
X144440500Y-93364108D01*
X144406392Y-93236814D01*
X144340500Y-93122686D01*
X144247314Y-93029500D01*
X144184418Y-92993187D01*
X144133187Y-92963608D01*
X144069539Y-92946554D01*
X144005892Y-92929500D01*
X143874108Y-92929500D01*
X143746812Y-92963608D01*
X143632686Y-93029500D01*
X143632683Y-93029502D01*
X143539502Y-93122683D01*
X143539500Y-93122686D01*
X143473608Y-93236812D01*
X143439500Y-93364108D01*
X129547200Y-93364108D01*
X129547200Y-91324108D01*
X139049500Y-91324108D01*
X139049500Y-91455891D01*
X139083608Y-91583187D01*
X139116554Y-91640250D01*
X139149500Y-91697314D01*
X139242686Y-91790500D01*
X139356814Y-91856392D01*
X139484108Y-91890500D01*
X139484110Y-91890500D01*
X139615890Y-91890500D01*
X139615892Y-91890500D01*
X139743186Y-91856392D01*
X139857314Y-91790500D01*
X139950500Y-91697314D01*
X140016392Y-91583186D01*
X140050500Y-91455892D01*
X140050500Y-91324108D01*
X140016392Y-91196814D01*
X139950500Y-91082686D01*
X139857314Y-90989500D01*
X139800250Y-90956554D01*
X139743187Y-90923608D01*
X139679539Y-90906554D01*
X139615892Y-90889500D01*
X139484108Y-90889500D01*
X139356812Y-90923608D01*
X139242686Y-90989500D01*
X139242683Y-90989502D01*
X139149502Y-91082683D01*
X139149500Y-91082686D01*
X139083608Y-91196812D01*
X139049500Y-91324108D01*
X129547200Y-91324108D01*
X129547200Y-86004108D01*
X134939500Y-86004108D01*
X134939500Y-86135891D01*
X134973608Y-86263187D01*
X135004684Y-86317011D01*
X135039500Y-86377314D01*
X135132686Y-86470500D01*
X135246814Y-86536392D01*
X135374108Y-86570500D01*
X135374110Y-86570500D01*
X135485854Y-86570500D01*
X135552893Y-86590185D01*
X135598648Y-86642989D01*
X135608592Y-86712147D01*
X135605629Y-86726590D01*
X135579500Y-86824108D01*
X135579500Y-86955892D01*
X135587061Y-86984110D01*
X135613608Y-87083187D01*
X135632490Y-87115891D01*
X135679500Y-87197314D01*
X135772686Y-87290500D01*
X135886814Y-87356392D01*
X136014108Y-87390500D01*
X136014110Y-87390500D01*
X136145890Y-87390500D01*
X136145892Y-87390500D01*
X136273186Y-87356392D01*
X136387314Y-87290500D01*
X136480500Y-87197314D01*
X136546392Y-87083186D01*
X136580500Y-86955892D01*
X136580500Y-86824108D01*
X136546392Y-86696814D01*
X136480500Y-86582686D01*
X136387314Y-86489500D01*
X136330250Y-86456554D01*
X136273187Y-86423608D01*
X136209539Y-86406554D01*
X136145892Y-86389500D01*
X136034146Y-86389500D01*
X135967107Y-86369815D01*
X135921352Y-86317011D01*
X135911408Y-86247853D01*
X135914371Y-86233407D01*
X135940500Y-86135892D01*
X135940500Y-86004108D01*
X135906392Y-85876814D01*
X135840500Y-85762686D01*
X135747314Y-85669500D01*
X135690250Y-85636554D01*
X135633187Y-85603608D01*
X135537006Y-85577837D01*
X135505892Y-85569500D01*
X135374108Y-85569500D01*
X135246812Y-85603608D01*
X135132686Y-85669500D01*
X135132683Y-85669502D01*
X135039502Y-85762683D01*
X135039500Y-85762686D01*
X134973608Y-85876812D01*
X134939500Y-86004108D01*
X129547200Y-86004108D01*
X129547200Y-75724108D01*
X136249500Y-75724108D01*
X136249500Y-75855892D01*
X136265711Y-75916391D01*
X136283608Y-75983187D01*
X136316554Y-76040250D01*
X136349500Y-76097314D01*
X136442686Y-76190500D01*
X136556814Y-76256392D01*
X136684108Y-76290500D01*
X136684110Y-76290500D01*
X136815890Y-76290500D01*
X136815892Y-76290500D01*
X136943186Y-76256392D01*
X137057314Y-76190500D01*
X137150500Y-76097314D01*
X137216392Y-75983186D01*
X137250500Y-75855892D01*
X137250500Y-75724108D01*
X137216392Y-75596814D01*
X137150500Y-75482686D01*
X137057314Y-75389500D01*
X136996013Y-75354108D01*
X136943187Y-75323608D01*
X136844304Y-75297113D01*
X136815892Y-75289500D01*
X136684108Y-75289500D01*
X136556812Y-75323608D01*
X136442686Y-75389500D01*
X136442683Y-75389502D01*
X136349502Y-75482683D01*
X136349500Y-75482686D01*
X136283608Y-75596812D01*
X136267644Y-75656392D01*
X136249500Y-75724108D01*
X129547200Y-75724108D01*
X129547200Y-74764108D01*
X137109500Y-74764108D01*
X137109500Y-74895892D01*
X137123864Y-74949500D01*
X137143608Y-75023187D01*
X137169518Y-75068063D01*
X137209500Y-75137314D01*
X137302686Y-75230500D01*
X137416814Y-75296392D01*
X137544108Y-75330500D01*
X137544110Y-75330500D01*
X137675890Y-75330500D01*
X137675892Y-75330500D01*
X137803186Y-75296392D01*
X137917314Y-75230500D01*
X138010500Y-75137314D01*
X138076392Y-75023186D01*
X138110500Y-74895892D01*
X138110500Y-74764108D01*
X138076392Y-74636814D01*
X138068767Y-74623608D01*
X138049075Y-74589500D01*
X138010500Y-74522686D01*
X137917314Y-74429500D01*
X137836225Y-74382683D01*
X137803187Y-74363608D01*
X137739539Y-74346554D01*
X137675892Y-74329500D01*
X137544108Y-74329500D01*
X137416812Y-74363608D01*
X137302686Y-74429500D01*
X137302683Y-74429502D01*
X137209502Y-74522683D01*
X137209500Y-74522686D01*
X137143608Y-74636812D01*
X137129491Y-74689500D01*
X137109500Y-74764108D01*
X129547200Y-74764108D01*
X129547200Y-73534108D01*
X130119500Y-73534108D01*
X130119500Y-73665891D01*
X130153608Y-73793187D01*
X130186554Y-73850250D01*
X130219500Y-73907314D01*
X130312686Y-74000500D01*
X130426814Y-74066392D01*
X130554108Y-74100500D01*
X130554110Y-74100500D01*
X130685890Y-74100500D01*
X130685892Y-74100500D01*
X130813186Y-74066392D01*
X130927314Y-74000500D01*
X131020500Y-73907314D01*
X131086392Y-73793186D01*
X131120500Y-73665892D01*
X131120500Y-73534108D01*
X131086392Y-73406814D01*
X131020500Y-73292686D01*
X130927314Y-73199500D01*
X130847500Y-73153419D01*
X130813187Y-73133608D01*
X130749539Y-73116554D01*
X130685892Y-73099500D01*
X130554108Y-73099500D01*
X130426812Y-73133608D01*
X130312686Y-73199500D01*
X130312683Y-73199502D01*
X130219502Y-73292683D01*
X130219500Y-73292686D01*
X130153608Y-73406812D01*
X130119500Y-73534108D01*
X129547200Y-73534108D01*
X129547200Y-72938494D01*
X129547200Y-72938492D01*
X129515361Y-72819668D01*
X129515361Y-72819667D01*
X129453853Y-72713133D01*
X129384828Y-72644108D01*
X134239500Y-72644108D01*
X134239500Y-72775892D01*
X134256554Y-72839539D01*
X134273608Y-72903187D01*
X134279563Y-72913501D01*
X134339500Y-73017314D01*
X134432686Y-73110500D01*
X134546814Y-73176392D01*
X134674108Y-73210500D01*
X134674110Y-73210500D01*
X134805890Y-73210500D01*
X134805892Y-73210500D01*
X134933186Y-73176392D01*
X135047314Y-73110500D01*
X135140500Y-73017314D01*
X135206392Y-72903186D01*
X135240500Y-72775892D01*
X135240500Y-72644108D01*
X135206392Y-72516814D01*
X135140500Y-72402686D01*
X135047314Y-72309500D01*
X134941838Y-72248603D01*
X134933187Y-72243608D01*
X134869539Y-72226554D01*
X134805892Y-72209500D01*
X134674108Y-72209500D01*
X134546812Y-72243608D01*
X134432686Y-72309500D01*
X134432683Y-72309502D01*
X134339502Y-72402683D01*
X134339500Y-72402686D01*
X134273608Y-72516812D01*
X134247538Y-72614108D01*
X134239500Y-72644108D01*
X129384828Y-72644108D01*
X128458033Y-71717313D01*
X127409864Y-70669143D01*
X127376379Y-70607820D01*
X127375928Y-70557271D01*
X127396809Y-70452294D01*
X127410500Y-70383465D01*
X127410500Y-70176535D01*
X127410499Y-70176530D01*
X127849500Y-70176530D01*
X127849500Y-70383469D01*
X127889868Y-70586412D01*
X127889870Y-70586420D01*
X127947873Y-70726452D01*
X127969059Y-70777598D01*
X128007861Y-70835670D01*
X128084024Y-70949657D01*
X128230342Y-71095975D01*
X128230345Y-71095977D01*
X128402402Y-71210941D01*
X128593580Y-71290130D01*
X128750741Y-71321391D01*
X128796530Y-71330499D01*
X128796534Y-71330500D01*
X128796535Y-71330500D01*
X129003466Y-71330500D01*
X129003467Y-71330499D01*
X129206420Y-71290130D01*
X129397598Y-71210941D01*
X129569655Y-71095977D01*
X129715977Y-70949655D01*
X129830941Y-70777598D01*
X129910130Y-70586420D01*
X129950500Y-70383465D01*
X129950500Y-70176535D01*
X129910130Y-69973580D01*
X129830941Y-69782402D01*
X129715977Y-69610345D01*
X129715975Y-69610342D01*
X129569657Y-69464024D01*
X129483626Y-69406541D01*
X129397598Y-69349059D01*
X129206420Y-69269870D01*
X129206412Y-69269868D01*
X129003469Y-69229500D01*
X129003465Y-69229500D01*
X128796535Y-69229500D01*
X128796530Y-69229500D01*
X128593587Y-69269868D01*
X128593579Y-69269870D01*
X128402403Y-69349058D01*
X128230342Y-69464024D01*
X128084024Y-69610342D01*
X127969058Y-69782403D01*
X127889870Y-69973579D01*
X127889868Y-69973587D01*
X127849500Y-70176530D01*
X127410499Y-70176530D01*
X127370130Y-69973580D01*
X127290941Y-69782402D01*
X127175977Y-69610345D01*
X127175975Y-69610342D01*
X127029657Y-69464024D01*
X126943626Y-69406541D01*
X126857598Y-69349059D01*
X126666420Y-69269870D01*
X126666412Y-69269868D01*
X126463469Y-69229500D01*
X126463465Y-69229500D01*
X126256535Y-69229500D01*
X126256530Y-69229500D01*
X126053587Y-69269868D01*
X126053579Y-69269870D01*
X125862403Y-69349058D01*
X125690342Y-69464024D01*
X125544024Y-69610342D01*
X125429058Y-69782403D01*
X125349870Y-69973579D01*
X125349868Y-69973587D01*
X125309500Y-70176530D01*
X125309500Y-70383469D01*
X125349868Y-70586412D01*
X125349870Y-70586420D01*
X125407873Y-70726452D01*
X125429059Y-70777598D01*
X125467861Y-70835670D01*
X125544024Y-70949657D01*
X125690342Y-71095975D01*
X125690345Y-71095977D01*
X125862402Y-71210941D01*
X126053580Y-71290130D01*
X126210741Y-71321391D01*
X126256530Y-71330499D01*
X126256534Y-71330500D01*
X126256535Y-71330500D01*
X126463466Y-71330500D01*
X126463466Y-71330499D01*
X126637271Y-71295928D01*
X126706862Y-71302155D01*
X126749143Y-71329864D01*
X128576481Y-73157201D01*
X128609966Y-73218524D01*
X128612800Y-73244882D01*
X128612800Y-132748492D01*
X128612800Y-132871508D01*
X128644639Y-132990333D01*
X128706147Y-133096868D01*
X132073132Y-136463853D01*
X132073133Y-136463854D01*
X132073135Y-136463855D01*
X132080510Y-136468113D01*
X132128725Y-136518679D01*
X132141949Y-136587286D01*
X132115981Y-136652151D01*
X132059067Y-136692680D01*
X132018510Y-136699500D01*
X125134500Y-136699500D01*
X125067461Y-136679815D01*
X125021706Y-136627011D01*
X125010500Y-136575500D01*
X125010500Y-111103968D01*
X125030185Y-111036929D01*
X125082989Y-110991174D01*
X125152147Y-110981230D01*
X125196499Y-110996580D01*
X125230814Y-111016392D01*
X125358108Y-111050500D01*
X125358110Y-111050500D01*
X125489890Y-111050500D01*
X125489892Y-111050500D01*
X125617186Y-111016392D01*
X125731314Y-110950500D01*
X125824500Y-110857314D01*
X125890392Y-110743186D01*
X125924500Y-110615892D01*
X125924500Y-110484108D01*
X125890392Y-110356814D01*
X125824500Y-110242686D01*
X125731314Y-110149500D01*
X125651500Y-110103419D01*
X125617187Y-110083608D01*
X125553539Y-110066554D01*
X125489892Y-110049500D01*
X125358108Y-110049500D01*
X125230811Y-110083608D01*
X125196499Y-110103419D01*
X125128599Y-110119890D01*
X125062572Y-110097038D01*
X125019382Y-110042116D01*
X125010500Y-109996031D01*
X125010500Y-93364108D01*
X125499500Y-93364108D01*
X125499500Y-93495891D01*
X125533608Y-93623187D01*
X125558263Y-93665890D01*
X125599500Y-93737314D01*
X125692686Y-93830500D01*
X125806814Y-93896392D01*
X125934108Y-93930500D01*
X125934110Y-93930500D01*
X126065890Y-93930500D01*
X126065892Y-93930500D01*
X126193186Y-93896392D01*
X126307314Y-93830500D01*
X126400500Y-93737314D01*
X126466392Y-93623186D01*
X126500500Y-93495892D01*
X126500500Y-93364108D01*
X126466392Y-93236814D01*
X126400500Y-93122686D01*
X126307314Y-93029500D01*
X126244418Y-92993187D01*
X126193187Y-92963608D01*
X126129539Y-92946554D01*
X126065892Y-92929500D01*
X125934108Y-92929500D01*
X125806812Y-92963608D01*
X125692686Y-93029500D01*
X125692683Y-93029502D01*
X125599502Y-93122683D01*
X125599500Y-93122686D01*
X125533608Y-93236812D01*
X125499500Y-93364108D01*
X125010500Y-93364108D01*
X125010500Y-74153968D01*
X125030185Y-74086929D01*
X125082989Y-74041174D01*
X125152147Y-74031230D01*
X125196499Y-74046580D01*
X125230814Y-74066392D01*
X125358108Y-74100500D01*
X125358110Y-74100500D01*
X125489890Y-74100500D01*
X125489892Y-74100500D01*
X125617186Y-74066392D01*
X125731314Y-74000500D01*
X125824500Y-73907314D01*
X125890392Y-73793186D01*
X125924500Y-73665892D01*
X125924500Y-73534108D01*
X125890392Y-73406814D01*
X125884437Y-73396499D01*
X125867965Y-73328599D01*
X125890818Y-73262572D01*
X125945740Y-73219382D01*
X125991825Y-73210500D01*
X126065890Y-73210500D01*
X126065892Y-73210500D01*
X126193186Y-73176392D01*
X126307314Y-73110500D01*
X126400500Y-73017314D01*
X126466392Y-72903186D01*
X126500500Y-72775892D01*
X126500500Y-72644108D01*
X126466392Y-72516814D01*
X126400500Y-72402686D01*
X126307314Y-72309500D01*
X126201838Y-72248603D01*
X126193187Y-72243608D01*
X126129539Y-72226554D01*
X126065892Y-72209500D01*
X125934108Y-72209500D01*
X125806812Y-72243608D01*
X125692686Y-72309500D01*
X125692683Y-72309502D01*
X125599502Y-72402683D01*
X125599500Y-72402686D01*
X125533608Y-72516812D01*
X125507538Y-72614108D01*
X125499500Y-72644108D01*
X125499500Y-72775892D01*
X125516554Y-72839539D01*
X125533608Y-72903187D01*
X125539563Y-72913501D01*
X125556035Y-72981401D01*
X125533182Y-73047428D01*
X125478260Y-73090618D01*
X125432175Y-73099500D01*
X125358108Y-73099500D01*
X125230811Y-73133608D01*
X125196499Y-73153419D01*
X125128599Y-73169890D01*
X125062572Y-73147038D01*
X125019382Y-73092116D01*
X125010500Y-73046031D01*
X125010500Y-67636530D01*
X125309500Y-67636530D01*
X125309500Y-67843469D01*
X125349868Y-68046412D01*
X125349870Y-68046420D01*
X125429058Y-68237596D01*
X125544024Y-68409657D01*
X125690342Y-68555975D01*
X125690345Y-68555977D01*
X125862402Y-68670941D01*
X126053580Y-68750130D01*
X126256530Y-68790499D01*
X126256534Y-68790500D01*
X126256535Y-68790500D01*
X126463466Y-68790500D01*
X126463467Y-68790499D01*
X126666420Y-68750130D01*
X126857598Y-68670941D01*
X127029655Y-68555977D01*
X127175977Y-68409655D01*
X127290941Y-68237598D01*
X127370130Y-68046420D01*
X127410500Y-67843465D01*
X127410500Y-67636535D01*
X127410499Y-67636530D01*
X127849500Y-67636530D01*
X127849500Y-67843469D01*
X127889868Y-68046412D01*
X127889870Y-68046420D01*
X127969058Y-68237596D01*
X128084024Y-68409657D01*
X128230342Y-68555975D01*
X128230345Y-68555977D01*
X128402402Y-68670941D01*
X128593580Y-68750130D01*
X128796530Y-68790499D01*
X128796534Y-68790500D01*
X128796535Y-68790500D01*
X129003466Y-68790500D01*
X129003467Y-68790499D01*
X129206420Y-68750130D01*
X129397598Y-68670941D01*
X129569655Y-68555977D01*
X129606524Y-68519108D01*
X130809500Y-68519108D01*
X130809500Y-68650891D01*
X130843608Y-68778187D01*
X130876554Y-68835250D01*
X130909500Y-68892314D01*
X130909502Y-68892316D01*
X130939505Y-68922319D01*
X130972990Y-68983642D01*
X130968006Y-69053334D01*
X130939505Y-69097681D01*
X130909502Y-69127683D01*
X130909500Y-69127686D01*
X130843608Y-69241812D01*
X130809500Y-69369108D01*
X130809500Y-69500891D01*
X130843608Y-69628187D01*
X130871876Y-69677148D01*
X130909500Y-69742314D01*
X131002686Y-69835500D01*
X131101521Y-69892563D01*
X131114418Y-69900009D01*
X131116814Y-69901392D01*
X131244108Y-69935500D01*
X131244110Y-69935500D01*
X131375890Y-69935500D01*
X131375892Y-69935500D01*
X131503186Y-69901392D01*
X131617314Y-69835500D01*
X131617819Y-69834995D01*
X131618346Y-69834706D01*
X131623760Y-69830553D01*
X131624407Y-69831397D01*
X131679142Y-69801510D01*
X131748834Y-69806494D01*
X131804767Y-69848366D01*
X131829184Y-69913830D01*
X131829500Y-69922676D01*
X131829500Y-69965891D01*
X131863608Y-70093187D01*
X131896554Y-70150250D01*
X131929500Y-70207314D01*
X132022686Y-70300500D01*
X132136814Y-70366392D01*
X132264108Y-70400500D01*
X132264110Y-70400500D01*
X132395890Y-70400500D01*
X132395892Y-70400500D01*
X132523186Y-70366392D01*
X132637314Y-70300500D01*
X132730500Y-70207314D01*
X132796392Y-70093186D01*
X132830500Y-69965892D01*
X132830500Y-69834108D01*
X132796392Y-69706814D01*
X132796391Y-69706812D01*
X132794288Y-69698963D01*
X132795553Y-69698623D01*
X132788982Y-69637480D01*
X132820259Y-69575002D01*
X132880350Y-69539352D01*
X132911011Y-69535501D01*
X133268989Y-69535501D01*
X133336028Y-69555186D01*
X133381783Y-69607990D01*
X133391727Y-69677148D01*
X133384420Y-69703782D01*
X133349500Y-69834108D01*
X133349500Y-69965891D01*
X133383608Y-70093187D01*
X133416554Y-70150250D01*
X133449500Y-70207314D01*
X133542686Y-70300500D01*
X133656814Y-70366392D01*
X133784108Y-70400500D01*
X133784110Y-70400500D01*
X133915890Y-70400500D01*
X133915892Y-70400500D01*
X134043186Y-70366392D01*
X134157314Y-70300500D01*
X134250500Y-70207314D01*
X134316392Y-70093186D01*
X134343987Y-69990196D01*
X134380350Y-69930539D01*
X134443197Y-69900009D01*
X134512573Y-69908303D01*
X134551442Y-69934611D01*
X135136111Y-70519280D01*
X135169596Y-70580603D01*
X135164612Y-70650295D01*
X135122740Y-70706228D01*
X135057276Y-70730645D01*
X134989003Y-70715793D01*
X134986430Y-70714348D01*
X134933189Y-70683609D01*
X134933186Y-70683608D01*
X134805892Y-70649500D01*
X134674108Y-70649500D01*
X134546812Y-70683608D01*
X134432686Y-70749500D01*
X134432683Y-70749502D01*
X134339502Y-70842683D01*
X134339500Y-70842686D01*
X134273608Y-70956812D01*
X134239500Y-71084108D01*
X134239500Y-71215891D01*
X134273608Y-71343187D01*
X134274140Y-71344108D01*
X134339500Y-71457314D01*
X134432686Y-71550500D01*
X134546814Y-71616392D01*
X134674108Y-71650500D01*
X134674110Y-71650500D01*
X134805890Y-71650500D01*
X134805892Y-71650500D01*
X134933186Y-71616392D01*
X135047314Y-71550500D01*
X135140500Y-71457314D01*
X135206392Y-71343186D01*
X135240500Y-71215892D01*
X135240500Y-71084108D01*
X135206392Y-70956814D01*
X135175650Y-70903568D01*
X135159178Y-70835670D01*
X135182030Y-70769643D01*
X135236951Y-70726452D01*
X135306504Y-70719810D01*
X135368607Y-70751825D01*
X135370719Y-70753888D01*
X138493181Y-73876350D01*
X138526666Y-73937673D01*
X138529500Y-73964031D01*
X138529500Y-82767760D01*
X138531307Y-82774502D01*
X138549979Y-82844186D01*
X138549980Y-82844190D01*
X138556733Y-82855887D01*
X138556736Y-82855890D01*
X138556737Y-82855892D01*
X138589540Y-82912709D01*
X142052291Y-86375460D01*
X142111631Y-86409720D01*
X142120810Y-86415020D01*
X142120814Y-86415022D01*
X142197240Y-86435500D01*
X142197242Y-86435500D01*
X143632758Y-86435500D01*
X143632760Y-86435500D01*
X143709187Y-86415021D01*
X143777709Y-86375460D01*
X143833658Y-86319511D01*
X143833657Y-86319511D01*
X144149059Y-86004108D01*
X164369500Y-86004108D01*
X164369500Y-86135891D01*
X164403608Y-86263187D01*
X164434684Y-86317011D01*
X164469500Y-86377314D01*
X164562686Y-86470500D01*
X164676814Y-86536392D01*
X164804108Y-86570500D01*
X164804110Y-86570500D01*
X164935890Y-86570500D01*
X164935892Y-86570500D01*
X165063186Y-86536392D01*
X165177314Y-86470500D01*
X165270500Y-86377314D01*
X165336392Y-86263186D01*
X165370500Y-86135892D01*
X165370500Y-86004108D01*
X165336392Y-85876814D01*
X165270500Y-85762686D01*
X165177314Y-85669500D01*
X165120250Y-85636554D01*
X165063187Y-85603608D01*
X164967006Y-85577837D01*
X164935892Y-85569500D01*
X164804108Y-85569500D01*
X164676812Y-85603608D01*
X164562686Y-85669500D01*
X164562683Y-85669502D01*
X164469502Y-85762683D01*
X164469500Y-85762686D01*
X164403608Y-85876812D01*
X164369500Y-86004108D01*
X144149059Y-86004108D01*
X144396955Y-85756212D01*
X144458276Y-85722729D01*
X144527968Y-85727713D01*
X144546638Y-85736510D01*
X144547335Y-85736913D01*
X144674629Y-85771021D01*
X144674631Y-85771021D01*
X144806411Y-85771021D01*
X144806413Y-85771021D01*
X144933707Y-85736913D01*
X145047835Y-85671021D01*
X145141021Y-85577835D01*
X145206913Y-85463707D01*
X145241021Y-85336413D01*
X145241021Y-85204629D01*
X145206913Y-85077335D01*
X145194532Y-85055891D01*
X145149552Y-84977983D01*
X145149551Y-84977982D01*
X145141021Y-84963207D01*
X145101922Y-84924108D01*
X165519500Y-84924108D01*
X165519500Y-85055891D01*
X165553608Y-85183187D01*
X165565988Y-85204629D01*
X165619500Y-85297314D01*
X165712686Y-85390500D01*
X165826814Y-85456392D01*
X165954108Y-85490500D01*
X165954110Y-85490500D01*
X166085890Y-85490500D01*
X166085892Y-85490500D01*
X166213186Y-85456392D01*
X166327314Y-85390500D01*
X166420500Y-85297314D01*
X166486392Y-85183186D01*
X166520500Y-85055892D01*
X166520500Y-84924108D01*
X166486392Y-84796814D01*
X166420500Y-84682686D01*
X166327314Y-84589500D01*
X166270250Y-84556554D01*
X166213187Y-84523608D01*
X166149539Y-84506554D01*
X166085892Y-84489500D01*
X165954108Y-84489500D01*
X165826812Y-84523608D01*
X165712686Y-84589500D01*
X165712683Y-84589502D01*
X165619502Y-84682683D01*
X165619500Y-84682686D01*
X165553608Y-84796812D01*
X165519500Y-84924108D01*
X145101922Y-84924108D01*
X145047835Y-84870021D01*
X144990771Y-84837075D01*
X144933708Y-84804129D01*
X144853743Y-84782703D01*
X144806413Y-84770021D01*
X144763979Y-84770021D01*
X144696940Y-84750336D01*
X144651185Y-84697532D01*
X144639979Y-84646021D01*
X144639979Y-84603589D01*
X144639979Y-84603587D01*
X144605871Y-84476293D01*
X144539979Y-84362165D01*
X144446793Y-84268979D01*
X144358819Y-84218187D01*
X144332666Y-84203087D01*
X144269018Y-84186033D01*
X144205371Y-84168979D01*
X144073587Y-84168979D01*
X143946291Y-84203087D01*
X143832165Y-84268979D01*
X143832162Y-84268981D01*
X143738981Y-84362162D01*
X143738979Y-84362165D01*
X143673087Y-84476291D01*
X143669041Y-84491392D01*
X143638979Y-84603587D01*
X143638979Y-84735371D01*
X143657403Y-84804129D01*
X143673087Y-84862664D01*
X143673090Y-84862671D01*
X143673491Y-84863366D01*
X143673651Y-84864025D01*
X143676198Y-84870175D01*
X143675238Y-84870572D01*
X143689961Y-84931267D01*
X143667107Y-84997293D01*
X143653784Y-85013043D01*
X143318650Y-85348181D01*
X143257327Y-85381666D01*
X143230968Y-85384500D01*
X142599031Y-85384500D01*
X142531992Y-85364815D01*
X142511350Y-85348181D01*
X139616819Y-82453650D01*
X139583334Y-82392327D01*
X139580500Y-82365969D01*
X139580500Y-73562241D01*
X139560020Y-73485811D01*
X139560017Y-73485806D01*
X139520464Y-73417297D01*
X139520458Y-73417289D01*
X139464511Y-73361342D01*
X134647711Y-68544541D01*
X134647708Y-68544539D01*
X134637865Y-68538856D01*
X134637864Y-68538855D01*
X134579188Y-68504979D01*
X134579187Y-68504978D01*
X134553710Y-68498151D01*
X134502759Y-68484499D01*
X134502757Y-68484499D01*
X131896375Y-68484499D01*
X131829336Y-68464814D01*
X131783581Y-68412010D01*
X131776600Y-68392591D01*
X131776392Y-68391814D01*
X131710500Y-68277686D01*
X131617314Y-68184500D01*
X131560250Y-68151554D01*
X131503187Y-68118608D01*
X131439539Y-68101554D01*
X131375892Y-68084500D01*
X131244108Y-68084500D01*
X131116812Y-68118608D01*
X131002686Y-68184500D01*
X131002683Y-68184502D01*
X130909502Y-68277683D01*
X130909500Y-68277686D01*
X130843608Y-68391812D01*
X130809500Y-68519108D01*
X129606524Y-68519108D01*
X129620654Y-68504978D01*
X129702333Y-68423300D01*
X129715974Y-68409658D01*
X129715975Y-68409657D01*
X129715977Y-68409655D01*
X129830941Y-68237598D01*
X129910130Y-68046420D01*
X129950500Y-67843465D01*
X129950500Y-67636535D01*
X129910130Y-67433580D01*
X129830941Y-67242402D01*
X129715977Y-67070345D01*
X129715975Y-67070342D01*
X129569657Y-66924024D01*
X129483626Y-66866541D01*
X129397598Y-66809059D01*
X129384438Y-66803608D01*
X129206420Y-66729870D01*
X129206412Y-66729868D01*
X129003469Y-66689500D01*
X129003465Y-66689500D01*
X128796535Y-66689500D01*
X128796530Y-66689500D01*
X128593587Y-66729868D01*
X128593579Y-66729870D01*
X128402403Y-66809058D01*
X128230342Y-66924024D01*
X128084024Y-67070342D01*
X127969058Y-67242403D01*
X127889870Y-67433579D01*
X127889868Y-67433587D01*
X127849500Y-67636530D01*
X127410499Y-67636530D01*
X127370130Y-67433580D01*
X127290941Y-67242402D01*
X127175977Y-67070345D01*
X127175975Y-67070342D01*
X127029657Y-66924024D01*
X126943626Y-66866541D01*
X126857598Y-66809059D01*
X126844438Y-66803608D01*
X126666420Y-66729870D01*
X126666412Y-66729868D01*
X126463469Y-66689500D01*
X126463465Y-66689500D01*
X126256535Y-66689500D01*
X126256530Y-66689500D01*
X126053587Y-66729868D01*
X126053579Y-66729870D01*
X125862403Y-66809058D01*
X125690342Y-66924024D01*
X125544024Y-67070342D01*
X125429058Y-67242403D01*
X125349870Y-67433579D01*
X125349868Y-67433587D01*
X125309500Y-67636530D01*
X125010500Y-67636530D01*
X125010500Y-65096530D01*
X127849500Y-65096530D01*
X127849500Y-65303469D01*
X127885148Y-65482683D01*
X127889870Y-65506420D01*
X127969059Y-65697598D01*
X127994646Y-65735892D01*
X128084024Y-65869657D01*
X128230342Y-66015975D01*
X128230345Y-66015977D01*
X128402402Y-66130941D01*
X128593580Y-66210130D01*
X128796530Y-66250499D01*
X128796534Y-66250500D01*
X128796535Y-66250500D01*
X129003466Y-66250500D01*
X129003467Y-66250499D01*
X129206420Y-66210130D01*
X129397598Y-66130941D01*
X129569655Y-66015977D01*
X129715977Y-65869655D01*
X129830941Y-65697598D01*
X129869666Y-65604108D01*
X131139500Y-65604108D01*
X131139500Y-65735891D01*
X131173608Y-65863187D01*
X131177344Y-65869657D01*
X131239500Y-65977314D01*
X131239502Y-65977316D01*
X131269505Y-66007319D01*
X131302990Y-66068642D01*
X131298006Y-66138334D01*
X131269505Y-66182681D01*
X131239502Y-66212683D01*
X131239500Y-66212686D01*
X131173608Y-66326812D01*
X131142179Y-66444108D01*
X131139500Y-66454108D01*
X131139500Y-66585892D01*
X131154048Y-66640186D01*
X131173608Y-66713187D01*
X131206121Y-66769500D01*
X131239500Y-66827314D01*
X131332686Y-66920500D01*
X131446814Y-66986392D01*
X131574108Y-67020500D01*
X131574110Y-67020500D01*
X131705890Y-67020500D01*
X131705892Y-67020500D01*
X131833186Y-66986392D01*
X131947314Y-66920500D01*
X132040500Y-66827314D01*
X132106392Y-66713186D01*
X132106600Y-66712408D01*
X132106955Y-66711826D01*
X132109500Y-66705682D01*
X132110458Y-66706078D01*
X132142964Y-66652748D01*
X132205810Y-66622218D01*
X132226375Y-66620501D01*
X135515970Y-66620501D01*
X135583009Y-66640186D01*
X135603651Y-66656820D01*
X139858181Y-70911350D01*
X139891666Y-70972673D01*
X139894500Y-70999031D01*
X139894500Y-78450438D01*
X139894500Y-82232760D01*
X139908152Y-82283711D01*
X139914979Y-82309188D01*
X139921544Y-82320559D01*
X139923305Y-82323608D01*
X139954540Y-82377709D01*
X141586343Y-84009512D01*
X141642292Y-84065461D01*
X141642294Y-84065462D01*
X141642298Y-84065465D01*
X141686338Y-84090891D01*
X141710814Y-84105022D01*
X141787241Y-84125501D01*
X142373625Y-84125501D01*
X142440664Y-84145186D01*
X142486419Y-84197990D01*
X142493399Y-84217406D01*
X142493608Y-84218186D01*
X142559500Y-84332314D01*
X142652686Y-84425500D01*
X142766814Y-84491392D01*
X142894108Y-84525500D01*
X142894110Y-84525500D01*
X143025890Y-84525500D01*
X143025892Y-84525500D01*
X143153186Y-84491392D01*
X143267314Y-84425500D01*
X143360500Y-84332314D01*
X143426392Y-84218186D01*
X143460500Y-84090892D01*
X143460500Y-83959108D01*
X143426392Y-83831814D01*
X143360500Y-83717686D01*
X143330495Y-83687681D01*
X143297010Y-83626358D01*
X143301994Y-83556666D01*
X143330495Y-83512319D01*
X143360500Y-83482314D01*
X143426392Y-83368186D01*
X143460500Y-83240892D01*
X143460500Y-83109108D01*
X143426392Y-82981814D01*
X143360500Y-82867686D01*
X143267314Y-82774500D01*
X143210250Y-82741554D01*
X143180033Y-82724108D01*
X160479500Y-82724108D01*
X160479500Y-82855892D01*
X160482660Y-82867686D01*
X160513608Y-82983187D01*
X160516919Y-82988921D01*
X160579500Y-83097314D01*
X160672686Y-83190500D01*
X160786814Y-83256392D01*
X160914108Y-83290500D01*
X160914110Y-83290500D01*
X161045890Y-83290500D01*
X161045892Y-83290500D01*
X161173186Y-83256392D01*
X161287314Y-83190500D01*
X161380500Y-83097314D01*
X161446392Y-82983186D01*
X161480500Y-82855892D01*
X161480500Y-82724108D01*
X161446392Y-82596814D01*
X161380500Y-82482686D01*
X161287314Y-82389500D01*
X161230250Y-82356554D01*
X161173187Y-82323608D01*
X161109539Y-82306554D01*
X161045892Y-82289500D01*
X160914108Y-82289500D01*
X160786812Y-82323608D01*
X160672686Y-82389500D01*
X160672683Y-82389502D01*
X160579502Y-82482683D01*
X160579500Y-82482686D01*
X160513608Y-82596812D01*
X160492792Y-82674500D01*
X160479500Y-82724108D01*
X143180033Y-82724108D01*
X143153187Y-82708608D01*
X143089539Y-82691554D01*
X143025892Y-82674500D01*
X142894108Y-82674500D01*
X142766812Y-82708608D01*
X142652686Y-82774500D01*
X142652683Y-82774502D01*
X142559502Y-82867683D01*
X142559500Y-82867686D01*
X142493608Y-82981813D01*
X142493400Y-82982591D01*
X142493044Y-82983173D01*
X142490500Y-82989318D01*
X142489541Y-82988921D01*
X142478907Y-83006368D01*
X142467338Y-83031702D01*
X142460973Y-83035792D01*
X142457036Y-83042252D01*
X142431986Y-83054420D01*
X142408560Y-83069476D01*
X142397815Y-83071020D01*
X142394190Y-83072782D01*
X142373625Y-83074499D01*
X142189030Y-83074499D01*
X142121991Y-83054814D01*
X142101349Y-83038180D01*
X140981819Y-81918650D01*
X140948334Y-81857327D01*
X140945500Y-81830969D01*
X140945500Y-81354825D01*
X144133674Y-81354825D01*
X144133674Y-81486608D01*
X144167782Y-81613904D01*
X144200728Y-81670967D01*
X144233674Y-81728031D01*
X144326860Y-81821217D01*
X144440988Y-81887109D01*
X144568282Y-81921217D01*
X144568284Y-81921217D01*
X144700064Y-81921217D01*
X144700066Y-81921217D01*
X144827360Y-81887109D01*
X144941488Y-81821217D01*
X144971493Y-81791212D01*
X145032816Y-81757727D01*
X145102508Y-81762711D01*
X145146855Y-81791212D01*
X145176860Y-81821217D01*
X145290988Y-81887109D01*
X145418282Y-81921217D01*
X145418284Y-81921217D01*
X145550064Y-81921217D01*
X145550066Y-81921217D01*
X145677360Y-81887109D01*
X145791488Y-81821217D01*
X145884674Y-81728031D01*
X145950566Y-81613903D01*
X145984674Y-81486609D01*
X145984674Y-81354825D01*
X145950566Y-81227531D01*
X145884674Y-81113403D01*
X145791488Y-81020217D01*
X145725595Y-80982173D01*
X145677359Y-80954324D01*
X145676570Y-80954113D01*
X145675980Y-80953753D01*
X145669856Y-80951217D01*
X145670251Y-80950261D01*
X145616913Y-80917742D01*
X145586390Y-80854892D01*
X145584675Y-80834341D01*
X145584675Y-79689856D01*
X145593319Y-79660415D01*
X145599843Y-79630429D01*
X145603597Y-79625413D01*
X145604360Y-79622817D01*
X145620994Y-79602175D01*
X145668790Y-79554379D01*
X145730113Y-79520894D01*
X145756471Y-79518060D01*
X145810712Y-79518060D01*
X145877751Y-79537745D01*
X145923506Y-79590549D01*
X145930486Y-79609965D01*
X145930695Y-79610745D01*
X145996587Y-79724873D01*
X146089773Y-79818059D01*
X146203901Y-79883951D01*
X146331195Y-79918059D01*
X146331197Y-79918059D01*
X146462977Y-79918059D01*
X146462979Y-79918059D01*
X146590273Y-79883951D01*
X146704401Y-79818059D01*
X146797587Y-79724873D01*
X146863479Y-79610745D01*
X146897587Y-79483451D01*
X146897587Y-79351667D01*
X146863479Y-79224373D01*
X146797587Y-79110245D01*
X146767582Y-79080240D01*
X146734097Y-79018917D01*
X146739081Y-78949225D01*
X146767582Y-78904878D01*
X146797587Y-78874873D01*
X146863479Y-78760745D01*
X146897587Y-78633451D01*
X146897587Y-78501667D01*
X146863479Y-78374373D01*
X146797587Y-78260245D01*
X146704401Y-78167059D01*
X146647337Y-78134113D01*
X146590274Y-78101167D01*
X146526626Y-78084113D01*
X146462979Y-78067059D01*
X146331195Y-78067059D01*
X146203899Y-78101167D01*
X146089773Y-78167059D01*
X146089770Y-78167061D01*
X145996589Y-78260242D01*
X145996587Y-78260245D01*
X145930695Y-78374372D01*
X145930487Y-78375150D01*
X145930131Y-78375732D01*
X145927587Y-78381877D01*
X145926628Y-78381480D01*
X145894123Y-78434811D01*
X145831277Y-78465341D01*
X145810712Y-78467058D01*
X145354682Y-78467058D01*
X145316468Y-78477297D01*
X145278253Y-78487537D01*
X145278252Y-78487538D01*
X145219576Y-78521414D01*
X145219576Y-78521415D01*
X145213165Y-78525116D01*
X145209729Y-78527100D01*
X144649662Y-79087169D01*
X144593714Y-79143116D01*
X144593708Y-79143124D01*
X144554155Y-79211633D01*
X144554152Y-79211638D01*
X144533673Y-79288068D01*
X144533673Y-80834341D01*
X144513988Y-80901380D01*
X144461184Y-80947135D01*
X144441778Y-80954113D01*
X144440989Y-80954324D01*
X144440988Y-80954324D01*
X144326860Y-81020217D01*
X144326857Y-81020219D01*
X144233676Y-81113400D01*
X144233674Y-81113403D01*
X144167782Y-81227529D01*
X144133674Y-81354825D01*
X140945500Y-81354825D01*
X140945500Y-75724108D01*
X142099500Y-75724108D01*
X142099500Y-75855892D01*
X142115711Y-75916391D01*
X142133608Y-75983187D01*
X142166554Y-76040250D01*
X142199500Y-76097314D01*
X142292686Y-76190500D01*
X142406814Y-76256392D01*
X142534108Y-76290500D01*
X142534110Y-76290500D01*
X142665890Y-76290500D01*
X142665892Y-76290500D01*
X142793186Y-76256392D01*
X142907314Y-76190500D01*
X143000500Y-76097314D01*
X143066392Y-75983186D01*
X143100500Y-75855892D01*
X143100500Y-75724108D01*
X143066392Y-75596814D01*
X143000500Y-75482686D01*
X142907314Y-75389500D01*
X142846013Y-75354108D01*
X142793187Y-75323608D01*
X142694304Y-75297113D01*
X142665892Y-75289500D01*
X142534108Y-75289500D01*
X142406812Y-75323608D01*
X142292686Y-75389500D01*
X142292683Y-75389502D01*
X142199502Y-75482683D01*
X142199500Y-75482686D01*
X142133608Y-75596812D01*
X142117644Y-75656392D01*
X142099500Y-75724108D01*
X140945500Y-75724108D01*
X140945500Y-75142827D01*
X140965185Y-75075788D01*
X141017989Y-75030033D01*
X141087147Y-75020089D01*
X141150703Y-75049114D01*
X141176887Y-75080827D01*
X141182470Y-75090497D01*
X141209500Y-75137314D01*
X141302686Y-75230500D01*
X141416814Y-75296392D01*
X141544108Y-75330500D01*
X141544110Y-75330500D01*
X141675890Y-75330500D01*
X141675892Y-75330500D01*
X141803186Y-75296392D01*
X141917314Y-75230500D01*
X142010500Y-75137314D01*
X142076392Y-75023186D01*
X142110500Y-74895892D01*
X142110500Y-74764108D01*
X142076392Y-74636814D01*
X142068767Y-74623608D01*
X142049075Y-74589500D01*
X142010500Y-74522686D01*
X141917314Y-74429500D01*
X141836225Y-74382683D01*
X141803187Y-74363608D01*
X141739539Y-74346554D01*
X141675892Y-74329500D01*
X141544108Y-74329500D01*
X141416812Y-74363608D01*
X141302686Y-74429500D01*
X141302683Y-74429502D01*
X141209502Y-74522683D01*
X141209500Y-74522686D01*
X141176887Y-74579173D01*
X141126319Y-74627388D01*
X141057712Y-74640610D01*
X140992847Y-74614642D01*
X140952320Y-74557727D01*
X140945500Y-74517172D01*
X140945500Y-70597241D01*
X140945500Y-70597240D01*
X140925021Y-70520813D01*
X140885460Y-70452291D01*
X140847277Y-70414108D01*
X141719500Y-70414108D01*
X141719500Y-70545891D01*
X141753608Y-70673187D01*
X141772685Y-70706228D01*
X141819500Y-70787314D01*
X141912686Y-70880500D01*
X141918130Y-70883643D01*
X141924256Y-70887180D01*
X141972472Y-70937747D01*
X141985694Y-71006354D01*
X141959726Y-71071219D01*
X141949939Y-71082247D01*
X141929500Y-71102686D01*
X141863608Y-71216812D01*
X141829500Y-71344108D01*
X141829500Y-71475891D01*
X141863608Y-71603187D01*
X141887960Y-71645365D01*
X141929500Y-71717314D01*
X142022686Y-71810500D01*
X142136814Y-71876392D01*
X142264108Y-71910500D01*
X142264110Y-71910500D01*
X142395890Y-71910500D01*
X142395892Y-71910500D01*
X142523186Y-71876392D01*
X142637314Y-71810500D01*
X142661295Y-71786519D01*
X142722618Y-71753034D01*
X142748976Y-71750200D01*
X144647722Y-71750200D01*
X144677162Y-71758844D01*
X144707149Y-71765368D01*
X144712164Y-71769122D01*
X144714761Y-71769885D01*
X144735403Y-71786519D01*
X144903481Y-71954597D01*
X144936966Y-72015920D01*
X144939800Y-72042278D01*
X144939800Y-75001024D01*
X144920115Y-75068063D01*
X144903481Y-75088705D01*
X144879502Y-75112683D01*
X144879500Y-75112686D01*
X144813608Y-75226812D01*
X144789985Y-75314977D01*
X144779500Y-75354108D01*
X144779500Y-75485892D01*
X144796554Y-75549539D01*
X144813608Y-75613187D01*
X144830929Y-75643187D01*
X144879500Y-75727314D01*
X144972686Y-75820500D01*
X145086814Y-75886392D01*
X145214108Y-75920500D01*
X145214110Y-75920500D01*
X145345890Y-75920500D01*
X145345892Y-75920500D01*
X145473186Y-75886392D01*
X145587314Y-75820500D01*
X145680500Y-75727314D01*
X145746392Y-75613186D01*
X145780500Y-75485892D01*
X145780500Y-75354108D01*
X145770014Y-75314973D01*
X145771677Y-75245127D01*
X145810839Y-75187264D01*
X145875067Y-75159760D01*
X145921877Y-75163107D01*
X146024108Y-75190500D01*
X146024111Y-75190500D01*
X146155890Y-75190500D01*
X146155892Y-75190500D01*
X146283186Y-75156392D01*
X146397314Y-75090500D01*
X146490500Y-74997314D01*
X146556392Y-74883186D01*
X146590500Y-74755892D01*
X146590500Y-74624108D01*
X150479500Y-74624108D01*
X150479500Y-74755892D01*
X150488505Y-74789500D01*
X150513608Y-74883187D01*
X150521475Y-74896812D01*
X150579500Y-74997314D01*
X150672686Y-75090500D01*
X150763075Y-75142686D01*
X150786810Y-75156390D01*
X150786814Y-75156392D01*
X150914108Y-75190500D01*
X150914110Y-75190500D01*
X151045890Y-75190500D01*
X151045892Y-75190500D01*
X151173186Y-75156392D01*
X151173193Y-75156387D01*
X151180700Y-75153280D01*
X151181457Y-75155109D01*
X151238914Y-75141160D01*
X151304945Y-75164002D01*
X151348144Y-75218916D01*
X151354797Y-75288468D01*
X151352809Y-75297113D01*
X151329500Y-75384106D01*
X151329500Y-75515891D01*
X151363608Y-75643187D01*
X151390924Y-75690499D01*
X151429500Y-75757314D01*
X151522686Y-75850500D01*
X151636814Y-75916392D01*
X151764108Y-75950500D01*
X151764110Y-75950500D01*
X151895890Y-75950500D01*
X151895892Y-75950500D01*
X152023186Y-75916392D01*
X152137314Y-75850500D01*
X152230500Y-75757314D01*
X152296392Y-75643186D01*
X152330500Y-75515892D01*
X152330500Y-75384108D01*
X155199500Y-75384108D01*
X155199500Y-75515891D01*
X155233608Y-75643187D01*
X155260924Y-75690499D01*
X155299500Y-75757314D01*
X155392686Y-75850500D01*
X155506814Y-75916392D01*
X155634108Y-75950500D01*
X155634110Y-75950500D01*
X155765890Y-75950500D01*
X155765892Y-75950500D01*
X155893186Y-75916392D01*
X156007314Y-75850500D01*
X156100500Y-75757314D01*
X156166392Y-75643186D01*
X156200500Y-75515892D01*
X156200500Y-75384108D01*
X156166392Y-75256814D01*
X156159644Y-75245127D01*
X156120879Y-75177983D01*
X156120878Y-75177982D01*
X156100500Y-75142686D01*
X156081922Y-75124108D01*
X160479500Y-75124108D01*
X160479500Y-75255892D01*
X160479747Y-75256812D01*
X160513608Y-75383187D01*
X160521766Y-75397316D01*
X160579500Y-75497314D01*
X160672686Y-75590500D01*
X160786814Y-75656392D01*
X160914108Y-75690500D01*
X160914110Y-75690500D01*
X161045890Y-75690500D01*
X161045892Y-75690500D01*
X161173186Y-75656392D01*
X161287314Y-75590500D01*
X161380500Y-75497314D01*
X161446392Y-75383186D01*
X161480500Y-75255892D01*
X161480500Y-75124108D01*
X161453705Y-75024108D01*
X162479500Y-75024108D01*
X162479500Y-75155892D01*
X162481434Y-75163108D01*
X162513608Y-75283187D01*
X162536946Y-75323608D01*
X162579500Y-75397314D01*
X162672686Y-75490500D01*
X162786814Y-75556392D01*
X162914108Y-75590500D01*
X162914110Y-75590500D01*
X163045890Y-75590500D01*
X163045892Y-75590500D01*
X163173186Y-75556392D01*
X163287314Y-75490500D01*
X163380500Y-75397314D01*
X163446392Y-75283186D01*
X163480500Y-75155892D01*
X163480500Y-75024108D01*
X165519500Y-75024108D01*
X165519500Y-75155892D01*
X165521434Y-75163108D01*
X165553608Y-75283187D01*
X165576946Y-75323608D01*
X165619500Y-75397314D01*
X165712686Y-75490500D01*
X165826814Y-75556392D01*
X165954108Y-75590500D01*
X165954110Y-75590500D01*
X166085890Y-75590500D01*
X166085892Y-75590500D01*
X166213186Y-75556392D01*
X166327314Y-75490500D01*
X166420500Y-75397314D01*
X166486392Y-75283186D01*
X166520500Y-75155892D01*
X166520500Y-75024108D01*
X166486392Y-74896814D01*
X166420500Y-74782686D01*
X166327314Y-74689500D01*
X166270250Y-74656554D01*
X166213187Y-74623608D01*
X166149539Y-74606554D01*
X166085892Y-74589500D01*
X165954108Y-74589500D01*
X165826812Y-74623608D01*
X165712686Y-74689500D01*
X165712683Y-74689502D01*
X165619502Y-74782683D01*
X165619500Y-74782686D01*
X165553608Y-74896812D01*
X165530007Y-74984895D01*
X165519500Y-75024108D01*
X163480500Y-75024108D01*
X163446392Y-74896814D01*
X163380500Y-74782686D01*
X163287314Y-74689500D01*
X163230250Y-74656554D01*
X163173187Y-74623608D01*
X163109539Y-74606554D01*
X163045892Y-74589500D01*
X162914108Y-74589500D01*
X162786812Y-74623608D01*
X162672686Y-74689500D01*
X162672683Y-74689502D01*
X162579502Y-74782683D01*
X162579500Y-74782686D01*
X162513608Y-74896812D01*
X162490007Y-74984895D01*
X162479500Y-75024108D01*
X161453705Y-75024108D01*
X161446392Y-74996814D01*
X161380500Y-74882686D01*
X161287314Y-74789500D01*
X161229100Y-74755890D01*
X161173187Y-74723608D01*
X161109539Y-74706554D01*
X161045892Y-74689500D01*
X160914108Y-74689500D01*
X160786812Y-74723608D01*
X160672686Y-74789500D01*
X160672683Y-74789502D01*
X160579502Y-74882683D01*
X160579500Y-74882686D01*
X160513608Y-74996812D01*
X160494517Y-75068063D01*
X160479500Y-75124108D01*
X156081922Y-75124108D01*
X156007314Y-75049500D01*
X155950250Y-75016554D01*
X155893187Y-74983608D01*
X155829539Y-74966554D01*
X155765892Y-74949500D01*
X155634108Y-74949500D01*
X155506812Y-74983608D01*
X155392686Y-75049500D01*
X155392683Y-75049502D01*
X155299502Y-75142683D01*
X155299500Y-75142686D01*
X155233608Y-75256812D01*
X155199500Y-75384108D01*
X152330500Y-75384108D01*
X152296392Y-75256814D01*
X152289644Y-75245127D01*
X152287563Y-75241521D01*
X152230500Y-75142686D01*
X152137314Y-75049500D01*
X152080250Y-75016554D01*
X152023187Y-74983608D01*
X151959539Y-74966554D01*
X151895892Y-74949500D01*
X151764108Y-74949500D01*
X151636814Y-74983608D01*
X151636813Y-74983608D01*
X151636811Y-74983609D01*
X151629300Y-74986720D01*
X151628544Y-74984895D01*
X151571055Y-74998837D01*
X151505030Y-74975980D01*
X151461844Y-74921055D01*
X151455208Y-74851501D01*
X151457186Y-74842898D01*
X151480500Y-74755892D01*
X151480500Y-74624108D01*
X151446392Y-74496814D01*
X151380500Y-74382686D01*
X151287314Y-74289500D01*
X151230250Y-74256554D01*
X151173187Y-74223608D01*
X151109539Y-74206554D01*
X151045892Y-74189500D01*
X150914108Y-74189500D01*
X150786812Y-74223608D01*
X150672686Y-74289500D01*
X150672683Y-74289502D01*
X150579502Y-74382683D01*
X150579500Y-74382686D01*
X150513608Y-74496812D01*
X150491540Y-74579173D01*
X150479500Y-74624108D01*
X146590500Y-74624108D01*
X146556392Y-74496814D01*
X146490500Y-74382686D01*
X146397314Y-74289500D01*
X146340250Y-74256554D01*
X146283187Y-74223608D01*
X146219539Y-74206554D01*
X146155892Y-74189500D01*
X146024108Y-74189500D01*
X145896814Y-74223608D01*
X145896813Y-74223608D01*
X145896811Y-74223609D01*
X145896810Y-74223609D01*
X145806200Y-74275924D01*
X145738300Y-74292397D01*
X145672273Y-74269545D01*
X145629083Y-74214624D01*
X145620200Y-74168537D01*
X145620200Y-73218783D01*
X145639885Y-73151744D01*
X145692689Y-73105989D01*
X145761847Y-73096045D01*
X145806201Y-73111397D01*
X145866808Y-73146389D01*
X145866809Y-73146389D01*
X145866814Y-73146392D01*
X145994108Y-73180500D01*
X145994110Y-73180500D01*
X146125890Y-73180500D01*
X146125892Y-73180500D01*
X146253186Y-73146392D01*
X146367314Y-73080500D01*
X146460500Y-72987314D01*
X146526392Y-72873186D01*
X146560500Y-72745892D01*
X146560500Y-72614108D01*
X149929500Y-72614108D01*
X149929500Y-72745892D01*
X149946554Y-72809539D01*
X149963608Y-72873187D01*
X149980929Y-72903187D01*
X150029500Y-72987314D01*
X150122686Y-73080500D01*
X150214672Y-73133608D01*
X150236810Y-73146390D01*
X150236814Y-73146392D01*
X150364108Y-73180500D01*
X150364110Y-73180500D01*
X150495890Y-73180500D01*
X150495892Y-73180500D01*
X150623186Y-73146392D01*
X150737314Y-73080500D01*
X150830500Y-72987314D01*
X150896392Y-72873186D01*
X150930500Y-72745892D01*
X150930500Y-72614108D01*
X150896392Y-72486814D01*
X150830500Y-72372686D01*
X150737314Y-72279500D01*
X150672749Y-72242223D01*
X150623187Y-72213608D01*
X150559539Y-72196554D01*
X150495892Y-72179500D01*
X150364108Y-72179500D01*
X150236812Y-72213608D01*
X150122686Y-72279500D01*
X150122683Y-72279502D01*
X150029502Y-72372683D01*
X150029500Y-72372686D01*
X149963608Y-72486812D01*
X149929500Y-72614108D01*
X146560500Y-72614108D01*
X146526392Y-72486814D01*
X146460500Y-72372686D01*
X146367314Y-72279500D01*
X146302749Y-72242223D01*
X146253187Y-72213608D01*
X146189539Y-72196554D01*
X146125892Y-72179500D01*
X145994108Y-72179500D01*
X145866814Y-72213608D01*
X145866813Y-72213608D01*
X145866811Y-72213609D01*
X145866810Y-72213609D01*
X145806200Y-72248603D01*
X145738300Y-72265076D01*
X145672273Y-72242223D01*
X145629082Y-72187302D01*
X145620200Y-72141216D01*
X145620200Y-71805214D01*
X145620200Y-71805212D01*
X145615855Y-71788996D01*
X145617516Y-71719149D01*
X145656677Y-71661286D01*
X145720905Y-71633780D01*
X145789808Y-71645365D01*
X145797629Y-71649516D01*
X145856810Y-71683684D01*
X145856811Y-71683684D01*
X145856814Y-71683686D01*
X145984108Y-71717794D01*
X145984110Y-71717794D01*
X146115890Y-71717794D01*
X146115892Y-71717794D01*
X146243186Y-71683686D01*
X146357314Y-71617794D01*
X146450500Y-71524608D01*
X146516392Y-71410480D01*
X146550500Y-71283186D01*
X146550500Y-71151402D01*
X149262206Y-71151402D01*
X149262206Y-71283186D01*
X149264067Y-71290130D01*
X149296314Y-71410481D01*
X149314030Y-71441165D01*
X149362206Y-71524608D01*
X149455392Y-71617794D01*
X149554227Y-71674857D01*
X149569516Y-71683684D01*
X149569520Y-71683686D01*
X149696814Y-71717794D01*
X149696816Y-71717794D01*
X149828596Y-71717794D01*
X149828598Y-71717794D01*
X149955892Y-71683686D01*
X150070020Y-71617794D01*
X150163206Y-71524608D01*
X150229098Y-71410480D01*
X150263206Y-71283186D01*
X150263206Y-71151402D01*
X150229098Y-71024108D01*
X150163206Y-70909980D01*
X150070020Y-70816794D01*
X150002127Y-70777596D01*
X149955893Y-70750902D01*
X149864642Y-70726452D01*
X149828598Y-70716794D01*
X149696814Y-70716794D01*
X149569518Y-70750902D01*
X149455392Y-70816794D01*
X149455389Y-70816796D01*
X149362208Y-70909977D01*
X149362206Y-70909980D01*
X149296314Y-71024106D01*
X149277057Y-71095975D01*
X149262206Y-71151402D01*
X146550500Y-71151402D01*
X146516392Y-71024108D01*
X146450500Y-70909980D01*
X146357314Y-70816794D01*
X146289421Y-70777596D01*
X146243187Y-70750902D01*
X146151936Y-70726452D01*
X146115892Y-70716794D01*
X145984108Y-70716794D01*
X145856812Y-70750902D01*
X145742686Y-70816794D01*
X145742683Y-70816796D01*
X145649502Y-70909977D01*
X145649500Y-70909980D01*
X145583608Y-71024106D01*
X145564351Y-71095975D01*
X145549500Y-71151402D01*
X145549500Y-71283186D01*
X145551361Y-71290130D01*
X145559737Y-71321391D01*
X145558074Y-71391241D01*
X145518911Y-71449103D01*
X145454682Y-71476607D01*
X145385780Y-71465020D01*
X145352281Y-71441165D01*
X145048890Y-71137774D01*
X145048888Y-71137772D01*
X144971313Y-71092984D01*
X144884788Y-71069800D01*
X144884787Y-71069800D01*
X142748976Y-71069800D01*
X142725094Y-71062787D01*
X142700374Y-71059878D01*
X142688983Y-71052184D01*
X142681937Y-71050115D01*
X142670203Y-71041565D01*
X142665559Y-71037745D01*
X142637314Y-71009500D01*
X142616875Y-70997699D01*
X142608970Y-70991197D01*
X142594854Y-70970424D01*
X142577526Y-70952250D01*
X142575555Y-70942022D01*
X142569701Y-70933407D01*
X142569056Y-70908301D01*
X142564305Y-70883643D01*
X142568176Y-70873973D01*
X142567909Y-70863560D01*
X142580940Y-70842091D01*
X142590274Y-70818778D01*
X142600047Y-70807766D01*
X142620500Y-70787314D01*
X142686392Y-70673186D01*
X142720500Y-70545892D01*
X142720500Y-70414108D01*
X151329500Y-70414108D01*
X151329500Y-70545891D01*
X151363608Y-70673187D01*
X151382685Y-70706228D01*
X151429500Y-70787314D01*
X151522686Y-70880500D01*
X151636814Y-70946392D01*
X151764108Y-70980500D01*
X151764110Y-70980500D01*
X151895890Y-70980500D01*
X151895892Y-70980500D01*
X152023186Y-70946392D01*
X152137314Y-70880500D01*
X152230500Y-70787314D01*
X152296392Y-70673186D01*
X152330500Y-70545892D01*
X152330500Y-70414108D01*
X152296392Y-70286814D01*
X152230500Y-70172686D01*
X152137314Y-70079500D01*
X152080250Y-70046554D01*
X152023187Y-70013608D01*
X151959539Y-69996554D01*
X151895892Y-69979500D01*
X151764108Y-69979500D01*
X151636812Y-70013608D01*
X151522686Y-70079500D01*
X151522683Y-70079502D01*
X151429502Y-70172683D01*
X151429500Y-70172686D01*
X151363608Y-70286812D01*
X151329500Y-70414108D01*
X142720500Y-70414108D01*
X142686392Y-70286814D01*
X142620500Y-70172686D01*
X142527314Y-70079500D01*
X142470250Y-70046554D01*
X142413187Y-70013608D01*
X142349539Y-69996554D01*
X142285892Y-69979500D01*
X142154108Y-69979500D01*
X142026812Y-70013608D01*
X141912686Y-70079500D01*
X141912683Y-70079502D01*
X141819502Y-70172683D01*
X141819500Y-70172686D01*
X141753608Y-70286812D01*
X141719500Y-70414108D01*
X140847277Y-70414108D01*
X140829511Y-70396342D01*
X139917277Y-69484108D01*
X144899500Y-69484108D01*
X144899500Y-69615892D01*
X144915913Y-69677148D01*
X144933608Y-69743187D01*
X144956249Y-69782402D01*
X144999500Y-69857314D01*
X145092686Y-69950500D01*
X145206814Y-70016392D01*
X145334108Y-70050500D01*
X145334110Y-70050500D01*
X145465890Y-70050500D01*
X145465892Y-70050500D01*
X145593186Y-70016392D01*
X145707314Y-69950500D01*
X145800500Y-69857314D01*
X145866392Y-69743186D01*
X145900500Y-69615892D01*
X145900500Y-69484108D01*
X156479500Y-69484108D01*
X156479500Y-69615892D01*
X156495913Y-69677148D01*
X156513608Y-69743187D01*
X156536249Y-69782402D01*
X156579500Y-69857314D01*
X156672686Y-69950500D01*
X156786814Y-70016392D01*
X156914108Y-70050500D01*
X156914110Y-70050500D01*
X157045890Y-70050500D01*
X157045892Y-70050500D01*
X157173186Y-70016392D01*
X157287314Y-69950500D01*
X157380500Y-69857314D01*
X157446392Y-69743186D01*
X157480500Y-69615892D01*
X157480500Y-69484108D01*
X157446392Y-69356814D01*
X157380500Y-69242686D01*
X157287314Y-69149500D01*
X157230250Y-69116554D01*
X157173187Y-69083608D01*
X157109539Y-69066554D01*
X157045892Y-69049500D01*
X156914108Y-69049500D01*
X156786812Y-69083608D01*
X156672686Y-69149500D01*
X156672683Y-69149502D01*
X156579502Y-69242683D01*
X156579500Y-69242686D01*
X156513608Y-69356812D01*
X156484882Y-69464023D01*
X156479500Y-69484108D01*
X145900500Y-69484108D01*
X145866392Y-69356814D01*
X145800500Y-69242686D01*
X145707314Y-69149500D01*
X145650250Y-69116554D01*
X145593187Y-69083608D01*
X145529539Y-69066554D01*
X145465892Y-69049500D01*
X145334108Y-69049500D01*
X145206812Y-69083608D01*
X145092686Y-69149500D01*
X145092683Y-69149502D01*
X144999502Y-69242683D01*
X144999500Y-69242686D01*
X144933608Y-69356812D01*
X144904882Y-69464023D01*
X144899500Y-69484108D01*
X139917277Y-69484108D01*
X138897983Y-68464814D01*
X137716832Y-67283662D01*
X137637278Y-67204108D01*
X157229500Y-67204108D01*
X157229500Y-67335891D01*
X157263608Y-67463187D01*
X157296554Y-67520250D01*
X157329500Y-67577314D01*
X157422686Y-67670500D01*
X157536814Y-67736392D01*
X157664108Y-67770500D01*
X157664110Y-67770500D01*
X157795890Y-67770500D01*
X157795892Y-67770500D01*
X157923186Y-67736392D01*
X158037314Y-67670500D01*
X158130500Y-67577314D01*
X158196392Y-67463186D01*
X158230500Y-67335892D01*
X158230500Y-67204108D01*
X169599500Y-67204108D01*
X169599500Y-67335891D01*
X169633608Y-67463187D01*
X169666554Y-67520250D01*
X169699500Y-67577314D01*
X169792686Y-67670500D01*
X169906814Y-67736392D01*
X170034108Y-67770500D01*
X170034110Y-67770500D01*
X170165890Y-67770500D01*
X170165892Y-67770500D01*
X170293186Y-67736392D01*
X170407314Y-67670500D01*
X170500500Y-67577314D01*
X170566392Y-67463186D01*
X170600500Y-67335892D01*
X170600500Y-67204108D01*
X170566392Y-67076814D01*
X170500500Y-66962686D01*
X170407314Y-66869500D01*
X170350250Y-66836554D01*
X170293187Y-66803608D01*
X170229539Y-66786554D01*
X170165892Y-66769500D01*
X170034108Y-66769500D01*
X169906812Y-66803608D01*
X169792686Y-66869500D01*
X169792683Y-66869502D01*
X169699502Y-66962683D01*
X169699500Y-66962686D01*
X169633608Y-67076812D01*
X169599500Y-67204108D01*
X158230500Y-67204108D01*
X158196392Y-67076814D01*
X158130500Y-66962686D01*
X158037314Y-66869500D01*
X157980250Y-66836554D01*
X157923187Y-66803608D01*
X157859539Y-66786554D01*
X157795892Y-66769500D01*
X157664108Y-66769500D01*
X157536812Y-66803608D01*
X157422686Y-66869500D01*
X157422683Y-66869502D01*
X157329502Y-66962683D01*
X157329500Y-66962686D01*
X157263608Y-67076812D01*
X157229500Y-67204108D01*
X137637278Y-67204108D01*
X136877278Y-66444108D01*
X142359500Y-66444108D01*
X142359500Y-66575892D01*
X142371453Y-66620501D01*
X142393608Y-66703187D01*
X142399382Y-66713187D01*
X142459500Y-66817314D01*
X142552686Y-66910500D01*
X142666814Y-66976392D01*
X142794108Y-67010500D01*
X142794110Y-67010500D01*
X142925890Y-67010500D01*
X142925892Y-67010500D01*
X143053186Y-66976392D01*
X143167314Y-66910500D01*
X143260500Y-66817314D01*
X143326392Y-66703186D01*
X143360500Y-66575892D01*
X143360500Y-66444108D01*
X162479500Y-66444108D01*
X162479500Y-66575892D01*
X162491453Y-66620501D01*
X162513608Y-66703187D01*
X162519382Y-66713187D01*
X162579500Y-66817314D01*
X162672686Y-66910500D01*
X162786814Y-66976392D01*
X162914108Y-67010500D01*
X162914110Y-67010500D01*
X163045890Y-67010500D01*
X163045892Y-67010500D01*
X163173186Y-66976392D01*
X163287314Y-66910500D01*
X163380500Y-66817314D01*
X163446392Y-66703186D01*
X163480500Y-66575892D01*
X163480500Y-66444108D01*
X163446392Y-66316814D01*
X163380500Y-66202686D01*
X163287314Y-66109500D01*
X163216546Y-66068642D01*
X163173187Y-66043608D01*
X163109539Y-66026554D01*
X163045892Y-66009500D01*
X162914108Y-66009500D01*
X162786812Y-66043608D01*
X162672686Y-66109500D01*
X162672683Y-66109502D01*
X162579502Y-66202683D01*
X162579500Y-66202686D01*
X162513608Y-66316812D01*
X162479500Y-66444108D01*
X143360500Y-66444108D01*
X143326392Y-66316814D01*
X143260500Y-66202686D01*
X143167314Y-66109500D01*
X143096546Y-66068642D01*
X143053187Y-66043608D01*
X142989539Y-66026554D01*
X142925892Y-66009500D01*
X142794108Y-66009500D01*
X142666812Y-66043608D01*
X142552686Y-66109500D01*
X142552683Y-66109502D01*
X142459502Y-66202683D01*
X142459500Y-66202686D01*
X142393608Y-66316812D01*
X142359500Y-66444108D01*
X136877278Y-66444108D01*
X136157278Y-65724108D01*
X139819500Y-65724108D01*
X139819500Y-65855892D01*
X139821455Y-65863187D01*
X139853608Y-65983187D01*
X139867541Y-66007319D01*
X139919500Y-66097314D01*
X140012686Y-66190500D01*
X140126814Y-66256392D01*
X140254108Y-66290500D01*
X140254110Y-66290500D01*
X140385890Y-66290500D01*
X140385892Y-66290500D01*
X140513186Y-66256392D01*
X140627314Y-66190500D01*
X140720500Y-66097314D01*
X140786392Y-65983186D01*
X140820500Y-65855892D01*
X140820500Y-65724108D01*
X164479500Y-65724108D01*
X164479500Y-65855892D01*
X164481455Y-65863187D01*
X164513608Y-65983187D01*
X164527541Y-66007319D01*
X164579500Y-66097314D01*
X164672686Y-66190500D01*
X164786814Y-66256392D01*
X164914108Y-66290500D01*
X164914110Y-66290500D01*
X165045890Y-66290500D01*
X165045892Y-66290500D01*
X165173186Y-66256392D01*
X165287314Y-66190500D01*
X165380500Y-66097314D01*
X165446392Y-65983186D01*
X165480500Y-65855892D01*
X165480500Y-65724108D01*
X165446392Y-65596814D01*
X165380500Y-65482686D01*
X165287314Y-65389500D01*
X165219764Y-65350500D01*
X165173187Y-65323608D01*
X165109539Y-65306554D01*
X165045892Y-65289500D01*
X164914108Y-65289500D01*
X164786812Y-65323608D01*
X164672686Y-65389500D01*
X164672683Y-65389502D01*
X164579502Y-65482683D01*
X164579500Y-65482686D01*
X164513608Y-65596812D01*
X164506362Y-65623855D01*
X164479500Y-65724108D01*
X140820500Y-65724108D01*
X140786392Y-65596814D01*
X140720500Y-65482686D01*
X140627314Y-65389500D01*
X140559764Y-65350500D01*
X140513187Y-65323608D01*
X140449539Y-65306554D01*
X140385892Y-65289500D01*
X140254108Y-65289500D01*
X140126812Y-65323608D01*
X140012686Y-65389500D01*
X140012683Y-65389502D01*
X139919502Y-65482683D01*
X139919500Y-65482686D01*
X139853608Y-65596812D01*
X139846362Y-65623855D01*
X139819500Y-65724108D01*
X136157278Y-65724108D01*
X136062711Y-65629541D01*
X136062708Y-65629539D01*
X136052865Y-65623856D01*
X136052864Y-65623855D01*
X135994188Y-65589979D01*
X135994187Y-65589978D01*
X135968710Y-65583151D01*
X135917759Y-65569499D01*
X135917757Y-65569499D01*
X132226375Y-65569499D01*
X132159336Y-65549814D01*
X132113581Y-65497010D01*
X132106600Y-65477591D01*
X132106392Y-65476814D01*
X132040500Y-65362686D01*
X131947314Y-65269500D01*
X131890250Y-65236554D01*
X131833187Y-65203608D01*
X131769539Y-65186554D01*
X131705892Y-65169500D01*
X131574108Y-65169500D01*
X131446812Y-65203608D01*
X131332686Y-65269500D01*
X131332683Y-65269502D01*
X131239502Y-65362683D01*
X131239500Y-65362686D01*
X131173608Y-65476812D01*
X131139500Y-65604108D01*
X129869666Y-65604108D01*
X129910130Y-65506420D01*
X129950500Y-65303465D01*
X129950500Y-65154167D01*
X129970185Y-65087128D01*
X130022989Y-65041373D01*
X130092147Y-65031429D01*
X130155703Y-65060454D01*
X130181887Y-65092167D01*
X130219497Y-65157310D01*
X130219499Y-65157312D01*
X130219500Y-65157314D01*
X130312686Y-65250500D01*
X130426814Y-65316392D01*
X130554108Y-65350500D01*
X130554110Y-65350500D01*
X130685890Y-65350500D01*
X130685892Y-65350500D01*
X130813186Y-65316392D01*
X130927314Y-65250500D01*
X131020500Y-65157314D01*
X131086392Y-65043186D01*
X131102222Y-64984108D01*
X141099500Y-64984108D01*
X141099500Y-65115892D01*
X141113864Y-65169500D01*
X141133608Y-65243187D01*
X141160347Y-65289500D01*
X141199500Y-65357314D01*
X141292686Y-65450500D01*
X141406814Y-65516392D01*
X141534108Y-65550500D01*
X141534110Y-65550500D01*
X141665890Y-65550500D01*
X141665892Y-65550500D01*
X141793186Y-65516392D01*
X141907314Y-65450500D01*
X142000500Y-65357314D01*
X142066392Y-65243186D01*
X142100500Y-65115892D01*
X142100500Y-64984108D01*
X160479500Y-64984108D01*
X160479500Y-65115892D01*
X160493864Y-65169500D01*
X160513608Y-65243187D01*
X160540347Y-65289500D01*
X160579500Y-65357314D01*
X160672686Y-65450500D01*
X160786814Y-65516392D01*
X160914108Y-65550500D01*
X160914110Y-65550500D01*
X161045890Y-65550500D01*
X161045892Y-65550500D01*
X161173186Y-65516392D01*
X161287314Y-65450500D01*
X161380500Y-65357314D01*
X161446392Y-65243186D01*
X161480500Y-65115892D01*
X161480500Y-64984108D01*
X161446392Y-64856814D01*
X161446148Y-64856392D01*
X161408105Y-64790500D01*
X161380500Y-64742686D01*
X161287314Y-64649500D01*
X161230250Y-64616554D01*
X161173187Y-64583608D01*
X161109539Y-64566554D01*
X161045892Y-64549500D01*
X160914108Y-64549500D01*
X160786812Y-64583608D01*
X160672686Y-64649500D01*
X160672683Y-64649502D01*
X160579502Y-64742683D01*
X160579500Y-64742686D01*
X160513608Y-64856812D01*
X160503567Y-64894288D01*
X160479500Y-64984108D01*
X142100500Y-64984108D01*
X142066392Y-64856814D01*
X142066148Y-64856392D01*
X142028105Y-64790500D01*
X142000500Y-64742686D01*
X141907314Y-64649500D01*
X141850250Y-64616554D01*
X141793187Y-64583608D01*
X141729539Y-64566554D01*
X141665892Y-64549500D01*
X141534108Y-64549500D01*
X141406812Y-64583608D01*
X141292686Y-64649500D01*
X141292683Y-64649502D01*
X141199502Y-64742683D01*
X141199500Y-64742686D01*
X141133608Y-64856812D01*
X141123567Y-64894288D01*
X141099500Y-64984108D01*
X131102222Y-64984108D01*
X131120500Y-64915892D01*
X131120500Y-64784108D01*
X131086392Y-64656814D01*
X131086148Y-64656392D01*
X131048105Y-64590500D01*
X131020500Y-64542686D01*
X130927314Y-64449500D01*
X130870250Y-64416554D01*
X130813187Y-64383608D01*
X130749539Y-64366554D01*
X130685892Y-64349500D01*
X130554108Y-64349500D01*
X130426812Y-64383608D01*
X130312686Y-64449500D01*
X130312683Y-64449502D01*
X130219502Y-64542683D01*
X130219500Y-64542686D01*
X130153608Y-64656812D01*
X130119498Y-64784113D01*
X130118470Y-64791925D01*
X130090200Y-64855820D01*
X130031873Y-64894288D01*
X129962008Y-64895115D01*
X129902787Y-64858040D01*
X129880971Y-64823185D01*
X129830943Y-64702405D01*
X129715975Y-64530342D01*
X129569657Y-64384024D01*
X129479985Y-64324108D01*
X129397598Y-64269059D01*
X129365805Y-64255890D01*
X129304610Y-64230542D01*
X129206420Y-64189870D01*
X129206412Y-64189868D01*
X129003469Y-64149500D01*
X129003465Y-64149500D01*
X128796535Y-64149500D01*
X128796530Y-64149500D01*
X128593587Y-64189868D01*
X128593579Y-64189870D01*
X128402403Y-64269058D01*
X128230342Y-64384024D01*
X128084024Y-64530342D01*
X127969058Y-64702403D01*
X127889870Y-64893579D01*
X127889868Y-64893587D01*
X127849500Y-65096530D01*
X125010500Y-65096530D01*
X125010500Y-64124108D01*
X131829500Y-64124108D01*
X131829500Y-64255891D01*
X131863608Y-64383187D01*
X131896554Y-64440250D01*
X131929500Y-64497314D01*
X132022686Y-64590500D01*
X132136814Y-64656392D01*
X132264108Y-64690500D01*
X132264110Y-64690500D01*
X132395890Y-64690500D01*
X132395892Y-64690500D01*
X132523186Y-64656392D01*
X132637314Y-64590500D01*
X132730500Y-64497314D01*
X132796392Y-64383186D01*
X132812222Y-64324108D01*
X143629500Y-64324108D01*
X143629500Y-64455892D01*
X143646554Y-64519539D01*
X143663608Y-64583187D01*
X143696554Y-64640250D01*
X143729500Y-64697314D01*
X143822686Y-64790500D01*
X143936814Y-64856392D01*
X144064108Y-64890500D01*
X144064110Y-64890500D01*
X144195890Y-64890500D01*
X144195892Y-64890500D01*
X144323186Y-64856392D01*
X144437314Y-64790500D01*
X144530500Y-64697314D01*
X144596392Y-64583186D01*
X144630500Y-64455892D01*
X144630500Y-64324108D01*
X165519500Y-64324108D01*
X165519500Y-64455892D01*
X165536554Y-64519539D01*
X165553608Y-64583187D01*
X165586554Y-64640250D01*
X165619500Y-64697314D01*
X165712686Y-64790500D01*
X165826814Y-64856392D01*
X165954108Y-64890500D01*
X165954110Y-64890500D01*
X166085890Y-64890500D01*
X166085892Y-64890500D01*
X166213186Y-64856392D01*
X166327314Y-64790500D01*
X166420500Y-64697314D01*
X166486392Y-64583186D01*
X166520500Y-64455892D01*
X166520500Y-64324108D01*
X166486392Y-64196814D01*
X166420500Y-64082686D01*
X166327314Y-63989500D01*
X166270250Y-63956554D01*
X166213187Y-63923608D01*
X166149539Y-63906554D01*
X166085892Y-63889500D01*
X165954108Y-63889500D01*
X165826812Y-63923608D01*
X165712686Y-63989500D01*
X165712683Y-63989502D01*
X165619502Y-64082683D01*
X165619500Y-64082686D01*
X165553608Y-64196812D01*
X165537778Y-64255892D01*
X165519500Y-64324108D01*
X144630500Y-64324108D01*
X144596392Y-64196814D01*
X144530500Y-64082686D01*
X144437314Y-63989500D01*
X144380250Y-63956554D01*
X144323187Y-63923608D01*
X144259539Y-63906554D01*
X144195892Y-63889500D01*
X144064108Y-63889500D01*
X143936812Y-63923608D01*
X143822686Y-63989500D01*
X143822683Y-63989502D01*
X143729502Y-64082683D01*
X143729500Y-64082686D01*
X143663608Y-64196812D01*
X143647778Y-64255892D01*
X143629500Y-64324108D01*
X132812222Y-64324108D01*
X132830500Y-64255892D01*
X132830500Y-64124108D01*
X132796392Y-63996814D01*
X132730500Y-63882686D01*
X132637314Y-63789500D01*
X132553502Y-63741111D01*
X132523187Y-63723608D01*
X132457061Y-63705890D01*
X132395892Y-63689500D01*
X132264108Y-63689500D01*
X132136812Y-63723608D01*
X132022686Y-63789500D01*
X132022683Y-63789502D01*
X131929502Y-63882683D01*
X131929500Y-63882686D01*
X131863608Y-63996812D01*
X131829500Y-64124108D01*
X125010500Y-64124108D01*
X125010500Y-62556530D01*
X127849500Y-62556530D01*
X127849500Y-62763469D01*
X127889868Y-62966412D01*
X127889870Y-62966420D01*
X127961562Y-63139500D01*
X127969059Y-63157598D01*
X127981616Y-63176391D01*
X128084024Y-63329657D01*
X128230342Y-63475975D01*
X128230345Y-63475977D01*
X128402402Y-63590941D01*
X128593580Y-63670130D01*
X128773359Y-63705890D01*
X128796530Y-63710499D01*
X128796534Y-63710500D01*
X128796535Y-63710500D01*
X129003466Y-63710500D01*
X129003467Y-63710499D01*
X129206420Y-63670130D01*
X129245100Y-63654108D01*
X137109500Y-63654108D01*
X137109500Y-63785892D01*
X137122172Y-63833186D01*
X137143608Y-63913187D01*
X137149625Y-63923608D01*
X137209500Y-64027314D01*
X137302686Y-64120500D01*
X137416814Y-64186392D01*
X137544108Y-64220500D01*
X137544110Y-64220500D01*
X137675890Y-64220500D01*
X137675892Y-64220500D01*
X137803186Y-64186392D01*
X137917314Y-64120500D01*
X138010500Y-64027314D01*
X138076392Y-63913186D01*
X138110500Y-63785892D01*
X138110500Y-63654108D01*
X142269500Y-63654108D01*
X142269500Y-63785892D01*
X142282172Y-63833186D01*
X142303608Y-63913187D01*
X142309625Y-63923608D01*
X142369500Y-64027314D01*
X142462686Y-64120500D01*
X142576814Y-64186392D01*
X142704108Y-64220500D01*
X142704110Y-64220500D01*
X142835890Y-64220500D01*
X142835892Y-64220500D01*
X142963186Y-64186392D01*
X143077314Y-64120500D01*
X143170500Y-64027314D01*
X143236392Y-63913186D01*
X143270500Y-63785892D01*
X143270500Y-63654108D01*
X143263380Y-63627536D01*
X143255488Y-63598080D01*
X143255486Y-63598075D01*
X143249064Y-63574108D01*
X147449500Y-63574108D01*
X147449500Y-63705892D01*
X147450735Y-63710500D01*
X147483608Y-63833187D01*
X147512185Y-63882683D01*
X147549500Y-63947314D01*
X147642686Y-64040500D01*
X147756814Y-64106392D01*
X147884108Y-64140500D01*
X147884110Y-64140500D01*
X148015890Y-64140500D01*
X148015892Y-64140500D01*
X148143186Y-64106392D01*
X148257314Y-64040500D01*
X148350500Y-63947314D01*
X148416392Y-63833186D01*
X148450500Y-63705892D01*
X148450500Y-63574108D01*
X162479500Y-63574108D01*
X162479500Y-63705892D01*
X162480735Y-63710500D01*
X162513608Y-63833187D01*
X162542185Y-63882683D01*
X162579500Y-63947314D01*
X162672686Y-64040500D01*
X162786814Y-64106392D01*
X162914108Y-64140500D01*
X162914110Y-64140500D01*
X163045890Y-64140500D01*
X163045892Y-64140500D01*
X163173186Y-64106392D01*
X163287314Y-64040500D01*
X163380500Y-63947314D01*
X163446392Y-63833186D01*
X163480500Y-63705892D01*
X163480500Y-63574108D01*
X163446392Y-63446814D01*
X163380500Y-63332686D01*
X163287314Y-63239500D01*
X163202442Y-63190499D01*
X163173187Y-63173608D01*
X163108931Y-63156391D01*
X163045892Y-63139500D01*
X162914108Y-63139500D01*
X162786812Y-63173608D01*
X162672686Y-63239500D01*
X162672683Y-63239502D01*
X162579502Y-63332683D01*
X162579500Y-63332686D01*
X162513608Y-63446812D01*
X162492173Y-63526812D01*
X162479500Y-63574108D01*
X148450500Y-63574108D01*
X148416392Y-63446814D01*
X148350500Y-63332686D01*
X148257314Y-63239500D01*
X148172442Y-63190499D01*
X148143187Y-63173608D01*
X148078931Y-63156391D01*
X148015892Y-63139500D01*
X147884108Y-63139500D01*
X147756812Y-63173608D01*
X147642686Y-63239500D01*
X147642683Y-63239502D01*
X147549502Y-63332683D01*
X147549500Y-63332686D01*
X147483608Y-63446812D01*
X147462173Y-63526812D01*
X147449500Y-63574108D01*
X143249064Y-63574108D01*
X143236392Y-63526814D01*
X143170500Y-63412686D01*
X143077314Y-63319500D01*
X143020250Y-63286554D01*
X142963187Y-63253608D01*
X142899539Y-63236554D01*
X142835892Y-63219500D01*
X142704108Y-63219500D01*
X142576812Y-63253608D01*
X142462686Y-63319500D01*
X142462683Y-63319502D01*
X142369502Y-63412683D01*
X142369500Y-63412686D01*
X142303608Y-63526812D01*
X142269501Y-63654106D01*
X142269500Y-63654108D01*
X138110500Y-63654108D01*
X138076392Y-63526814D01*
X138010500Y-63412686D01*
X137917314Y-63319500D01*
X137860250Y-63286554D01*
X137803187Y-63253608D01*
X137739539Y-63236554D01*
X137675892Y-63219500D01*
X137544108Y-63219500D01*
X137416812Y-63253608D01*
X137302686Y-63319500D01*
X137302683Y-63319502D01*
X137209502Y-63412683D01*
X137209500Y-63412686D01*
X137143608Y-63526812D01*
X137109501Y-63654106D01*
X137109500Y-63654108D01*
X129245100Y-63654108D01*
X129397598Y-63590941D01*
X129569655Y-63475977D01*
X129715977Y-63329655D01*
X129830941Y-63157598D01*
X129910130Y-62966420D01*
X129932470Y-62854108D01*
X134939500Y-62854108D01*
X134939500Y-62985892D01*
X134947920Y-63017316D01*
X134973608Y-63113187D01*
X134988800Y-63139500D01*
X135039500Y-63227314D01*
X135132686Y-63320500D01*
X135246814Y-63386392D01*
X135374108Y-63420500D01*
X135374110Y-63420500D01*
X135505890Y-63420500D01*
X135505892Y-63420500D01*
X135633186Y-63386392D01*
X135747314Y-63320500D01*
X135840500Y-63227314D01*
X135906392Y-63113186D01*
X135940500Y-62985892D01*
X135940500Y-62854108D01*
X135906392Y-62726814D01*
X135847095Y-62624108D01*
X136249500Y-62624108D01*
X136249500Y-62755892D01*
X136254859Y-62775891D01*
X136283608Y-62883187D01*
X136316554Y-62940250D01*
X136349500Y-62997314D01*
X136442686Y-63090500D01*
X136556814Y-63156392D01*
X136684108Y-63190500D01*
X136684110Y-63190500D01*
X136815890Y-63190500D01*
X136815892Y-63190500D01*
X136943186Y-63156392D01*
X137057314Y-63090500D01*
X137150500Y-62997314D01*
X137216392Y-62883186D01*
X137250500Y-62755892D01*
X137250500Y-62624108D01*
X143619500Y-62624108D01*
X143619500Y-62755892D01*
X143624859Y-62775891D01*
X143653608Y-62883187D01*
X143686554Y-62940250D01*
X143719500Y-62997314D01*
X143812686Y-63090500D01*
X143926814Y-63156392D01*
X144054108Y-63190500D01*
X144054110Y-63190500D01*
X144185890Y-63190500D01*
X144185892Y-63190500D01*
X144313186Y-63156392D01*
X144427314Y-63090500D01*
X144520500Y-62997314D01*
X144586392Y-62883186D01*
X144620500Y-62755892D01*
X144620500Y-62644108D01*
X146179500Y-62644108D01*
X146179500Y-62775891D01*
X146213608Y-62903187D01*
X146246554Y-62960250D01*
X146279500Y-63017314D01*
X146372686Y-63110500D01*
X146486814Y-63176392D01*
X146614108Y-63210500D01*
X146614110Y-63210500D01*
X146745890Y-63210500D01*
X146745892Y-63210500D01*
X146873186Y-63176392D01*
X146987314Y-63110500D01*
X147080500Y-63017314D01*
X147146392Y-62903186D01*
X147180500Y-62775892D01*
X147180500Y-62644108D01*
X158479500Y-62644108D01*
X158479500Y-62775891D01*
X158513608Y-62903187D01*
X158546554Y-62960250D01*
X158579500Y-63017314D01*
X158672686Y-63110500D01*
X158786814Y-63176392D01*
X158914108Y-63210500D01*
X158914110Y-63210500D01*
X159045890Y-63210500D01*
X159045892Y-63210500D01*
X159173186Y-63176392D01*
X159287314Y-63110500D01*
X159380500Y-63017314D01*
X159446392Y-62903186D01*
X159480500Y-62775892D01*
X159480500Y-62644108D01*
X159446392Y-62516814D01*
X159380500Y-62402686D01*
X159287314Y-62309500D01*
X159230250Y-62276554D01*
X159173187Y-62243608D01*
X159098544Y-62223608D01*
X159045892Y-62209500D01*
X158914108Y-62209500D01*
X158786812Y-62243608D01*
X158672686Y-62309500D01*
X158672683Y-62309502D01*
X158579502Y-62402683D01*
X158579500Y-62402686D01*
X158513608Y-62516812D01*
X158479500Y-62644108D01*
X147180500Y-62644108D01*
X147146392Y-62516814D01*
X147080500Y-62402686D01*
X146987314Y-62309500D01*
X146930250Y-62276554D01*
X146873187Y-62243608D01*
X146798544Y-62223608D01*
X146745892Y-62209500D01*
X146614108Y-62209500D01*
X146486812Y-62243608D01*
X146372686Y-62309500D01*
X146372683Y-62309502D01*
X146279502Y-62402683D01*
X146279500Y-62402686D01*
X146213608Y-62516812D01*
X146179500Y-62644108D01*
X144620500Y-62644108D01*
X144620500Y-62624108D01*
X144586392Y-62496814D01*
X144520500Y-62382686D01*
X144427314Y-62289500D01*
X144347827Y-62243608D01*
X144313187Y-62223608D01*
X144249539Y-62206554D01*
X144185892Y-62189500D01*
X144054108Y-62189500D01*
X143926812Y-62223608D01*
X143812686Y-62289500D01*
X143812683Y-62289502D01*
X143719502Y-62382683D01*
X143719500Y-62382686D01*
X143653608Y-62496812D01*
X143637607Y-62556530D01*
X143619500Y-62624108D01*
X137250500Y-62624108D01*
X137216392Y-62496814D01*
X137150500Y-62382686D01*
X137057314Y-62289500D01*
X136977827Y-62243608D01*
X136943187Y-62223608D01*
X136879539Y-62206554D01*
X136815892Y-62189500D01*
X136684108Y-62189500D01*
X136558754Y-62223088D01*
X136558753Y-62223088D01*
X136556814Y-62223608D01*
X136442686Y-62289500D01*
X136409164Y-62323021D01*
X136409161Y-62323024D01*
X136349500Y-62382686D01*
X136283608Y-62496812D01*
X136267607Y-62556530D01*
X136249500Y-62624108D01*
X135847095Y-62624108D01*
X135840500Y-62612686D01*
X135747314Y-62519500D01*
X135690250Y-62486554D01*
X135633187Y-62453608D01*
X135569539Y-62436554D01*
X135505892Y-62419500D01*
X135374108Y-62419500D01*
X135246812Y-62453608D01*
X135132686Y-62519500D01*
X135132683Y-62519502D01*
X135039502Y-62612683D01*
X135039500Y-62612686D01*
X134973608Y-62726812D01*
X134948159Y-62821790D01*
X134939500Y-62854108D01*
X129932470Y-62854108D01*
X129950500Y-62763465D01*
X129950500Y-62556535D01*
X129910130Y-62353580D01*
X129830941Y-62162402D01*
X129715977Y-61990345D01*
X129715975Y-61990342D01*
X129569657Y-61844024D01*
X129483626Y-61786541D01*
X129397598Y-61729059D01*
X129365805Y-61715890D01*
X129304610Y-61690542D01*
X129206420Y-61649870D01*
X129206412Y-61649868D01*
X129003469Y-61609500D01*
X129003465Y-61609500D01*
X128796535Y-61609500D01*
X128796530Y-61609500D01*
X128593587Y-61649868D01*
X128593579Y-61649870D01*
X128402403Y-61729058D01*
X128230342Y-61844024D01*
X128084024Y-61990342D01*
X127969058Y-62162403D01*
X127889870Y-62353579D01*
X127889868Y-62353587D01*
X127849500Y-62556530D01*
X125010500Y-62556530D01*
X125010500Y-61584108D01*
X135579500Y-61584108D01*
X135579500Y-61715891D01*
X135613608Y-61843187D01*
X135646554Y-61900250D01*
X135679500Y-61957314D01*
X135772686Y-62050500D01*
X135886814Y-62116392D01*
X136014108Y-62150500D01*
X136014110Y-62150500D01*
X136145890Y-62150500D01*
X136145892Y-62150500D01*
X136273186Y-62116392D01*
X136387314Y-62050500D01*
X136480500Y-61957314D01*
X136546392Y-61843186D01*
X136580500Y-61715892D01*
X136580500Y-61584108D01*
X136546392Y-61456814D01*
X136480500Y-61342686D01*
X136387314Y-61249500D01*
X136330250Y-61216554D01*
X136273187Y-61183608D01*
X136249349Y-61177221D01*
X136145892Y-61149500D01*
X136014108Y-61149500D01*
X135886812Y-61183608D01*
X135772686Y-61249500D01*
X135772683Y-61249502D01*
X135679502Y-61342683D01*
X135679500Y-61342686D01*
X135613608Y-61456812D01*
X135579500Y-61584108D01*
X125010500Y-61584108D01*
X125010500Y-59250247D01*
X125309500Y-59250247D01*
X125309500Y-60989752D01*
X125321131Y-61048229D01*
X125321132Y-61048230D01*
X125365447Y-61114552D01*
X125431769Y-61158867D01*
X125431770Y-61158868D01*
X125490247Y-61170499D01*
X125490250Y-61170500D01*
X125490252Y-61170500D01*
X127229750Y-61170500D01*
X127229751Y-61170499D01*
X127253598Y-61165756D01*
X127288229Y-61158868D01*
X127288229Y-61158867D01*
X127288231Y-61158867D01*
X127354552Y-61114552D01*
X127398867Y-61048231D01*
X127398867Y-61048229D01*
X127398868Y-61048229D01*
X127410499Y-60989752D01*
X127410500Y-60989750D01*
X127410500Y-60016530D01*
X127849500Y-60016530D01*
X127849500Y-60223469D01*
X127889868Y-60426412D01*
X127889870Y-60426420D01*
X127969058Y-60617596D01*
X128084024Y-60789657D01*
X128230342Y-60935975D01*
X128230345Y-60935977D01*
X128402402Y-61050941D01*
X128593580Y-61130130D01*
X128738052Y-61158867D01*
X128796530Y-61170499D01*
X128796534Y-61170500D01*
X128796535Y-61170500D01*
X129003466Y-61170500D01*
X129003467Y-61170499D01*
X129206420Y-61130130D01*
X129389952Y-61054108D01*
X139049500Y-61054108D01*
X139049500Y-61185891D01*
X139083608Y-61313187D01*
X139100638Y-61342683D01*
X139149500Y-61427314D01*
X139242686Y-61520500D01*
X139356814Y-61586392D01*
X139484108Y-61620500D01*
X139484110Y-61620500D01*
X139615890Y-61620500D01*
X139615892Y-61620500D01*
X139743186Y-61586392D01*
X139747142Y-61584108D01*
X152219500Y-61584108D01*
X152219500Y-61715891D01*
X152253608Y-61843187D01*
X152286554Y-61900250D01*
X152319500Y-61957314D01*
X152412686Y-62050500D01*
X152526814Y-62116392D01*
X152654108Y-62150500D01*
X152654110Y-62150500D01*
X152785890Y-62150500D01*
X152785892Y-62150500D01*
X152913186Y-62116392D01*
X153027314Y-62050500D01*
X153120500Y-61957314D01*
X153186392Y-61843186D01*
X153220500Y-61715892D01*
X153220500Y-61584108D01*
X166569500Y-61584108D01*
X166569500Y-61715891D01*
X166603608Y-61843187D01*
X166636554Y-61900250D01*
X166669500Y-61957314D01*
X166762686Y-62050500D01*
X166876814Y-62116392D01*
X167004108Y-62150500D01*
X167004110Y-62150500D01*
X167135890Y-62150500D01*
X167135892Y-62150500D01*
X167263186Y-62116392D01*
X167377314Y-62050500D01*
X167470500Y-61957314D01*
X167536392Y-61843186D01*
X167570500Y-61715892D01*
X167570500Y-61584108D01*
X167536392Y-61456814D01*
X167470500Y-61342686D01*
X167377314Y-61249500D01*
X167320250Y-61216554D01*
X167263187Y-61183608D01*
X167170850Y-61158867D01*
X167135892Y-61149500D01*
X167004108Y-61149500D01*
X166876812Y-61183608D01*
X166762686Y-61249500D01*
X166762683Y-61249502D01*
X166669502Y-61342683D01*
X166669500Y-61342686D01*
X166603608Y-61456812D01*
X166569500Y-61584108D01*
X153220500Y-61584108D01*
X153186392Y-61456814D01*
X153120500Y-61342686D01*
X153027314Y-61249500D01*
X152970250Y-61216554D01*
X152913187Y-61183608D01*
X152820850Y-61158867D01*
X152785892Y-61149500D01*
X152654108Y-61149500D01*
X152526812Y-61183608D01*
X152412686Y-61249500D01*
X152412683Y-61249502D01*
X152319502Y-61342683D01*
X152319500Y-61342686D01*
X152253608Y-61456812D01*
X152219500Y-61584108D01*
X139747142Y-61584108D01*
X139857314Y-61520500D01*
X139950500Y-61427314D01*
X140016392Y-61313186D01*
X140050500Y-61185892D01*
X140050500Y-61054108D01*
X140016392Y-60926814D01*
X139950500Y-60812686D01*
X139857314Y-60719500D01*
X139847975Y-60714108D01*
X142269500Y-60714108D01*
X142269500Y-60845891D01*
X142303608Y-60973187D01*
X142313170Y-60989748D01*
X142369500Y-61087314D01*
X142462686Y-61180500D01*
X142576814Y-61246392D01*
X142704108Y-61280500D01*
X142704110Y-61280500D01*
X142835890Y-61280500D01*
X142835892Y-61280500D01*
X142963186Y-61246392D01*
X143077314Y-61180500D01*
X143170500Y-61087314D01*
X143236392Y-60973186D01*
X143270500Y-60845892D01*
X143270500Y-60714108D01*
X144629500Y-60714108D01*
X144629500Y-60845891D01*
X144663608Y-60973187D01*
X144673170Y-60989748D01*
X144729500Y-61087314D01*
X144822686Y-61180500D01*
X144936814Y-61246392D01*
X145064108Y-61280500D01*
X145064110Y-61280500D01*
X145195890Y-61280500D01*
X145195892Y-61280500D01*
X145323186Y-61246392D01*
X145437314Y-61180500D01*
X145530500Y-61087314D01*
X145596392Y-60973186D01*
X145630500Y-60845892D01*
X145630500Y-60714108D01*
X145596392Y-60586814D01*
X145530500Y-60472686D01*
X145437314Y-60379500D01*
X145380250Y-60346554D01*
X145324053Y-60314108D01*
X152309500Y-60314108D01*
X152309500Y-60445892D01*
X152326554Y-60509539D01*
X152343608Y-60573187D01*
X152351475Y-60586812D01*
X152409500Y-60687314D01*
X152502686Y-60780500D01*
X152558434Y-60812686D01*
X152615944Y-60845890D01*
X152616814Y-60846392D01*
X152744108Y-60880500D01*
X152744110Y-60880500D01*
X152875890Y-60880500D01*
X152875892Y-60880500D01*
X153003186Y-60846392D01*
X153117314Y-60780500D01*
X153210500Y-60687314D01*
X153276392Y-60573186D01*
X153310500Y-60445892D01*
X153310500Y-60314108D01*
X167939500Y-60314108D01*
X167939500Y-60445892D01*
X167956554Y-60509539D01*
X167973608Y-60573187D01*
X167981475Y-60586812D01*
X168039500Y-60687314D01*
X168132686Y-60780500D01*
X168188434Y-60812686D01*
X168245944Y-60845890D01*
X168246814Y-60846392D01*
X168374108Y-60880500D01*
X168374110Y-60880500D01*
X168505890Y-60880500D01*
X168505892Y-60880500D01*
X168633186Y-60846392D01*
X168747314Y-60780500D01*
X168840500Y-60687314D01*
X168906392Y-60573186D01*
X168940500Y-60445892D01*
X168940500Y-60314108D01*
X168906392Y-60186814D01*
X168840500Y-60072686D01*
X168747314Y-59979500D01*
X168690250Y-59946554D01*
X168633187Y-59913608D01*
X168569539Y-59896554D01*
X168505892Y-59879500D01*
X168374108Y-59879500D01*
X168246812Y-59913608D01*
X168132686Y-59979500D01*
X168132683Y-59979502D01*
X168039502Y-60072683D01*
X168039500Y-60072686D01*
X167973608Y-60186812D01*
X167963787Y-60223465D01*
X167939500Y-60314108D01*
X153310500Y-60314108D01*
X153276392Y-60186814D01*
X153210500Y-60072686D01*
X153117314Y-59979500D01*
X153060250Y-59946554D01*
X153003187Y-59913608D01*
X152939539Y-59896554D01*
X152875892Y-59879500D01*
X152744108Y-59879500D01*
X152616812Y-59913608D01*
X152502686Y-59979500D01*
X152502683Y-59979502D01*
X152409502Y-60072683D01*
X152409500Y-60072686D01*
X152343608Y-60186812D01*
X152333787Y-60223465D01*
X152309500Y-60314108D01*
X145324053Y-60314108D01*
X145323187Y-60313608D01*
X145259539Y-60296554D01*
X145195892Y-60279500D01*
X145064108Y-60279500D01*
X144936812Y-60313608D01*
X144822686Y-60379500D01*
X144822683Y-60379502D01*
X144729502Y-60472683D01*
X144729500Y-60472686D01*
X144663608Y-60586812D01*
X144629500Y-60714108D01*
X143270500Y-60714108D01*
X143236392Y-60586814D01*
X143170500Y-60472686D01*
X143077314Y-60379500D01*
X143020250Y-60346554D01*
X142963187Y-60313608D01*
X142899539Y-60296554D01*
X142835892Y-60279500D01*
X142704108Y-60279500D01*
X142576812Y-60313608D01*
X142462686Y-60379500D01*
X142462683Y-60379502D01*
X142369502Y-60472683D01*
X142369500Y-60472686D01*
X142303608Y-60586812D01*
X142269500Y-60714108D01*
X139847975Y-60714108D01*
X139800250Y-60686554D01*
X139743187Y-60653608D01*
X139679539Y-60636554D01*
X139615892Y-60619500D01*
X139484108Y-60619500D01*
X139356812Y-60653608D01*
X139242686Y-60719500D01*
X139242683Y-60719502D01*
X139149502Y-60812683D01*
X139149500Y-60812686D01*
X139083608Y-60926812D01*
X139049500Y-61054108D01*
X129389952Y-61054108D01*
X129397598Y-61050941D01*
X129569655Y-60935977D01*
X129715977Y-60789655D01*
X129830941Y-60617598D01*
X129910130Y-60426420D01*
X129950500Y-60223465D01*
X129950500Y-60016535D01*
X129910130Y-59813580D01*
X129830941Y-59622402D01*
X129715977Y-59450345D01*
X129715975Y-59450342D01*
X129569657Y-59304024D01*
X129401655Y-59191770D01*
X129397598Y-59189059D01*
X129365805Y-59175890D01*
X129304610Y-59150542D01*
X129206420Y-59109870D01*
X129206412Y-59109868D01*
X129003469Y-59069500D01*
X129003465Y-59069500D01*
X128796535Y-59069500D01*
X128796530Y-59069500D01*
X128593587Y-59109868D01*
X128593579Y-59109870D01*
X128402403Y-59189058D01*
X128230342Y-59304024D01*
X128084024Y-59450342D01*
X127969058Y-59622403D01*
X127889870Y-59813579D01*
X127889868Y-59813587D01*
X127849500Y-60016530D01*
X127410500Y-60016530D01*
X127410500Y-59250249D01*
X127410499Y-59250247D01*
X127398868Y-59191770D01*
X127398867Y-59191769D01*
X127354552Y-59125447D01*
X127288230Y-59081132D01*
X127288229Y-59081131D01*
X127229752Y-59069500D01*
X127229748Y-59069500D01*
X125490252Y-59069500D01*
X125490247Y-59069500D01*
X125431770Y-59081131D01*
X125431769Y-59081132D01*
X125365447Y-59125447D01*
X125321132Y-59191769D01*
X125321131Y-59191770D01*
X125309500Y-59250247D01*
X125010500Y-59250247D01*
X125010500Y-59044108D01*
X154189500Y-59044108D01*
X154189500Y-59175892D01*
X154206554Y-59239539D01*
X154223608Y-59303187D01*
X154256554Y-59360250D01*
X154289500Y-59417314D01*
X154382686Y-59510500D01*
X154496814Y-59576392D01*
X154624108Y-59610500D01*
X154624110Y-59610500D01*
X154755890Y-59610500D01*
X154755892Y-59610500D01*
X154883186Y-59576392D01*
X154997314Y-59510500D01*
X155090500Y-59417314D01*
X155156392Y-59303186D01*
X155190500Y-59175892D01*
X155190500Y-59044108D01*
X155156392Y-58916814D01*
X155090500Y-58802686D01*
X154997314Y-58709500D01*
X154916225Y-58662683D01*
X154883187Y-58643608D01*
X154819539Y-58626554D01*
X154755892Y-58609500D01*
X154624108Y-58609500D01*
X154496812Y-58643608D01*
X154382686Y-58709500D01*
X154382683Y-58709502D01*
X154289502Y-58802683D01*
X154289500Y-58802686D01*
X154223608Y-58916812D01*
X154218362Y-58936391D01*
X154189500Y-59044108D01*
X125010500Y-59044108D01*
X125010500Y-58404108D01*
X157229500Y-58404108D01*
X157229500Y-58535891D01*
X157263608Y-58663187D01*
X157290347Y-58709500D01*
X157329500Y-58777314D01*
X157422686Y-58870500D01*
X157536814Y-58936392D01*
X157664108Y-58970500D01*
X157664110Y-58970500D01*
X157795890Y-58970500D01*
X157795892Y-58970500D01*
X157923186Y-58936392D01*
X157979103Y-58904108D01*
X162479500Y-58904108D01*
X162479500Y-59035892D01*
X162481702Y-59044110D01*
X162513608Y-59163187D01*
X162528545Y-59189058D01*
X162579500Y-59277314D01*
X162672686Y-59370500D01*
X162786814Y-59436392D01*
X162914108Y-59470500D01*
X162914110Y-59470500D01*
X163045890Y-59470500D01*
X163045892Y-59470500D01*
X163173186Y-59436392D01*
X163287314Y-59370500D01*
X163380500Y-59277314D01*
X163446392Y-59163186D01*
X163480500Y-59035892D01*
X163480500Y-58904108D01*
X163446392Y-58776814D01*
X163380500Y-58662686D01*
X163287314Y-58569500D01*
X163229100Y-58535890D01*
X163173187Y-58503608D01*
X163109539Y-58486554D01*
X163045892Y-58469500D01*
X162914108Y-58469500D01*
X162786812Y-58503608D01*
X162672686Y-58569500D01*
X162672683Y-58569502D01*
X162579502Y-58662683D01*
X162579500Y-58662686D01*
X162513608Y-58776812D01*
X162505171Y-58808300D01*
X162479500Y-58904108D01*
X157979103Y-58904108D01*
X158037314Y-58870500D01*
X158130500Y-58777314D01*
X158196392Y-58663186D01*
X158230500Y-58535892D01*
X158230500Y-58404108D01*
X158196392Y-58276814D01*
X158130500Y-58162686D01*
X158037314Y-58069500D01*
X157974418Y-58033187D01*
X157923187Y-58003608D01*
X157859539Y-57986554D01*
X157795892Y-57969500D01*
X157664108Y-57969500D01*
X157536812Y-58003608D01*
X157422686Y-58069500D01*
X157422683Y-58069502D01*
X157329502Y-58162683D01*
X157329500Y-58162686D01*
X157263608Y-58276812D01*
X157229500Y-58404108D01*
X125010500Y-58404108D01*
X125010500Y-57774108D01*
X153329500Y-57774108D01*
X153329500Y-57905891D01*
X153363608Y-58033187D01*
X153384574Y-58069500D01*
X153429500Y-58147314D01*
X153522686Y-58240500D01*
X153585584Y-58276814D01*
X153636810Y-58306390D01*
X153636814Y-58306392D01*
X153764108Y-58340500D01*
X153764110Y-58340500D01*
X153895890Y-58340500D01*
X153895892Y-58340500D01*
X154023186Y-58306392D01*
X154137314Y-58240500D01*
X154230500Y-58147314D01*
X154296392Y-58033186D01*
X154330500Y-57905892D01*
X154330500Y-57774108D01*
X154296392Y-57646814D01*
X154230500Y-57532686D01*
X154137314Y-57439500D01*
X154080250Y-57406554D01*
X154023187Y-57373608D01*
X153959539Y-57356554D01*
X153895892Y-57339500D01*
X153764108Y-57339500D01*
X153636812Y-57373608D01*
X153522686Y-57439500D01*
X153522683Y-57439502D01*
X153429502Y-57532683D01*
X153429500Y-57532686D01*
X153363608Y-57646812D01*
X153329500Y-57774108D01*
X125010500Y-57774108D01*
X125010500Y-55234108D01*
X144629500Y-55234108D01*
X144629500Y-55365891D01*
X144663608Y-55493187D01*
X144696554Y-55550250D01*
X144729500Y-55607314D01*
X144822686Y-55700500D01*
X144936814Y-55766392D01*
X145064108Y-55800500D01*
X145064110Y-55800500D01*
X145195890Y-55800500D01*
X145195892Y-55800500D01*
X145323186Y-55766392D01*
X145437314Y-55700500D01*
X145530500Y-55607314D01*
X145596392Y-55493186D01*
X145630500Y-55365892D01*
X145630500Y-55234108D01*
X145596392Y-55106814D01*
X145530500Y-54992686D01*
X145437314Y-54899500D01*
X145380250Y-54866554D01*
X145323187Y-54833608D01*
X145259539Y-54816554D01*
X145195892Y-54799500D01*
X145064108Y-54799500D01*
X144936812Y-54833608D01*
X144822686Y-54899500D01*
X144822683Y-54899502D01*
X144729502Y-54992683D01*
X144729500Y-54992686D01*
X144663608Y-55106812D01*
X144629500Y-55234108D01*
X125010500Y-55234108D01*
X125010500Y-53964108D01*
X143619500Y-53964108D01*
X143619500Y-54095891D01*
X143653608Y-54223187D01*
X143686554Y-54280250D01*
X143719500Y-54337314D01*
X143812686Y-54430500D01*
X143926814Y-54496392D01*
X144054108Y-54530500D01*
X144054110Y-54530500D01*
X144185890Y-54530500D01*
X144185892Y-54530500D01*
X144313186Y-54496392D01*
X144427314Y-54430500D01*
X144520500Y-54337314D01*
X144586392Y-54223186D01*
X144620500Y-54095892D01*
X144620500Y-53964108D01*
X144586392Y-53836814D01*
X144520500Y-53722686D01*
X144427314Y-53629500D01*
X144370250Y-53596554D01*
X144313187Y-53563608D01*
X144249539Y-53546554D01*
X144185892Y-53529500D01*
X144054108Y-53529500D01*
X143926812Y-53563608D01*
X143812686Y-53629500D01*
X143812683Y-53629502D01*
X143719502Y-53722683D01*
X143719500Y-53722686D01*
X143653608Y-53836812D01*
X143619500Y-53964108D01*
X125010500Y-53964108D01*
X125010500Y-52694108D01*
X135529500Y-52694108D01*
X135529500Y-52825891D01*
X135563608Y-52953187D01*
X135596554Y-53010250D01*
X135629500Y-53067314D01*
X135722686Y-53160500D01*
X135836814Y-53226392D01*
X135964108Y-53260500D01*
X135964110Y-53260500D01*
X136095890Y-53260500D01*
X136095892Y-53260500D01*
X136223186Y-53226392D01*
X136337314Y-53160500D01*
X136430500Y-53067314D01*
X136496392Y-52953186D01*
X136530500Y-52825892D01*
X136530500Y-52694108D01*
X145549500Y-52694108D01*
X145549500Y-52825891D01*
X145583608Y-52953187D01*
X145616554Y-53010250D01*
X145649500Y-53067314D01*
X145742686Y-53160500D01*
X145856814Y-53226392D01*
X145984108Y-53260500D01*
X145984110Y-53260500D01*
X146115890Y-53260500D01*
X146115892Y-53260500D01*
X146243186Y-53226392D01*
X146357314Y-53160500D01*
X146450500Y-53067314D01*
X146516392Y-52953186D01*
X146550500Y-52825892D01*
X146550500Y-52694108D01*
X146516392Y-52566814D01*
X146450500Y-52452686D01*
X146357314Y-52359500D01*
X146300250Y-52326554D01*
X146243187Y-52293608D01*
X146179539Y-52276554D01*
X146115892Y-52259500D01*
X145984108Y-52259500D01*
X145856812Y-52293608D01*
X145742686Y-52359500D01*
X145742683Y-52359502D01*
X145649502Y-52452683D01*
X145649500Y-52452686D01*
X145583608Y-52566812D01*
X145549500Y-52694108D01*
X136530500Y-52694108D01*
X136496392Y-52566814D01*
X136430500Y-52452686D01*
X136337314Y-52359500D01*
X136280250Y-52326554D01*
X136223187Y-52293608D01*
X136159539Y-52276554D01*
X136095892Y-52259500D01*
X135964108Y-52259500D01*
X135836812Y-52293608D01*
X135722686Y-52359500D01*
X135722683Y-52359502D01*
X135629502Y-52452683D01*
X135629500Y-52452686D01*
X135563608Y-52566812D01*
X135529500Y-52694108D01*
X125010500Y-52694108D01*
X125010500Y-47824500D01*
X125030185Y-47757461D01*
X125082989Y-47711706D01*
X125134500Y-47700500D01*
X170785500Y-47700500D01*
X170852539Y-47720185D01*
G37*
%TD.AperFunction*%
%TD*%
M02*
