M48
; DRILL file {KiCad 9.0.7+1} date 2026-02-26T05:40:25+0000
; FORMAT={-:-/ absolute / metric / decimal}
; #@! TF.CreationDate,2026-02-26T05:40:25+00:00
; #@! TF.GenerationSoftware,Kicad,Pcbnew,9.0.7+1
; #@! TF.FileFunction,Plated,1,4,PTH
FMAT,2
METRIC
; #@! TA.AperFunction,Plated,PTH,ViaDrill
T1C0.250
; #@! TA.AperFunction,Plated,PTH,ViaDrill
T2C0.300
; #@! TA.AperFunction,Plated,PTH,ComponentDrill
T3C0.600
; #@! TA.AperFunction,Plated,PTH,ComponentDrill
T4C0.700
; #@! TA.AperFunction,Plated,PTH,ComponentDrill
T5C0.730
; #@! TA.AperFunction,Plated,PTH,ComponentDrill
T6C0.750
; #@! TA.AperFunction,Plated,PTH,ComponentDrill
T7C1.000
; #@! TA.AperFunction,Plated,PTH,ComponentDrill
T8C1.800
; #@! TA.AperFunction,Plated,PTH,ComponentDrill
T9C2.000
%
G90
G05
T1
X144.66Y-112.07
X161.59Y-89.5
T2
X125.1Y-49.94
X125.82Y-104.29
X125.83Y-106.34
X126.95Y-52.76
X127.0Y-112.95
X127.18Y-87.65
X128.04Y-55.53
X130.62Y-64.85
X131.03Y-51.41
X131.31Y-68.585
X131.31Y-69.435
X131.64Y-65.67
X131.64Y-66.52
X132.22Y-64.22
X132.31Y-70.53
X132.37Y-76.81
X132.45Y-80.28
X132.86Y-75.51
X134.08Y-70.51
X134.11Y-99.3
X134.42Y-74.57
X134.75Y-50.22
X135.07Y-52.75
X135.16Y-64.47
X135.63Y-86.07
X135.99Y-62.9
X136.08Y-105.52
X136.63Y-118.32
X136.85Y-86.89
X136.97Y-61.66
X137.15Y-75.7
X137.54Y-74.66
X137.65Y-62.69
X137.93Y-77.67
X138.12Y-63.82
X138.63Y-89.15
X139.02Y-109.65
X139.1Y-71.35
X139.19Y-61.29
X139.32Y-59.34
X139.33Y-57.94
X139.34Y-56.55
X139.55Y-131.99
X139.56Y-125.89
X140.34Y-65.79
X140.5Y-123.6
X140.65Y-105.39
X140.72Y-57.93
X140.73Y-59.34
X140.74Y-56.55
X141.27Y-71.12
X141.35Y-130.5
X141.37Y-127.03
X141.42Y-73.19
X141.58Y-105.39
X141.61Y-65.05
X141.61Y-74.83
X142.01Y-79.48
X142.14Y-57.93
X142.14Y-59.34
X142.15Y-56.55
X142.22Y-70.49
X142.69Y-99.27
X142.7Y-108.54
X142.77Y-63.88
X142.81Y-60.78
X142.89Y-66.51
X142.96Y-83.175
X142.96Y-84.025
X143.03Y-75.79
X143.23Y-72.89
X143.23Y-73.99
X143.53Y-79.47
X144.12Y-62.7
X144.139Y-84.669
X144.15Y-64.39
X144.19Y-53.95
X144.33Y-72.9
X144.33Y-73.99
X144.39Y-107.57
X144.634Y-81.421
X144.67Y-113.02
X144.741Y-85.271
X144.78Y-114.46
X145.13Y-60.75
X145.27Y-55.24
X145.3Y-121.53
X145.3Y-127.01
X145.44Y-69.55
X145.484Y-81.421
X146.05Y-71.22
X146.11Y-73.3
X146.22Y-52.91
X146.397Y-78.568
X146.397Y-79.418
X146.79Y-62.71
X147.02Y-77.6
X147.11Y-122.32
X147.11Y-125.0
X147.125Y-88.54
X147.125Y-116.75
X147.52Y-127.27
X147.54Y-82.51
X147.54Y-84.7
X147.96Y-122.32
X147.96Y-125.0
X147.975Y-88.54
X147.975Y-116.75
X148.0Y-63.64
X148.65Y-83.6
X148.85Y-105.02
X149.45Y-56.69
X149.74Y-82.5
X149.74Y-84.7
X149.763Y-71.217
X150.46Y-96.9
X150.98Y-73.31
X151.43Y-116.3
X151.53Y-94.98
X151.76Y-126.77
X151.8Y-75.45
X151.83Y-70.48
X151.88Y-83.11
X151.93Y-79.3
X152.17Y-101.11
X152.28Y-50.22
X152.88Y-83.1
X152.94Y-91.1
X153.12Y-95.97
X153.65Y-130.41
X153.73Y-94.97
X153.75Y-100.88
X153.83Y-82.31
X153.91Y-57.83
X154.33Y-114.35
X154.35Y-92.28
X154.52Y-126.41
X154.69Y-59.07
X155.15Y-75.51
X155.5Y-121.5
X155.56Y-96.7
X155.56Y-97.7
X156.56Y-96.7
X156.56Y-97.7
X156.905Y-75.905
X156.908Y-88.43
X157.0Y-69.63
X157.96Y-122.73
X158.35Y-96.07
X158.9Y-62.72
X159.28Y-111.43
X159.5Y-86.85
X159.78Y-130.64
X160.88Y-88.57
X160.9Y-82.8
X160.94Y-75.19
X161.0Y-99.75
X161.0Y-100.75
X161.0Y-101.75
X161.0Y-102.75
X161.0Y-103.75
X161.0Y-104.75
X161.0Y-105.75
X161.01Y-65.23
X161.13Y-97.97
X161.22Y-92.76
X161.74Y-109.63
X161.895Y-75.925
X162.93Y-63.7
X162.93Y-66.64
X163.02Y-75.06
X163.43Y-53.36
X163.44Y-49.65
X163.61Y-95.09
X164.15Y-98.06
X164.42Y-83.89
X164.43Y-120.24
X164.73Y-117.39
X164.87Y-86.03
X164.93Y-80.35
X164.97Y-73.48
X164.98Y-65.98
X165.03Y-114.51
X165.04Y-109.59
X165.69Y-116.5
X165.7Y-102.26
X166.02Y-84.97
X166.12Y-75.09
X166.22Y-91.3
X166.28Y-108.72
X166.45Y-57.27
X166.63Y-64.47
X167.29Y-99.91
X167.46Y-61.77
X167.49Y-57.27
X168.99Y-73.28
X169.67Y-60.74
X169.84Y-87.23
T4
X144.62Y-130.7
X150.4Y-130.7
T5
X143.8Y-119.4
X145.3Y-119.4
X146.8Y-119.4
X148.3Y-119.4
X149.8Y-119.4
X151.3Y-119.4
X168.65Y-113.45
X168.65Y-114.95
X168.65Y-116.45
X168.65Y-117.95
X168.65Y-119.45
X168.65Y-120.95
T6
X157.54Y-134.78
X159.04Y-134.78
X160.54Y-134.78
X162.04Y-134.78
X168.55Y-104.75
X168.55Y-106.25
X168.55Y-107.75
X168.55Y-109.25
T7
X126.36Y-60.12
X126.36Y-62.66
X126.36Y-65.2
X126.36Y-67.74
X126.36Y-70.28
X128.9Y-60.12
X128.9Y-62.66
X128.9Y-65.2
X128.9Y-67.74
X128.9Y-70.28
X167.06Y-125.22
X167.06Y-127.76
X167.06Y-130.3
X167.06Y-132.84
X167.06Y-135.38
X169.6Y-125.22
X169.6Y-127.76
X169.6Y-130.3
X169.6Y-132.84
X169.6Y-135.38
T8
X132.08Y-131.99
T9
X132.08Y-127.49
T3
G00X143.19Y-129.72
M15
G01X143.19Y-130.62
M16
G05
G00X143.19Y-134.08
M15
G01X143.19Y-134.68
M16
G05
G00X151.83Y-129.72
M15
G01X151.83Y-130.62
M16
G05
G00X151.83Y-134.08
M15
G01X151.83Y-134.68
M16
G05
M30
