%TF.GenerationSoftware,KiCad,Pcbnew,9.0.7+1*%
%TF.CreationDate,Date%
%TF.ProjectId,IndustrialSense,496e6475-7374-4726-9961-6c53656e7365,+ (Unreleased)*%
%TF.SameCoordinates,Original*%
%TF.FileFunction,Copper,L6,Bot*%
%TF.FilePolarity,Positive*%
%FSLAX46Y46*%
G04 Gerber Fmt 4.6, Leading zero omitted, Abs format (unit mm)*
G04 Created by KiCad*
%MOMM*%
%LPD*%
G01*
G04 APERTURE LIST*
G04 Aperture macros list*
%AMRoundRect*
0 Rectangle with rounded corners*
0 $1 Rounding radius*
0 $2 $3 $4 $5 $6 $7 $8 $9 X,Y pos of 4 corners*
0 Add a 4 corners polygon primitive as box body*
4,1,4,$2,$3,$4,$5,$6,$7,$8,$9,$2,$3,0*
0 Add four circle primitives for the rounded corners*
1,1,$1+$1,$2,$3*
1,1,$1+$1,$4,$5*
1,1,$1+$1,$6,$7*
1,1,$1+$1,$8,$9*
0 Add four rect primitives between the rounded corners*
20,1,$1+$1,$2,$3,$4,$5,0*
20,1,$1+$1,$4,$5,$6,$7,0*
20,1,$1+$1,$6,$7,$8,$9,0*
20,1,$1+$1,$8,$9,$2,$3,0*%
G04 Aperture macros list end*
%TA.AperFunction,ComponentPad*%
%ADD10C,1.800000*%
%TD*%
%TA.AperFunction,ComponentPad*%
%ADD11C,2.000000*%
%TD*%
%TA.AperFunction,ComponentPad*%
%ADD12C,0.700000*%
%TD*%
%TA.AperFunction,ComponentPad*%
%ADD13O,1.100000X2.000000*%
%TD*%
%TA.AperFunction,ComponentPad*%
%ADD14O,1.200000X1.800000*%
%TD*%
%TA.AperFunction,ComponentPad*%
%ADD15R,1.700000X1.700000*%
%TD*%
%TA.AperFunction,ComponentPad*%
%ADD16O,1.700000X1.700000*%
%TD*%
%TA.AperFunction,ComponentPad*%
%ADD17RoundRect,0.250000X0.615000X-0.265000X0.615000X0.265000X-0.615000X0.265000X-0.615000X-0.265000X0*%
%TD*%
%TA.AperFunction,ComponentPad*%
%ADD18O,1.730000X1.030000*%
%TD*%
%TA.AperFunction,ComponentPad*%
%ADD19R,1.200000X1.200000*%
%TD*%
%TA.AperFunction,ComponentPad*%
%ADD20C,1.200000*%
%TD*%
%TA.AperFunction,SMDPad,CuDef*%
%ADD21R,2.900000X0.800000*%
%TD*%
%TA.AperFunction,SMDPad,CuDef*%
%ADD22R,3.200000X0.800000*%
%TD*%
G04 APERTURE END LIST*
D10*
%TO.P,DC1,*%
%TO.N,*%
X132080000Y-131990000D03*
D11*
X132080000Y-127490000D03*
%TD*%
D12*
%TO.P,USB1,*%
%TO.N,*%
X143100000Y-130817500D03*
X148880000Y-130817500D03*
D13*
%TO.P,USB1,13,SHELL*%
%TO.N,GND*%
X141670000Y-130287500D03*
D14*
X141670000Y-134497500D03*
D13*
%TO.P,USB1,14,SHELL*%
X150310000Y-130287500D03*
D14*
X150310000Y-134497500D03*
%TD*%
D15*
%TO.P,J3,1,Pin_1*%
%TO.N,unconnected-(J3-Pin_1-Pad1)*%
X128855000Y-71015000D03*
D16*
%TO.P,J3,2,Pin_2*%
%TO.N,unconnected-(J3-Pin_2-Pad2)*%
X126315000Y-71015000D03*
%TO.P,J3,3,Pin_3*%
%TO.N,unconnected-(J3-Pin_3-Pad3)*%
X128855000Y-68475000D03*
%TO.P,J3,4,Pin_4*%
%TO.N,unconnected-(J3-Pin_4-Pad4)*%
X126315000Y-68475000D03*
%TO.P,J3,5,Pin_5*%
%TO.N,unconnected-(J3-Pin_5-Pad5)*%
X128855000Y-65935000D03*
%TO.P,J3,6,Pin_6*%
%TO.N,unconnected-(J3-Pin_6-Pad6)*%
X126315000Y-65935000D03*
%TO.P,J3,7,Pin_7*%
%TO.N,unconnected-(J3-Pin_7-Pad7)*%
X128855000Y-63395000D03*
%TO.P,J3,8,Pin_8*%
%TO.N,unconnected-(J3-Pin_8-Pad8)*%
X126315000Y-63395000D03*
%TO.P,J3,9,Pin_9*%
%TO.N,unconnected-(J3-Pin_9-Pad9)*%
X128855000Y-60855000D03*
%TO.P,J3,10,Pin_10*%
%TO.N,unconnected-(J3-Pin_10-Pad10)*%
X126315000Y-60855000D03*
%TD*%
D15*
%TO.P,J3,1,Pin_1*%
%TO.N,N/C*%
X169580000Y-135380000D03*
D16*
%TO.P,J3,2,Pin_2*%
X167040000Y-135380000D03*
%TO.P,J3,3,Pin_3*%
X169580000Y-132840000D03*
%TO.P,J3,4,Pin_4*%
X167040000Y-132840000D03*
%TO.P,J3,5,Pin_5*%
X169580000Y-130300000D03*
%TO.P,J3,6,Pin_6*%
X167040000Y-130300000D03*
%TO.P,J3,7,Pin_7*%
X169580000Y-127760000D03*
%TO.P,J3,8,Pin_8*%
X167040000Y-127760000D03*
%TO.P,J3,9,Pin_9*%
X169580000Y-125220000D03*
%TO.P,J3,10,Pin_10*%
X167040000Y-125220000D03*
%TD*%
D17*
%TO.P,J1,1,Pin_1*%
%TO.N,unconnected-(J1-Pin_1-Pad1)*%
X168730000Y-120790000D03*
D18*
%TO.P,J1,2,Pin_2*%
%TO.N,unconnected-(J1-Pin_2-Pad2)*%
X168730000Y-119290000D03*
%TO.P,J1,3,Pin_3*%
%TO.N,unconnected-(J1-Pin_3-Pad3)*%
X168730000Y-117790000D03*
%TO.P,J1,4,Pin_4*%
%TO.N,unconnected-(J1-Pin_4-Pad4)*%
X168730000Y-116290000D03*
%TO.P,J1,5,Pin_5*%
%TO.N,unconnected-(J1-Pin_5-Pad5)*%
X168730000Y-114790000D03*
%TO.P,J1,6,Pin_6*%
%TO.N,unconnected-(J1-Pin_6-Pad6)*%
X168730000Y-113290000D03*
%TD*%
D19*
%TO.P,CN2,1,1*%
%TO.N,V_MAIN*%
X155377500Y-134790000D03*
D20*
%TO.P,CN2,2,2*%
%TO.N,/Project Architecture/External Connectors/RS485_A*%
X156877500Y-134790000D03*
%TO.P,CN2,3,3*%
%TO.N,/Project Architecture/External Connectors/RS485_B*%
X158377500Y-134790000D03*
%TO.P,CN2,4,4*%
%TO.N,GND*%
X159877500Y-134790000D03*
%TD*%
D21*
%TO.P,REF\u002A\u002A,1*%
%TO.N,N/C*%
X158905000Y-77940000D03*
%TO.P,REF\u002A\u002A,2*%
X158905000Y-79040000D03*
%TO.P,REF\u002A\u002A,3*%
X158905000Y-80140000D03*
D22*
%TO.P,REF\u002A\u002A,4*%
X158755000Y-81240000D03*
D21*
%TO.P,REF\u002A\u002A,5*%
X158905000Y-82340000D03*
D22*
%TO.P,REF\u002A\u002A,6*%
X158755000Y-83440000D03*
D21*
%TO.P,REF\u002A\u002A,7*%
X158905000Y-84540000D03*
%TO.P,REF\u002A\u002A,8*%
X158905000Y-85640000D03*
%TD*%
M02*
