%TF.GenerationSoftware,KiCad,Pcbnew,9.0.7+1*%
%TF.CreationDate,Date%
%TF.ProjectId,IndustrialSense,496e6475-7374-4726-9961-6c53656e7365,+ (Unreleased)*%
%TF.SameCoordinates,Original*%
%TF.FileFunction,Copper,L1,Top*%
%TF.FilePolarity,Positive*%
%FSLAX46Y46*%
G04 Gerber Fmt 4.6, Leading zero omitted, Abs format (unit mm)*
G04 Created by KiCad*
%MOMM*%
%LPD*%
G01*
G04 APERTURE LIST*
G04 Aperture macros list*
%AMRoundRect*
0 Rectangle with rounded corners*
0 $1 Rounding radius*
0 $2 $3 $4 $5 $6 $7 $8 $9 X,Y pos of 4 corners*
0 Add a 4 corners polygon primitive as box body*
4,1,4,$2,$3,$4,$5,$6,$7,$8,$9,$2,$3,0*
0 Add four circle primitives for the rounded corners*
1,1,$1+$1,$2,$3*
1,1,$1+$1,$4,$5*
1,1,$1+$1,$6,$7*
1,1,$1+$1,$8,$9*
0 Add four rect primitives between the rounded corners*
20,1,$1+$1,$2,$3,$4,$5,0*
20,1,$1+$1,$4,$5,$6,$7,0*
20,1,$1+$1,$6,$7,$8,$9,0*
20,1,$1+$1,$8,$9,$2,$3,0*%
%AMRotRect*
0 Rectangle, with rotation*
0 The origin of the aperture is its center*
0 $1 length*
0 $2 width*
0 $3 Rotation angle, in degrees counterclockwise*
0 Add horizontal line*
21,1,$1,$2,0,0,$3*%
%AMFreePoly0*
4,1,15,0.215355,0.145355,0.230000,0.110000,0.230000,0.030000,0.215355,-0.005355,0.210697,-0.009468,0.030697,-0.149468,0.000000,-0.160000,-0.180000,-0.160000,-0.215355,-0.145355,-0.230000,-0.110000,-0.230000,0.110000,-0.215355,0.145355,-0.180000,0.160000,0.180000,0.160000,0.215355,0.145355,0.215355,0.145355,$1*%
%AMFreePoly1*
4,1,15,0.030697,0.139468,0.210697,-0.000532,0.229614,-0.033798,0.230000,-0.040000,0.230000,-0.120000,0.215355,-0.155355,0.180000,-0.170000,-0.180000,-0.170000,-0.215355,-0.155355,-0.230000,-0.120000,-0.230000,0.100000,-0.215355,0.135355,-0.180000,0.150000,0.000000,0.150000,0.030697,0.139468,0.030697,0.139468,$1*%
%AMFreePoly2*
4,1,15,0.215355,0.135355,0.230000,0.100000,0.230000,-0.120000,0.215355,-0.155355,0.180000,-0.170000,-0.180000,-0.170000,-0.215355,-0.155355,-0.230000,-0.120000,-0.230000,-0.040000,-0.215355,-0.004645,-0.210697,-0.000532,-0.030697,0.139468,0.000000,0.150000,0.180000,0.150000,0.215355,0.135355,0.215355,0.135355,$1*%
%AMFreePoly3*
4,1,15,0.215355,0.145355,0.230000,0.110000,0.230000,-0.110000,0.215355,-0.145355,0.180000,-0.160000,0.000000,-0.160000,-0.030697,-0.149468,-0.210697,-0.009468,-0.229614,0.023798,-0.230000,0.030000,-0.230000,0.110000,-0.215355,0.145355,-0.180000,0.160000,0.180000,0.160000,0.215355,0.145355,0.215355,0.145355,$1*%
G04 Aperture macros list end*
%TA.AperFunction,SMDPad,CuDef*%
%ADD10R,0.530000X1.070000*%
%TD*%
%TA.AperFunction,SMDPad,CuDef*%
%ADD11R,3.500000X1.200000*%
%TD*%
%TA.AperFunction,SMDPad,CuDef*%
%ADD12RoundRect,0.135000X0.185000X-0.135000X0.185000X0.135000X-0.185000X0.135000X-0.185000X-0.135000X0*%
%TD*%
%TA.AperFunction,ComponentPad*%
%ADD13C,1.800000*%
%TD*%
%TA.AperFunction,ComponentPad*%
%ADD14C,2.000000*%
%TD*%
%TA.AperFunction,SMDPad,CuDef*%
%ADD15R,2.800000X2.800000*%
%TD*%
%TA.AperFunction,SMDPad,CuDef*%
%ADD16RoundRect,0.135000X-0.185000X0.135000X-0.185000X-0.135000X0.185000X-0.135000X0.185000X0.135000X0*%
%TD*%
%TA.AperFunction,SMDPad,CuDef*%
%ADD17RoundRect,0.250000X-0.325000X-1.100000X0.325000X-1.100000X0.325000X1.100000X-0.325000X1.100000X0*%
%TD*%
%TA.AperFunction,SMDPad,CuDef*%
%ADD18R,3.500000X0.700000*%
%TD*%
%TA.AperFunction,SMDPad,CuDef*%
%ADD19R,2.300000X1.500000*%
%TD*%
%TA.AperFunction,SMDPad,CuDef*%
%ADD20RoundRect,0.200000X-0.200000X-0.275000X0.200000X-0.275000X0.200000X0.275000X-0.200000X0.275000X0*%
%TD*%
%TA.AperFunction,SMDPad,CuDef*%
%ADD21RoundRect,0.250000X0.325000X1.100000X-0.325000X1.100000X-0.325000X-1.100000X0.325000X-1.100000X0*%
%TD*%
%TA.AperFunction,SMDPad,CuDef*%
%ADD22R,0.530000X1.040000*%
%TD*%
%TA.AperFunction,SMDPad,CuDef*%
%ADD23R,0.800000X2.000000*%
%TD*%
%TA.AperFunction,SMDPad,CuDef*%
%ADD24RoundRect,0.200000X0.200000X0.275000X-0.200000X0.275000X-0.200000X-0.275000X0.200000X-0.275000X0*%
%TD*%
%TA.AperFunction,SMDPad,CuDef*%
%ADD25O,0.280000X0.800000*%
%TD*%
%TA.AperFunction,SMDPad,CuDef*%
%ADD26O,0.800000X0.280000*%
%TD*%
%TA.AperFunction,SMDPad,CuDef*%
%ADD27R,1.600000X1.600000*%
%TD*%
%TA.AperFunction,ComponentPad*%
%ADD28C,0.700000*%
%TD*%
%TA.AperFunction,SMDPad,CuDef*%
%ADD29R,0.550000X1.100000*%
%TD*%
%TA.AperFunction,SMDPad,CuDef*%
%ADD30R,0.300000X1.100000*%
%TD*%
%TA.AperFunction,ComponentPad*%
%ADD31O,1.100000X2.000000*%
%TD*%
%TA.AperFunction,ComponentPad*%
%ADD32O,1.200000X1.800000*%
%TD*%
%TA.AperFunction,SMDPad,CuDef*%
%ADD33RoundRect,0.140000X0.140000X0.170000X-0.140000X0.170000X-0.140000X-0.170000X0.140000X-0.170000X0*%
%TD*%
%TA.AperFunction,SMDPad,CuDef*%
%ADD34RoundRect,0.150000X-0.150000X0.587500X-0.150000X-0.587500X0.150000X-0.587500X0.150000X0.587500X0*%
%TD*%
%TA.AperFunction,SMDPad,CuDef*%
%ADD35RoundRect,0.135000X0.135000X0.185000X-0.135000X0.185000X-0.135000X-0.185000X0.135000X-0.185000X0*%
%TD*%
%TA.AperFunction,SMDPad,CuDef*%
%ADD36R,1.100000X0.620000*%
%TD*%
%TA.AperFunction,SMDPad,CuDef*%
%ADD37RoundRect,0.140000X0.170000X-0.140000X0.170000X0.140000X-0.170000X0.140000X-0.170000X-0.140000X0*%
%TD*%
%TA.AperFunction,SMDPad,CuDef*%
%ADD38R,0.410000X0.990000*%
%TD*%
%TA.AperFunction,SMDPad,CuDef*%
%ADD39R,2.230000X1.720000*%
%TD*%
%TA.AperFunction,SMDPad,CuDef*%
%ADD40RoundRect,0.140000X-0.140000X-0.170000X0.140000X-0.170000X0.140000X0.170000X-0.140000X0.170000X0*%
%TD*%
%TA.AperFunction,SMDPad,CuDef*%
%ADD41R,0.830000X0.630000*%
%TD*%
%TA.AperFunction,SMDPad,CuDef*%
%ADD42RoundRect,0.135000X-0.135000X-0.185000X0.135000X-0.185000X0.135000X0.185000X-0.135000X0.185000X0*%
%TD*%
%TA.AperFunction,SMDPad,CuDef*%
%ADD43R,1.000000X3.500000*%
%TD*%
%TA.AperFunction,SMDPad,CuDef*%
%ADD44R,3.300000X2.000000*%
%TD*%
%TA.AperFunction,SMDPad,CuDef*%
%ADD45RoundRect,0.225000X-0.225000X-0.250000X0.225000X-0.250000X0.225000X0.250000X-0.225000X0.250000X0*%
%TD*%
%TA.AperFunction,SMDPad,CuDef*%
%ADD46R,1.200000X3.000000*%
%TD*%
%TA.AperFunction,SMDPad,CuDef*%
%ADD47R,1.200000X2.400000*%
%TD*%
%TA.AperFunction,SMDPad,CuDef*%
%ADD48O,0.590000X2.050000*%
%TD*%
%TA.AperFunction,SMDPad,CuDef*%
%ADD49RoundRect,0.200000X0.275000X-0.200000X0.275000X0.200000X-0.275000X0.200000X-0.275000X-0.200000X0*%
%TD*%
%TA.AperFunction,SMDPad,CuDef*%
%ADD50RoundRect,0.225000X-0.250000X0.225000X-0.250000X-0.225000X0.250000X-0.225000X0.250000X0.225000X0*%
%TD*%
%TA.AperFunction,SMDPad,CuDef*%
%ADD51RoundRect,0.250000X-0.475000X0.250000X-0.475000X-0.250000X0.475000X-0.250000X0.475000X0.250000X0*%
%TD*%
%TA.AperFunction,SMDPad,CuDef*%
%ADD52R,1.860000X1.230000*%
%TD*%
%TA.AperFunction,SMDPad,CuDef*%
%ADD53R,0.800000X1.000000*%
%TD*%
%TA.AperFunction,ComponentPad*%
%ADD54R,1.700000X1.700000*%
%TD*%
%TA.AperFunction,ComponentPad*%
%ADD55O,1.700000X1.700000*%
%TD*%
%TA.AperFunction,SMDPad,CuDef*%
%ADD56R,1.400000X1.200000*%
%TD*%
%TA.AperFunction,SMDPad,CuDef*%
%ADD57RoundRect,0.112500X-0.187500X-0.112500X0.187500X-0.112500X0.187500X0.112500X-0.187500X0.112500X0*%
%TD*%
%TA.AperFunction,SMDPad,CuDef*%
%ADD58R,5.600000X1.550000*%
%TD*%
%TA.AperFunction,SMDPad,CuDef*%
%ADD59RoundRect,0.250000X-0.650000X1.000000X-0.650000X-1.000000X0.650000X-1.000000X0.650000X1.000000X0*%
%TD*%
%TA.AperFunction,SMDPad,CuDef*%
%ADD60R,1.070000X0.530000*%
%TD*%
%TA.AperFunction,SMDPad,CuDef*%
%ADD61R,0.990000X0.410000*%
%TD*%
%TA.AperFunction,SMDPad,CuDef*%
%ADD62R,1.720000X2.230000*%
%TD*%
%TA.AperFunction,SMDPad,CuDef*%
%ADD63R,1.500000X0.500000*%
%TD*%
%TA.AperFunction,SMDPad,CuDef*%
%ADD64R,1.400000X1.300000*%
%TD*%
%TA.AperFunction,SMDPad,CuDef*%
%ADD65O,0.570000X1.890000*%
%TD*%
%TA.AperFunction,SMDPad,CuDef*%
%ADD66RoundRect,0.225000X0.250000X-0.225000X0.250000X0.225000X-0.250000X0.225000X-0.250000X-0.225000X0*%
%TD*%
%TA.AperFunction,ComponentPad*%
%ADD67R,1.200000X1.200000*%
%TD*%
%TA.AperFunction,ComponentPad*%
%ADD68C,1.200000*%
%TD*%
%TA.AperFunction,SMDPad,CuDef*%
%ADD69RoundRect,0.218750X0.218750X0.256250X-0.218750X0.256250X-0.218750X-0.256250X0.218750X-0.256250X0*%
%TD*%
%TA.AperFunction,SMDPad,CuDef*%
%ADD70FreePoly0,180.000000*%
%TD*%
%TA.AperFunction,SMDPad,CuDef*%
%ADD71FreePoly1,180.000000*%
%TD*%
%TA.AperFunction,SMDPad,CuDef*%
%ADD72FreePoly2,180.000000*%
%TD*%
%TA.AperFunction,SMDPad,CuDef*%
%ADD73FreePoly3,180.000000*%
%TD*%
%TA.AperFunction,SMDPad,CuDef*%
%ADD74RotRect,0.480000X0.480000X225.000000*%
%TD*%
%TA.AperFunction,SMDPad,CuDef*%
%ADD75R,0.600000X0.600000*%
%TD*%
%TA.AperFunction,SMDPad,CuDef*%
%ADD76RoundRect,0.250000X-1.000000X-0.650000X1.000000X-0.650000X1.000000X0.650000X-1.000000X0.650000X0*%
%TD*%
%TA.AperFunction,SMDPad,CuDef*%
%ADD77R,0.900000X0.400000*%
%TD*%
%TA.AperFunction,SMDPad,CuDef*%
%ADD78RoundRect,0.225000X0.225000X0.250000X-0.225000X0.250000X-0.225000X-0.250000X0.225000X-0.250000X0*%
%TD*%
%TA.AperFunction,SMDPad,CuDef*%
%ADD79RoundRect,0.112500X0.187500X0.112500X-0.187500X0.112500X-0.187500X-0.112500X0.187500X-0.112500X0*%
%TD*%
%TA.AperFunction,ComponentPad*%
%ADD80RoundRect,0.250000X0.265000X0.615000X-0.265000X0.615000X-0.265000X-0.615000X0.265000X-0.615000X0*%
%TD*%
%TA.AperFunction,ComponentPad*%
%ADD81O,1.030000X1.730000*%
%TD*%
%TA.AperFunction,ComponentPad*%
%ADD82RoundRect,0.250000X0.615000X-0.265000X0.615000X0.265000X-0.615000X0.265000X-0.615000X-0.265000X0*%
%TD*%
%TA.AperFunction,ComponentPad*%
%ADD83O,1.730000X1.030000*%
%TD*%
%TA.AperFunction,SMDPad,CuDef*%
%ADD84RoundRect,0.200000X-0.275000X0.200000X-0.275000X-0.200000X0.275000X-0.200000X0.275000X0.200000X0*%
%TD*%
%TA.AperFunction,SMDPad,CuDef*%
%ADD85O,0.280000X0.700000*%
%TD*%
%TA.AperFunction,SMDPad,CuDef*%
%ADD86O,0.700000X0.280000*%
%TD*%
%TA.AperFunction,SMDPad,CuDef*%
%ADD87R,1.500000X0.900000*%
%TD*%
%TA.AperFunction,SMDPad,CuDef*%
%ADD88R,0.900000X1.500000*%
%TD*%
%TA.AperFunction,SMDPad,CuDef*%
%ADD89R,0.900000X0.900000*%
%TD*%
%TA.AperFunction,SMDPad,CuDef*%
%ADD90R,1.230000X1.860000*%
%TD*%
%TA.AperFunction,SMDPad,CuDef*%
%ADD91R,0.750000X0.250000*%
%TD*%
%TA.AperFunction,SMDPad,CuDef*%
%ADD92R,0.250000X0.750000*%
%TD*%
%TA.AperFunction,SMDPad,CuDef*%
%ADD93R,1.700000X1.700000*%
%TD*%
%TA.AperFunction,SMDPad,CuDef*%
%ADD94O,0.520000X2.010000*%
%TD*%
%TA.AperFunction,SMDPad,CuDef*%
%ADD95RoundRect,0.140000X-0.170000X0.140000X-0.170000X-0.140000X0.170000X-0.140000X0.170000X0.140000X0*%
%TD*%
%TA.AperFunction,SMDPad,CuDef*%
%ADD96R,0.250000X0.520000*%
%TD*%
%TA.AperFunction,SMDPad,CuDef*%
%ADD97R,1.600000X0.900000*%
%TD*%
%TA.AperFunction,ViaPad*%
%ADD98C,0.600000*%
%TD*%
%TA.AperFunction,ViaPad*%
%ADD99C,0.550000*%
%TD*%
%TA.AperFunction,Conductor*%
%ADD100C,0.500000*%
%TD*%
%TA.AperFunction,Conductor*%
%ADD101C,0.300000*%
%TD*%
%TA.AperFunction,Conductor*%
%ADD102C,0.250000*%
%TD*%
%TA.AperFunction,Conductor*%
%ADD103C,0.400000*%
%TD*%
%TA.AperFunction,Conductor*%
%ADD104C,0.533400*%
%TD*%
%TA.AperFunction,Conductor*%
%ADD105C,0.279400*%
%TD*%
%TA.AperFunction,Conductor*%
%ADD106C,0.152000*%
%TD*%
%TA.AperFunction,Conductor*%
%ADD107C,0.350000*%
%TD*%
%TA.AperFunction,Conductor*%
%ADD108C,0.200000*%
%TD*%
%TA.AperFunction,Conductor*%
%ADD109C,0.152400*%
%TD*%
G04 APERTURE END LIST*
D10*
%TO.P,Q6,1,VDD*%
%TO.N,Net-(Q6-VDD)*%
X153570000Y-125332500D03*
%TO.P,Q6,2,GND*%
%TO.N,GND*%
X154520000Y-125332500D03*
%TO.P,Q6,3,PG*%
%TO.N,unconnected-(Q6-PG-Pad3)*%
X155470000Y-125332500D03*
%TO.P,Q6,4,CC1*%
%TO.N,/Project Architecture/External Connectors/CC1*%
X155470000Y-123032500D03*
%TO.P,Q6,5,CC2*%
%TO.N,/Project Architecture/External Connectors/CC2*%
X154520000Y-123032500D03*
%TO.P,Q6,6,CFG*%
%TO.N,Net-(Q6-CFG)*%
X153570000Y-123032500D03*
%TD*%
D11*
%TO.P,C1,1,1*%
%TO.N,V_CHRG*%
X132350000Y-111740000D03*
%TO.P,C1,2,2*%
%TO.N,GND*%
X127010000Y-111740000D03*
%TD*%
D12*
%TO.P,R18,1*%
%TO.N,3V3_MCU*%
X163470000Y-117080000D03*
%TO.P,R18,2*%
%TO.N,/Project Architecture/MCU/RS485_RXD1*%
X163470000Y-116060000D03*
%TD*%
D13*
%TO.P,DC1,*%
%TO.N,*%
X132080000Y-131990000D03*
D14*
X132080000Y-127490000D03*
D15*
%TO.P,DC1,1,1*%
%TO.N,VSUN*%
X126580000Y-131990000D03*
X126580000Y-125890000D03*
%TO.P,DC1,2,2*%
%TO.N,GND*%
X137580000Y-131990000D03*
%TO.P,DC1,3,3*%
X137580000Y-125890000D03*
%TD*%
D16*
%TO.P,R5,1*%
%TO.N,/Project Architecture/External Connectors/CC2*%
X153650000Y-128600000D03*
%TO.P,R5,2*%
%TO.N,GND*%
X153650000Y-129620000D03*
%TD*%
D17*
%TO.P,C14,1*%
%TO.N,V_MAIN*%
X156855000Y-101160000D03*
%TO.P,C14,2*%
%TO.N,GND*%
X159805000Y-101160000D03*
%TD*%
D18*
%TO.P,CN3,1,1*%
%TO.N,GND*%
X129180000Y-76790000D03*
%TO.P,CN3,2,2*%
X129180000Y-78290000D03*
%TO.P,CN3,3,3*%
X129180000Y-79790000D03*
%TO.P,CN3,4,4*%
%TO.N,V_BAT*%
X129180000Y-81290000D03*
%TO.P,CN3,5,5*%
X129180000Y-82790000D03*
%TO.P,CN3,6,6*%
X129180000Y-84290000D03*
D19*
%TO.P,CN3,7,7*%
%TO.N,GND*%
X127180000Y-86340000D03*
%TO.P,CN3,8,8*%
X127180000Y-74740000D03*
%TD*%
D20*
%TO.P,R49,1*%
%TO.N,3V3_MCU*%
X162625000Y-102262500D03*
%TO.P,R49,2*%
%TO.N,/Project Architecture/MCU/PWR_KEY*%
X164275000Y-102262500D03*
%TD*%
D21*
%TO.P,C6,1*%
%TO.N,V_MAIN*%
X155125000Y-103010000D03*
%TO.P,C6,2*%
%TO.N,GND*%
X152175000Y-103010000D03*
%TD*%
D22*
%TO.P,D5,1,I/O1*%
%TO.N,/Project Architecture/External Connectors/USBCD-*%
X146570000Y-126150000D03*
%TO.P,D5,2,VSS*%
%TO.N,GND*%
X147520000Y-126150000D03*
%TO.P,D5,3,I/O2*%
%TO.N,/Project Architecture/External Connectors/USBCD+*%
X148470000Y-126150000D03*
%TO.P,D5,4,I/O3*%
%TO.N,unconnected-(D5-I{slash}O3-Pad4)*%
X148470000Y-123850000D03*
%TO.P,D5,5,VCC*%
%TO.N,unconnected-(D5-VCC-Pad5)*%
X147520000Y-123850000D03*
%TO.P,D5,6,I/O4*%
%TO.N,unconnected-(D5-I{slash}O4-Pad6)*%
X146570000Y-123850000D03*
%TD*%
D23*
%TO.P,RF1,1,1*%
%TO.N,Net-(L2-ANT)*%
X168980000Y-50022500D03*
%TO.P,RF1,2,2*%
%TO.N,GND*%
X170280000Y-49222500D03*
%TO.P,RF1,3,3*%
X167680000Y-49222500D03*
%TD*%
D24*
%TO.P,R54,1*%
%TO.N,Net-(Q15-B-Pad2)*%
X148685000Y-70580000D03*
%TO.P,R54,2*%
%TO.N,/Project Architecture/MCU/CH343_RTS*%
X147035000Y-70580000D03*
%TD*%
D25*
%TO.P,U7,1,SW*%
%TO.N,Net-(U12-Pad1)*%
X156810000Y-95800000D03*
%TO.P,U7,2,SW*%
X156310000Y-95800000D03*
%TO.P,U7,3,SW*%
X155810000Y-95800000D03*
%TO.P,U7,4,PG*%
%TO.N,unconnected-(U7-PG-Pad4)*%
X155310000Y-95800000D03*
D26*
%TO.P,U7,5,FB*%
%TO.N,GND*%
X154660000Y-96450000D03*
%TO.P,U7,6,AGND*%
X154660000Y-96950000D03*
%TO.P,U7,7,FSW*%
X154660000Y-97450000D03*
%TO.P,U7,8,DEF*%
X154660000Y-97950000D03*
D25*
%TO.P,U7,9,SS/TR*%
%TO.N,Net-(U7-SS{slash}TR)*%
X155310000Y-98600000D03*
%TO.P,U7,10,AVIN*%
%TO.N,V_MAIN*%
X155810000Y-98600000D03*
%TO.P,U7,11,PVIN*%
X156310000Y-98600000D03*
%TO.P,U7,12,PVIN*%
X156810000Y-98600000D03*
D26*
%TO.P,U7,13,EN*%
%TO.N,Net-(U7-EN)*%
X157460000Y-97950000D03*
%TO.P,U7,14,VOS*%
%TO.N,3V3_MCU*%
X157460000Y-97450000D03*
%TO.P,U7,15,PGND*%
%TO.N,GND*%
X157460000Y-96950000D03*
%TO.P,U7,16,PGND*%
X157460000Y-96450000D03*
D27*
%TO.P,U7,17,EP*%
X156060000Y-97200000D03*
%TD*%
D28*
%TO.P,USB1,*%
%TO.N,*%
X144620000Y-130700000D03*
X150400000Y-130700000D03*
D29*
%TO.P,USB1,1,GND*%
%TO.N,GND*%
X144310000Y-129620000D03*
%TO.P,USB1,2,VBUS*%
%TO.N,VBUS*%
X145110000Y-129620000D03*
D30*
%TO.P,USB1,3,SBU2*%
%TO.N,unconnected-(USB1-SBU2-Pad3)*%
X145760000Y-129620000D03*
%TO.P,USB1,4,CC1*%
%TO.N,/Project Architecture/External Connectors/CC1*%
X146260000Y-129620000D03*
%TO.P,USB1,5,DN2*%
%TO.N,/Project Architecture/External Connectors/USBCD-*%
X146760000Y-129620000D03*
%TO.P,USB1,6,DP1*%
%TO.N,/Project Architecture/External Connectors/USBCD+*%
X147260000Y-129620000D03*
%TO.P,USB1,7,DN1*%
%TO.N,/Project Architecture/External Connectors/USBCD-*%
X147760000Y-129620000D03*
%TO.P,USB1,8,DP2*%
%TO.N,/Project Architecture/External Connectors/USBCD+*%
X148260000Y-129620000D03*
%TO.P,USB1,9,SBU1*%
%TO.N,unconnected-(USB1-SBU1-Pad9)*%
X148760000Y-129620000D03*
%TO.P,USB1,10,CC2*%
%TO.N,/Project Architecture/External Connectors/CC2*%
X149260000Y-129620000D03*
D29*
%TO.P,USB1,11,VBUS*%
%TO.N,VBUS*%
X149910000Y-129620000D03*
%TO.P,USB1,12,GND*%
%TO.N,GND*%
X150710000Y-129620000D03*
D31*
%TO.P,USB1,13,SHELL*%
X143190000Y-130170000D03*
D32*
X143190000Y-134380000D03*
D31*
%TO.P,USB1,14,SHELL*%
X151830000Y-130170000D03*
D32*
X151830000Y-134380000D03*
%TD*%
D33*
%TO.P,C39,1*%
%TO.N,V_BAT*%
X134170000Y-76810000D03*
%TO.P,C39,2*%
%TO.N,GND*%
X133210000Y-76810000D03*
%TD*%
D17*
%TO.P,C4,1*%
%TO.N,V_MAIN*%
X156855000Y-104430000D03*
%TO.P,C4,2*%
%TO.N,GND*%
X159805000Y-104430000D03*
%TD*%
D34*
%TO.P,Q13,1,B*%
%TO.N,Net-(Q13-B)*%
X165250000Y-98062500D03*
%TO.P,Q13,2,E*%
%TO.N,GND*%
X163350000Y-98062500D03*
%TO.P,Q13,3,C*%
%TO.N,/Project Architecture/MCU/PWR_KEY*%
X164300000Y-99937500D03*
%TD*%
D17*
%TO.P,C23,1*%
%TO.N,V_BAT*%
X146325000Y-96900000D03*
%TO.P,C23,2*%
%TO.N,GND*%
X149275000Y-96900000D03*
%TD*%
D35*
%TO.P,R12,1*%
%TO.N,V_BAT*%
X141590000Y-103540000D03*
%TO.P,R12,2*%
%TO.N,Net-(U11-FB)*%
X140570000Y-103540000D03*
%TD*%
D36*
%TO.P,U9,1,VIN*%
%TO.N,V_BAT*%
X134170000Y-78410000D03*
%TO.P,U9,2,VSS*%
%TO.N,GND*%
X134170000Y-79370000D03*
%TO.P,U9,3,CE*%
%TO.N,V_BAT*%
X134170000Y-80310000D03*
%TO.P,U9,4,NC*%
%TO.N,unconnected-(U9-NC-Pad4)*%
X136970000Y-80310000D03*
%TO.P,U9,5,VOUT*%
%TO.N,3V3_FG*%
X136970000Y-78430000D03*
%TD*%
D12*
%TO.P,R19,1*%
%TO.N,3V3_MCU*%
X156570000Y-119140000D03*
%TO.P,R19,2*%
%TO.N,Net-(U17-~{RE})*%
X156570000Y-118120000D03*
%TD*%
D37*
%TO.P,C44,1*%
%TO.N,3V3_MCU*%
X151880000Y-84860000D03*
%TO.P,C44,2*%
%TO.N,GND*%
X151880000Y-83900000D03*
%TD*%
D38*
%TO.P,Q2,1,S*%
%TO.N,VBUS*%
X136610000Y-114950000D03*
%TO.P,Q2,2,S*%
X137260000Y-114950000D03*
%TO.P,Q2,3,S*%
X137900000Y-114950000D03*
%TO.P,Q2,4,G*%
%TO.N,Net-(Q2-G)*%
X138550000Y-114950000D03*
%TO.P,Q2,5,D*%
%TO.N,V_CHRG*%
X138550000Y-112090000D03*
%TO.P,Q2,6,D*%
X137900000Y-112090000D03*
%TO.P,Q2,7,D*%
X137260000Y-112090000D03*
%TO.P,Q2,8,D*%
X136610000Y-112090000D03*
D39*
%TO.P,Q2,9,D*%
X137580000Y-112960000D03*
%TD*%
D40*
%TO.P,C26,1*%
%TO.N,3V3_MCU*%
X163470000Y-119290000D03*
%TO.P,C26,2*%
%TO.N,GND*%
X164430000Y-119290000D03*
%TD*%
D41*
%TO.P,D4,1,1*%
%TO.N,GND*%
X141460000Y-123600000D03*
%TO.P,D4,2,2*%
%TO.N,VBUS*%
X143740000Y-123600000D03*
%TD*%
D42*
%TO.P,R11,1*%
%TO.N,V_CHRG*%
X132560000Y-106360000D03*
%TO.P,R11,2*%
%TO.N,Net-(D16-A)*%
X133580000Y-106360000D03*
%TD*%
D33*
%TO.P,C22,1*%
%TO.N,V_CHRG*%
X126780000Y-103400000D03*
%TO.P,C22,2*%
%TO.N,GND*%
X125820000Y-103400000D03*
%TD*%
D12*
%TO.P,R1,1*%
%TO.N,VSUN*%
X131880000Y-119342500D03*
%TO.P,R1,2*%
%TO.N,Net-(Q1-G)*%
X131880000Y-118322500D03*
%TD*%
D43*
%TO.P,U12,1,1*%
%TO.N,Net-(U12-Pad1)*%
X156310000Y-92190000D03*
%TO.P,U12,2,2*%
%TO.N,3V3_MCU*%
X158670000Y-92190000D03*
%TD*%
D44*
%TO.P,R8,1,1*%
%TO.N,Net-(U11-CSP)*%
X141980000Y-95300000D03*
%TO.P,R8,2,2*%
%TO.N,V_BAT*%
X141980000Y-101440000D03*
%TD*%
D45*
%TO.P,C43,1*%
%TO.N,GND*%
X163435000Y-52250000D03*
%TO.P,C43,2*%
%TO.N,3V3_MCU*%
X164985000Y-52250000D03*
%TD*%
D46*
%TO.P,L2,1,ANT*%
%TO.N,Net-(L2-ANT)*%
X168980000Y-55840000D03*
D47*
%TO.P,L2,2,GND*%
%TO.N,GND*%
X166980000Y-55540000D03*
%TO.P,L2,3,3.3V*%
%TO.N,3V3_MCU*%
X164980000Y-55540000D03*
%TO.P,L2,4,RESET*%
%TO.N,/Project Architecture/LoRa/RA_RST*%
X162980000Y-55540000D03*
%TO.P,L2,5,TXEN*%
%TO.N,unconnected-(L2-TXEN-Pad5)*%
X160980000Y-55540000D03*
%TO.P,L2,6,DIO1*%
%TO.N,/Project Architecture/LoRa/RA_DIO1*%
X158980000Y-55540000D03*
%TO.P,L2,7,DIO2*%
%TO.N,unconnected-(L2-DIO2-Pad7)*%
X156980000Y-55540000D03*
%TO.P,L2,8,DIO3*%
%TO.N,unconnected-(L2-DIO3-Pad8)*%
X154980000Y-55540000D03*
%TO.P,L2,9,GND*%
%TO.N,GND*%
X154980000Y-71540000D03*
%TO.P,L2,10,BUSY*%
%TO.N,/Project Architecture/LoRa/RA_BUSY*%
X156980000Y-71540000D03*
%TO.P,L2,11,RXEN*%
%TO.N,unconnected-(L2-RXEN-Pad11)*%
X158980000Y-71540000D03*
%TO.P,L2,12,SCK*%
%TO.N,/Project Architecture/LoRa/SPI_CLK*%
X160980000Y-71540000D03*
%TO.P,L2,13,MISO*%
%TO.N,/Project Architecture/LoRa/SPI_MISO{slash}D0*%
X162980000Y-71540000D03*
%TO.P,L2,14,MOSI*%
%TO.N,/Project Architecture/LoRa/SPI_MOSI{slash}CMD*%
X164980000Y-71540000D03*
%TO.P,L2,15,NSS*%
%TO.N,/Project Architecture/LoRa/RA_CS*%
X166980000Y-71540000D03*
%TO.P,L2,16,GND*%
%TO.N,GND*%
X168980000Y-71540000D03*
%TD*%
D42*
%TO.P,R60,1*%
%TO.N,VBUS*%
X151010000Y-125332500D03*
%TO.P,R60,2*%
%TO.N,Net-(Q6-VDD)*%
X152030000Y-125332500D03*
%TD*%
D48*
%TO.P,U17,1,R*%
%TO.N,/Project Architecture/MCU/RS485_RXD1*%
X161770000Y-116060000D03*
%TO.P,U17,2,~{RE}*%
%TO.N,Net-(U17-~{RE})*%
X160490000Y-116060000D03*
%TO.P,U17,3,~{SHDN}*%
X159230000Y-116060000D03*
%TO.P,U17,4,D*%
%TO.N,/Project Architecture/MCU/RS485_TXD1*%
X157960000Y-116060000D03*
%TO.P,U17,5,GND*%
%TO.N,GND*%
X157960000Y-121200000D03*
%TO.P,U17,6,A*%
%TO.N,Net-(U17-A)*%
X159230000Y-121200000D03*
%TO.P,U17,7,B*%
%TO.N,Net-(U17-B)*%
X160490000Y-121200000D03*
%TO.P,U17,8,VCC*%
%TO.N,3V3_MCU*%
X161770000Y-121200000D03*
%TD*%
D49*
%TO.P,R50,1*%
%TO.N,3V3_MCU*%
X155090000Y-81335000D03*
%TO.P,R50,2*%
%TO.N,SD_CS{slash}D3*%
X155090000Y-79685000D03*
%TD*%
D50*
%TO.P,C48,1*%
%TO.N,Net-(U3-V3)*%
X142010000Y-76865000D03*
%TO.P,C48,2*%
%TO.N,GND*%
X142010000Y-78415000D03*
%TD*%
D51*
%TO.P,C13,1*%
%TO.N,3V3_MCU*%
X159710000Y-95160000D03*
%TO.P,C13,2*%
%TO.N,GND*%
X159710000Y-97060000D03*
%TD*%
D24*
%TO.P,R55,1*%
%TO.N,Net-(D6-K)*%
X165225000Y-92800000D03*
%TO.P,R55,2*%
%TO.N,Net-(U7-EN)*%
X163575000Y-92800000D03*
%TD*%
D20*
%TO.P,R56,1*%
%TO.N,Net-(U7-EN)*%
X163575000Y-91300000D03*
%TO.P,R56,2*%
%TO.N,GND*%
X165225000Y-91300000D03*
%TD*%
D52*
%TO.P,SW2,1,1*%
%TO.N,KEY_PWR*%
X169210000Y-96970000D03*
%TO.P,SW2,2,2*%
%TO.N,V_BAT*%
X169210000Y-101330000D03*
%TD*%
D53*
%TO.P,D10,1,1*%
%TO.N,/Project Architecture/External Connectors/RS485_B*%
X160730000Y-129380000D03*
%TO.P,D10,2,2*%
%TO.N,/Project Architecture/External Connectors/RS485_A*%
X158830000Y-129380000D03*
%TO.P,D10,3,3*%
%TO.N,GND*%
X159780000Y-131680000D03*
%TD*%
D16*
%TO.P,R6,1*%
%TO.N,V_BAT*%
X149100000Y-106590000D03*
%TO.P,R6,2*%
%TO.N,Net-(Q4-G)*%
X149100000Y-107610000D03*
%TD*%
D54*
%TO.P,J6,1,Pin_1*%
%TO.N,/Project Architecture/External Connectors/LTE_TXD2*%
X126360000Y-60120000D03*
D55*
%TO.P,J6,2,Pin_2*%
%TO.N,/Project Architecture/External Connectors/LTE_RXD2*%
X128900000Y-60120000D03*
%TO.P,J6,3,Pin_3*%
%TO.N,GND*%
X126360000Y-62660000D03*
%TO.P,J6,4,Pin_4*%
%TO.N,/Project Architecture/External Connectors/LTE_RST*%
X128900000Y-62660000D03*
%TO.P,J6,5,Pin_5*%
%TO.N,GND*%
X126360000Y-65200000D03*
%TO.P,J6,6,Pin_6*%
%TO.N,/Project Architecture/External Connectors/LTE_ON*%
X128900000Y-65200000D03*
%TO.P,J6,7,Pin_7*%
%TO.N,V_MAIN*%
X126360000Y-67740000D03*
%TO.P,J6,8,Pin_8*%
%TO.N,/Project Architecture/External Connectors/LTE_USBD-*%
X128900000Y-67740000D03*
%TO.P,J6,9,Pin_9*%
%TO.N,V_MAIN*%
X126360000Y-70280000D03*
%TO.P,J6,10,Pin_10*%
%TO.N,/Project Architecture/External Connectors/LTE_USBD+*%
X128900000Y-70280000D03*
%TD*%
D24*
%TO.P,R47,1*%
%TO.N,Net-(Q13-B)*%
X165255000Y-96160000D03*
%TO.P,R47,2*%
%TO.N,GND*%
X163605000Y-96160000D03*
%TD*%
D21*
%TO.P,C21,1*%
%TO.N,V_CHRG*%
X129955000Y-106340000D03*
%TO.P,C21,2*%
%TO.N,GND*%
X127005000Y-106340000D03*
%TD*%
D33*
%TO.P,C25,1*%
%TO.N,Net-(C25-Pad1)*%
X141610000Y-106220000D03*
%TO.P,C25,2*%
%TO.N,GND*%
X140650000Y-106220000D03*
%TD*%
D56*
%TO.P,X1,1,01*%
%TO.N,/Project Architecture/HUB/XTAL_XI*%
X148400000Y-79300000D03*
%TO.P,X1,2,GND*%
%TO.N,GND*%
X150600000Y-79300000D03*
%TO.P,X1,3,O2*%
%TO.N,/Project Architecture/HUB/XTAL_XO*%
X150600000Y-77600000D03*
%TO.P,X1,4,GND*%
%TO.N,GND*%
X148400000Y-77600000D03*
%TD*%
D57*
%TO.P,D8,1,K*%
%TO.N,Net-(D6-K)*%
X167102500Y-89510000D03*
%TO.P,D8,2,A*%
%TO.N,/Project Architecture/MCU/LOCK_PWR*%
X169202500Y-89510000D03*
%TD*%
D42*
%TO.P,R13,1*%
%TO.N,Net-(U11-FB)*%
X140570000Y-104540000D03*
%TO.P,R13,2*%
%TO.N,GND*%
X141590000Y-104540000D03*
%TD*%
D40*
%TO.P,C12,1*%
%TO.N,3V3_MCU*%
X163467500Y-118240000D03*
%TO.P,C12,2*%
%TO.N,GND*%
X164427500Y-118240000D03*
%TD*%
D58*
%TO.P,L3,1,1*%
%TO.N,Net-(D1-K)*%
X134980000Y-93320000D03*
%TO.P,L3,2,2*%
%TO.N,Net-(U11-CSP)*%
X134980000Y-97360000D03*
%TD*%
D16*
%TO.P,R4,1*%
%TO.N,/Project Architecture/External Connectors/CC1*%
X141350000Y-128600000D03*
%TO.P,R4,2*%
%TO.N,GND*%
X141350000Y-129620000D03*
%TD*%
D59*
%TO.P,D2,1,K*%
%TO.N,Net-(D1-K)*%
X129310000Y-89150000D03*
%TO.P,D2,2,A*%
%TO.N,Net-(D2-A)*%
X129310000Y-93150000D03*
%TD*%
D50*
%TO.P,C46,1*%
%TO.N,Net-(U3-V3)*%
X143530000Y-76865000D03*
%TO.P,C46,2*%
%TO.N,GND*%
X143530000Y-78415000D03*
%TD*%
D60*
%TO.P,U5,1,VCAP*%
%TO.N,Net-(U5-VCAP)*%
X135570000Y-119272500D03*
%TO.P,U5,2,GND*%
%TO.N,GND*%
X135570000Y-118322500D03*
%TO.P,U5,3,EN*%
%TO.N,VSUN*%
X135570000Y-117372500D03*
%TO.P,U5,4,CATHODE*%
%TO.N,V_CHRG*%
X133270000Y-117372500D03*
%TO.P,U5,5,GATE*%
%TO.N,Net-(Q1-G)*%
X133270000Y-118322500D03*
%TO.P,U5,6,ANODE*%
%TO.N,VSUN*%
X133270000Y-119272500D03*
%TD*%
D24*
%TO.P,R53,1*%
%TO.N,/Project Architecture/MCU/CH343_DTR*%
X148845000Y-74990000D03*
%TO.P,R53,2*%
%TO.N,Net-(Q15-B-Pad5)*%
X147195000Y-74990000D03*
%TD*%
D61*
%TO.P,Q3,1,S*%
%TO.N,V_CHRG*%
X150390000Y-110130000D03*
%TO.P,Q3,2,S*%
X150390000Y-110780000D03*
%TO.P,Q3,3,S*%
X150390000Y-111420000D03*
%TO.P,Q3,4,G*%
%TO.N,Net-(Q3-G)*%
X150390000Y-112070000D03*
%TO.P,Q3,5,D*%
%TO.N,V_MAIN*%
X153250000Y-112070000D03*
%TO.P,Q3,6,D*%
X153250000Y-111420000D03*
%TO.P,Q3,7,D*%
X153250000Y-110780000D03*
%TO.P,Q3,8,D*%
X153250000Y-110130000D03*
D62*
%TO.P,Q3,9,D*%
X152380000Y-111100000D03*
%TD*%
D63*
%TO.P,Card1,1,DAT2*%
%TO.N,unconnected-(Card1-DAT2-Pad1)*%
X163105000Y-78390000D03*
%TO.P,Card1,2,CD/DAT3*%
%TO.N,SD_CS{slash}D3*%
X163105000Y-79490000D03*
%TO.P,Card1,3,CMD*%
%TO.N,/Project Architecture/LoRa/SPI_MOSI{slash}CMD*%
X163105000Y-80590000D03*
%TO.P,Card1,4,VDD*%
%TO.N,3V3_MCU*%
X163105000Y-81340000D03*
%TO.P,Card1,5,CLK*%
%TO.N,/Project Architecture/LoRa/SPI_CLK*%
X163105000Y-82790000D03*
%TO.P,Card1,6,VSS*%
%TO.N,GND*%
X163105000Y-83890000D03*
%TO.P,Card1,7,DAT0*%
%TO.N,/Project Architecture/LoRa/SPI_MISO{slash}D0*%
X163105000Y-84990000D03*
%TO.P,Card1,8,DAT1*%
%TO.N,unconnected-(Card1-DAT1-Pad8)*%
X163105000Y-86090000D03*
%TO.P,Card1,9,SWITCH*%
%TO.N,unconnected-(Card1-SWITCH-Pad9)*%
X163105000Y-82040000D03*
D64*
%TO.P,Card1,10,SHELL*%
%TO.N,GND*%
X161355000Y-87340000D03*
%TO.P,Card1,11,SHELL*%
X156905000Y-87340000D03*
%TO.P,Card1,12,SHELL*%
X156905000Y-77140000D03*
%TO.P,Card1,13,SHELL*%
X161355000Y-77140000D03*
%TD*%
D60*
%TO.P,U8,1,VCAP*%
%TO.N,Net-(U8-VCAP)*%
X145840000Y-113510000D03*
%TO.P,U8,2,GND*%
%TO.N,GND*%
X145840000Y-114460000D03*
%TO.P,U8,3,EN*%
%TO.N,V_CHRG*%
X145840000Y-115410000D03*
%TO.P,U8,4,CATHODE*%
%TO.N,V_MAIN*%
X148140000Y-115410000D03*
%TO.P,U8,5,GATE*%
%TO.N,Net-(Q3-G)*%
X148140000Y-114460000D03*
%TO.P,U8,6,ANODE*%
%TO.N,V_CHRG*%
X148140000Y-113510000D03*
%TD*%
D65*
%TO.P,Q5,1,S*%
%TO.N,V_CHRG*%
X126770000Y-101700000D03*
%TO.P,Q5,2,S*%
X128050000Y-101700000D03*
%TO.P,Q5,3,S*%
X129310000Y-101700000D03*
%TO.P,Q5,4,G*%
%TO.N,Net-(Q5-G)*%
X130580000Y-101700000D03*
%TO.P,Q5,5,D*%
%TO.N,Net-(D2-A)*%
X130580000Y-96300000D03*
%TO.P,Q5,6,D*%
X129310000Y-96300000D03*
%TO.P,Q5,7,D*%
X128050000Y-96300000D03*
%TO.P,Q5,8,D*%
X126770000Y-96300000D03*
%TD*%
D66*
%TO.P,C16,1*%
%TO.N,Net-(U7-SS{slash}TR)*%
X153120000Y-98605000D03*
%TO.P,C16,2*%
%TO.N,GND*%
X153120000Y-97055000D03*
%TD*%
D24*
%TO.P,R58,1*%
%TO.N,3V3_MCU*%
X135735000Y-71590000D03*
%TO.P,R58,2*%
%TO.N,/Project Architecture/External Connectors/I2C_SDA*%
X134085000Y-71590000D03*
%TD*%
%TO.P,R48,1*%
%TO.N,KEY_PWR*%
X166905000Y-94600000D03*
%TO.P,R48,2*%
%TO.N,Net-(Q13-B)*%
X165255000Y-94600000D03*
%TD*%
D67*
%TO.P,CN4,1,1*%
%TO.N,GND*%
X168550000Y-109250000D03*
D68*
%TO.P,CN4,2,2*%
%TO.N,/Project Architecture/External Connectors/I2C_SDA*%
X168550000Y-107750000D03*
%TO.P,CN4,3,3*%
%TO.N,/Project Architecture/External Connectors/I2C_SCL*%
X168550000Y-106250000D03*
%TO.P,CN4,4,4*%
%TO.N,3V3_MCU*%
X168550000Y-104750000D03*
%TD*%
D38*
%TO.P,Q1,1,S*%
%TO.N,VSUN*%
X128430000Y-119322500D03*
%TO.P,Q1,2,S*%
X129080000Y-119322500D03*
%TO.P,Q1,3,S*%
X129720000Y-119322500D03*
%TO.P,Q1,4,G*%
%TO.N,Net-(Q1-G)*%
X130370000Y-119322500D03*
%TO.P,Q1,5,D*%
%TO.N,V_CHRG*%
X130370000Y-116462500D03*
%TO.P,Q1,6,D*%
X129720000Y-116462500D03*
%TO.P,Q1,7,D*%
X129080000Y-116462500D03*
%TO.P,Q1,8,D*%
X128430000Y-116462500D03*
D39*
%TO.P,Q1,9,D*%
X129400000Y-117332500D03*
%TD*%
D69*
%TO.P,D16,1,K*%
%TO.N,Net-(D16-K)*%
X136767500Y-109540000D03*
%TO.P,D16,2,A*%
%TO.N,Net-(D16-A)*%
X135192500Y-109540000D03*
%TD*%
D33*
%TO.P,C18,1*%
%TO.N,Net-(U5-VCAP)*%
X134480000Y-120700000D03*
%TO.P,C18,2*%
%TO.N,VSUN*%
X133520000Y-120700000D03*
%TD*%
D60*
%TO.P,U10,1,VCAP*%
%TO.N,Net-(U10-VCAP)*%
X145450000Y-106627500D03*
%TO.P,U10,2,GND*%
%TO.N,GND*%
X145450000Y-107577500D03*
%TO.P,U10,3,EN*%
%TO.N,V_BAT*%
X145450000Y-108527500D03*
%TO.P,U10,4,CATHODE*%
%TO.N,V_MAIN*%
X147750000Y-108527500D03*
%TO.P,U10,5,GATE*%
%TO.N,Net-(Q4-G)*%
X147750000Y-107577500D03*
%TO.P,U10,6,ANODE*%
%TO.N,V_BAT*%
X147750000Y-106627500D03*
%TD*%
D49*
%TO.P,R57,1*%
%TO.N,3V3_MCU*%
X137770000Y-72685000D03*
%TO.P,R57,2*%
%TO.N,/Project Architecture/External Connectors/I2C_SCL*%
X137770000Y-71035000D03*
%TD*%
D40*
%TO.P,C19,1*%
%TO.N,Net-(U8-VCAP)*%
X145840000Y-111870000D03*
%TO.P,C19,2*%
%TO.N,V_CHRG*%
X146800000Y-111870000D03*
%TD*%
D70*
%TO.P,U15,1,~{RESET}*%
%TO.N,/Project Architecture/MCU/ESP_EN*%
X131890000Y-52760000D03*
D71*
%TO.P,U15,2,~{MR}*%
%TO.N,Net-(U15-~{MR})*%
X131890000Y-52120000D03*
D72*
%TO.P,U15,3,GND*%
%TO.N,GND*%
X131030000Y-52120000D03*
D73*
%TO.P,U15,4,VDD*%
%TO.N,3V3_MCU*%
X131030000Y-52760000D03*
D74*
%TO.P,U15,5,EP*%
%TO.N,GND*%
X131460000Y-52440000D03*
%TD*%
D75*
%TO.P,D3,1,1*%
%TO.N,GND*%
X167980000Y-52640000D03*
%TO.P,D3,2,2*%
%TO.N,Net-(L2-ANT)*%
X168980000Y-52640000D03*
%TD*%
D76*
%TO.P,D1,1,K*%
%TO.N,Net-(D1-K)*%
X132750000Y-89150000D03*
%TO.P,D1,2,A*%
%TO.N,GND*%
X136750000Y-89150000D03*
%TD*%
D77*
%TO.P,Q15,1,E*%
%TO.N,/Project Architecture/MCU/CH343_DTR*%
X148845000Y-73300000D03*
%TO.P,Q15,2,B*%
%TO.N,Net-(Q15-B-Pad2)*%
X148845000Y-72650000D03*
%TO.P,Q15,3,C*%
%TO.N,/Project Architecture/MCU/ESP_EN*%
X148845000Y-72000000D03*
%TO.P,Q15,4,E*%
%TO.N,/Project Architecture/MCU/CH343_RTS*%
X147045000Y-72000000D03*
%TO.P,Q15,5,B*%
%TO.N,Net-(Q15-B-Pad5)*%
X147045000Y-72650000D03*
%TO.P,Q15,6,C*%
%TO.N,/Project Architecture/MCU/ESP_BOOT*%
X147045000Y-73300000D03*
%TD*%
D78*
%TO.P,C41,1*%
%TO.N,3V3_MCU*%
X129585000Y-52760000D03*
%TO.P,C41,2*%
%TO.N,GND*%
X128035000Y-52760000D03*
%TD*%
D16*
%TO.P,R9,1*%
%TO.N,V_CHRG*%
X133580000Y-103340000D03*
%TO.P,R9,2*%
%TO.N,Net-(U11-MPPT)*%
X133580000Y-104360000D03*
%TD*%
D45*
%TO.P,C40,1*%
%TO.N,GND*%
X128035000Y-54410000D03*
%TO.P,C40,2*%
%TO.N,3V3_MCU*%
X129585000Y-54410000D03*
%TD*%
D79*
%TO.P,D6,1,K*%
%TO.N,Net-(D6-K)*%
X165350000Y-89500000D03*
%TO.P,D6,2,A*%
%TO.N,VBUS*%
X163250000Y-89500000D03*
%TD*%
D24*
%TO.P,R69,1*%
%TO.N,/Project Architecture/External Connectors/RS485_B*%
X160645000Y-127530000D03*
%TO.P,R69,2*%
%TO.N,/Project Architecture/External Connectors/RS485_A*%
X158995000Y-127530000D03*
%TD*%
D57*
%TO.P,D7,1,K*%
%TO.N,Net-(D6-K)*%
X167090000Y-92800000D03*
%TO.P,D7,2,A*%
%TO.N,KEY_PWR*%
X169190000Y-92800000D03*
%TD*%
D12*
%TO.P,R2,1*%
%TO.N,VBUS*%
X140070000Y-114960000D03*
%TO.P,R2,2*%
%TO.N,Net-(Q2-G)*%
X140070000Y-113940000D03*
%TD*%
D80*
%TO.P,J1,1,Pin_1*%
%TO.N,GND*%
X151300000Y-119400000D03*
D81*
%TO.P,J1,2,Pin_2*%
%TO.N,/Project Architecture/External Connectors/CC2*%
X149800000Y-119400000D03*
%TO.P,J1,3,Pin_3*%
%TO.N,/Project Architecture/External Connectors/USBCD+*%
X148300000Y-119400000D03*
%TO.P,J1,4,Pin_4*%
%TO.N,/Project Architecture/External Connectors/USBCD-*%
X146800000Y-119400000D03*
%TO.P,J1,5,Pin_5*%
%TO.N,/Project Architecture/External Connectors/CC1*%
X145300000Y-119400000D03*
%TO.P,J1,6,Pin_6*%
%TO.N,VBUS*%
X143800000Y-119400000D03*
%TD*%
D82*
%TO.P,J3,1,Pin_1*%
%TO.N,/Project Architecture/External Connectors/GPIO42R*%
X168650000Y-120950000D03*
D83*
%TO.P,J3,2,Pin_2*%
%TO.N,/Project Architecture/External Connectors/GPIO41G*%
X168650000Y-119450000D03*
%TO.P,J3,3,Pin_3*%
%TO.N,/Project Architecture/External Connectors/GPIO40B*%
X168650000Y-117950000D03*
%TO.P,J3,4,Pin_4*%
%TO.N,GND*%
X168650000Y-116450000D03*
%TO.P,J3,5,Pin_5*%
%TO.N,KEY_PWR*%
X168650000Y-114950000D03*
%TO.P,J3,6,Pin_6*%
%TO.N,V_BAT*%
X168650000Y-113450000D03*
%TD*%
D66*
%TO.P,C47,1*%
%TO.N,3V3_MCU*%
X140200000Y-72675000D03*
%TO.P,C47,2*%
%TO.N,GND*%
X140200000Y-71125000D03*
%TD*%
D11*
%TO.P,C7,1,1*%
%TO.N,V_BAT*%
X145310000Y-91100000D03*
%TO.P,C7,2,2*%
%TO.N,GND*%
X150650000Y-91100000D03*
%TD*%
D84*
%TO.P,R67,1*%
%TO.N,Net-(U17-B)*%
X160580000Y-124205000D03*
%TO.P,R67,2*%
%TO.N,/Project Architecture/External Connectors/RS485_B*%
X160580000Y-125855000D03*
%TD*%
D33*
%TO.P,C15,1*%
%TO.N,V_MAIN*%
X155520000Y-100890000D03*
%TO.P,C15,2*%
%TO.N,GND*%
X154560000Y-100890000D03*
%TD*%
D85*
%TO.P,U14,1,~{OVCUR}*%
%TO.N,unconnected-(U14-~{OVCUR}-Pad1)*%
X149900000Y-81600000D03*
%TO.P,U14,2,NC.*%
%TO.N,unconnected-(U14-NC.-Pad2)*%
X149400000Y-81600000D03*
%TO.P,U14,3,XO*%
%TO.N,/Project Architecture/HUB/XTAL_XO*%
X148900000Y-81600000D03*
%TO.P,U14,4,XI*%
%TO.N,/Project Architecture/HUB/XTAL_XI*%
X148400000Y-81600000D03*
%TO.P,U14,5,DM4*%
%TO.N,unconnected-(U14-DM4-Pad5)*%
X147900000Y-81600000D03*
%TO.P,U14,6,DP4*%
%TO.N,unconnected-(U14-DP4-Pad6)*%
X147400000Y-81600000D03*
D86*
%TO.P,U14,7,DM3*%
%TO.N,/Project Architecture/HUB/CH343_USBD+*%
X146650000Y-82350000D03*
%TO.P,U14,8,DP3*%
%TO.N,/Project Architecture/HUB/CH343_USBD-*%
X146650000Y-82850000D03*
%TO.P,U14,9,DM2*%
%TO.N,/Project Architecture/HUB/ESP_USBD-*%
X146650000Y-83350000D03*
%TO.P,U14,10,DP2*%
%TO.N,/Project Architecture/HUB/ESP_USBD+*%
X146650000Y-83850000D03*
%TO.P,U14,11,DM1*%
%TO.N,/Project Architecture/External Connectors/LTE_USBD-*%
X146650000Y-84350000D03*
%TO.P,U14,12,DP1*%
%TO.N,/Project Architecture/External Connectors/LTE_USBD+*%
X146650000Y-84850000D03*
D85*
%TO.P,U14,13,LED3/SCL*%
%TO.N,unconnected-(U14-LED3{slash}SCL-Pad13)*%
X147400000Y-85600000D03*
%TO.P,U14,14,DMU*%
%TO.N,/Project Architecture/External Connectors/USBCD-*%
X147900000Y-85600000D03*
%TO.P,U14,15,DPU*%
%TO.N,/Project Architecture/External Connectors/USBCD+*%
X148400000Y-85600000D03*
%TO.P,U14,16,~{RESET}/CDP*%
%TO.N,unconnected-(U14-~{RESET}{slash}CDP-Pad16)*%
X148900000Y-85600000D03*
%TO.P,U14,17,NC*%
%TO.N,unconnected-(U14-NC-Pad17)*%
X149400000Y-85600000D03*
%TO.P,U14,18,PSELF*%
%TO.N,unconnected-(U14-PSELF-Pad18)*%
X149900000Y-85600000D03*
D86*
%TO.P,U14,19,V5*%
%TO.N,3V3_MCU*%
X150650000Y-84850000D03*
%TO.P,U14,20,VDD33*%
X150650000Y-84350000D03*
%TO.P,U14,21,LED4/SDA*%
%TO.N,unconnected-(U14-LED4{slash}SDA-Pad21)*%
X150650000Y-83850000D03*
%TO.P,U14,22,LED1*%
%TO.N,unconnected-(U14-LED1-Pad22)*%
X150650000Y-83350000D03*
%TO.P,U14,23,LED2*%
%TO.N,unconnected-(U14-LED2-Pad23)*%
X150650000Y-82850000D03*
%TO.P,U14,24,~{PWREN}*%
%TO.N,unconnected-(U14-~{PWREN}-Pad24)*%
X150650000Y-82350000D03*
D15*
%TO.P,U14,25,GND*%
%TO.N,GND*%
X148640000Y-83600000D03*
%TD*%
D87*
%TO.P,U1,1,GND*%
%TO.N,GND*%
X133480000Y-50220000D03*
%TO.P,U1,2,3V3*%
%TO.N,3V3_MCU*%
X133480000Y-51490000D03*
%TO.P,U1,3,EN*%
%TO.N,/Project Architecture/MCU/ESP_EN*%
X133480000Y-52760000D03*
%TO.P,U1,4,IO4*%
%TO.N,/Project Architecture/External Connectors/LTE_TXD2*%
X133480000Y-54030000D03*
%TO.P,U1,5,IO5*%
%TO.N,/Project Architecture/External Connectors/LTE_RXD2*%
X133480000Y-55300000D03*
%TO.P,U1,6,IO6*%
%TO.N,/Project Architecture/External Connectors/LTE_RST*%
X133480000Y-56570000D03*
%TO.P,U1,7,IO7*%
%TO.N,/Project Architecture/External Connectors/LTE_ON*%
X133480000Y-57840000D03*
%TO.P,U1,8,IO15*%
%TO.N,/Project Architecture/External Connectors/GPIO15*%
X133480000Y-59110000D03*
%TO.P,U1,9,IO16*%
%TO.N,/Project Architecture/External Connectors/GPIO16*%
X133480000Y-60380000D03*
%TO.P,U1,10,IO17*%
%TO.N,/Project Architecture/MCU/RS485_TXD1*%
X133480000Y-61650000D03*
%TO.P,U1,11,IO18*%
%TO.N,/Project Architecture/MCU/RS485_RXD1*%
X133480000Y-62920000D03*
%TO.P,U1,12,IO8*%
%TO.N,/Project Architecture/External Connectors/I2C_SDA*%
X133480000Y-64190000D03*
%TO.P,U1,13,13*%
%TO.N,/Project Architecture/HUB/ESP_USBD-*%
X133480000Y-65460000D03*
%TO.P,U1,14,IO20*%
%TO.N,/Project Architecture/HUB/ESP_USBD+*%
X133480000Y-66730000D03*
D88*
%TO.P,U1,15,IO3*%
%TO.N,unconnected-(U1-IO3-Pad15)*%
X135240000Y-68000000D03*
%TO.P,U1,16,IO46*%
%TO.N,unconnected-(U1-IO46-Pad16)*%
X136510000Y-68000000D03*
%TO.P,U1,17,IO9*%
%TO.N,/Project Architecture/External Connectors/I2C_SCL*%
X137780000Y-68000000D03*
%TO.P,U1,18,IO10*%
%TO.N,SD_CS{slash}D3*%
X139050000Y-68000000D03*
%TO.P,U1,19,IO11*%
%TO.N,/Project Architecture/LoRa/SPI_MOSI{slash}CMD*%
X140320000Y-68000000D03*
%TO.P,U1,20,IO12*%
%TO.N,/Project Architecture/LoRa/SPI_CLK*%
X141600000Y-68000000D03*
%TO.P,U1,21,IO13*%
%TO.N,/Project Architecture/LoRa/SPI_MISO{slash}D0*%
X142860000Y-68000000D03*
%TO.P,U1,22,IO14*%
%TO.N,/Project Architecture/LoRa/RA_CS*%
X144130000Y-68000000D03*
%TO.P,U1,23,IO21*%
%TO.N,/Project Architecture/LoRa/RA_BUSY*%
X145400000Y-68000000D03*
%TO.P,U1,24,25*%
%TO.N,/Project Architecture/LoRa/RA_DIO1*%
X146680000Y-68000000D03*
%TO.P,U1,25,IO48*%
%TO.N,/Project Architecture/LoRa/RA_RST*%
X147950000Y-68000000D03*
%TO.P,U1,26,IO45*%
%TO.N,unconnected-(U1-IO45-Pad26)*%
X149220000Y-67970000D03*
D87*
%TO.P,U1,27,IO0*%
%TO.N,/Project Architecture/MCU/ESP_BOOT*%
X150980000Y-66730000D03*
%TO.P,U1,28,IO35*%
%TO.N,unconnected-(U1-IO35-Pad28)*%
X150980000Y-65460000D03*
%TO.P,U1,29,IO36*%
%TO.N,unconnected-(U1-IO36-Pad29)*%
X150980000Y-64190000D03*
%TO.P,U1,30,IO37*%
%TO.N,unconnected-(U1-IO37-Pad30)*%
X150980000Y-62920000D03*
%TO.P,U1,31,IO38*%
%TO.N,/Project Architecture/MCU/PWR_KEY*%
X150980000Y-61650000D03*
%TO.P,U1,32,IO39*%
%TO.N,/Project Architecture/MCU/LOCK_PWR*%
X150980000Y-60380000D03*
%TO.P,U1,33,IO40*%
%TO.N,/Project Architecture/External Connectors/GPIO40B*%
X150980000Y-59110000D03*
%TO.P,U1,34,IO41*%
%TO.N,/Project Architecture/External Connectors/GPIO41G*%
X150980000Y-57840000D03*
%TO.P,U1,35,IO42*%
%TO.N,/Project Architecture/External Connectors/GPIO42R*%
X150980000Y-56570000D03*
%TO.P,U1,36,RXD0*%
%TO.N,/Project Architecture/MCU/ESP_RXD0*%
X150980000Y-55300000D03*
%TO.P,U1,37,TXD0*%
%TO.N,/Project Architecture/MCU/ESP_TXD0*%
X150980000Y-54030000D03*
%TO.P,U1,38,IO2*%
%TO.N,unconnected-(U1-IO2-Pad38)*%
X150980000Y-52760000D03*
%TO.P,U1,39,IO1*%
%TO.N,unconnected-(U1-IO1-Pad39)*%
X150980000Y-51490000D03*
%TO.P,U1,40,GND*%
%TO.N,GND*%
X150980000Y-50220000D03*
D89*
%TO.P,U1,41,GND*%
X139330000Y-56540000D03*
X139330000Y-57940000D03*
X139330000Y-59340000D03*
X140730000Y-56540000D03*
X140730000Y-57940000D03*
X140730000Y-59340000D03*
X142130000Y-56540000D03*
X142130000Y-57940000D03*
X142130000Y-59340000D03*
%TD*%
D84*
%TO.P,R68,1*%
%TO.N,Net-(U17-A)*%
X159080000Y-124205000D03*
%TO.P,R68,2*%
%TO.N,/Project Architecture/External Connectors/RS485_A*%
X159080000Y-125855000D03*
%TD*%
D78*
%TO.P,C42,1*%
%TO.N,3V3_MCU*%
X164985000Y-50720000D03*
%TO.P,C42,2*%
%TO.N,GND*%
X163435000Y-50720000D03*
%TD*%
D60*
%TO.P,U6,1,VCAP*%
%TO.N,Net-(U6-VCAP)*%
X143625000Y-113970000D03*
%TO.P,U6,2,GND*%
%TO.N,GND*%
X143625000Y-113020000D03*
%TO.P,U6,3,EN*%
%TO.N,VBUS*%
X143625000Y-112070000D03*
%TO.P,U6,4,CATHODE*%
%TO.N,V_CHRG*%
X141325000Y-112070000D03*
%TO.P,U6,5,GATE*%
%TO.N,Net-(Q2-G)*%
X141325000Y-113020000D03*
%TO.P,U6,6,ANODE*%
%TO.N,VBUS*%
X141325000Y-113970000D03*
%TD*%
D33*
%TO.P,C17,1*%
%TO.N,Net-(U6-VCAP)*%
X142580000Y-115420000D03*
%TO.P,C17,2*%
%TO.N,VBUS*%
X141620000Y-115420000D03*
%TD*%
D42*
%TO.P,R7,1*%
%TO.N,Net-(U11-COM)*%
X140590000Y-107220000D03*
%TO.P,R7,2*%
%TO.N,Net-(C25-Pad1)*%
X141610000Y-107220000D03*
%TD*%
D90*
%TO.P,SW3,1,1*%
%TO.N,GND*%
X126250000Y-49940000D03*
%TO.P,SW3,2,2*%
%TO.N,Net-(U15-~{MR})*%
X130610000Y-49940000D03*
%TD*%
D42*
%TO.P,R3,1*%
%TO.N,V_CHRG*%
X149370000Y-113510000D03*
%TO.P,R3,2*%
%TO.N,Net-(Q3-G)*%
X150390000Y-113510000D03*
%TD*%
D91*
%TO.P,U3,1,VIO*%
%TO.N,3V3_MCU*%
X142330000Y-72690000D03*
%TO.P,U3,2,GND*%
%TO.N,GND*%
X142330000Y-73190000D03*
%TO.P,U3,3,VDD5*%
%TO.N,Net-(U3-V3)*%
X142330000Y-73690000D03*
%TO.P,U3,4,TXD*%
%TO.N,/Project Architecture/MCU/ESP_RXD0*%
X142330000Y-74190000D03*
D92*
%TO.P,U3,5,RXD*%
%TO.N,/Project Architecture/MCU/ESP_TXD0*%
X143030000Y-74890000D03*
%TO.P,U3,6,V3*%
%TO.N,Net-(U3-V3)*%
X143530000Y-74890000D03*
%TO.P,U3,7,UD+*%
%TO.N,/Project Architecture/HUB/CH343_USBD+*%
X144030000Y-74890000D03*
%TO.P,U3,8,UD-*%
%TO.N,/Project Architecture/HUB/CH343_USBD-*%
X144530000Y-74890000D03*
D91*
%TO.P,U3,9,VBUS*%
%TO.N,3V3_MCU*%
X145230000Y-74190000D03*
%TO.P,U3,10,~{ACT}*%
%TO.N,unconnected-(U3-~{ACT}-Pad10)*%
X145230000Y-73690000D03*
%TO.P,U3,11,DCD*%
%TO.N,unconnected-(U3-DCD-Pad11)*%
X145230000Y-73190000D03*
%TO.P,U3,12,DTRTNOW*%
%TO.N,/Project Architecture/MCU/CH343_DTR*%
X145230000Y-72690000D03*
D92*
%TO.P,U3,13,RTS*%
%TO.N,/Project Architecture/MCU/CH343_RTS*%
X144530000Y-71990000D03*
%TO.P,U3,14,DSR*%
%TO.N,unconnected-(U3-DSR-Pad14)*%
X144030000Y-71990000D03*
%TO.P,U3,15,CTS*%
%TO.N,unconnected-(U3-CTS-Pad15)*%
X143530000Y-71990000D03*
%TO.P,U3,16,RI*%
%TO.N,unconnected-(U3-RI-Pad16)*%
X143030000Y-71990000D03*
D93*
%TO.P,U3,17,EP*%
%TO.N,GND*%
X143780000Y-73440000D03*
%TD*%
D16*
%TO.P,R10,1*%
%TO.N,Net-(U11-MPPT)*%
X138080000Y-109030000D03*
%TO.P,R10,2*%
%TO.N,GND*%
X138080000Y-110050000D03*
%TD*%
D61*
%TO.P,Q4,1,S*%
%TO.N,V_BAT*%
X150470000Y-105830000D03*
%TO.P,Q4,2,S*%
X150470000Y-106480000D03*
%TO.P,Q4,3,S*%
X150470000Y-107120000D03*
%TO.P,Q4,4,G*%
%TO.N,Net-(Q4-G)*%
X150470000Y-107770000D03*
%TO.P,Q4,5,D*%
%TO.N,V_MAIN*%
X153330000Y-107770000D03*
%TO.P,Q4,6,D*%
X153330000Y-107120000D03*
%TO.P,Q4,7,D*%
X153330000Y-106480000D03*
%TO.P,Q4,8,D*%
X153330000Y-105830000D03*
D62*
%TO.P,Q4,9,D*%
X152460000Y-106800000D03*
%TD*%
D37*
%TO.P,C45,1*%
%TO.N,3V3_MCU*%
X152880000Y-84860000D03*
%TO.P,C45,2*%
%TO.N,GND*%
X152880000Y-83900000D03*
%TD*%
D54*
%TO.P,J5,1,Pin_1*%
%TO.N,/Project Architecture/External Connectors/GPIO41G*%
X167060000Y-125220000D03*
D55*
%TO.P,J5,2,Pin_2*%
%TO.N,/Project Architecture/External Connectors/GPIO42R*%
X169600000Y-125220000D03*
%TO.P,J5,3,Pin_3*%
%TO.N,/Project Architecture/External Connectors/GPIO15*%
X167060000Y-127760000D03*
%TO.P,J5,4,Pin_4*%
%TO.N,/Project Architecture/External Connectors/GPIO40B*%
X169600000Y-127760000D03*
%TO.P,J5,5,Pin_5*%
%TO.N,/Project Architecture/External Connectors/GPIO16*%
X167060000Y-130300000D03*
%TO.P,J5,6,Pin_6*%
%TO.N,GND*%
X169600000Y-130300000D03*
%TO.P,J5,7,Pin_7*%
%TO.N,3V3_MCU*%
X167060000Y-132840000D03*
%TO.P,J5,8,Pin_8*%
%TO.N,GND*%
X169600000Y-132840000D03*
%TO.P,J5,9,Pin_9*%
%TO.N,V_MAIN*%
X167060000Y-135380000D03*
%TO.P,J5,10,Pin_10*%
%TO.N,GND*%
X169600000Y-135380000D03*
%TD*%
D33*
%TO.P,C24,1*%
%TO.N,Net-(U11-VG)*%
X133560000Y-105340000D03*
%TO.P,C24,2*%
%TO.N,V_CHRG*%
X132600000Y-105340000D03*
%TD*%
D40*
%TO.P,C38,1*%
%TO.N,3V3_FG*%
X136970000Y-76810000D03*
%TO.P,C38,2*%
%TO.N,GND*%
X137930000Y-76810000D03*
%TD*%
D94*
%TO.P,U11,1,VG*%
%TO.N,Net-(U11-VG)*%
X135087500Y-107220000D03*
%TO.P,U11,2,GND*%
%TO.N,GND*%
X136087500Y-107220000D03*
%TO.P,U11,3,nCHRG*%
%TO.N,Net-(D16-K)*%
X137087500Y-107220000D03*
%TO.P,U11,4,MPPT*%
%TO.N,Net-(U11-MPPT)*%
X138087500Y-107220000D03*
%TO.P,U11,5,COM*%
%TO.N,Net-(U11-COM)*%
X139087500Y-107220000D03*
%TO.P,U11,6,FB*%
%TO.N,Net-(U11-FB)*%
X139087500Y-101700000D03*
%TO.P,U11,7,BAT*%
%TO.N,V_BAT*%
X138087500Y-101700000D03*
%TO.P,U11,8,CSP*%
%TO.N,Net-(U11-CSP)*%
X137087500Y-101700000D03*
%TO.P,U11,9,VCC*%
%TO.N,V_CHRG*%
X136087500Y-101700000D03*
%TO.P,U11,10,DRV*%
%TO.N,Net-(Q5-G)*%
X135087500Y-101700000D03*
%TD*%
D95*
%TO.P,C5,1*%
%TO.N,V_BAT*%
X132460000Y-78410000D03*
%TO.P,C5,2*%
%TO.N,GND*%
X132460000Y-79370000D03*
%TD*%
D12*
%TO.P,R59,1*%
%TO.N,Net-(Q6-VDD)*%
X152030000Y-124050000D03*
%TO.P,R59,2*%
%TO.N,Net-(Q6-CFG)*%
X152030000Y-123030000D03*
%TD*%
D96*
%TO.P,U4,1,CTG*%
%TO.N,GND*%
X133670000Y-75510000D03*
%TO.P,U4,2,CELL*%
%TO.N,V_BAT*%
X134170000Y-75510000D03*
%TO.P,U4,3,VDD*%
%TO.N,3V3_FG*%
X134670000Y-75510000D03*
%TO.P,U4,4,GND*%
%TO.N,GND*%
X135170000Y-75510000D03*
%TO.P,U4,5,~{ALRT}*%
%TO.N,unconnected-(U4-~{ALRT}-Pad5)*%
X135170000Y-73610000D03*
%TO.P,U4,6,QSTRT*%
%TO.N,unconnected-(U4-QSTRT-Pad6)*%
X134670000Y-73610000D03*
%TO.P,U4,7,SCL*%
%TO.N,/Project Architecture/External Connectors/I2C_SCL*%
X134170000Y-73610000D03*
%TO.P,U4,8,SDA*%
%TO.N,/Project Architecture/External Connectors/I2C_SDA*%
X133670000Y-73610000D03*
D97*
%TO.P,U4,9,GND*%
%TO.N,GND*%
X134410000Y-74560000D03*
%TD*%
D40*
%TO.P,C20,1*%
%TO.N,Net-(U10-VCAP)*%
X146620000Y-105027500D03*
%TO.P,C20,2*%
%TO.N,V_BAT*%
X147580000Y-105027500D03*
%TD*%
D33*
%TO.P,C37,1*%
%TO.N,Net-(Q6-VDD)*%
X153570000Y-126760000D03*
%TO.P,C37,2*%
%TO.N,GND*%
X152610000Y-126760000D03*
%TD*%
D67*
%TO.P,CN2,1,1*%
%TO.N,GND*%
X157540000Y-134780000D03*
D68*
%TO.P,CN2,2,2*%
%TO.N,/Project Architecture/External Connectors/RS485_A*%
X159040000Y-134780000D03*
%TO.P,CN2,3,3*%
%TO.N,/Project Architecture/External Connectors/RS485_B*%
X160540000Y-134780000D03*
%TO.P,CN2,4,4*%
%TO.N,V_MAIN*%
X162040000Y-134780000D03*
%TD*%
D98*
%TO.N,GND*%
X127180000Y-87650000D03*
X161000000Y-104750000D03*
X138630000Y-89150000D03*
X150460000Y-96900000D03*
X161000000Y-103750000D03*
X131030000Y-51410000D03*
X152170000Y-101110000D03*
X144330000Y-73990000D03*
X132370000Y-76810000D03*
X155560000Y-96700000D03*
X163610000Y-95090000D03*
X161000000Y-101750000D03*
X147540000Y-82510000D03*
X127000000Y-112950000D03*
X125830000Y-106340000D03*
X167460000Y-61770000D03*
X161000000Y-100750000D03*
X132450000Y-80280000D03*
X125820000Y-104290000D03*
X134750000Y-50220000D03*
X140720000Y-57930000D03*
X140740000Y-56550000D03*
X151880000Y-83110000D03*
X167490000Y-57270000D03*
X153650000Y-130410000D03*
X147020000Y-77600000D03*
X136630000Y-118320000D03*
X141420000Y-73190000D03*
X149740000Y-84700000D03*
X158350000Y-96070000D03*
X149740000Y-82500000D03*
X142010000Y-79480000D03*
X161000000Y-99750000D03*
X141270000Y-71120000D03*
X144670000Y-113020000D03*
X141350000Y-130500000D03*
X160880000Y-88570000D03*
X163440000Y-49650000D03*
X147540000Y-84700000D03*
X126950000Y-52760000D03*
X142140000Y-57930000D03*
X139330000Y-57940000D03*
X144390000Y-107570000D03*
X151930000Y-79300000D03*
X163430000Y-53360000D03*
X128040000Y-55530000D03*
X167290000Y-99910000D03*
X151760000Y-126770000D03*
X161000000Y-105750000D03*
X143230000Y-72890000D03*
X156560000Y-97700000D03*
X134420000Y-74570000D03*
X152880000Y-83100000D03*
X141580000Y-105390000D03*
X143530000Y-79470000D03*
X132860000Y-75510000D03*
X166450000Y-57270000D03*
X153120000Y-95970000D03*
X164420000Y-83890000D03*
X139560000Y-125890000D03*
X139020000Y-109650000D03*
X164730000Y-117390000D03*
X168990000Y-73280000D03*
X136080000Y-105520000D03*
X161000000Y-102750000D03*
X152280000Y-50220000D03*
X148650000Y-83600000D03*
X143230000Y-73990000D03*
X154520000Y-126410000D03*
X139340000Y-56550000D03*
X142140000Y-59340000D03*
X139320000Y-59340000D03*
X161895000Y-75925000D03*
X155560000Y-97700000D03*
X164150000Y-98060000D03*
X142150000Y-56550000D03*
X156908240Y-88430300D03*
X137930000Y-77670000D03*
X125100000Y-49940000D03*
X140730000Y-59340000D03*
X152940000Y-91100000D03*
X140500000Y-123600000D03*
X164430000Y-120240000D03*
X144780000Y-114460000D03*
X153750000Y-100880000D03*
X147520000Y-127270000D03*
X156905000Y-75905000D03*
X159780000Y-130640000D03*
X166220000Y-91300000D03*
X157960000Y-122730000D03*
X156560000Y-96700000D03*
X165700000Y-102260000D03*
X140650000Y-105390000D03*
X144330000Y-72900000D03*
X139550000Y-131990000D03*
%TO.N,V_BAT*%
X148850000Y-105020000D03*
D99*
%TO.N,VBUS*%
X161590000Y-89500000D03*
X144660000Y-112070000D03*
D98*
%TO.N,/Project Architecture/LoRa/SPI_MOSI{slash}CMD*%
X164980000Y-65980000D03*
X164930000Y-80350000D03*
X164970000Y-73480000D03*
X140340000Y-65790000D03*
%TO.N,/Project Architecture/LoRa/SPI_CLK*%
X160940000Y-75190000D03*
X161010000Y-65230000D03*
X141610000Y-65050000D03*
X160900000Y-82800000D03*
%TO.N,/Project Architecture/LoRa/SPI_MISO{slash}D0*%
X163020000Y-75060000D03*
X166020000Y-84970000D03*
X162930000Y-66640000D03*
X142890000Y-66510000D03*
X166120000Y-75090000D03*
%TO.N,SD_CS{slash}D3*%
X151800000Y-75450000D03*
X151830000Y-70480000D03*
X155150000Y-75510000D03*
X142220000Y-70490000D03*
%TO.N,/Project Architecture/External Connectors/I2C_SDA*%
X142700000Y-108540000D03*
X142690000Y-99270000D03*
X134110000Y-99300000D03*
X132220000Y-64220000D03*
X166280000Y-108720000D03*
X132310000Y-70530000D03*
X134080000Y-70510000D03*
%TO.N,/Project Architecture/External Connectors/I2C_SCL*%
X135160000Y-64470000D03*
%TO.N,/Project Architecture/External Connectors/LTE_USBD-*%
X131310000Y-68585000D03*
X144139479Y-84669479D03*
%TO.N,/Project Architecture/External Connectors/LTE_USBD+*%
X131310000Y-69435000D03*
X144740521Y-85270521D03*
%TO.N,/Project Architecture/LoRa/RA_CS*%
X166630000Y-64470000D03*
X144150000Y-64390000D03*
%TO.N,/Project Architecture/LoRa/RA_DIO1*%
X146790000Y-62710000D03*
X158900000Y-62720000D03*
%TO.N,/Project Architecture/LoRa/RA_RST*%
X148000000Y-63640000D03*
X162930000Y-63700000D03*
%TO.N,/Project Architecture/LoRa/RA_BUSY*%
X157000000Y-69630000D03*
X145440000Y-69550000D03*
%TO.N,/Project Architecture/MCU/ESP_EN*%
X146050000Y-71220000D03*
X146220000Y-52910000D03*
X135070000Y-52750000D03*
X149762706Y-71217294D03*
%TO.N,/Project Architecture/MCU/ESP_BOOT*%
X150980000Y-73310000D03*
X146110000Y-73300000D03*
%TO.N,/Project Architecture/MCU/RS485_RXD1*%
X165039700Y-109590000D03*
X164870000Y-86030000D03*
X135990000Y-62900000D03*
X161740000Y-109630000D03*
X135630000Y-86070000D03*
%TO.N,Net-(U7-EN)*%
X161220000Y-92760000D03*
X161130000Y-97970000D03*
%TO.N,/Project Architecture/MCU/ESP_RXD0*%
X142810000Y-60780000D03*
X137540000Y-74660000D03*
X138120000Y-63820000D03*
X141610000Y-74830000D03*
X142770000Y-63880000D03*
X145270000Y-55240000D03*
X145130000Y-60750000D03*
%TO.N,/Project Architecture/HUB/ESP_USBD+*%
X131640000Y-66520000D03*
X142960000Y-84025000D03*
%TO.N,/Project Architecture/MCU/RS485_TXD1*%
X159280000Y-111430000D03*
X159500000Y-86850000D03*
X136850000Y-86890000D03*
X136970000Y-61660000D03*
%TO.N,/Project Architecture/MCU/ESP_TXD0*%
X144120000Y-62700000D03*
X137650000Y-62690000D03*
X144190000Y-53950000D03*
X137150000Y-75700000D03*
X143030000Y-75790000D03*
%TO.N,/Project Architecture/HUB/ESP_USBD-*%
X131640000Y-65670000D03*
X142960000Y-83175000D03*
%TO.N,/Project Architecture/HUB/CH343_USBD-*%
X144634174Y-81420717D03*
X146397087Y-78567559D03*
%TO.N,/Project Architecture/HUB/CH343_USBD+*%
X146397087Y-79417559D03*
X145484174Y-81420717D03*
%TO.N,/Project Architecture/External Connectors/USBCD+*%
X147960000Y-122320000D03*
X147960000Y-125000000D03*
X147975000Y-88540000D03*
X147975000Y-116750000D03*
%TO.N,/Project Architecture/External Connectors/USBCD-*%
X147125000Y-88540000D03*
X147110000Y-122320000D03*
X147125000Y-116750000D03*
X147110000Y-125000000D03*
%TO.N,/Project Architecture/External Connectors/CC1*%
X155500000Y-121500000D03*
X141370000Y-127030000D03*
X145300000Y-127010000D03*
X145300000Y-121530000D03*
%TO.N,/Project Architecture/External Connectors/GPIO41G*%
X153730000Y-94970000D03*
X151530000Y-94980000D03*
X151430000Y-116300000D03*
X153830000Y-82310000D03*
X153910000Y-57830000D03*
X165690000Y-116500000D03*
%TO.N,/Project Architecture/External Connectors/GPIO42R*%
X149450000Y-56690000D03*
%TO.N,/Project Architecture/External Connectors/GPIO40B*%
X165030000Y-114510000D03*
X154350000Y-92280000D03*
X154330000Y-114350000D03*
X154690000Y-59070000D03*
%TO.N,/Project Architecture/External Connectors/GPIO16*%
X130620000Y-64850000D03*
%TO.N,/Project Architecture/External Connectors/GPIO15*%
X139190000Y-61290000D03*
X139100000Y-71350000D03*
%TO.N,/Project Architecture/MCU/LOCK_PWR*%
X169840000Y-87230000D03*
X169670000Y-60740000D03*
%TD*%
D100*
%TO.N,GND*%
X145450000Y-107577500D02*
X144397500Y-107577500D01*
X164430000Y-120240000D02*
X164430000Y-119290000D01*
X126950000Y-52760000D02*
X128035000Y-52760000D01*
X163610000Y-96155000D02*
X163605000Y-96160000D01*
X141460000Y-123600000D02*
X140500000Y-123600000D01*
X141270000Y-71120000D02*
X140205000Y-71120000D01*
X163430000Y-53360000D02*
X163430000Y-52255000D01*
X125100000Y-49940000D02*
X126250000Y-49940000D01*
X152940000Y-91100000D02*
X150650000Y-91100000D01*
X151760000Y-126770000D02*
X151770000Y-126760000D01*
X141590000Y-105380000D02*
X141580000Y-105390000D01*
X160880000Y-88570000D02*
X161355000Y-88095000D01*
X128040000Y-55530000D02*
X128040000Y-54415000D01*
X127180000Y-87650000D02*
X127180000Y-86340000D01*
X138630000Y-89150000D02*
X136750000Y-89150000D01*
X161895000Y-75925000D02*
X161355000Y-76465000D01*
D101*
X131460000Y-52440000D02*
X131140000Y-52120000D01*
D100*
X141590000Y-104540000D02*
X141590000Y-105380000D01*
X161355000Y-88095000D02*
X161355000Y-87340000D01*
X132450000Y-80280000D02*
X132460000Y-80270000D01*
X134750000Y-50220000D02*
X133480000Y-50220000D01*
X136087500Y-107220000D02*
X136087500Y-105527500D01*
X159780000Y-130640000D02*
X159780000Y-131680000D01*
X163430000Y-52255000D02*
X163435000Y-52250000D01*
X164730000Y-117390000D02*
X164427500Y-117692500D01*
X163610000Y-95090000D02*
X163610000Y-96155000D01*
X163105000Y-83890000D02*
X164420000Y-83890000D01*
X127010000Y-112940000D02*
X127000000Y-112950000D01*
X163440000Y-49650000D02*
X163440000Y-50715000D01*
X143625000Y-113020000D02*
X144670000Y-113020000D01*
D101*
X131140000Y-52120000D02*
X131030000Y-52120000D01*
D100*
X136630000Y-118320000D02*
X135572500Y-118320000D01*
X157960000Y-121200000D02*
X157960000Y-122730000D01*
X166220000Y-91300000D02*
X165225000Y-91300000D01*
X138080000Y-110050000D02*
X138620000Y-110050000D01*
X140650000Y-106220000D02*
X140650000Y-105390000D01*
X136087500Y-105527500D02*
X136080000Y-105520000D01*
X132370000Y-76810000D02*
X133210000Y-76810000D01*
X154520000Y-125332500D02*
X154520000Y-126410000D01*
X125830000Y-106340000D02*
X127005000Y-106340000D01*
X141350000Y-129620000D02*
X141350000Y-130500000D01*
X142010000Y-79480000D02*
X142010000Y-78415000D01*
X164150000Y-98060000D02*
X163352500Y-98060000D01*
X163352500Y-98060000D02*
X163350000Y-98062500D01*
X132860000Y-75510000D02*
X133594000Y-75510000D01*
X152175000Y-101115000D02*
X152175000Y-103010000D01*
X125820000Y-104290000D02*
X125820000Y-103400000D01*
X156905000Y-75905000D02*
X156905000Y-77140000D01*
X135572500Y-118320000D02*
X135570000Y-118322500D01*
X152880000Y-83900000D02*
X152880000Y-83100000D01*
X144397500Y-107577500D02*
X144390000Y-107570000D01*
X156908240Y-88430300D02*
X156905000Y-88427060D01*
X147520000Y-127270000D02*
X147520000Y-126150000D01*
X147020000Y-77600000D02*
X148400000Y-77600000D01*
X153120000Y-95970000D02*
X153120000Y-97055000D01*
X153750000Y-100880000D02*
X153760000Y-100890000D01*
X153760000Y-100890000D02*
X154560000Y-100890000D01*
X152170000Y-101110000D02*
X152175000Y-101115000D01*
X151930000Y-79300000D02*
X150600000Y-79300000D01*
X152280000Y-50220000D02*
X150980000Y-50220000D01*
X127010000Y-111740000D02*
X127010000Y-112940000D01*
X161355000Y-76465000D02*
X161355000Y-77140000D01*
X156905000Y-88427060D02*
X156905000Y-87340000D01*
X138620000Y-110050000D02*
X139020000Y-109650000D01*
X163440000Y-50715000D02*
X163435000Y-50720000D01*
X140205000Y-71120000D02*
X140200000Y-71125000D01*
X143530000Y-78415000D02*
X143530000Y-79470000D01*
D101*
X131030000Y-51410000D02*
X131030000Y-52120000D01*
D100*
X145840000Y-114460000D02*
X144780000Y-114460000D01*
X153650000Y-129620000D02*
X153650000Y-130410000D01*
X132460000Y-80270000D02*
X132460000Y-79370000D01*
X164427500Y-117692500D02*
X164427500Y-118240000D01*
X151880000Y-83110000D02*
X151880000Y-83900000D01*
X139550000Y-131990000D02*
X137580000Y-131990000D01*
X139560000Y-125890000D02*
X137580000Y-125890000D01*
X137930000Y-77670000D02*
X137930000Y-76810000D01*
X151770000Y-126760000D02*
X152610000Y-126760000D01*
X150460000Y-96900000D02*
X149275000Y-96900000D01*
X128040000Y-54415000D02*
X128035000Y-54410000D01*
D102*
X142330000Y-73190000D02*
X141420000Y-73190000D01*
D100*
%TO.N,V_CHRG*%
X136740000Y-112960000D02*
X137580000Y-112960000D01*
D103*
X146980000Y-113735000D02*
X147205000Y-113510000D01*
X146775000Y-115410000D02*
X146980000Y-115205000D01*
D100*
X133580000Y-103340000D02*
X132760000Y-103340000D01*
X132600000Y-106320000D02*
X132560000Y-106360000D01*
X135952500Y-103340000D02*
X136087500Y-103205000D01*
X133580000Y-103340000D02*
X135952500Y-103340000D01*
D103*
X146980000Y-115205000D02*
X146980000Y-113735000D01*
D100*
X149370000Y-113510000D02*
X148140000Y-113510000D01*
X132600000Y-103500000D02*
X132600000Y-105340000D01*
D103*
X145840000Y-115410000D02*
X146775000Y-115410000D01*
D100*
X136087500Y-103205000D02*
X136087500Y-101700000D01*
D103*
X147205000Y-113510000D02*
X148140000Y-113510000D01*
D100*
X132760000Y-103340000D02*
X132600000Y-103500000D01*
D104*
%TO.N,V_MAIN*%
X152380000Y-111100000D02*
X152380000Y-115410000D01*
X156200000Y-136260000D02*
X161408528Y-136260000D01*
X155020000Y-131800000D02*
X155020000Y-135080000D01*
X154870000Y-116950000D02*
X154870000Y-119130000D01*
X148140000Y-115410000D02*
X151130000Y-115410000D01*
X151130000Y-115410000D02*
X152380000Y-115410000D01*
X161408528Y-136260000D02*
X162040000Y-135628528D01*
D105*
X155810000Y-99210000D02*
X155520000Y-99500000D01*
D104*
X147750000Y-108527500D02*
X152002500Y-108527500D01*
D105*
X155520000Y-99500000D02*
X155520000Y-100890000D01*
X156585000Y-100890000D02*
X156855000Y-101160000D01*
D104*
X156730000Y-130090000D02*
X155020000Y-131800000D01*
X156730000Y-120990000D02*
X156730000Y-130090000D01*
X155020000Y-135080000D02*
X156200000Y-136260000D01*
D105*
X155520000Y-100890000D02*
X156585000Y-100890000D01*
D104*
X152002500Y-108527500D02*
X152460000Y-108070000D01*
X166460000Y-134780000D02*
X167060000Y-135380000D01*
X153330000Y-115410000D02*
X154870000Y-116950000D01*
D105*
X155810000Y-98600000D02*
X155810000Y-99210000D01*
D104*
X162040000Y-134780000D02*
X166460000Y-134780000D01*
D100*
X156805000Y-101530000D02*
X156835000Y-101500000D01*
D104*
X152380000Y-115410000D02*
X153330000Y-115410000D01*
X162040000Y-135628528D02*
X162040000Y-134780000D01*
X152460000Y-108070000D02*
X152460000Y-106800000D01*
X154870000Y-119130000D02*
X156730000Y-120990000D01*
D105*
%TO.N,V_BAT*%
X169210000Y-102230000D02*
X170060000Y-103080000D01*
X168650000Y-112120000D02*
X168650000Y-113450000D01*
D102*
X134170000Y-75510000D02*
X134170000Y-76810000D01*
D100*
X135590000Y-79770000D02*
X135050000Y-80310000D01*
D103*
X146385000Y-108527500D02*
X146610000Y-108302500D01*
X145450000Y-108527500D02*
X146385000Y-108527500D01*
X147750000Y-106627500D02*
X149062500Y-106627500D01*
D105*
X169210000Y-101330000D02*
X169210000Y-102230000D01*
X170060000Y-110710000D02*
X168650000Y-112120000D01*
D100*
X142505000Y-101440000D02*
X141980000Y-101440000D01*
D103*
X146610000Y-106990000D02*
X146972500Y-106627500D01*
D100*
X138087500Y-100122500D02*
X138910000Y-99300000D01*
X135050000Y-80310000D02*
X134170000Y-80310000D01*
X134170000Y-78410000D02*
X134170000Y-76810000D01*
D103*
X146610000Y-108302500D02*
X146610000Y-106990000D01*
D100*
X134170000Y-78410000D02*
X132460000Y-78410000D01*
X138910000Y-99300000D02*
X141050000Y-99300000D01*
D103*
X146972500Y-106627500D02*
X147750000Y-106627500D01*
D100*
X141980000Y-100230000D02*
X141980000Y-101440000D01*
X134170000Y-78410000D02*
X135230000Y-78410000D01*
D103*
X149062500Y-106627500D02*
X149100000Y-106590000D01*
D105*
X170060000Y-103080000D02*
X170060000Y-110710000D01*
D100*
X135230000Y-78410000D02*
X135590000Y-78770000D01*
X138087500Y-101700000D02*
X138087500Y-100122500D01*
X135590000Y-78770000D02*
X135590000Y-79770000D01*
X141050000Y-99300000D02*
X141980000Y-100230000D01*
D101*
%TO.N,3V3_MCU*%
X155095000Y-81340000D02*
X155090000Y-81335000D01*
D105*
X133480000Y-51490000D02*
X135840000Y-51490000D01*
X155090000Y-81335000D02*
X163100000Y-81335000D01*
X156570000Y-119140000D02*
X161230000Y-119140000D01*
X164260000Y-104750000D02*
X164400000Y-104750000D01*
X152950000Y-70860000D02*
X164980000Y-58830000D01*
X163467500Y-117082500D02*
X163470000Y-117080000D01*
D102*
X140350000Y-72690000D02*
X140345000Y-72695000D01*
D105*
X164985000Y-52250000D02*
X164985000Y-50720000D01*
D102*
X142330000Y-72690000D02*
X140350000Y-72690000D01*
D105*
X137780000Y-72675000D02*
X137770000Y-72685000D01*
X157420000Y-89070000D02*
X158670000Y-90320000D01*
X152880000Y-84860000D02*
X152880000Y-87100000D01*
X163467500Y-118240000D02*
X163467500Y-117082500D01*
X140200000Y-72675000D02*
X137780000Y-72675000D01*
X163850000Y-117080000D02*
X164260000Y-116670000D01*
X162625000Y-103785000D02*
X163590000Y-104750000D01*
D106*
X131030000Y-52760000D02*
X129585000Y-52760000D01*
D105*
X164980000Y-58830000D02*
X164980000Y-55540000D01*
X162160000Y-95730000D02*
X161590000Y-95160000D01*
X164050000Y-48420000D02*
X164985000Y-49355000D01*
X164985000Y-49355000D02*
X164985000Y-50720000D01*
X150650000Y-84850000D02*
X152140000Y-84850000D01*
X164260000Y-116670000D02*
X164260000Y-104750000D01*
X161590000Y-95160000D02*
X159710000Y-95160000D01*
X163100000Y-81335000D02*
X163105000Y-81340000D01*
X152950000Y-76280000D02*
X152950000Y-70860000D01*
X138910000Y-48420000D02*
X164050000Y-48420000D01*
X153975000Y-81335000D02*
X152950000Y-80310000D01*
X163470000Y-131080000D02*
X165230000Y-132840000D01*
X158670000Y-90320000D02*
X158670000Y-92190000D01*
X161770000Y-119680000D02*
X161770000Y-121200000D01*
X155090000Y-83209999D02*
X153439999Y-84860000D01*
X154850000Y-89070000D02*
X157420000Y-89070000D01*
X129990000Y-48420000D02*
X129585000Y-48825000D01*
X145230000Y-75360000D02*
X145230000Y-74190000D01*
X151880000Y-84860000D02*
X152880000Y-84860000D01*
X152950000Y-76280000D02*
X146150000Y-76280000D01*
X155090000Y-81335000D02*
X153975000Y-81335000D01*
X162625000Y-102262500D02*
X162625000Y-101585000D01*
X162625000Y-101585000D02*
X162160000Y-101120000D01*
X163470000Y-117080000D02*
X163850000Y-117080000D01*
X163470000Y-118242500D02*
X163467500Y-118240000D01*
X161230000Y-119140000D02*
X161770000Y-119680000D01*
X153439999Y-84860000D02*
X152880000Y-84860000D01*
X129585000Y-48825000D02*
X129585000Y-52760000D01*
X165230000Y-132840000D02*
X167060000Y-132840000D01*
X164985000Y-55535000D02*
X164980000Y-55540000D01*
X163470000Y-119290000D02*
X163470000Y-118242500D01*
X163470000Y-120470000D02*
X163470000Y-121200000D01*
X164985000Y-52250000D02*
X164985000Y-55535000D01*
X152880000Y-87100000D02*
X154850000Y-89070000D01*
X162625000Y-102262500D02*
X162625000Y-103785000D01*
X150650000Y-84350000D02*
X150650000Y-84850000D01*
X164400000Y-104750000D02*
X168550000Y-104750000D01*
X152950000Y-80310000D02*
X152950000Y-76280000D01*
X138910000Y-48420000D02*
X129990000Y-48420000D01*
X135840000Y-51490000D02*
X138910000Y-48420000D01*
X163590000Y-104750000D02*
X164260000Y-104750000D01*
X163470000Y-120470000D02*
X163470000Y-119290000D01*
X155090000Y-81335000D02*
X155090000Y-83209999D01*
X129585000Y-52760000D02*
X129585000Y-54410000D01*
X161770000Y-121200000D02*
X163470000Y-121200000D01*
X146150000Y-76280000D02*
X145230000Y-75360000D01*
X163470000Y-121200000D02*
X163470000Y-131080000D01*
X162160000Y-101120000D02*
X162160000Y-95730000D01*
%TO.N,Net-(U7-SS{slash}TR)*%
X155310000Y-98600000D02*
X153125000Y-98600000D01*
X153125000Y-98600000D02*
X153120000Y-98605000D01*
D100*
%TO.N,VBUS*%
X149910000Y-129620000D02*
X149910000Y-128570000D01*
D101*
X142440000Y-112350000D02*
X142720000Y-112070000D01*
X142720000Y-112070000D02*
X143625000Y-112070000D01*
X142120000Y-113970000D02*
X142440000Y-113650000D01*
D107*
X143760000Y-119440000D02*
X143800000Y-119400000D01*
D101*
X141325000Y-113970000D02*
X142120000Y-113970000D01*
D105*
X143625000Y-112070000D02*
X144660000Y-112070000D01*
D100*
X151010000Y-127470000D02*
X151010000Y-125332500D01*
X149910000Y-128570000D02*
X151010000Y-127470000D01*
D101*
X142440000Y-113650000D02*
X142440000Y-112350000D01*
D105*
X163250000Y-89500000D02*
X161590000Y-89500000D01*
D103*
%TO.N,Net-(U6-VCAP)*%
X143625000Y-115245000D02*
X143625000Y-113970000D01*
X142930000Y-115420000D02*
X143450000Y-115420000D01*
X143450000Y-115420000D02*
X143625000Y-115245000D01*
%TO.N,Net-(U5-VCAP)*%
X134800000Y-120700000D02*
X135280000Y-120700000D01*
X135280000Y-120700000D02*
X135570000Y-120410000D01*
X135570000Y-120410000D02*
X135570000Y-119272500D01*
D107*
%TO.N,VSUN*%
X134155000Y-119272500D02*
X134430000Y-118997500D01*
X133270000Y-119272500D02*
X134155000Y-119272500D01*
X134968000Y-117372500D02*
X135570000Y-117372500D01*
X134430000Y-118997500D02*
X134430000Y-117910500D01*
X134430000Y-117910500D02*
X134968000Y-117372500D01*
X131950000Y-119272500D02*
X131880000Y-119342500D01*
D103*
%TO.N,Net-(U8-VCAP)*%
X145840000Y-113510000D02*
X145840000Y-111870000D01*
%TO.N,Net-(U10-VCAP)*%
X146620000Y-105027500D02*
X146070000Y-105027500D01*
X145450000Y-106627500D02*
X145450000Y-105647500D01*
X145450000Y-105647500D02*
X146070000Y-105027500D01*
D100*
%TO.N,Net-(U11-VG)*%
X133560000Y-105340000D02*
X134440000Y-105340000D01*
X134440000Y-105340000D02*
X135087500Y-105987500D01*
X135087500Y-105987500D02*
X135087500Y-107220000D01*
%TO.N,Net-(C25-Pad1)*%
X141610000Y-106220000D02*
X141610000Y-107220000D01*
%TO.N,Net-(Q6-VDD)*%
X152030000Y-125332500D02*
X153570000Y-125332500D01*
X153570000Y-126760000D02*
X153570000Y-125332500D01*
X152030000Y-125332500D02*
X152030000Y-124120000D01*
D102*
%TO.N,3V3_FG*%
X136970000Y-76810000D02*
X136970000Y-78430000D01*
X134670000Y-75510000D02*
X134670000Y-76337096D01*
X136970000Y-76810000D02*
X135142904Y-76810000D01*
X134670000Y-76337096D02*
X135142904Y-76810000D01*
%TO.N,Net-(U3-V3)*%
X143530000Y-74890000D02*
X143530000Y-76865000D01*
X143530000Y-76865000D02*
X142010000Y-76865000D01*
X140980000Y-74515298D02*
X141805298Y-73690000D01*
X141895000Y-76865000D02*
X140980000Y-75950000D01*
X140980000Y-75950000D02*
X140980000Y-74515298D01*
X141805298Y-73690000D02*
X142330000Y-73690000D01*
X142010000Y-76865000D02*
X141895000Y-76865000D01*
D106*
%TO.N,/Project Architecture/External Connectors/I2C_SDA*%
X133675000Y-73605000D02*
X133670000Y-73610000D01*
%TO.N,/Project Architecture/External Connectors/I2C_SCL*%
X137770000Y-71035000D02*
X137770000Y-68010000D01*
X137770000Y-68010000D02*
X137780000Y-68000000D01*
%TO.N,/Project Architecture/External Connectors/RS485_A*%
X158830000Y-129380000D02*
X158830000Y-134570000D01*
X158830000Y-134570000D02*
X159040000Y-134780000D01*
X158995000Y-129215000D02*
X158830000Y-129380000D01*
X159080000Y-125855000D02*
X159080000Y-127445000D01*
X158995000Y-127530000D02*
X158995000Y-129215000D01*
X159080000Y-127445000D02*
X158995000Y-127530000D01*
%TO.N,/Project Architecture/External Connectors/RS485_B*%
X160785000Y-129275000D02*
X160890000Y-129380000D01*
X160580000Y-125855000D02*
X160580000Y-127465000D01*
X160730000Y-134590000D02*
X160540000Y-134780000D01*
X160645000Y-129295000D02*
X160730000Y-129380000D01*
X160645000Y-127530000D02*
X160645000Y-129295000D01*
X160730000Y-129380000D02*
X160730000Y-134590000D01*
X160580000Y-127465000D02*
X160645000Y-127530000D01*
%TO.N,Net-(D6-K)*%
X167092500Y-89500000D02*
X167102500Y-89510000D01*
X167102500Y-89510000D02*
X167102500Y-92787500D01*
X167102500Y-92787500D02*
X167090000Y-92800000D01*
X165350000Y-89500000D02*
X167092500Y-89500000D01*
X167090000Y-92800000D02*
X165225000Y-92800000D01*
D100*
%TO.N,Net-(D16-K)*%
X137087500Y-109220000D02*
X137087500Y-107220000D01*
X136767500Y-109540000D02*
X137087500Y-109220000D01*
%TO.N,Net-(D16-A)*%
X134940000Y-109540000D02*
X133580000Y-108180000D01*
X133580000Y-108180000D02*
X133580000Y-106360000D01*
X135192500Y-109540000D02*
X134940000Y-109540000D01*
D106*
%TO.N,/Project Architecture/External Connectors/LTE_TXD2*%
X126360000Y-59010000D02*
X126360000Y-60120000D01*
X133480000Y-54030000D02*
X131340000Y-54030000D01*
X131340000Y-54030000D02*
X126360000Y-59010000D01*
%TO.N,/Project Architecture/External Connectors/LTE_RXD2*%
X131880000Y-55300000D02*
X128900000Y-58280000D01*
X133480000Y-55300000D02*
X131880000Y-55300000D01*
X128900000Y-58280000D02*
X128900000Y-60120000D01*
D108*
%TO.N,/Project Architecture/External Connectors/LTE_USBD-*%
X131110001Y-68784999D02*
X131310000Y-68585000D01*
X129944999Y-68784999D02*
X131110001Y-68784999D01*
X146650000Y-84350000D02*
X146300000Y-84350000D01*
X144716801Y-84375000D02*
X144422322Y-84669479D01*
X144422322Y-84669479D02*
X144139479Y-84669479D01*
X146300000Y-84350000D02*
X146275000Y-84375000D01*
X128900000Y-67740000D02*
X129944999Y-68784999D01*
X146275000Y-84375000D02*
X144716801Y-84375000D01*
D106*
%TO.N,/Project Architecture/External Connectors/LTE_ON*%
X132360000Y-57840000D02*
X131170000Y-59030000D01*
X131170000Y-62930000D02*
X128900000Y-65200000D01*
X131170000Y-59030000D02*
X131170000Y-62930000D01*
X133480000Y-57840000D02*
X132360000Y-57840000D01*
D108*
%TO.N,/Project Architecture/External Connectors/LTE_USBD+*%
X146650000Y-84850000D02*
X146300000Y-84850000D01*
X144903199Y-84825000D02*
X144740521Y-84987678D01*
X144740521Y-84987678D02*
X144740521Y-85270521D01*
X146275000Y-84825000D02*
X144903199Y-84825000D01*
X146300000Y-84850000D02*
X146275000Y-84825000D01*
X131110001Y-69235001D02*
X131310000Y-69435000D01*
X128900000Y-70280000D02*
X129944999Y-69235001D01*
X129944999Y-69235001D02*
X131110001Y-69235001D01*
D106*
%TO.N,/Project Architecture/External Connectors/LTE_RST*%
X130280000Y-61280000D02*
X128900000Y-62660000D01*
X133480000Y-56570000D02*
X131770000Y-56570000D01*
X130280000Y-58060000D02*
X130280000Y-61280000D01*
X131770000Y-56570000D02*
X130280000Y-58060000D01*
D104*
%TO.N,Net-(L2-ANT)*%
X168980000Y-52640000D02*
X168980000Y-55840000D01*
X168980000Y-50022500D02*
X168980000Y-52640000D01*
D103*
%TO.N,Net-(Q1-G)*%
X130370000Y-119322500D02*
X131370000Y-118322500D01*
X131880000Y-118322500D02*
X133270000Y-118322500D01*
X131370000Y-118322500D02*
X131880000Y-118322500D01*
%TO.N,Net-(Q2-G)*%
X139560000Y-113940000D02*
X140070000Y-113940000D01*
X140070000Y-113940000D02*
X140070000Y-113630000D01*
X140070000Y-113630000D02*
X140680000Y-113020000D01*
X140680000Y-113020000D02*
X141325000Y-113020000D01*
X138550000Y-114950000D02*
X139560000Y-113940000D01*
%TO.N,Net-(Q3-G)*%
X150390000Y-113829999D02*
X150390000Y-113510000D01*
X148140000Y-114460000D02*
X149759999Y-114460000D01*
X149759999Y-114460000D02*
X150390000Y-113829999D01*
X150390000Y-113510000D02*
X150390000Y-112070000D01*
D107*
%TO.N,Net-(Q4-G)*%
X147782500Y-107610000D02*
X147750000Y-107577500D01*
D103*
X149260000Y-107770000D02*
X149100000Y-107610000D01*
D107*
X149067500Y-107577500D02*
X149100000Y-107610000D01*
X147750000Y-107577500D02*
X149067500Y-107577500D01*
D103*
X150470000Y-107770000D02*
X149260000Y-107770000D01*
D100*
%TO.N,Net-(Q5-G)*%
X130580000Y-101700000D02*
X135087500Y-101700000D01*
%TO.N,Net-(Q6-CFG)*%
X153570000Y-123032500D02*
X152032500Y-123032500D01*
X152032500Y-123032500D02*
X152030000Y-123030000D01*
D106*
%TO.N,Net-(Q13-B)*%
X165250000Y-96165000D02*
X165255000Y-96160000D01*
X165255000Y-94600000D02*
X165255000Y-96160000D01*
X165250000Y-98062500D02*
X165250000Y-96165000D01*
%TO.N,/Project Architecture/MCU/CH343_DTR*%
X148845000Y-74990000D02*
X148845000Y-73310000D01*
%TO.N,/Project Architecture/MCU/ESP_EN*%
X133480000Y-52760000D02*
X131890000Y-52760000D01*
%TO.N,Net-(Q15-B-Pad2)*%
X148685000Y-70580000D02*
X149940000Y-70580000D01*
X150370000Y-71010000D02*
X150370000Y-72200000D01*
X149920000Y-72650000D02*
X148845000Y-72650000D01*
X150370000Y-72200000D02*
X149920000Y-72650000D01*
X149940000Y-70580000D02*
X150370000Y-71010000D01*
%TO.N,Net-(Q15-B-Pad5)*%
X147940000Y-74245000D02*
X147195000Y-74990000D01*
X147045000Y-72650000D02*
X147800000Y-72650000D01*
X147940000Y-72790000D02*
X147940000Y-74245000D01*
X147800000Y-72650000D02*
X147940000Y-72790000D01*
%TO.N,/Project Architecture/MCU/CH343_RTS*%
X147035000Y-71990000D02*
X147045000Y-72000000D01*
X147035000Y-70580000D02*
X147035000Y-71990000D01*
X144530000Y-71990000D02*
X147035000Y-71990000D01*
D100*
%TO.N,Net-(U11-COM)*%
X139087500Y-107220000D02*
X140590000Y-107220000D01*
%TO.N,Net-(U11-MPPT)*%
X136960000Y-104360000D02*
X138087500Y-105487500D01*
X138080000Y-109030000D02*
X138080000Y-107227500D01*
X138087500Y-105487500D02*
X138087500Y-107220000D01*
X138080000Y-107227500D02*
X138087500Y-107220000D01*
X133580000Y-104360000D02*
X136960000Y-104360000D01*
%TO.N,Net-(U11-FB)*%
X139087500Y-101700000D02*
X139087500Y-102987500D01*
X139087500Y-102987500D02*
X139640000Y-103540000D01*
X139640000Y-103540000D02*
X140570000Y-103540000D01*
X140570000Y-103540000D02*
X140570000Y-104540000D01*
D109*
%TO.N,/Project Architecture/MCU/RS485_RXD1*%
X161770000Y-116060000D02*
X163470000Y-116060000D01*
D106*
%TO.N,Net-(U17-~{RE})*%
X159230000Y-117660000D02*
X159230000Y-116060000D01*
X159230000Y-116060000D02*
X160490000Y-116060000D01*
X158770000Y-118120000D02*
X159230000Y-117660000D01*
X156570000Y-118120000D02*
X158770000Y-118120000D01*
%TO.N,Net-(U7-EN)*%
X163575000Y-91300000D02*
X163575000Y-92800000D01*
%TO.N,Net-(U17-B)*%
X160460000Y-124085000D02*
X160580000Y-124205000D01*
X160490000Y-121200000D02*
X160490000Y-124115000D01*
X160490000Y-124115000D02*
X160580000Y-124205000D01*
%TO.N,Net-(U17-A)*%
X159230000Y-124055000D02*
X159080000Y-124205000D01*
X159230000Y-121200000D02*
X159230000Y-124055000D01*
%TO.N,Net-(U15-~{MR})*%
X130610000Y-49940000D02*
X131410000Y-49940000D01*
X131890000Y-50420000D02*
X131890000Y-52120000D01*
X131410000Y-49940000D02*
X131890000Y-50420000D01*
D108*
%TO.N,/Project Architecture/HUB/ESP_USBD+*%
X146625001Y-83825001D02*
X143159999Y-83825001D01*
X131839999Y-66320001D02*
X131640000Y-66520000D01*
X133070001Y-66320001D02*
X131839999Y-66320001D01*
X146650000Y-83850000D02*
X146625001Y-83825001D01*
X133480000Y-66730000D02*
X133070001Y-66320001D01*
X143159999Y-83825001D02*
X142960000Y-84025000D01*
%TO.N,/Project Architecture/HUB/ESP_USBD-*%
X146650000Y-83350000D02*
X146625001Y-83374999D01*
X133480000Y-65460000D02*
X133070001Y-65869999D01*
X133070001Y-65869999D02*
X131839999Y-65869999D01*
X146625001Y-83374999D02*
X143159999Y-83374999D01*
X131839999Y-65869999D02*
X131640000Y-65670000D01*
X143159999Y-83374999D02*
X142960000Y-83175000D01*
%TO.N,/Project Architecture/HUB/CH343_USBD-*%
X145641309Y-78767559D02*
X146059347Y-78767559D01*
X144530000Y-74890000D02*
X144530000Y-75452501D01*
X145465000Y-78591250D02*
X145641309Y-78767559D01*
X146059347Y-78767559D02*
X146059348Y-78767558D01*
X146300000Y-82850000D02*
X146275000Y-82825000D01*
X144505000Y-75796802D02*
X145465000Y-76756802D01*
X144530000Y-75452501D02*
X144505000Y-75477501D01*
X146650000Y-82850000D02*
X146300000Y-82850000D01*
X146059348Y-78767558D02*
X146197088Y-78767558D01*
X144834173Y-82172371D02*
X144834173Y-81620716D01*
X146275000Y-82825000D02*
X145486802Y-82825000D01*
X145486802Y-82825000D02*
X144834173Y-82172371D01*
X145465000Y-76756802D02*
X145465000Y-78591250D01*
X144505000Y-75477501D02*
X144505000Y-75796802D01*
X146197088Y-78767558D02*
X146397087Y-78567559D01*
X144834173Y-81620716D02*
X144634174Y-81420717D01*
%TO.N,/Project Architecture/HUB/CH343_USBD+*%
X145454913Y-79217559D02*
X146059347Y-79217559D01*
X145284175Y-81985977D02*
X145284175Y-81620716D01*
X144055000Y-75983198D02*
X145015000Y-76943198D01*
X146300000Y-82350000D02*
X146275000Y-82375000D01*
X145673198Y-82375000D02*
X145284175Y-81985977D01*
X145284175Y-81620716D02*
X145484174Y-81420717D01*
X144055000Y-75477501D02*
X144055000Y-75983198D01*
X145015000Y-76943198D02*
X145015000Y-78777646D01*
X145015000Y-78777646D02*
X145454913Y-79217559D01*
X144030000Y-75452501D02*
X144055000Y-75477501D01*
X146650000Y-82350000D02*
X146300000Y-82350000D01*
X146275000Y-82375000D02*
X145673198Y-82375000D01*
X144030000Y-74890000D02*
X144030000Y-75452501D01*
X146059348Y-79217560D02*
X146197088Y-79217560D01*
X146059347Y-79217559D02*
X146059348Y-79217560D01*
X146197088Y-79217560D02*
X146397087Y-79417559D01*
D109*
%TO.N,/Project Architecture/HUB/XTAL_XO*%
X149500000Y-80330000D02*
X149500000Y-78470000D01*
X148900000Y-81600000D02*
X148900000Y-80930000D01*
D105*
X150370000Y-77600000D02*
X150600000Y-77600000D01*
D109*
X148900000Y-80930000D02*
X149500000Y-80330000D01*
X149500000Y-78470000D02*
X150370000Y-77600000D01*
%TO.N,/Project Architecture/HUB/XTAL_XI*%
X148400000Y-81600000D02*
X148400000Y-79300000D01*
D108*
%TO.N,/Project Architecture/External Connectors/USBCD+*%
X148375000Y-86813198D02*
X147775001Y-87413197D01*
X148375000Y-85975000D02*
X148375000Y-86813198D01*
X147775001Y-116949999D02*
X147975000Y-116750000D01*
X147760000Y-120290000D02*
X148300000Y-119750000D01*
D106*
X148470000Y-126150000D02*
X148470000Y-128390000D01*
D108*
X148400000Y-85950000D02*
X148375000Y-85975000D01*
D106*
X148260000Y-128600000D02*
X148260000Y-129620000D01*
D108*
X148400000Y-85600000D02*
X148400000Y-85950000D01*
X147760000Y-122120000D02*
X147760000Y-120290000D01*
D106*
X147960000Y-125000000D02*
X148470000Y-125510000D01*
D108*
X148300000Y-119750000D02*
X148300000Y-119400000D01*
X148300000Y-119400000D02*
X147775001Y-118875001D01*
X147775001Y-87413197D02*
X147775001Y-88340001D01*
D106*
X148470000Y-128390000D02*
X148260000Y-128600000D01*
D108*
X147775001Y-88340001D02*
X147975000Y-88540000D01*
D106*
X148470000Y-125510000D02*
X148470000Y-126150000D01*
D108*
X147775001Y-118875001D02*
X147775001Y-116949999D01*
X147960000Y-122320000D02*
X147760000Y-122120000D01*
%TO.N,/Project Architecture/External Connectors/USBCD-*%
X146800000Y-119400000D02*
X147324999Y-118875001D01*
X147925000Y-86626802D02*
X147324999Y-87226803D01*
D106*
X147760000Y-128790000D02*
X147760000Y-129620000D01*
D108*
X147110000Y-122320000D02*
X147310000Y-122120000D01*
X147310000Y-122120000D02*
X147310000Y-120260000D01*
X147324999Y-118875001D02*
X147324999Y-116949999D01*
D106*
X146760000Y-128800000D02*
X146760000Y-127580000D01*
D108*
X147324999Y-87226803D02*
X147324999Y-88340001D01*
D106*
X146760000Y-127580000D02*
X146570000Y-127390000D01*
X146760000Y-128800000D02*
X147020000Y-128540000D01*
X146760000Y-129620000D02*
X146760000Y-128800000D01*
D108*
X147900000Y-85600000D02*
X147900000Y-85950000D01*
D106*
X146570000Y-126150000D02*
X146570000Y-125540000D01*
D108*
X147900000Y-85950000D02*
X147925000Y-85975000D01*
D106*
X147020000Y-128540000D02*
X147510000Y-128540000D01*
D108*
X147324999Y-116949999D02*
X147125000Y-116750000D01*
X147925000Y-85975000D02*
X147925000Y-86626802D01*
X147310000Y-120260000D02*
X146800000Y-119750000D01*
D106*
X146570000Y-127390000D02*
X146570000Y-126150000D01*
X146570000Y-125540000D02*
X147110000Y-125000000D01*
D108*
X147324999Y-88340001D02*
X147125000Y-88540000D01*
D106*
X147510000Y-128540000D02*
X147760000Y-128790000D01*
D108*
X146800000Y-119750000D02*
X146800000Y-119400000D01*
D106*
%TO.N,/Project Architecture/External Connectors/CC2*%
X154520000Y-123032500D02*
X154520000Y-123900000D01*
X149260000Y-127860000D02*
X149800000Y-127320000D01*
X149260000Y-129620000D02*
X149260000Y-127860000D01*
X149800000Y-122020000D02*
X149800000Y-121890000D01*
X154520000Y-123900000D02*
X154790000Y-124170000D01*
X154520000Y-122370000D02*
X154170000Y-122020000D01*
X154520000Y-123032500D02*
X154520000Y-122370000D01*
X154790000Y-124170000D02*
X155690000Y-124170000D01*
X154170000Y-122020000D02*
X149800000Y-122020000D01*
X156120000Y-127260000D02*
X155520000Y-127860000D01*
X149800000Y-121890000D02*
X149800000Y-119400000D01*
X149800000Y-127320000D02*
X149800000Y-122020000D01*
X153650000Y-128220000D02*
X153650000Y-128600000D01*
X155690000Y-124170000D02*
X156120000Y-124600000D01*
X156120000Y-124600000D02*
X156120000Y-127260000D01*
X155520000Y-127860000D02*
X154010000Y-127860000D01*
X154010000Y-127860000D02*
X153650000Y-128220000D01*
%TO.N,/Project Architecture/External Connectors/CC1*%
X146260000Y-127970000D02*
X145300000Y-127010000D01*
X146260000Y-129620000D02*
X146260000Y-127970000D01*
X145300000Y-127010000D02*
X145300000Y-119400000D01*
%TO.N,/Project Architecture/External Connectors/GPIO41G*%
X167290000Y-119450000D02*
X167060000Y-119680000D01*
X167060000Y-119680000D02*
X167060000Y-125220000D01*
X168650000Y-119450000D02*
X167290000Y-119450000D01*
%TO.N,/Project Architecture/External Connectors/GPIO42R*%
X169600000Y-121900000D02*
X169600000Y-125220000D01*
X168650000Y-120950000D02*
X169600000Y-121900000D01*
%TO.N,/Project Architecture/External Connectors/GPIO40B*%
X170940000Y-126420000D02*
X169600000Y-127760000D01*
X168650000Y-118080000D02*
X168570000Y-118160000D01*
X168650000Y-117950000D02*
X170940000Y-120240000D01*
X170940000Y-120240000D02*
X170940000Y-126420000D01*
%TO.N,/Project Architecture/External Connectors/GPIO16*%
X131950000Y-63520000D02*
X131950000Y-61430000D01*
X130620000Y-64850000D02*
X131950000Y-63520000D01*
X131950000Y-61430000D02*
X133000000Y-60380000D01*
X133000000Y-60380000D02*
X133480000Y-60380000D01*
%TO.N,KEY_PWR*%
X169190000Y-96950000D02*
X169210000Y-96970000D01*
X169190000Y-94600000D02*
X169190000Y-96310000D01*
X169210000Y-97100000D02*
X170800000Y-98690000D01*
X169190000Y-92800000D02*
X169190000Y-94600000D01*
X169950000Y-114950000D02*
X168650000Y-114950000D01*
X169190000Y-96310000D02*
X169190000Y-96610000D01*
X170740000Y-114160000D02*
X169950000Y-114950000D01*
X169190000Y-96310000D02*
X169190000Y-96950000D01*
X170740000Y-98750000D02*
X170740000Y-114160000D01*
X169190000Y-96610000D02*
X169500000Y-96920000D01*
X170800000Y-98690000D02*
X170740000Y-98750000D01*
X166905000Y-94600000D02*
X169190000Y-94600000D01*
X169210000Y-96970000D02*
X169210000Y-97100000D01*
%TO.N,/Project Architecture/MCU/PWR_KEY*%
X164300000Y-99937500D02*
X164300000Y-102237500D01*
X164300000Y-102237500D02*
X164275000Y-102262500D01*
%TD*%
%TA.AperFunction,Conductor*%
%TO.N,Net-(D2-A)*%
G36*
X131043039Y-91819685D02*
G01*
X131088794Y-91872489D01*
X131100000Y-91924000D01*
X131100000Y-97376000D01*
X131080315Y-97443039D01*
X131027511Y-97488794D01*
X130976000Y-97500000D01*
X126424000Y-97500000D01*
X126356961Y-97480315D01*
X126311206Y-97427511D01*
X126300000Y-97376000D01*
X126300000Y-95024000D01*
X126319685Y-94956961D01*
X126372489Y-94911206D01*
X126424000Y-94900000D01*
X127900000Y-94900000D01*
X127900000Y-91924000D01*
X127919685Y-91856961D01*
X127972489Y-91811206D01*
X128024000Y-91800000D01*
X130976000Y-91800000D01*
X131043039Y-91819685D01*
G37*
%TD.AperFunction*%
%TD*%
%TA.AperFunction,Conductor*%
%TO.N,Net-(D1-K)*%
G36*
X134143039Y-87819685D02*
G01*
X134188794Y-87872489D01*
X134200000Y-87924000D01*
X134200000Y-90400001D01*
X134899998Y-91799998D01*
X134899999Y-91799999D01*
X134900000Y-91800000D01*
X137876000Y-91800000D01*
X137943039Y-91819685D01*
X137988794Y-91872489D01*
X138000000Y-91924000D01*
X138000000Y-94276000D01*
X137980315Y-94343039D01*
X137927511Y-94388794D01*
X137876000Y-94400000D01*
X132124000Y-94400000D01*
X132056961Y-94380315D01*
X132011206Y-94327511D01*
X132000000Y-94276000D01*
X132000000Y-92100002D01*
X132000000Y-92100000D01*
X131300000Y-90600000D01*
X128324000Y-90600000D01*
X128256961Y-90580315D01*
X128211206Y-90527511D01*
X128200000Y-90476000D01*
X128200000Y-87924000D01*
X128219685Y-87856961D01*
X128272489Y-87811206D01*
X128324000Y-87800000D01*
X134076000Y-87800000D01*
X134143039Y-87819685D01*
G37*
%TD.AperFunction*%
%TD*%
%TA.AperFunction,Conductor*%
%TO.N,VBUS*%
G36*
X145390000Y-130170000D02*
G01*
X145390237Y-130174751D01*
X145390237Y-130174753D01*
X145399059Y-130351203D01*
X145399060Y-130351206D01*
X145400000Y-130370000D01*
X145512000Y-130490000D01*
X145735998Y-130729999D01*
X145736000Y-130730000D01*
X149381561Y-130730000D01*
X149381562Y-130730000D01*
X149630000Y-130200000D01*
X149630000Y-129194000D01*
X149649685Y-129126961D01*
X149702489Y-129081206D01*
X149754000Y-129070000D01*
X150066000Y-129070000D01*
X150133039Y-129089685D01*
X150178794Y-129142489D01*
X150190000Y-129194000D01*
X150190000Y-130051635D01*
X150170315Y-130118674D01*
X150128000Y-130159022D01*
X150028831Y-130216277D01*
X150028826Y-130216281D01*
X149916281Y-130328826D01*
X149916277Y-130328831D01*
X149836697Y-130466669D01*
X149836696Y-130466670D01*
X149830445Y-130490000D01*
X149795500Y-130620416D01*
X149795500Y-130779584D01*
X149819238Y-130868174D01*
X149835775Y-130929890D01*
X149840000Y-130961984D01*
X149840000Y-131002623D01*
X149820315Y-131069662D01*
X149808410Y-131085305D01*
X149706968Y-131198682D01*
X149647597Y-131235517D01*
X149614558Y-131240000D01*
X145497769Y-131240000D01*
X145430730Y-131220315D01*
X145414576Y-131207950D01*
X145404332Y-131198682D01*
X145337123Y-131137873D01*
X145272579Y-131079476D01*
X145259804Y-131058629D01*
X145243578Y-131040333D01*
X145238571Y-131023978D01*
X145236073Y-131019902D01*
X145233248Y-131006594D01*
X145211716Y-130868174D01*
X145214467Y-130817024D01*
X145224500Y-130779584D01*
X145224500Y-130620416D01*
X145183304Y-130466672D01*
X145116640Y-130351206D01*
X145103724Y-130328834D01*
X145103718Y-130328826D01*
X144991173Y-130216281D01*
X144991168Y-130216277D01*
X144862000Y-130141702D01*
X144828246Y-130106303D01*
X144800000Y-129080000D01*
X144830000Y-129070000D01*
X145390000Y-129070000D01*
X145390000Y-130170000D01*
G37*
%TD.AperFunction*%
%TD*%
%TA.AperFunction,Conductor*%
%TO.N,VBUS*%
G36*
X141993039Y-113619685D02*
G01*
X142038794Y-113672489D01*
X142050000Y-113724000D01*
X142050000Y-116250001D01*
X142049999Y-116250001D01*
X143726218Y-118059484D01*
X144316967Y-118697201D01*
X144348085Y-118759757D01*
X144350000Y-118781467D01*
X144350000Y-126954530D01*
X145357050Y-127824255D01*
X145394920Y-127882969D01*
X145400000Y-127918099D01*
X145400000Y-130141507D01*
X145399990Y-130143090D01*
X145399264Y-130200000D01*
X145391500Y-130200000D01*
X145390000Y-130170000D01*
X145390000Y-129070000D01*
X144830000Y-129070000D01*
X144800000Y-129080000D01*
X144828246Y-130106303D01*
X144813784Y-130091135D01*
X144800000Y-130034315D01*
X144800000Y-128649999D01*
X143092345Y-127155801D01*
X143054855Y-127096842D01*
X143050000Y-127062482D01*
X143050000Y-120136957D01*
X143049999Y-120136956D01*
X140440001Y-117300000D01*
X140440000Y-117300000D01*
X137524658Y-117300000D01*
X137457619Y-117280315D01*
X137438954Y-117265615D01*
X136388296Y-116260802D01*
X136353452Y-116200240D01*
X136350000Y-116171187D01*
X136350000Y-114524000D01*
X136369685Y-114456961D01*
X136422489Y-114411206D01*
X136474000Y-114400000D01*
X138020500Y-114400000D01*
X138087539Y-114419685D01*
X138133294Y-114472489D01*
X138144500Y-114524000D01*
X138144500Y-115464747D01*
X138147617Y-115480416D01*
X138150000Y-115504610D01*
X138150000Y-115700000D01*
X139600000Y-115700000D01*
X139600000Y-114824000D01*
X139619685Y-114756961D01*
X139672489Y-114711206D01*
X139724000Y-114700000D01*
X140800000Y-114700000D01*
X140800000Y-113724000D01*
X140819685Y-113656961D01*
X140872489Y-113611206D01*
X140924000Y-113600000D01*
X141926000Y-113600000D01*
X141993039Y-113619685D01*
G37*
%TD.AperFunction*%
%TD*%
%TA.AperFunction,Conductor*%
%TO.N,3V3_MCU*%
G36*
X160429495Y-90219685D02*
G01*
X160431239Y-90220826D01*
X160644784Y-90363189D01*
X160689644Y-90416753D01*
X160700000Y-90466362D01*
X160700000Y-95562456D01*
X160680315Y-95629495D01*
X160679174Y-95631239D01*
X160536811Y-95844783D01*
X160483246Y-95889644D01*
X160433637Y-95900000D01*
X158901370Y-95900000D01*
X158834331Y-95880315D01*
X158793983Y-95838000D01*
X158750502Y-95762689D01*
X158750497Y-95762683D01*
X158657316Y-95669502D01*
X158657314Y-95669500D01*
X158543186Y-95603608D01*
X158543185Y-95603607D01*
X158539517Y-95601490D01*
X158509353Y-95577059D01*
X157931830Y-94935367D01*
X157901616Y-94872369D01*
X157900000Y-94852416D01*
X157900000Y-90451362D01*
X157908644Y-90421921D01*
X157915168Y-90391935D01*
X157918922Y-90386919D01*
X157919685Y-90384323D01*
X157936319Y-90363681D01*
X158063681Y-90236319D01*
X158125004Y-90202834D01*
X158151362Y-90200000D01*
X160362456Y-90200000D01*
X160429495Y-90219685D01*
G37*
%TD.AperFunction*%
%TD*%
%TA.AperFunction,Conductor*%
%TO.N,V_CHRG*%
G36*
X129743039Y-100619685D02*
G01*
X129788794Y-100672489D01*
X129800000Y-100724000D01*
X129800000Y-102968750D01*
X132846251Y-105063047D01*
X132890341Y-105117246D01*
X132900000Y-105165227D01*
X132900000Y-109100000D01*
X133955556Y-111000000D01*
X138699999Y-111000000D01*
X138700000Y-111000000D01*
X140566212Y-109526675D01*
X140631028Y-109500584D01*
X140643048Y-109500000D01*
X150976000Y-109500000D01*
X151043039Y-109519685D01*
X151088794Y-109572489D01*
X151100000Y-109624000D01*
X151100000Y-111552243D01*
X151080315Y-111619282D01*
X151027511Y-111665037D01*
X150958353Y-111674981D01*
X150951810Y-111673861D01*
X150904748Y-111664500D01*
X149875252Y-111664500D01*
X149875247Y-111664500D01*
X149816770Y-111676131D01*
X149816766Y-111676133D01*
X149812324Y-111679102D01*
X149745647Y-111699980D01*
X149743434Y-111700000D01*
X149700000Y-111700000D01*
X149700000Y-111805389D01*
X149697617Y-111829581D01*
X149694500Y-111845252D01*
X149694500Y-112294748D01*
X149696845Y-112306538D01*
X149697617Y-112310416D01*
X149700000Y-112334610D01*
X149700000Y-113776000D01*
X149680315Y-113843039D01*
X149627511Y-113888794D01*
X149576000Y-113900000D01*
X147624000Y-113900000D01*
X147556961Y-113880315D01*
X147511206Y-113827511D01*
X147500000Y-113776000D01*
X147500000Y-112799999D01*
X146560203Y-112236121D01*
X146512844Y-112184750D01*
X146500000Y-112129792D01*
X146500000Y-111300000D01*
X142000000Y-111300000D01*
X142000000Y-112276000D01*
X141980315Y-112343039D01*
X141927511Y-112388794D01*
X141876000Y-112400000D01*
X140500000Y-112400000D01*
X138835156Y-113868980D01*
X138771864Y-113898574D01*
X138753115Y-113900000D01*
X133900000Y-113900000D01*
X133900000Y-117576000D01*
X133880315Y-117643039D01*
X133827511Y-117688794D01*
X133776000Y-117700000D01*
X128224000Y-117700000D01*
X128156961Y-117680315D01*
X128111206Y-117627511D01*
X128100000Y-117576000D01*
X128100000Y-115824000D01*
X128119685Y-115756961D01*
X128172489Y-115711206D01*
X128224000Y-115700000D01*
X130400000Y-115700000D01*
X130400000Y-111100000D01*
X130399999Y-111099999D01*
X129315349Y-109127907D01*
X129300000Y-109068149D01*
X129300000Y-105800012D01*
X126451926Y-103765674D01*
X126408816Y-103710690D01*
X126400000Y-103664771D01*
X126400000Y-100724000D01*
X126419685Y-100656961D01*
X126472489Y-100611206D01*
X126524000Y-100600000D01*
X129676000Y-100600000D01*
X129743039Y-100619685D01*
G37*
%TD.AperFunction*%
%TD*%
%TA.AperFunction,Conductor*%
%TO.N,V_MAIN*%
G36*
X156943039Y-98220185D02*
G01*
X156988794Y-98272989D01*
X157000000Y-98324500D01*
X157000000Y-99000000D01*
X157360403Y-99411889D01*
X157669320Y-99764938D01*
X157698651Y-99828352D01*
X157700000Y-99846592D01*
X157700000Y-106858666D01*
X157680315Y-106925705D01*
X157675200Y-106933066D01*
X157437200Y-107250400D01*
X157381229Y-107292221D01*
X157338000Y-107300000D01*
X154699999Y-107300000D01*
X154400000Y-107599999D01*
X154400000Y-112248638D01*
X154391355Y-112278078D01*
X154384832Y-112308065D01*
X154381077Y-112313080D01*
X154380315Y-112315677D01*
X154363681Y-112336319D01*
X154236319Y-112463681D01*
X154174996Y-112497166D01*
X154148638Y-112500000D01*
X151651362Y-112500000D01*
X151584323Y-112480315D01*
X151563681Y-112463681D01*
X151436319Y-112336319D01*
X151402834Y-112274996D01*
X151400000Y-112248638D01*
X151400000Y-105651362D01*
X151419685Y-105584323D01*
X151436319Y-105563681D01*
X151663681Y-105336319D01*
X151725004Y-105302834D01*
X151751362Y-105300000D01*
X153566667Y-105300000D01*
X153566668Y-105300000D01*
X154500000Y-104600000D01*
X154500000Y-101724000D01*
X154519685Y-101656961D01*
X154572489Y-101611206D01*
X154624000Y-101600000D01*
X156100000Y-101600000D01*
X156100000Y-98324500D01*
X156119685Y-98257461D01*
X156172489Y-98211706D01*
X156224000Y-98200500D01*
X156876000Y-98200500D01*
X156943039Y-98220185D01*
G37*
%TD.AperFunction*%
%TD*%
%TA.AperFunction,Conductor*%
%TO.N,VSUN*%
G36*
X129907539Y-118819685D02*
G01*
X129953294Y-118872489D01*
X129964500Y-118924000D01*
X129964500Y-119837252D01*
X129976131Y-119895729D01*
X129976132Y-119895731D01*
X129979100Y-119900172D01*
X129999980Y-119966849D01*
X130000000Y-119969066D01*
X130000000Y-120100000D01*
X131500000Y-120100000D01*
X131500000Y-119124000D01*
X131519685Y-119056961D01*
X131572489Y-119011206D01*
X131624000Y-119000000D01*
X133676000Y-119000000D01*
X133743039Y-119019685D01*
X133788794Y-119072489D01*
X133800000Y-119124000D01*
X133800000Y-121175999D01*
X133780315Y-121243038D01*
X133727511Y-121288793D01*
X133676000Y-121299999D01*
X130300000Y-121299999D01*
X128100000Y-124500000D01*
X128100000Y-133376000D01*
X128080315Y-133443039D01*
X128027511Y-133488794D01*
X127976000Y-133500000D01*
X125224000Y-133500000D01*
X125156961Y-133480315D01*
X125111206Y-133427511D01*
X125100000Y-133376000D01*
X125100000Y-124538577D01*
X125119685Y-124471538D01*
X125121885Y-124468231D01*
X127304444Y-121300000D01*
X128200000Y-120000000D01*
X128200000Y-118924000D01*
X128219685Y-118856961D01*
X128272489Y-118811206D01*
X128324000Y-118800000D01*
X129840500Y-118800000D01*
X129907539Y-118819685D01*
G37*
%TD.AperFunction*%
%TD*%
%TA.AperFunction,Conductor*%
%TO.N,Net-(U11-CSP)*%
G36*
X143843039Y-94119685D02*
G01*
X143888794Y-94172489D01*
X143900000Y-94224000D01*
X143900000Y-96376000D01*
X143880315Y-96443039D01*
X143827511Y-96488794D01*
X143776000Y-96500000D01*
X140499999Y-96500000D01*
X137500000Y-99499999D01*
X137500000Y-102776000D01*
X137480315Y-102843039D01*
X137427511Y-102888794D01*
X137376000Y-102900000D01*
X136824000Y-102900000D01*
X136756961Y-102880315D01*
X136711206Y-102827511D01*
X136700000Y-102776000D01*
X136700000Y-99459999D01*
X134933334Y-98400000D01*
X132024000Y-98400000D01*
X131956961Y-98380315D01*
X131911206Y-98327511D01*
X131900000Y-98276000D01*
X131900000Y-96324000D01*
X131919685Y-96256961D01*
X131972489Y-96211206D01*
X132024000Y-96200000D01*
X137887502Y-96200000D01*
X140039015Y-94134547D01*
X140101008Y-94102321D01*
X140124888Y-94100000D01*
X143776000Y-94100000D01*
X143843039Y-94119685D01*
G37*
%TD.AperFunction*%
%TD*%
%TA.AperFunction,Conductor*%
%TO.N,V_BAT*%
G36*
X134673039Y-80019685D02*
G01*
X134718794Y-80072489D01*
X134730000Y-80124000D01*
X134730000Y-80864806D01*
X135233054Y-81100000D01*
X136454565Y-81100000D01*
X136521604Y-81119685D01*
X136534676Y-81129351D01*
X140966039Y-84880315D01*
X147306114Y-90246922D01*
X147344565Y-90305260D01*
X147350000Y-90341568D01*
X147350000Y-100373467D01*
X149786546Y-101736724D01*
X149835439Y-101786637D01*
X149850000Y-101844938D01*
X149850000Y-105500000D01*
X150876000Y-105500000D01*
X150943039Y-105519685D01*
X150988794Y-105572489D01*
X151000000Y-105624000D01*
X151000000Y-107240500D01*
X150980315Y-107307539D01*
X150927511Y-107353294D01*
X150876000Y-107364500D01*
X150024000Y-107364500D01*
X149956961Y-107344815D01*
X149911206Y-107292011D01*
X149900000Y-107240500D01*
X149900000Y-107200000D01*
X149600000Y-106950000D01*
X149599998Y-106950000D01*
X147324000Y-106950000D01*
X147256961Y-106930315D01*
X147211206Y-106877511D01*
X147200000Y-106826000D01*
X147200000Y-104599999D01*
X146819046Y-104314285D01*
X146533333Y-104100000D01*
X146533332Y-104100000D01*
X141993869Y-104100000D01*
X141926830Y-104080315D01*
X141922745Y-104077575D01*
X141920407Y-104075938D01*
X141920404Y-104075935D01*
X141813173Y-104025932D01*
X141813171Y-104025931D01*
X141813172Y-104025931D01*
X141764317Y-104019500D01*
X141764316Y-104019500D01*
X141415684Y-104019500D01*
X141415683Y-104019500D01*
X141366829Y-104025931D01*
X141358700Y-104028301D01*
X141288830Y-104028163D01*
X141230127Y-103990273D01*
X141201228Y-103926660D01*
X141200000Y-103909255D01*
X141200000Y-102600000D01*
X140224000Y-102600000D01*
X140156961Y-102580315D01*
X140111206Y-102527511D01*
X140100000Y-102476000D01*
X140100000Y-100324000D01*
X140119685Y-100256961D01*
X140172489Y-100211206D01*
X140224000Y-100200000D01*
X143800000Y-100200000D01*
X144600000Y-99200000D01*
X144600000Y-93077420D01*
X143350115Y-92150086D01*
X143308005Y-92094332D01*
X143300000Y-92050502D01*
X143300000Y-91167743D01*
X143300000Y-91167742D01*
X135826924Y-84900000D01*
X135826923Y-84900000D01*
X127324000Y-84900000D01*
X127256961Y-84880315D01*
X127211206Y-84827511D01*
X127200000Y-84776000D01*
X127200000Y-80924000D01*
X127219685Y-80856961D01*
X127272489Y-80811206D01*
X127324000Y-80800000D01*
X132850000Y-80800000D01*
X133583415Y-80038010D01*
X133644087Y-80003359D01*
X133672755Y-80000000D01*
X134606000Y-80000000D01*
X134673039Y-80019685D01*
G37*
%TD.AperFunction*%
%TD*%
%TA.AperFunction,Conductor*%
%TO.N,Net-(U12-Pad1)*%
G36*
X156815677Y-90219685D02*
G01*
X156836319Y-90236319D01*
X156963681Y-90363681D01*
X156997166Y-90425004D01*
X157000000Y-90451362D01*
X157000000Y-96075500D01*
X156980315Y-96142539D01*
X156927511Y-96188294D01*
X156876000Y-96199500D01*
X155774500Y-96199500D01*
X155707461Y-96179815D01*
X155661706Y-96127011D01*
X155650500Y-96075500D01*
X155650500Y-95495173D01*
X155650500Y-95495172D01*
X155627295Y-95408572D01*
X155616612Y-95390068D01*
X155600000Y-95328070D01*
X155600000Y-90451362D01*
X155608644Y-90421921D01*
X155615168Y-90391935D01*
X155618922Y-90386919D01*
X155619685Y-90384323D01*
X155636319Y-90363681D01*
X155763681Y-90236319D01*
X155825004Y-90202834D01*
X155851362Y-90200000D01*
X156748638Y-90200000D01*
X156815677Y-90219685D01*
G37*
%TD.AperFunction*%
%TD*%
M02*
