M48
; DRILL file {KiCad 9.0.7+1} date 2026-02-25T05:11:12+0000
; FORMAT={-:-/ absolute / metric / decimal}
; #@! TF.CreationDate,2026-02-25T05:11:12+00:00
; #@! TF.GenerationSoftware,Kicad,Pcbnew,9.0.7+1
; #@! TF.FileFunction,Plated,1,4,PTH
FMAT,2
METRIC
; #@! TA.AperFunction,Plated,PTH,ComponentDrill
T1C0.600
; #@! TA.AperFunction,Plated,PTH,ComponentDrill
T2C0.700
; #@! TA.AperFunction,Plated,PTH,ComponentDrill
T3C0.730
; #@! TA.AperFunction,Plated,PTH,ComponentDrill
T4C0.750
; #@! TA.AperFunction,Plated,PTH,ComponentDrill
T5C1.000
; #@! TA.AperFunction,Plated,PTH,ComponentDrill
T6C1.800
; #@! TA.AperFunction,Plated,PTH,ComponentDrill
T7C2.000
%
G90
G05
T2
X144.62Y-130.7
X150.4Y-130.7
T3
X143.8Y-119.4
X145.3Y-119.4
X146.8Y-119.4
X148.3Y-119.4
X149.8Y-119.4
X151.3Y-119.4
X168.65Y-113.45
X168.65Y-114.95
X168.65Y-116.45
X168.65Y-117.95
X168.65Y-119.45
X168.65Y-120.95
T4
X157.54Y-134.78
X159.04Y-134.78
X160.54Y-134.78
X162.04Y-134.78
X168.55Y-104.75
X168.55Y-106.25
X168.55Y-107.75
X168.55Y-109.25
T5
X126.36Y-60.12
X126.36Y-62.66
X126.36Y-65.2
X126.36Y-67.74
X126.36Y-70.28
X128.9Y-60.12
X128.9Y-62.66
X128.9Y-65.2
X128.9Y-67.74
X128.9Y-70.28
X167.06Y-125.22
X167.06Y-127.76
X167.06Y-130.3
X167.06Y-132.84
X167.06Y-135.38
X169.6Y-125.22
X169.6Y-127.76
X169.6Y-130.3
X169.6Y-132.84
X169.6Y-135.38
T6
X132.08Y-131.99
T7
X132.08Y-127.49
T1
G00X143.19Y-129.72
M15
G01X143.19Y-130.62
M16
G05
G00X143.19Y-134.08
M15
G01X143.19Y-134.68
M16
G05
G00X151.83Y-129.72
M15
G01X151.83Y-130.62
M16
G05
G00X151.83Y-134.08
M15
G01X151.83Y-134.68
M16
G05
M30
