M48
; DRILL file {KiCad 9.0.7+1} date 2026-02-24T06:22:12+0000
; FORMAT={-:-/ absolute / metric / decimal}
; #@! TF.CreationDate,2026-02-24T06:22:12+00:00
; #@! TF.GenerationSoftware,Kicad,Pcbnew,9.0.7+1
; #@! TF.FileFunction,Plated,1,6,PTH
FMAT,2
METRIC
; #@! TA.AperFunction,Plated,PTH,ComponentDrill
T1C0.600
; #@! TA.AperFunction,Plated,PTH,ComponentDrill
T2C0.700
; #@! TA.AperFunction,Plated,PTH,ComponentDrill
T3C0.730
; #@! TA.AperFunction,Plated,PTH,ComponentDrill
T4C0.750
; #@! TA.AperFunction,Plated,PTH,ComponentDrill
T5C1.000
; #@! TA.AperFunction,Plated,PTH,ComponentDrill
T6C1.800
; #@! TA.AperFunction,Plated,PTH,ComponentDrill
T7C2.000
%
G90
G05
T2
X143.1Y-130.817
X148.88Y-130.817
T3
X168.73Y-113.29
X168.73Y-114.79
X168.73Y-116.29
X168.73Y-117.79
X168.73Y-119.29
X168.73Y-120.79
T4
X155.377Y-134.79
X156.877Y-134.79
X158.377Y-134.79
X159.877Y-134.79
T5
X126.315Y-60.855
X126.315Y-63.395
X126.315Y-65.935
X126.315Y-68.475
X126.315Y-71.015
X128.855Y-60.855
X128.855Y-63.395
X128.855Y-65.935
X128.855Y-68.475
X128.855Y-71.015
X167.04Y-125.22
X167.04Y-127.76
X167.04Y-130.3
X167.04Y-132.84
X167.04Y-135.38
X169.58Y-125.22
X169.58Y-127.76
X169.58Y-130.3
X169.58Y-132.84
X169.58Y-135.38
T6
X132.08Y-131.99
T7
X132.08Y-127.49
T1
G00X141.67Y-129.838
M15
G01X141.67Y-130.737
M16
G05
G00X141.67Y-134.198
M15
G01X141.67Y-134.797
M16
G05
G00X150.31Y-129.837
M15
G01X150.31Y-130.738
M16
G05
G00X150.31Y-134.198
M15
G01X150.31Y-134.797
M16
G05
M30
